<!-- <?xml version="1.0" encoding="utf-8"?>
<svg xmlns="http://www.w3.org/2000/svg" x="0px" y="0px"	width="250px" height="250px">
<rect fill="#00A0DF" width="250" height="250"/>
<path fill="#FFFFFF" d="M217.2,113.3c0,6-7.3,11.4-13,11.4c-3.8,0-7.1-2.7-7.1-4.3c0-1,0.3-3.9,1.7-3.9c1,0,1.9,0.8,2.9,1.7
	c1.4,1.3,3.1,2.8,5.6,2.8c2.5,0,5.1-1.7,5.1-4.5c0-1.7-1.3-3.3-2.7-5.2c-1.8-2.3-3.9-5-3.9-8.4c0-6.2,6.2-14.2,13.2-14.2
	c3.1,0,4.9,1.8,4.9,3.5c0,1.4-1.5,3.2-3.2,3.2c-1.3,0-2.3-0.5-3.3-0.9c-1-0.4-2-0.9-3.2-0.9c-2.4,0-4,1.8-4,4.6
	c0,2.1,1.5,4.1,3.1,6.2C215.1,107,217.2,109.9,217.2,113.3 M64.7,69.3c-0.1,0-0.3,0.2-0.3,0.3v1.7c0,0.1,0.1,0.2,0.2,0.3
	c0,0,1,0.1,1,0.1l1.3,0.1c1.7,0.3,2.1,0.6,2.1,1.4c0,1.4-1.6,5.9-3.8,12.1l-2,5.6c-1.7,5-4.4,11.9-6.7,18c-2.8,7.3-5,13-5,13.8
	c0,0.9,0.5,1.2,2.6,1.2c2.3,0,3.3-0.4,3.5-1.2c3.9-12.9,14.7-27.6,20.3-27.6c1.8,0,2.4,0.6,2.4,2.4c0,2.9-2.4,8.3-4.8,13.5
	c-2.1,4.6-4,8.9-4,11c0,1.9,0.9,2.9,2.5,2.9c5.5,0,9.7-5,13.1-9l0.5-0.6c0,0,0.1-0.2,0.1-0.2l-0.1-0.2c0,0-1.1-1.4-1.1-1.4
	c0,0-0.1-0.1-0.2-0.1c-0.1,0-0.2,0-0.2,0.1c-1.9,2-5.1,5-6,5.1c-0.3,0-0.4,0-0.5-0.1c-0.1-0.1-0.1-0.4-0.1-0.9
	c0.1-0.4,0.6-1.8,1.5-3.8c2.1-5.1,5.6-13.5,5.6-18.6c0-4-1.9-6.3-5.3-6.3c-6.8,0-12.2,7.7-14.8,11.4c-0.6,0.9-1.2,1.7-1.3,1.7
	c0,0-0.1,0-0.1,0c-0.1-0.2,0.3-1,1-2.6c0.7-1.7,1.8-4.3,3.4-8.2c5.1-13.2,7.2-20.3,7.2-20.9c0-0.8-0.7-0.9-1.5-0.9H64.7z
	 M49.8,116.6c0-0.1,0-0.2,0-0.3c0,0-1.2-1.2-1.2-1.2c0-0.1-0.1-0.1-0.2-0.1c-0.1,0-0.1,0-0.2,0.1c0,0-0.1,0.1-0.1,0.1
	c-2.1,1.9-6.2,5.2-9.8,5.5c-1.4,0.1-2.7-0.3-3.7-1.2c-1.2-1.1-1.9-2.7-2-4.8c-0.2-5.5,4.4-13.7,9-18.6c2.5-2.6,4.8-4,6.4-4
	c1.9,0,3.1,1.4,4.3,2.8c1,1.2,2,2.4,3.4,2.4c0.5,0,1.1-0.3,1.6-0.7c0.5-0.5,0.7-1.2,0.7-1.9C58,92.4,56,89,51.1,88.9
	c-5.6-0.1-12.5,3.3-17.7,8.6c-4.9,5.1-7.5,11.1-7.2,17c0.2,4.9,2.9,10.2,9.7,10.2C42.8,124.7,48.8,118.5,49.8,116.6 M139.8,104
	c-0.1,0.3-0.5,1.1-0.6,1c0,0-0.1,0-0.1,0c0,0,0-0.3,0-0.3c0-0.3,0.4-1.8,0.8-3.6c0.8-3.4,1.9-8.1,1.9-9.5c0-1.8-1-2.7-2.7-2.7
	c-3.7,0-9.3,6.1-11.2,9.3c0,0-0.1,0.1-0.1,0.1c0,0,0,0,0,0c0,0.1,0,0.1,0.1,0.2l1.1,1.1c0,0.1,0.1,0.1,0.2,0.1
	c0.1,0,0.2-0.1,0.2-0.1c0,0,0.3-0.4,0.3-0.4c0,0,0.3-0.4,0.3-0.4c1.2-1.6,3.8-4.8,5.2-4.8c0.7,0,1.1,0.7,1.1,2
	c0,3.3-3.6,13.2-6,19.8c-1.3,3.7-2.3,6.4-2.3,6.9c0,0.7,0.3,1,0.9,1h3.1c0.6,0,0.9-0.4,1.3-1.4c0,0,1.5-3.6,2.4-5.4
	c6.1-12.5,9.5-18.9,12.1-21.4c1.7-1.7,2.9-2.4,3.8-2.4c0.7,0,1.1,0.6,1.6,1.1c0.5,0.6,1,1.2,1.9,1.3c0.6,0,1.2-0.2,1.7-0.6
	c0.8-0.7,1.2-2,1.2-3.3c0-2.3-1.6-3.1-3-3.1C149.5,88.8,145.4,93,139.8,104 M120.6,88.2c0.2-0.1,0.5,0,0.8,0.2c0,0,0.1,0,0.1,0.1
	l2.1,1.4h0c0.5,0.2,0.5,0.8,0.5,0.9c-0.1,0.7-1.7,5.1-3.7,10.2c-2.6,6.9-5.9,15.5-6,17.1c0,0.6,0,0.9,0.2,1c0.1,0.1,0.3,0.2,0.6,0.2
	c1.2,0,3.2-2.5,4.8-4.4l1.2-1.5c0.1-0.1,0.3-0.1,0.4,0l1.2,1.4l0.1,0.2c0,0-0.1,0.2-0.1,0.1c-1.7,2.6-6.4,9.5-11.8,9.6
	c-1,0-1.7-0.2-2.2-0.8c-0.6-0.6-0.9-1.5-0.9-2.8c0-2.6,1.3-5.5,2-7l0.4-1c0.1-0.2,0.1-0.3,0-0.4c0,0-0.1,0-0.1,0
	c-0.2,0-1.4,2.1-1.4,2.1c-5.7,8.7-10.2,9.8-13.5,9.8c-2.7,0-5.3-2.2-5.3-7.1c0-7.2,8.1-28,23.6-28c1.4,0,2.4,0.2,3.2,0.4
	c0.6,0.1,1.1,0.2,1.6,0.2c0.6,0,0.9-0.5,1.2-1C119.8,88.8,120.1,88.4,120.6,88.2 M96,115.9c0,2.9,0.8,3.4,2.3,3.4
	c6.8,0,17.8-19.2,17.8-23.3c0-2.7-1.5-4.2-4.1-4.2C104,91.8,96,105.8,96,115.9 M170.9,114.9c0-12.6,14.1-26,24-26
	c4.7,0,7.2,2.9,7.2,5.6c0,6.6-10.8,9.4-16.6,9.4l-3.3-0.1c0,0-0.5,0-0.6,0c0,0.1-0.2,0.3-0.2,0.3c-1.6,2.4-3.7,5.7-3.7,10.1
	c0,3.6,2.2,5.9,5.7,5.9c2.9,0,6.8-2.9,8.9-4.5l0.9-0.6c0.1-0.1,0.3-0.1,0.4,0l1,1.3l0,0c0.1,0.1,0.1,0.2,0,0.3
	c-1.6,2.1-8.3,8.1-14.6,8.1C174.7,124.7,170.9,120.7,170.9,114.9 M193.8,91.1c-4.3,0-8.9,7-10.5,9.9c8.6-0.1,13.5-2.7,13.5-6.9
	C196.8,92.4,195.5,91.1,193.8,91.1 M168,115.3c0.1-0.1,0-0.3,0-0.3c0-0.1-1.2-1.5-1.2-1.5c-0.1-0.1-0.1-0.1-0.2-0.1
	c-0.1,0-0.2,0-0.2,0.1l-0.4,0.4c-3,3.3-4.7,5.2-6.1,5.2c-0.2,0-0.4,0-0.6-0.2c-0.2-0.2-0.3-0.6-0.3-1c0.1-1.9,3.1-10.6,9.2-26.6
	l4.4-11.5c2.3-6,3.5-9,3.5-9.4c0-0.3-0.1-0.5-0.2-0.6c-0.2-0.2-0.6-0.3-1.2-0.3h-10.4c-0.2,0-0.3,0.1-0.3,0.3c0,0-0.1,1.7-0.1,1.7
	c0,0.1,0.1,0.3,0.2,0.3c0,0,2.3,0.2,2.3,0.2c1.5,0.3,2.1,0.7,2,1.7c-0.1,1.5-6.8,18.1-6.8,18.1c-3.6,9-9.7,24.5-9.8,28.2
	c-0.1,1.6,0.3,2.9,1.1,3.8c0.7,0.8,1.8,1.1,3.1,1.1c4.2,0,8.4-5.3,11.2-8.8L168,115.3L168,115.3z M26.2,146.6c0,4.9,3.9,7.5,7.6,9.5
	l1.6,0.8c3.8,1.9,5.3,3.8,5.3,6.7c0,3.3-2.1,5.7-5.2,5.7c-4.9,0-7.7-5.1-8.9-8.2l0-0.1l-1.7,0.6l0,0.1c0.5,3.1,1.1,6.5,1.5,7.8l0,0
	l0.8,0.3l2.2,0.8c1.5,0.5,3.3,0.9,5.1,0.9c6.9,0,11.6-4.2,11.6-10.3c0-5.7-4.4-8.3-7.6-9.8l-1.3-0.6c-4.2-1.9-5.9-3.8-5.9-6.4
	c0-2.6,1.6-5.2,5.1-5.2c4.1,0,5.7,3.2,6.7,6.4l0,0.1l1.8-0.3l0-0.1c-0.4-2.5-0.8-4.7-1-6.8l0-0.1l-1.2-0.4l-1-0.3
	c-1.3-0.5-3-0.7-4.6-0.7C30.7,136.9,26.2,140.9,26.2,146.6 M49.9,154.7c0,8.3,5.8,16.7,18.7,16.7c3.3,0,7.7-1,9.5-1.5
	c0.9-2,2.1-6.3,2.6-8.5l0-0.1l-1.6-0.3l0,0.1c-2.6,5.3-5.1,8.2-10.6,8.2c-7.1,0-11.9-6.4-11.9-15.8c0-6.6,3.1-14.3,11.9-14.3
	c5.2,0,8,2.2,9.4,7.4l0,0.1l1.6-0.2l-0.2-2.3l-0.7-5.9h-0.1l-0.9-0.2c-1.7-0.4-4.6-1.1-8.2-1.1C58,136.9,49.9,144.2,49.9,154.7
	 M118.5,137.6h-14.4v1.6l0.1,0c3.7,0.3,4.2,0.5,4.2,6.1v6.7H93.1v-6.7c0-5.5,0.5-5.8,4.1-6.1l0.1,0v-1.6H82.7v1.6l0.1,0
	c4.3,0.3,4.6,0.7,4.6,6.1V163c0,5.3-0.3,5.8-4.4,6.1l-0.1,0v1.6h14.6v-1.6l-0.1,0c-3.8-0.3-4.3-0.6-4.3-6.1v-8.5h15.2v8.5
	c0,5.4-0.3,5.8-4.6,6.1l-0.1,0v1.6h14.8v-1.6l-0.1,0c-3.8-0.3-4.3-0.5-4.3-6.1v-17.7c0-5.4,0.3-5.8,4.3-6.1l0.1,0L118.5,137.6
	L118.5,137.6z M169.2,137.6h-11.7v1.6l1.8,0.1c1,0.1,1.5,0.3,1.8,0.7c0.2,0.2,0.2,0.5,0.2,1c0,0.5-0.1,1.3-0.4,2.3
	c-0.1,0.5-2.9,11.4-5.1,18.8c-0.4-1-8.8-23.9-8.8-23.9l0-0.1H145c0,0-7.5,23.6-7.6,24c-0.3-1.1-5.9-19.6-5.9-19.6
	c-0.2-0.7-0.3-1.3-0.3-1.7c0-0.3,0.1-0.6,0.2-0.7c0.3-0.4,0.8-0.6,1.7-0.7c0,0,1.6-0.1,1.6-0.1v-0.1v-1.5h-13.8v1.6l0.1,0
	c2.7,0.3,3.5,0.6,4.9,4.9l8.3,27h2.4c0,0,7.8-23.3,7.8-23.6c0.4,1,8.6,23.5,8.6,23.5l0,0.1h2.4l0-0.1c4.7-15.6,8.5-26.6,8.5-26.7
	c1.7-4.6,2.1-4.8,5.2-5.1l0.1,0L169.2,137.6L169.2,137.6z M177.8,145.6c0,0.1-3.8,10.7-3.9,10.9h7.8
	C181.6,156.3,177.9,145.7,177.8,145.6L177.8,145.6z M190.6,164c1.7,4.6,2.5,4.8,5.3,5.1l0.1,0v1.6h-13.5v-1.6l1.5-0.2
	c0.9-0.1,1.4-0.3,1.6-0.6c0.1-0.1,0.1-0.3,0.1-0.5c0-0.4-0.1-0.8-0.3-1.5c-0.5-1.5-1.7-4.5-2.7-7.2h-9.3c-0.6,1.3-1.3,3.6-2,5.6
	l-0.3,0.8c-0.3,0.9-0.4,1.5-0.4,2c0,0.3,0.1,0.5,0.2,0.7c0.3,0.4,0.8,0.6,1.9,0.7l1.5,0.2v1.6h-11.4v-1.6l0.1,0
	c3.1-0.4,3.6-0.6,5.4-5.1l10.3-26.5l2.1-0.2l0.1,0l3.4,9.2L190.6,164z M208.1,152h1.9c4.5,0,7-2.2,7-6.2c0-5.6-4.8-6.1-6.3-6.1
	c-1.6,0-2.2,0.2-2.3,0.2c-0.4,0.2-0.4,1.1-0.4,2.2V152z M212.4,137.6c3.8,0,5.9,0.4,7.8,1.7c1.9,1.3,2.9,3.2,2.9,5.8
	c0,4.6-4.5,6.8-7,7.3c5.6,0.8,8.9,3.9,8.9,8.5c0,3.3-1.5,5.8-4.6,7.7c-2.2,1.3-5.7,2-9.7,2H198v-1.6l0.1,0c3.8-0.3,4.3-0.6,4.3-6.1
	v-17.7c0-5.5-0.4-5.8-4-6.1l-0.1,0v-1.6h0.1H212.4z M208.1,154v8.9c0,2.5,0.2,4.1,1,4.9c0.5,0.5,1.3,0.7,2.8,0.7
	c3.2,0,6.7-1.8,6.7-7c0-4.8-3.2-7.5-8.8-7.5H208.1z"/>
</svg> -->

<svg xmlns="http://www.w3.org/2000/svg" fill="white" viewBox="0 82 192.756 28"><g fill-rule="evenodd" clip-rule="evenodd"><path fill="#fff" fill-opacity="0" d="M0 0h192.756v192.756H0V0z"/><path d="M19.857 101.391v5.707c-1.808 1.5-4.817 2.633-7.211 2.508-5.648-.287-9.812-4.967-9.812-12.57 0-6.924 2.988-13.927 10.328-13.927 2.103 0 4.354.75 5.793 1.728l.554 5.525h-1.931c-.664-3.801-2.721-5.696-4.603-5.696-2.982 0-4.544 4.322-4.304 11.584.25 7.525 1.98 11.658 4.747 11.658 2.139 0 4.05-2.299 4.604-6.516h1.835v-.001zM26.8 103.318c0 3.463-.051 4.316 1.129 4.506v1.178H21.07v-1.215c.664 0 .963-.449 1.111-1.016.147-.488.13-1.072.125-2.838V87.24l-1.417-1.186v-.767l4.662-1.854h1.198v10.649c1.651-1.301 2.665-1.86 4.691-1.807 2.054.055 3.292 1.322 3.521 4.293.092 1.191-.15 4.396 0 10.023.021.742.568 1.232 1.269 1.232v1.178h-6.953v-1.178c1.217-.152 1.16-.607 1.124-1.9 0 0 .069-4.389 0-7.418-.046-1.971-.012-3.175-1.667-3.179-.958-.002-1.852.821-1.914 1.8-.059.958-.02 6.192-.02 6.192zM51.695 95.102v-.979l4.132-1.661h1.422l.381 2.864s.54-.643 1.093-1.314c.604-.735 1.237-1.629 1.545-1.629 1.13 0 3.262 2.252 3.171 2.718-.322 1.645-1.384 3.334-1.8 3.317-.417-.02-1.111-.703-1.478-1.117-.179-.201-.642-.639-.861-.639-.295 0-1.148.82-1.554 2.025V106.519c0 .688 1.185 1.195 1.922 1.195v1.367h-7.792v-1.439c.774 0 1.043-.594 1.191-1.16.11-.49.04-3.236.04-3.236l-.005-7.24-1.407-.904zM83.196 105.344c-1.21 2.604-2.994 4.082-5.835 4.262-4.013.258-7.211-3.678-7.038-8.432.193-5.312 3.203-9.066 7.185-8.971 6.006.144 6.056 7.43 5.796 7.43h-7.956s-.254 3.174.77 4.883c.698 1.164 1.58 1.988 2.686 1.988 1.144 0 2.248-.75 2.948-2.027l1.444.867zM78.325 94.77c-.325-.529-.7-.685-1.216-.685-1.052 0-1.883 1.488-1.776 3.884h3.361s.179-2.31-.369-3.199zM84.229 103.844h1.303s1.563 3.984 3.716 3.877c.847-.045 1.945-.672 1.945-1.613 0-1.053-.227-1.842-1.555-2.707l-1.955-1.316c-2.401-1.73-3.473-2.891-3.357-4.805.155-2.571 1.471-3.884 3.002-4.513 2.613-1.073 5.904-.021 7.162.667v3.879h-1.283s-.778-3.473-3.148-3.373c-1.504.063-3.486 2.324.394 4.294 1.882.957 5.043 3.008 4.866 5.988-.25 4.184-3.312 5.381-6.115 5.426-3.156.051-4.975-1.568-4.975-1.568v-4.236zM100.504 101.551c.775 3.764 2.289 5.508 4.314 5.834 1.348.215 3.447-.756 3.738-2.414.242-1.387.527-2.658-1.717-5.035l-4.73-3.501c-2.543-2.233-3.684-3.98-3.684-6.238 0-3.764 3.021-7.054 7.004-7.054 2.361 0 4.545.5 6.535 2.011l.145 5.253h-1.895s-.404-5.923-4.787-5.563c-1.25.104-2.719 1.483-2.719 2.838 0 1.017.564 3.117 5.486 6.193 4.922 3.076 5.129 5.914 4.943 8.695-.254 3.74-3.137 7.035-7.635 7.035-2.104 0-4.627-.672-6.73-2.088v-6.004l1.732.038zM126.375 105.539c-1.475 2.465-2.689 3.914-5.381 3.986-4.094.109-6.936-3.494-6.936-8.65 0-2.291 1.293-8.817 7.6-8.745 2.986.035 4.691 1.548 4.691 3.806 0 1.466-.775 2.157-2.104 2.157s-1.777-.758-2.109-2.563c0 0 .021-1.601-1.074-1.673-1.578-.104-2.475 1.421-2.498 4.525-.035 5.051 1.254 7.762 3.73 7.832 1.145.035 1.658-.488 2.836-1.598l1.245.923zM153.564 109.318l-2.641-8.09-2.562 8.162h-2.252l-3.5-10.963c-1.162-3.814-.859-3.937-2.207-4.527v-1.169h6.625l.012 1.169c-.572.264-.758.61-.641 1.065.139.549 1.992 6.542 1.992 6.542l1.479-4.18s-.244-3.259-1.574-3.427v-1.169h6.537V93.9c-.68.038-.723.43-.723 1.031 0 .34 1.992 6.46 1.992 6.46s1.932-5.432 1.932-5.921c0-1.054-.098-1.307-1.137-1.571V92.73h4.709l.01 1.182c-1.072.312-1.357.811-1.969 2.995l-3.684 12.373-2.398.038zM180.68 93.427l.322.208c1.404-1.555 4.281-2.094 5.676-1.215 2.934 1.847 3.277 5.574 3.242 8.31-.037 2.787-1.818 7.951-6.688 8.643-2.547.359-5.135-.344-7.162-1.736V87.194l-1.346-1.072v-1.018l5.002-1.8h.953v10.123h.001zm-.004 12.786c0 1.957 2.357 1.652 2.863 1.084 1.129-1.266 1.52-2.283 1.611-5.951.102-3.979-1.178-6.106-2.916-5.853-.447.066-.836-.069-1.559.7v10.02h.001z"/><path d="M68.9 103.318c0 3.463.118 4.316 1.297 4.506v1.178h-7.003v-1.215c.664 0 1.058-.449 1.205-1.016.147-.488.046-.855.042-2.838l-.01-16.694-1.418-1.186v-.767l4.663-1.854H68.9v19.886zM50.828 107.689c-1.07 1.168-1.997 1.574-3.324 1.574-1.031 0-2.331-1.082-2.85-1.875-1.244 1.49-3.269 1.902-4.171 1.902-2.176 0-3.898-1.324-4.061-3.68-.138-1.99.861-3.457 3.665-5l4.564-2.266s.17-2.238-.068-3.55c-.121-.667-.93-1.181-1.722-1.146-.419.02-1.552.1-1.734 1.61-.042.348-.059 1.044.074 1.589l-3.705.916c-.258-.424-.452-.842-.332-1.623.436-2.828 2.869-4.102 6.459-4.102 1.5 0 3.08.323 4.146 1.267.962.853 1.578 1.702 1.578 3.998l-.01 5.564c0 2.146-.096 3.301.603 3.375.331.033.539-.047.908-.154l-.02 1.601zm-7.786-6.501c-1.306.787-2.101 1.658-2.101 2.861 0 1.092.454 1.855 1.579 2.166.843.234 2.01-.615 2.082-1.373.059-.623-.019-4.5-.019-4.5s-.379.146-1.541.846zM175.07 107.689c-1.07 1.168-1.996 1.574-3.326 1.574-1.029 0-2.33-1.082-2.848-1.875-1.244 1.49-3.27 1.902-4.172 1.902-2.176 0-3.898-1.324-4.062-3.68-.137-1.99.863-3.457 3.666-5l4.564-2.266s.17-2.238-.068-3.55c-.123-.667-.932-1.181-1.723-1.146-.42.02-1.553.1-1.734 1.61-.041.348-.059 1.044.074 1.589l-3.705.916c-.258-.424-.451-.842-.332-1.623.436-2.828 2.871-4.102 6.461-4.102 1.5 0 3.078.323 4.145 1.267.961.853 1.578 1.702 1.578 3.998l-.01 5.564c0 2.146-.098 3.301.602 3.375.332.033.541-.047.908-.154l-.018 1.601zm-7.785-6.501c-1.307.787-2.102 1.658-2.102 2.861 0 1.092.453 1.855 1.578 2.166.844.234 2.01-.615 2.082-1.373.059-.623-.018-4.5-.018-4.5s-.38.146-1.54.846zM132.266 103.318c0 3.463-.051 4.316 1.129 4.506v1.178h-6.859v-1.215c.664 0 .963-.449 1.111-1.016.146-.488.131-1.072.125-2.838V87.24l-1.418-1.186v-.767l4.662-1.854h1.199v10.649c1.65-1.301 2.664-1.86 4.691-1.807 2.053.055 3.24 1.322 3.469 4.293.092 1.191-.047 4.396.104 10.023.021.742.516 1.232 1.219 1.232v1.178h-6.955v-1.178c1.217-.152 1.182-.607 1.145-1.9 0 0 .027-4.389-.041-7.418-.047-1.971.01-3.175-1.646-3.179-.959-.002-1.852.821-1.914 1.8-.06.958-.021 6.192-.021 6.192z"/></g></svg>
