<!-- <?xml version="1.0" encoding="UTF-8"?><svg id="a" xmlns="http://www.w3.org/2000/svg" viewBox="0 0 216 57"><defs><style>.b{fill:#fff;}.c{fill:#00a4eb;}.d{fill:#794cd2;}</style></defs><path class="b" d="M216,5.21c0,1.26-1.02,2.27-2.27,2.27s-2.27-1.02-2.27-2.27,1.02-2.27,2.27-2.27,2.27,1.02,2.27,2.27Zm-2.27-1.9c-1.05,0-1.89,.85-1.89,1.9s.85,1.89,1.89,1.89,1.9-.85,1.9-1.89-.85-1.9-1.9-1.9Zm.98,1.41c0,.34-.35,.65-.71,.65,.2,.07,.35,.25,.87,1.09h-.49c-.38-.65-.51-1.04-.92-1.04h-.26v1.04h-.39v-2.45h.99c.74,0,.91,.37,.91,.71m-1.5,.37h.53c.34,0,.55-.09,.55-.37s-.22-.37-.55-.37h-.53v.74m-3.73,21.26h-25V3.13h24.57V7.29h-18.96v5.09h13.03v4.18h-13.03v5.4h19.39v4.4ZM25,21.96H5.61v-5.4h13.03v-4.18H5.61V7.29H24.57V3.13H0V26.36H25v-4.4ZM72.23,7.51h11.18V3.13h-27.92V7.51h11.11V26.36h5.63V7.51ZM151.69,3.13h14.83c9.07,0,13.95,3.96,13.95,11.58,0,4.59-2.07,7.66-5.44,9.73-2.35,1.48-5.63,1.92-9.95,1.92h-13.39V3.13Zm12.59,18.62c7.14,0,10.6-1.05,10.6-7.14,0-4.99-2.95-7.1-8.26-7.1h-9.24v14.24h6.9Zm-41.84,4.61h-5.63l13.63-23.23h5.55l13.86,23.23h-6.34l-2.9-4.62h-15.35l-2.81,4.62Zm5.22-9.03h10.6l-5.2-9.4-5.4,9.4Zm-35.01,9.03h-5.57V3.13h18.75c5.22,0,8.64,3.09,8.64,7.6,0,3.66-1.76,6.03-5.22,6.99l5.84,8.64h-6.28l-5.62-8.23h-10.53v8.23Zm0-12.69h12.58c2.37,0,3.74-1.17,3.74-3.09,0-1.76-1.4-2.98-3.76-2.98h-12.56v6.07Z"/><polygon class="c" points="55.85 17.87 46.04 17.87 50.94 26.36 45.53 29.48 41.35 22.25 45.69 14.74 41.35 7.23 45.53 0 50.94 3.13 46.04 11.61 55.85 11.61 55.85 17.87"/><polygon class="d" points="44.24 14.74 35.73 0 30.31 3.13 35.21 11.61 25.41 11.61 25.41 17.87 35.21 17.87 30.31 26.36 35.73 29.48 44.24 14.74"/><g><path class="b" d="M205.9,49.86l-.03,.15-.03-.15-2.52-7.24h-1.44l3.29,9.34v.07c-.2,.89-.76,1.99-1.27,2.33-.45,.31-.94,.34-1.31,.34-.18,0-.56-.06-.72-.1v1.12c.2,.05,.68,.14,.98,.14,.7,0,1.28-.18,1.78-.54,.59-.43,1.26-1.55,1.58-2.52l3.28-10.2h-1.44l-2.14,7.24Zm-5.01-2.26v-.89c0-1.54-.4-2.68-1.16-3.38-.65-.6-1.56-.89-2.77-.89-.63,0-1.2,.11-1.69,.34-.49,.22-.93,.54-1.27,.97-.67,.83-1.04,2.07-1.04,3.57,0,1.67,.47,2.94,1.34,3.79,.92,.89,2.09,1.08,2.91,1.08,2.11,0,3.14-1.15,3.58-2.2l-1.18-.57c-.29,.64-.93,1.6-2.39,1.6-.84,0-1.53-.33-2.02-.96-.47-.61-.72-1.46-.72-2.47h6.42Zm-1.43-1.17h-4.94c.13-1.93,.92-2.83,2.48-2.83,1.68,0,2.45,.9,2.46,2.83Zm-84.24-2.58c-.73-.93-1.77-1.42-3.01-1.42s-2.28,.49-3.01,1.42c-.68,.87-1.05,2.1-1.05,3.45s.37,2.58,1.05,3.45c.73,.93,1.77,1.42,3.01,1.42s2.28-.49,3.01-1.42c.68-.87,1.06-2.1,1.06-3.45s-.38-2.59-1.06-3.45Zm-3.01,7.17c-1.58,0-2.52-1.39-2.52-3.71s.94-3.71,2.52-3.71,2.52,1.39,2.52,3.71-.94,3.71-2.52,3.71Zm3.01-7.17c-.73-.93-1.77-1.42-3.01-1.42s-2.28,.49-3.01,1.42c-.68,.87-1.05,2.1-1.05,3.45s.37,2.58,1.05,3.45c.73,.93,1.77,1.42,3.01,1.42s2.28-.49,3.01-1.42c.68-.87,1.06-2.1,1.06-3.45s-.38-2.59-1.06-3.45Zm-3.01,7.17c-1.58,0-2.52-1.39-2.52-3.71s.94-3.71,2.52-3.71,2.52,1.39,2.52,3.71-.94,3.71-2.52,3.71Zm7.35-4.3c.36-1.93,1.38-2.85,3.13-2.85v-1.38c-1.49,0-2.36,.58-3.13,1.95v-1.8h-1.47v9.4h1.47v-5.32Zm36-4.39c0-.62,.21-1.12,.6-1.45,.4-.34,.97-.52,1.71-.52,.77,0,1.46,.22,1.98,.64,.48,.38,.83,.94,.99,1.58l1.37-.17c-.6-2.05-2.07-3.3-4.31-3.3-1.11,0-2.11,.34-2.82,.97-.69,.61-1.07,1.45-1.07,2.36,0,1,.41,1.79,1.26,2.41,.75,.54,1.73,.89,2.68,1.23,1.65,.59,3.21,1.14,3.21,2.63,0,.67-.23,1.22-.65,1.62-.47,.43-1.17,.64-2.06,.64-1.57,0-2.71-.88-3.35-2.57l-1.4,.38c.3,.69,.82,1.68,1.56,2.35,.82,.74,1.84,1.09,3.12,1.09,1.51,0,2.66-.4,3.41-1.18,.78-.81,.94-1.85,.94-2.58,0-1.04-.43-1.86-1.32-2.49-.78-.56-1.79-.9-2.77-1.24-1.59-.54-3.1-1.06-3.08-2.4Zm9.5,1.45h-1.41v-1.17h1.41v-3.08h1.47v3.08h1.58v1.17h-1.58v6.42c0,.43,.1,.82,1.09,.82,.17,0,.33,0,.49-.02v1.04s-.56,.14-.97,.14c-.66,0-1.16-.1-1.5-.33-.31-.21-.58-.55-.58-1.13v-6.95Zm25.36,6.42c0,.43,.14,.82,1.12,.82,.16,0,.33,0,.5-.02v1.04s-.56,.14-.98,.14c-.66,0-1.17-.1-1.5-.33-.31-.21-.61-.55-.61-1.13v-11.75h1.47v11.22Zm-46.32-5.13c.5-.54,1.61-1.43,2.63-1.43s1.48,.5,1.48,1.63v6.78h1.47v-6.82c0-2.04-1.45-2.76-2.82-2.76-.96,0-1.93,.5-2.76,1.44h0v-1.26h-1.47v9.4h1.47v-6.98Zm-5.4,5.81c.04,.52,.22,.82,.64,1.04,.39,.21,1.02,.16,1.29,.09v-1c-.33-.02-.54-.17-.54-.57v-5.14c0-.94-.38-1.7-1.08-2.19-.58-.41-1.38-.64-2.25-.64-2.09,0-3.08,1.24-3.5,2.01l1.19,.62c.17-.44,.75-1.47,2.33-1.47,1.25,0,1.88,.56,1.88,1.65v.34s0,.1-.03,.14c-.05,.06-.17,.1-.49,.14-1.75,.19-2.92,.49-3.77,1.04-.93,.6-1.51,1.43-1.51,2.58,0,.81,.4,1.51,.92,2,.48,.46,1.15,.69,1.88,.71,1.54,.05,2.56-.59,3.06-1.34Zm0-1.57c-.07,.82-1.6,1.82-2.85,1.75-.69-.04-1.37-.59-1.44-1.5-.11-1.52,1.05-2.17,3.61-2.45,.18-.02,.51-.08,.68-.18v2.38Zm36.7,1.57c.04,.52,.23,.82,.63,1.04,.39,.21,1.02,.16,1.29,.09v-1c-.33-.02-.54-.17-.54-.57v-5.14c0-.94-.38-1.7-1.08-2.19-.58-.41-1.38-.64-2.25-.64-2.09,0-3.08,1.24-3.5,2.01l1.19,.62c.17-.44,.75-1.47,2.33-1.47,1.25,0,1.88,.56,1.88,1.65v.34s0,.1-.03,.14c-.05,.06-.17,.1-.49,.14-1.75,.19-2.92,.49-3.77,1.04-.93,.6-1.51,1.43-1.51,2.58,0,.81,.4,1.51,.92,2,.48,.46,1.15,.69,1.88,.71,1.54,.05,2.57-.59,3.06-1.34Zm0-1.57c-.07,.82-1.6,1.82-2.85,1.75-.69-.04-1.37-.59-1.44-1.5-.11-1.52,1.05-2.17,3.61-2.45,.18-.02,.51-.08,.69-.18v2.38Zm-74.7,.22l-3.12-10.24h-2.45v12.75h1.47v-11.66l.03,.04,3.5,11.62h1.14l3.5-11.62,.03-.04v11.66h1.47v-12.75h-2.45l-3.11,10.24v.05l-.02-.05Zm80.1-4.46c.5-.54,1.61-1.43,2.64-1.43s1.48,.5,1.48,1.63v6.78h1.47v-6.82c0-2.04-1.45-2.76-2.82-2.76-.96,0-1.93,.5-2.76,1.44h0v-1.26h-1.47v9.4h1.47v-6.98Zm-50.85-2.43l-.31,.99c-.54-.7-1.25-1.17-2.36-1.17-1.66,0-4,1.12-4,4.86s2.35,4.86,3.93,4.86c.93,0,1.77-.51,2.34-1.24l.07-.04v1.79c0,1.25-1.08,2.02-2.24,2.02s-2.13-.21-2.94-.6v1.27c.68,.29,1.8,.49,2.76,.49,2.61,0,3.85-1.44,3.85-3.52v-9.72h-1.1Zm-.33,6.67c-.38,1.08-1.46,1.71-2.24,1.71-1.51,0-2.57-.94-2.57-3.77,0-2.38,.95-3.63,2.57-3.63,.83,0,1.55,.36,2.24,1.21v4.47Z"/><g><path class="b" d="M56.9,52.04v-8.25h-1.41v-1.17h1.41v-.89c0-1.72,.67-2.59,2.46-2.59,.29,0,.59,.02,.9,.07v1.24c-.22-.05-.48-.09-.71-.09-.77,0-1.19,.24-1.19,1.25v1.01h1.84v1.17h-1.84v8.25h-1.46Z"/><path class="b" d="M74.17,43.86c-.73-.93-1.77-1.42-3.01-1.42s-2.28,.49-3.01,1.42c-.68,.87-1.05,2.1-1.05,3.45s.37,2.58,1.05,3.45c.73,.93,1.77,1.42,3.01,1.42s2.28-.49,3.01-1.42c.68-.87,1.06-2.1,1.06-3.45s-.38-2.59-1.06-3.45Zm-3.01,7.17c-1.58,0-2.52-1.39-2.52-3.71s.94-3.71,2.52-3.71,2.52,1.39,2.52,3.71-.94,3.71-2.52,3.71Z"/><path class="b" d="M86.85,42.47c-.96,0-1.93,.5-2.76,1.44l-.19,.2c-.43-1.18-1.55-1.64-2.63-1.64-.96,0-1.93,.5-2.76,1.44v-1.26h-1.47v9.4h1.47v-6.98c.5-.54,1.61-1.43,2.63-1.43s1.48,.5,1.48,1.63v6.78h1.47v-6.82s0-.04,0-.06v-.1c.5-.54,1.61-1.43,2.63-1.43s1.48,.5,1.48,1.63v6.78h1.47v-6.82c0-2.04-1.45-2.76-2.82-2.76Z"/><path class="b" d="M63.38,46.72c.36-1.93,1.38-2.85,3.13-2.85v-1.38c-1.49,0-2.36,.58-3.13,1.95v-1.8h-1.47v9.4h1.47v-5.32Z"/></g></g></svg> -->

<svg
   xmlns:dc="http://purl.org/dc/elements/1.1/"
   xmlns:cc="http://creativecommons.org/ns#"
   xmlns:rdf="http://www.w3.org/1999/02/22-rdf-syntax-ns#"
   xmlns:svg="http://www.w3.org/2000/svg"
   xmlns="http://www.w3.org/2000/svg"
   xmlns:sodipodi="http://sodipodi.sourceforge.net/DTD/sodipodi-0.dtd"
   xmlns:inkscape="http://www.inkscape.org/namespaces/inkscape"
   version="1.1"
   id="Layer_1"
   x="0px"
   y="0px"
   width="908.41901"
   height="124"
   viewBox="0 0 908.41901 124"
   enable-background="new 0 0 144 22"
   xml:space="preserve"
   sodipodi:docname="ETrade Logo.svg"
   inkscape:version="0.92.2 (5c3e80d, 2017-08-06)"><metadata
     id="metadata17"><rdf:RDF><cc:Work
         rdf:about=""><dc:format>image/svg+xml</dc:format><dc:type
           rdf:resource="http://purl.org/dc/dcmitype/StillImage" /><dc:title></dc:title></cc:Work></rdf:RDF></metadata><defs
     id="defs15" /><sodipodi:namedview
     pagecolor="#ffffff"
     bordercolor="#666666"
     borderopacity="1"
     objecttolerance="10"
     gridtolerance="10"
     guidetolerance="10"
     inkscape:pageopacity="0"
     inkscape:pageshadow="2"
     inkscape:window-width="640"
     inkscape:window-height="480"
     id="namedview13"
     showgrid="false"
     fit-margin-top="0"
     fit-margin-left="0"
     fit-margin-right="0"
     fit-margin-bottom="0"
     inkscape:zoom="1.0833711"
     inkscape:cx="407.82507"
     inkscape:cy="10.051999"
     inkscape:current-layer="Layer_1" /><g
     id="g10"
    fill="white"
     transform="matrix(6.3204037,0,0,6.3204037,-0.8595749,-9.0571385)"><path
       d="m 143.864,4.898 c 0,0.835 -0.678,1.513 -1.514,1.513 -0.834,0 -1.512,-0.677 -1.512,-1.513 0,-0.836 0.678,-1.513 1.512,-1.513 0.837,0 1.514,0.677 1.514,1.513 z m -1.513,-1.261 c -0.696,0 -1.26,0.564 -1.26,1.261 0,0.696 0.563,1.261 1.26,1.261 0.697,0 1.262,-0.565 1.262,-1.261 -0.001,-0.697 -0.565,-1.261 -1.262,-1.261 z m 0.655,0.941 c 0,0.224 -0.234,0.432 -0.47,0.432 0.132,0.045 0.235,0.164 0.578,0.728 h -0.321 C 142.54,5.309 142.449,5.047 142.18,5.047 h -0.173 v 0.691 h -0.26 v -1.63 h 0.656 c 0.494,0 0.603,0.245 0.603,0.47 m -0.999,0.244 h 0.354 c 0.226,0 0.369,-0.062 0.369,-0.248 0,-0.185 -0.144,-0.247 -0.369,-0.247 h -0.354 v 0.495 m -2.48,14.148 H 122.892 V 3.513 h 16.349 v 2.769 h -12.616 v 3.389 h 8.669 v 2.778 h -8.669 v 3.596 h 12.902 z M 16.771,16.045 H 3.869 v -3.596 h 8.668 V 9.671 H 3.869 V 6.282 H 16.485 V 3.513 H 0.136 V 18.97 h 16.635 z m 31.43,-9.618 h 7.437 V 3.513 H 37.06 v 2.914 h 7.394 V 18.97 h 3.748 V 6.427 Z M 101.07,3.513 h 9.867 c 6.037,0 9.286,2.636 9.286,7.709 0,3.055 -1.375,5.097 -3.619,6.473 -1.56,0.985 -3.748,1.274 -6.623,1.274 h -8.911 z m 8.38,12.386 c 4.752,0 7.054,-0.696 7.054,-4.75 0,-3.317 -1.959,-4.723 -5.493,-4.723 h -6.151 v 9.473 z M 81.606,18.97 H 77.858 L 86.927,3.513 h 3.692 L 99.844,18.97 H 95.623 L 93.694,15.899 H 83.479 Z m 3.475,-6.011 h 7.055 L 88.675,6.702 Z M 61.784,18.97 H 58.08 V 3.513 h 12.476 c 3.474,0 5.749,2.058 5.749,5.054 0,2.435 -1.175,4.016 -3.476,4.65 l 3.888,5.752 h -4.18 l -3.743,-5.476 h -7.009 v 5.477 z m 0,-8.447 h 8.368 c 1.576,0 2.491,-0.78 2.491,-2.057 0,-1.172 -0.93,-1.985 -2.504,-1.985 h -8.354 v 4.042 z"
       id="path2"
       inkscape:connector-curvature="0" /><g
       id="g8"
                        
                                            ><polygon
         points="30.774,9.162 37.295,9.162 37.295,13.323 30.774,13.323 34.035,18.97 30.431,21.052 27.17,15.403 24.767,11.242 27.17,7.08 30.431,1.433 34.035,3.513 "
         id="polygon4"
         style="fill:#99cc00" /><polygon
         points="23.566,9.162 17.044,9.162 17.044,13.323 23.566,13.323 20.306,18.97 23.91,21.052 27.17,15.403 29.573,11.242 27.17,7.08 23.91,1.433 20.306,3.513 "
         id="polygon6"
         style="fill:#6633cc" /></g></g></svg>