<?xml version="1.0" encoding="utf-8"?>
<!-- Generator: Adobe Illustrator 23.1.0, SVG Export Plug-In . SVG Version: 6.00 Build 0)  -->
<svg version="1.1" id="Layer_1" xmlns="http://www.w3.org/2000/svg" xmlns:xlink="http://www.w3.org/1999/xlink" x="0px" y="0px"
	 viewBox="0 0 200 54" style="enable-background:new 0 0 200 54;" xml:space="preserve">
<style type="text/css">
	.st0{fill:#FFFFFF;}
</style>
<g>
	<polygon class="st0" points="33.41,18.59 20.38,18.59 22.05,12.53 35.08,12.53 37.52,4.08 11.98,4.08 2,39.69 14.46,39.69 
		18.18,26.37 31.22,26.37 	"/>
	<polygon class="st0" points="38.28,13.68 30.98,39.69 43.29,39.69 50.6,13.68 	"/>
	<polygon class="st0" points="53.27,4.08 40.95,4.08 38.95,11.19 51.26,11.19 	"/>
	<path class="st0" d="M72.9,4.08l-3.44,12.55c-1-1.91-3.58-3.44-7.06-3.44c-4.06,0-7.49,1.81-9.4,5.3
		c-2.63,4.68-4.39,11.36-4.39,15.85c0,4.06,2.53,5.97,6.54,5.97c3.96,0,6.44-1.48,8.88-3.53l-0.86,2.91h12.08l9.98-35.61H72.9z
		 M65.45,31c-0.52,0.33-1.14,0.62-2.1,0.62c-1.19,0-1.91-0.86-1.91-1.86c0-2.15,0.81-4.3,1.72-6.49c0.62-1.53,1.72-1.86,2.82-1.86
		c0.76,0,1.53,0.43,1.96,1.05L65.45,31z"/>
	<path class="st0" d="M110.01,28.33c0.67-2.15,1.34-5.63,1.34-7.21c0-6.49-4.96-8.07-12.6-8.07c-4.96,0-10.36,1.53-13.46,5.58
		c-2.58,3.39-4.53,9.78-4.53,13.65c0,7.02,5.68,8.07,12.98,8.07c5.39,0,14.18-2.53,15.7-9.93H97.36c-0.72,2.53-1.48,3.2-3.2,3.2
		c-1.72,0-1.81-1.34-1.81-1.86c0-1.1,0.33-2.05,0.67-3.44H110.01z M97.7,19.6c1.29,0,2.15,0.43,2.15,1.86
		c0,0.48-0.19,1.29-0.33,1.81h-5.06C95.12,20.65,96.17,19.6,97.7,19.6z"/>
	<polygon class="st0" points="120.05,4.08 110.07,39.69 122.39,39.69 132.36,4.08 	"/>
	<polygon class="st0" points="148.64,4.08 136.32,4.08 134.31,11.19 146.63,11.19 	"/>
	<polygon class="st0" points="133.65,13.68 126.34,39.69 138.66,39.69 145.96,13.68 	"/>
	<path class="st0" d="M188.47,34.46c-1.85,0-3.35,1.5-3.35,3.35c0,1.85,1.5,3.35,3.35,3.35c1.84,0,3.35-1.5,3.35-3.35
		C191.82,35.96,190.32,34.46,188.47,34.46z M188.47,40.56c-1.52,0-2.75-1.23-2.75-2.75c0-1.52,1.23-2.75,2.75-2.75
		c1.52,0,2.75,1.23,2.75,2.75C191.23,39.33,189.99,40.56,188.47,40.56z"/>
	<path class="st0" d="M189.81,37.11c0-0.67-0.39-1.04-1.22-1.04h-1.3v3.45h0.6v-1.41h0.46l0.86,1.41h0.67l-0.9-1.46
		C189.46,38.01,189.81,37.71,189.81,37.11z M187.9,37.58v-0.97h0.46c0.39-0.01,0.82,0.02,0.82,0.48c0,0.46-0.43,0.49-0.82,0.49
		H187.9z"/>
	<path class="st0" d="M185.39,13.68l-6.68,14.42l0.19-14.42h-10.13h-2.33h-4.36l1.62-5.78h-12.32l-6.68,23.72
		c-0.38,1.34-0.53,2.53-0.53,3.63c0,2.67,1.38,4.44,5.01,4.44h10.98l1.81-6.4h-2.63c-1.67,0-2.15-0.38-2.15-1.53
		c0-0.62,0.19-1.57,0.43-2.34l2.77-9.88h6.57l1.85,20.14c-0.3,1.52-0.81,2.38-1.76,2.81c-1.05,0.47-3.41,0.38-4.24,0.34l-0.15,0.01
		l-1.96,7.07l8.41,0.01c4.96,0,7.4-2.5,10.93-8.03L198,13.68H185.39z"/>
</g>
</svg>
