<?xml version="1.0" encoding="utf-8"?>
<!-- Generator: Adobe Illustrator 22.0.1, SVG Export Plug-In . SVG Version: 6.00 Build 0)  -->
<svg version="1.1" id="Ebene_1" xmlns="http://www.w3.org/2000/svg" xmlns:xlink="http://www.w3.org/1999/xlink" x="0px" y="0px"
	 viewBox="0 0 508.5 165.8" style="enable-background:new 0 0 508.5 165.8;" xml:space="preserve">
<style type="text/css">
	.st0{fill:#FFFFFF;}
</style>
<path id="X" class="st0" d="M452.5,78.1l44.2-73.6h-45.1l-23.5,37.4L402.8,4.5h-49.4L405.5,78l-52.1,83.1h49.4L431,114l33.4,47.1
	h44.1L452.5,78.1z"/>
<path id="M" class="st0" d="M289.2,4.5l-33.6,83.7L223.8,4.5h-40.1l-26.6,156.6h40.5l13.1-90.2h0.4l35.9,90.2h16.2l37.6-90.2h0.5
	l11.4,90.2h40.7L329.7,4.5H289.2z"/>
<path id="G" class="st0" d="M82.7,73.8v31.8h33c-1.6,17.9-15.1,27-32.6,27c-26.6,0-41-24.5-41-48.7c0-23.7,13.8-49.1,40.4-49.1
	c16.3,0,28,9.9,33.6,24.7l38.4-16.1C141.1,14.4,116.3,0,84.3,0C34.2,0,0,33.2,0,83.7c0,48.9,34,82.1,82.9,82.1
	c26,0,48.9-9.3,64.1-30.5c13.8-19.4,15.5-38.8,15.9-61.5C162.9,73.8,82.7,73.8,82.7,73.8z"/>
</svg>
