<svg xmlns="http://www.w3.org/2000/svg" viewBox="0 0 32 32"><symbol id="nav_pgp" viewBox="0 0 32 32"><path d="M26.1 14.7V9.5C26.1 4.2 21.6 0 16 0S5.9 4.2 5.9 9.5v5.2C4.7 16.5 4 18.5 4 20.8 4 27 9.4 32 16 32s12-5 12-11.2c0-2.3-.7-4.3-1.9-6.1zm-17-5.2C9.1 5.9 12.2 3 16 3c3.8 0 6.9 2.9 6.9 6.5v2.2c-2-1.3-4.3-2.1-6.9-2.1-2.6 0-5 .8-6.9 2.1V9.5zm10.1 8.8v.1c-.1.8-.5 1.5-1.2 2v4.9c0 1-.9 1.8-2 1.8s-2-.8-2-1.8v-4.9c-.6-.5-1.1-1.2-1.2-2V18.1c0-.2 0-.4.1-.6.1-.4.3-.8.6-1.2l.1-.1c.6-.7 1.4-1.1 2.4-1.1.9 0 1.7.3 2.2.9l.2.2c.1.1.1.1.1.2.2.3.4.7.5 1.1 0 .2.1.4.1.6.1.1.1.1.1.2z"/></symbol><use xlink:href="#nav_pgp" xmlns:xlink="http://www.w3.org/1999/xlink"/></svg>