<?xml version="1.0" encoding="UTF-8" standalone="no"?>
<svg
   xmlns:svg="http://www.w3.org/2000/svg"
   xmlns="http://www.w3.org/2000/svg"
   xmlns:xlink="http://www.w3.org/1999/xlink"
   version="1.0"
   viewBox="0 0 502 158"
   id="svg2">
  <path
     d="m 12.854,102.637 c 0,-18.696 6.33,-25.415 14.217,-25.415 7.887,0 14.217,6.719 14.217,25.415 0,18.696 -6.33,25.417 -14.217,25.417 -7.887,0 -14.217,-6.721 -14.217,-25.417 z m -12.854,0 c 0,24.442 12.951,34.959 27.071,34.959 14.12,0 27.071,-10.517 27.071,-34.959 C 54.142,78.196 41.191,67.679 27.071,67.679 12.951,67.679 0,78.196 0,102.637 Z"
     id="path9" />
  <path
     d="m 70.5,111.694 c 0,-9.446 2.435,-17.139 9.543,-17.139 7.011,0 8.861,5.843 8.861,17.431 0,10.03 -2.337,16.555 -9.056,16.555 -6.62,0 -9.348,-7.109 -9.348,-16.847 z M 58.426,157.656 H 70.5 v -28.239 h 0.195 c 1.753,3.896 5.746,7.985 12.951,7.985 10.81,0 17.333,-9.543 17.333,-25.902 0,-13.926 -5.161,-25.807 -17.625,-25.807 -7.791,0 -11.393,4.286 -13.341,8.57 h -0.292 c 0,-3.408 -0.194,-6.33 -0.389,-7.79 H 58.036 c 0.292,1.851 0.39,4.966 0.39,8.568 z"
     id="path11" />
  <path
     d="m 115.975,107.214 c 0,-6.622 2.629,-13.341 8.959,-13.341 5.453,0 8.374,4.479 8.374,13.341 z m 25.902,17.431 c -2.24,1.655 -5.746,3.896 -13.146,3.896 -9.348,0 -12.756,-5.161 -12.756,-13.73 h 29.019 v -2.338 c 0,-20.449 -9.251,-26.779 -20.06,-26.779 -12.757,0 -20.644,11.589 -20.644,26.586 0,13.535 7.011,25.123 23.176,25.123 7.206,0 12.464,-2.143 14.996,-3.214 z"
     id="path13" />
  <path
     d="m 148.499,94.75 c 0,-3.116 -0.1,-6.037 -0.39,-8.276 h 11.296 c 0.1,2.531 0.389,5.16 0.389,7.692 h 0.292 -0.1 c 1.753,-3.019 5.162,-8.473 13.341,-8.473 11.393,0 14.801,8.473 14.801,18.601 v 32.329 h -12.075 v -30.09 c 0,-7.693 -1.947,-10.906 -6.914,-10.906 -6.33,0 -8.569,5.355 -8.569,11.782 v 29.214 H 148.497 V 94.75 Z"
     id="path15" />
  <g
     style="fill:#06348c"
     id="g18">
    <use
       xlink:href="#path9"
       transform="translate(192.222)"
       id="use17" />
    <path
       d="m 205.075,102.637 c 0,-18.696 6.33,-25.415 14.217,-25.415 7.888,0 14.217,6.719 14.217,25.415 0,18.696 -6.329,25.417 -14.217,25.417 -7.888,0 -14.217,-6.721 -14.217,-25.417 z m -12.854,0 c 0,24.442 12.951,34.959 27.071,34.959 14.12,0 27.072,-10.517 27.072,-34.959 0,-24.441 -12.952,-34.958 -27.072,-34.958 -14.12,0 -27.071,10.517 -27.071,34.958 z"
       id="path17" />
    <path
       d="m 254.347,95.333 h -8.375 v -8.86 h 8.375 V 76.248 c 0,-7.205 3.408,-13.827 14.411,-13.827 3.215,0 6.33,0.682 8.667,1.168 l -0.486,8.764 c -1.461,-0.39 -3.019,-0.779 -4.771,-0.779 -3.507,0 -5.746,2.435 -5.746,6.232 v 8.667 h 9.154 v 8.86 h -9.154 v 41.289 H 254.348 V 95.333 Z"
       id="path19" />
    <use
       xlink:href="#path19"
       transform="translate(31.452)"
       id="use21" />
    <path
       d="m 314.525,86.473 h 12.074 v 50.149 h -12.074 z"
       id="path23" />
    <path
       d="m 366.912,135.357 c -2.822,1.071 -7.01,2.045 -11.879,2.045 -16.555,0 -23.564,-11.588 -23.564,-25.806 0,-14.314 7.4,-25.903 24.246,-25.903 3.797,0 8.277,1.169 10.518,2.046 l -0.684,9.543 c -2.141,-1.071 -5.16,-2.435 -8.471,-2.435 -9.152,0 -13.146,6.135 -13.146,16.847 0,9.349 4.48,16.554 13.73,16.554 2.922,0 6.914,-1.363 8.57,-2.434 z"
       id="path25" />
    <use
       xlink:href="#path13"
       transform="translate(262.818)"
       id="use27" />
    <path
       d="m 419.949,132.333 c 0,3.764 -0.826,4.817 -4.742,4.817 -3.988,0 -4.818,-1.054 -4.818,-4.817 0,-3.688 0.83,-4.894 4.818,-4.894 3.99,0 4.742,1.054 4.742,4.894 z"
       id="path29" />
    <path
       d="m 327.394,70.977 c 0,5.343 -1.174,6.838 -6.729,6.838 -5.662,0 -6.84,-1.495 -6.84,-6.838 0,-5.234 1.178,-6.944 6.84,-6.944 5.662,0 6.729,1.495 6.729,6.944 z"
       id="path31" />
    <path
       d="m 426.65,117.427 c 0,-9.636 2.783,-14.604 8.807,-14.604 6.021,0 8.807,4.968 8.807,14.604 0,9.635 -2.785,14.604 -8.807,14.604 -6.024,0 -8.807,-4.969 -8.807,-14.604 z m -6.625,0 c 0,12.044 5.27,19.723 15.432,19.723 10.162,0 15.432,-7.679 15.432,-19.723 0,-12.044 -5.27,-19.723 -15.432,-19.723 -10.162,0 -15.432,7.679 -15.432,19.723 z"
       id="path33" />
    <path
       d="m 455.179,106.512 c 0,-2.786 -0.229,-5.57 -0.303,-8.28 h 6.098 l 0.227,6.021 h 0.15 c 2.033,-4.667 5.27,-6.549 10.914,-6.549 v 6.248 c -0.752,-0.15 -1.58,-0.227 -2.408,-0.227 -4.893,0 -8.355,4.216 -8.355,12.572 v 20.324 h -6.322 v -30.109 z"
       id="path35" />
    <path
       d="m 478.136,117.427 c 0,-9.636 2.635,-14.604 8.432,-14.604 5.797,0 8.432,4.969 8.432,14.604 0,9.635 -2.635,14.604 -8.432,14.604 -5.797,0 -8.432,-4.969 -8.432,-14.604 z m 23.186,-12.195 c 0,-2.334 0.227,-4.742 0.303,-7 h -6.1 l -0.225,5.57 h -0.152 c -2.105,-3.689 -5.568,-6.098 -9.408,-6.098 -8.582,0 -13.926,6.474 -13.926,19.723 0,13.248 5.344,19.723 13.248,19.723 4.217,0 7.604,-2.108 10.086,-6.475 h 0.152 v 6.023 c 0,6.623 -3.012,11.215 -10.766,11.215 -3.461,0 -7.828,-1.505 -10.539,-3.313 l -0.3,6.4 c 2.785,1.129 7.98,2.333 11.217,2.333 8.432,0 16.41,-4.441 16.41,-15.055 z"
       id="path37" />
  </g>
  <path
     d="m 53.516,48.019 c 33.438,-9.845 58.09,-7.316 76.037,7.543 18.497,-18.494 55.483,-23.115 67.042,-20.807 -33.788,-15.86 -62.232,-5.114 -68.87,3.103 -18.647,-10.114 -62.65,-6.021 -74.209,10.161 z"
     id="path39" />
  <path
     d="m 139.493,7.311 c 23.945,-2.955 44.436,-0.487 57.698,9.833 15.127,-8.843 43.642,-8.643 52.351,-6.501 C 218.766,-0.603 203.886,3.346 196.445,6.49 176.712,-1.017 157.118,-3.544 139.493,7.311 Z"
     id="path41" />
</svg>
