<svg xmlns="http://www.w3.org/2000/svg" viewBox="0 0 1000 1000" width="1000" height="1000"><g fill-rule="evenodd" clip-rule="evenodd"><path fill="#fff" fill-opacity="0" d="M0 0h963.78v963.78H0z"/><path d="M99.285 506.955v28.535c-9.04 7.5 -24.085 13.165 -36.055 12.54 -28.24 -1.435 -49.06 -24.835 -49.06 -62.85 0 -34.62 14.94 -69.635 51.64 -69.635 10.515 0 21.77 3.75 28.965 8.64l2.77 27.625h-9.655c-3.32 -19.005 -13.605 -28.48 -23.015 -28.48 -14.91 0 -22.72 21.61 -21.52 57.92 1.25 37.625 9.9 58.29 23.735 58.29 10.695 0 20.25 -11.495 23.02 -32.58h9.175zm34.715 9.635c0 17.315 -0.255 21.58 5.645 22.53v5.89H105.35v-6.075c3.32 0 4.815 -2.245 5.555 -5.08 0.735 -2.44 0.65 -5.36 0.625 -14.19V436.2l-7.085 -5.93v-3.835l23.31 -9.27h5.99v53.245c8.255 -6.505 13.325 -9.3 23.455 -9.035 10.27 0.275 16.46 6.61 17.605 21.465 0.46 5.955 -0.75 21.98 0 50.115 0.105 3.71 2.84 6.16 6.345 6.16v5.89h-34.765v-5.89c6.085 -0.76 5.8 -3.035 5.62 -9.5 0 0 0.345 -21.945 0 -37.09 -0.23 -9.855 -0.06 -15.875 -8.335 -15.895 -4.79 -0.01 -9.26 4.105 -9.57 9 -0.295 4.79 -0.1 30.96 -0.1 30.96m124.475 -41.08v-4.895l20.66 -8.305h7.11l1.905 14.32s2.7 -3.215 5.465 -6.57c3.02 -3.675 6.185 -8.145 7.725 -8.145 5.65 0 16.31 11.26 15.855 13.59 -1.61 8.225 -6.92 16.67 -9 16.585 -2.085 -0.1 -5.555 -3.515 -7.39 -5.585 -0.895 -1.005 -3.21 -3.195 -4.305 -3.195 -1.475 0 -5.74 4.1 -7.77 10.125v39.16c0 3.44 5.925 5.975 9.61 5.975v6.835h-38.96v-7.195c3.87 0 5.215 -2.97 5.955 -5.8 0.55 -2.45 0.2 -16.18 0.2 -16.18l-0.025 -36.2zm157.505 51.21c-6.05 13.02 -14.97 20.41 -29.175 21.31 -20.065 1.29 -36.055 -18.39 -35.19 -42.16 0.965 -26.56 16.015 -45.33 35.925 -44.855 30.03 0.72 30.28 37.15 28.98 37.15h-39.78s-1.27 15.87 3.85 24.415c3.49 5.82 7.9 9.94 13.43 9.94 5.72 0 11.24 -3.75 14.74 -10.135zM391.625 473.85c-1.625 -2.645 -3.5 -3.425 -6.08 -3.425 -5.26 0 -9.415 7.44 -8.88 19.42h16.805s0.895 -11.55 -1.845 -15.995m29.52 45.37h6.515s7.815 19.92 18.58 19.385c4.235 -0.225 9.725 -3.36 9.725 -8.065 0 -5.265 -1.135 -9.21 -7.775 -13.535l-9.775 -6.58c-12.005 -8.65 -17.365 -14.455 -16.785 -24.025 0.775 -12.855 7.355 -19.42 15.01 -22.565 13.065 -5.365 29.52 -0.105 35.81 3.335v19.395h-6.415s-3.89 -17.365 -15.74 -16.865c-7.52 0.315 -17.43 11.62 1.97 21.47 9.41 4.785 25.215 15.04 24.33 29.94 -1.25 20.92 -16.56 26.905 -30.575 27.13 -15.78 0.255 -24.875 -7.84 -24.875 -7.84zm81.375 -11.465c3.875 18.82 11.445 27.54 21.57 29.17 6.74 1.075 17.235 -3.78 18.69 -12.07 1.21 -6.935 2.635 -13.29 -8.585 -25.175l-23.65 -17.505c-12.715 -11.165 -18.42 -19.9 -18.42 -31.19 0 -18.82 15.105 -35.27 35.02 -35.27 11.805 0 22.725 2.5 32.675 10.055l0.725 26.265h-9.475s-2.02 -29.615 -23.935 -27.815c-6.25 0.52 -13.595 7.415 -13.595 14.19 0 5.085 2.82 15.585 27.43 30.965s25.645 29.57 24.715 43.475c-1.27 18.7 -15.685 35.175 -38.175 35.175 -10.52 0 -23.135 -3.36 -33.65 -10.44v-30.02zm129.355 19.94c-7.375 12.325 -13.445 19.57 -26.905 19.93 -20.47 0.545 -34.68 -17.47 -34.68 -43.25 0 -11.455 6.465 -44.085 38 -43.725 14.93 0.175 23.455 7.74 23.455 19.03 0 7.33 -3.875 10.785 -10.52 10.785s-8.885 -3.79 -10.545 -12.815c0 0 0.105 -8.005 -5.37 -8.365 -7.89 -0.52 -12.375 7.105 -12.49 22.625 -0.175 25.255 6.27 38.81 18.65 39.16 5.725 0.175 8.29 -2.44 14.18 -7.99zm135.945 18.895 -13.205 -40.45 -12.81 40.81h-11.26l-17.5 -54.815c-5.81 -19.07 -4.295 -19.685 -11.035 -22.635v-5.845h33.125l0.06 5.845c-2.86 1.32 -3.79 3.05 -3.205 5.325 0.695 2.745 9.96 32.71 9.96 32.71l7.395 -20.9s-1.22 -16.295 -7.87 -17.135v-5.845h32.685V469.5c-3.4 0.19 -3.615 2.15 -3.615 5.155 0 1.7 9.96 32.3 9.96 32.3s9.66 -27.16 9.66 -29.605c0 -5.27 -0.49 -6.535 -5.685 -7.855V463.65h23.545l0.05 5.91c-5.36 1.56 -6.785 4.055 -9.845 14.975l-18.42 61.865zm135.58 -79.455 1.61 1.04c7.02 -7.775 21.405 -10.47 28.38 -6.075 14.67 9.235 16.385 27.87 16.21 41.55 -0.185 13.935 -9.09 39.755 -33.44 43.215 -12.735 1.795 -25.675 -1.72 -35.81 -8.68V435.97l-6.73 -5.36v-5.09l25.01 -9h4.765v50.615zm-0.02 63.93c0 9.785 11.785 8.26 14.315 5.42 5.645 -6.33 7.6 -11.415 8.055 -29.755 0.51 -19.895 -5.89 -30.53 -14.58 -29.265 -2.235 0.33 -4.18 -0.345 -7.795 3.5z"/><path d="M344.5 516.59c0 17.315 0.59 21.58 6.485 22.53v5.89h-35.015v-6.075c3.32 0 5.29 -2.245 6.025 -5.08 0.735 -2.44 0.23 -4.275 0.21 -14.19l-0.05 -83.47 -7.09 -5.93v-3.835l23.315 -9.27H344.5zm-90.36 21.855c-5.35 5.84 -9.985 7.87 -16.62 7.87 -5.155 0 -11.655 -5.41 -14.25 -9.375 -6.22 7.45 -16.345 9.51 -20.855 9.51 -10.88 0 -19.49 -6.62 -20.305 -18.4 -0.69 -9.95 4.305 -17.285 18.325 -25l22.82 -11.33s0.85 -11.19 -0.34 -17.75c-0.605 -3.335 -4.65 -5.905 -8.61 -5.73 -2.095 0.1 -7.76 0.5 -8.67 8.05 -0.21 1.74 -0.295 5.22 0.37 7.945l-18.525 4.58c-1.29 -2.12 -2.26 -4.21 -1.66 -8.115 2.18 -14.14 14.345 -20.51 32.295 -20.51 7.5 0 15.4 1.615 20.73 6.335 4.81 4.265 7.89 8.51 7.89 19.99l-0.05 27.82c0 10.73 -0.48 16.505 3.015 16.875 1.655 0.165 2.695 -0.235 4.54 -0.77zm-38.93 -32.505c-6.53 3.935 -10.505 8.29 -10.505 14.305 0 5.46 2.27 9.275 7.895 10.83 4.215 1.17 10.05 -3.075 10.41 -6.865 0.295 -3.115 -0.095 -22.5 -0.095 -22.5s-1.895 0.73 -7.705 4.23m660.14 32.505c-5.35 5.84 -9.98 7.87 -16.63 7.87 -5.145 0 -11.65 -5.41 -14.24 -9.375 -6.22 7.45 -16.35 9.51 -20.86 9.51 -10.88 0 -19.49 -6.62 -20.31 -18.4 -0.685 -9.95 4.315 -17.285 18.33 -25l22.82 -11.33s0.85 -11.19 -0.34 -17.75c-0.615 -3.335 -4.66 -5.905 -8.615 -5.73 -2.1 0.1 -7.765 0.5 -8.67 8.05 -0.205 1.74 -0.295 5.22 0.37 7.945l-18.525 4.58c-1.29 -2.12 -2.255 -4.21 -1.66 -8.115 2.18 -14.14 14.355 -20.51 32.305 -20.51 7.5 0 15.39 1.615 20.725 6.335 4.805 4.265 7.89 8.51 7.89 19.99l-0.05 27.82c0 10.73 -0.49 16.505 3.01 16.875 1.66 0.165 2.705 -0.235 4.54 -0.77zm-38.925 -32.505c-6.535 3.935 -10.51 8.29 -10.51 14.305 0 5.46 2.265 9.275 7.89 10.83 4.22 1.17 10.05 -3.075 10.41 -6.865 0.295 -3.115 -0.09 -22.5 -0.09 -22.5s-1.9 0.73 -7.7 4.23m-175.095 10.65c0 17.315 -0.255 21.58 5.645 22.53v5.89h-34.295v-6.075c3.32 0 4.815 -2.245 5.555 -5.08 0.73 -2.44 0.655 -5.36 0.625 -14.19V436.2l-7.09 -5.93v-3.835l23.31 -9.27h5.995v53.245c8.25 -6.505 13.32 -9.3 23.455 -9.035 10.265 0.275 16.2 6.61 17.345 21.465 0.46 5.955 -0.235 21.98 0.52 50.115 0.105 3.71 2.58 6.16 6.095 6.16v5.89h-34.775v-5.89c6.085 -0.76 5.91 -3.035 5.725 -9.5 0 0 0.135 -21.945 -0.205 -37.09 -0.235 -9.855 0.05 -15.875 -8.23 -15.895 -4.795 -0.01 -9.26 4.105 -9.57 9 -0.3 4.79 -0.105 30.96 -0.105 30.96"/></g></svg>