s<svg xmlns="http://www.w3.org/2000/svg" viewBox="0 0 32 32"><symbol id="nav_smartdrive" viewBox="0 0 32 32"><path d="M28 6H14.6l-1.2-1.6c-.3-.4-.6-.7-1-.9-.5-.3-1.2-.5-1.8-.5H4C1.8 3 0 4.8 0 7v18c0 2.2 1.8 4 4 4h24c2.2 0 4-1.8 4-4V10c0-2.2-1.8-4-4-4zm-1.4 17.1c-.9 1.2-2.3 1.9-3.7 1.9H10.2c-2.8 0-4.2-1.2-4.8-2.3-1-1.6-1.1-3.4-.3-5.1.8-1.6 2.1-2.4 3.3-2.7.3-1.5 1.5-3.5 4.2-4.3.7-.2 1.5-.3 2.1-.3 2.1 0 3.6 1 4.6 2.1.4-.1.8-.2 1.3-.2.8 0 1.6.2 2.3.7 1.5.9 2.1 2.2 2.1 3.4.9.4 1.9 1.2 2.3 2.7.4 1.4.2 2.9-.7 4.1z"/><path d="m23.7 18.1-1.1-.1.3-1c0-.1.3-1.4-1-2.2-.4-.2-.8-.4-1.3-.4-.7 0-1.2.3-1.2.3l-.9.5-.5-.9c0-.1-1-1.9-3.3-1.9-.5 0-1 .1-1.5.2-2.7.8-2.8 3.2-2.8 3.3v.9h-.9c-.1 0-1.7.1-2.5 1.7-.4.7-.6 1.8.1 3 .6.9 1.6 1.3 3.4 1.3h12.1c1.1 0 1.8-.4 2.3-1 .5-.7.6-1.5.4-2.3-.4-1.2-1.6-1.4-1.6-1.4z"/></symbol><use xlink:href="#nav_smartdrive" xmlns:xlink="http://www.w3.org/1999/xlink"/></svg>