<svg id="Layer_1" xmlns="http://www.w3.org/2000/svg" xmlns:xlink="http://www.w3.org/1999/xlink" x="0px" y="0px" viewBox="0 0 600 600" xml:space="preserve" width="100%" height="100%"><style type="text/css">
	.st0{fill:#FFFFFF;}
</style><path class="st0" d="M389,345.3c0.2,1.4,0.6,2.7,0.9,4c1,4.5,2.1,9,3,13.4c0.9,4.4,1.6,8.8,2.8,13.1c1.8,6.5,3,13.1,4.5,19.6 c0.8,3.8,3,7.1,6.2,9.3c0.3,0.3,0.7,0.4,1,0.4c0.4,0,0.8-0.1,1.1-0.3c2.4-1.3,4.8-2.4,7.2-3.6c0.3-0.1,0.6-0.3,0.8-0.6 c0.2-0.3,0.3-0.6,0.3-0.9c0.4-2.9,0.9-5.7,1.3-8.6c0-0.5,0-1.1,0-1.6c-1,0.1-1.9,0.3-2.7,0.3c-0.3,0-0.5,0-0.8,0 c-0.3-0.1-0.5-0.2-0.7-0.3c-0.2-0.2-0.4-0.4-0.5-0.6c-0.1-0.2-0.2-0.5-0.2-0.8c-0.9-4.1-1.8-8.2-2.7-12.3c-0.9-4.2-1.9-8.5-2.7-12.7 c-1.1-5.1-2-10.2-3.2-15.3c-1.1-5.1-2.3-10.1-3.5-15.2c-2.1-8.8-4.1-17.5-6.3-26.3c-1.4-5.5-2.9-11.1-4.3-16.6 c-2.1-7.8-4.1-15.6-6.3-23.4c-2.2-8-4.6-15.9-6.8-23.9c-2.3-8.2-4.5-16.4-7.4-24.5c-3.5-9.6-6.9-19.2-10.3-28.8 c-2.8-7.9-5.7-15.7-7.8-23.8c-0.5-1.6-0.4-3.2,0.3-4.7c1.5-3.3,3.9-5.7,7.6-6.4c1.6-0.2,3.3-0.5,4.8-1c4.3-1.6,8.7-1.8,13.2-2.4 c5.7-0.7,11.4-1.2,17.1-1.8c5-0.5,10.1-1.1,15.1-1.4c7-0.4,14.1-0.6,21.1-0.9c3.4-0.1,6.7-0.2,10.1-0.2c0.9-0.1,1.7,0.1,2.5,0.5 c1.4,0.9,2.7,1.9,3.8,3.1c1,1.1,1.9,2.4,2.4,3.8c1.4,3.6,2.5,7.3,3.8,11c3.6,10.2,7.3,20.4,10.8,30.7c2.9,8.5,5.6,17.1,8.4,25.7 c0.4,1.3,0.8,2.7,1.3,4.4c-1.6-0.7-2.7-1.1-3.8-1.7c-0.5-0.3-0.8-0.8-1-1.4c-2.2-6.6-4.5-13.2-6.6-19.8c-2.8-8.8-5.9-17.4-9.3-26 c-1.1-2.8-2.2-5.5-3.3-8.2c-0.5-1.3-1.3-2.5-2.8-2.8c-5.4-0.9-10.9-1.1-16.3-0.9c-4.9,0.2-9.9,0.4-14.8,0.8 c-6.3,0.5-12.7,1.1-19.1,1.6c-3.1,0.3-6.2,0.6-9.2,0.7c-4.1,0.1-8.1,0.5-12.2,1.3c-1.8,0.3-3.6,0.8-5.4,1.1 c-3.5,0.6-4.2,1.8-2.9,5.1c1.8,4.7,3.5,9.3,5.1,14.1c4.1,12.3,8.2,24.6,12.1,36.9c2.9,9.1,5.7,18.2,8.3,27.3 c2.2,7.7,4.3,15.5,6.4,23.2c1.5,5.5,2.9,10.9,4.4,16.4c1.9,7.3,3.8,14.6,5.5,22c1.5,6.3,3,12.5,4.4,18.8c0.7,3,1.2,6.1,1.8,9.1 c0.6,3.4,2.7,4.7,6.1,3.9c0.1,0,0.3-0.1,0.4-0.1c1.3-0.3,2.5-0.7,3.8-1c5.4-1.3,11-2.2,16.5-2.8c6.2-0.6,12.3-1.3,18.4-2l5.7-0.6 c-0.9-1.5-1.4-1.8-3.1-1.7c-2.8,0.3-5.6,0.6-8.4,0.9c-5.4,0.5-10.8,0.8-16.1,1.6c-4.7,0.7-9.4,2-14.1,3c-1.7,0.4-3.3,0.8-5,1.1 c-0.5,0.1-1,0-1.4-0.3c-0.4-0.3-0.7-0.7-0.8-1.2c-0.1-0.5-0.3-1-0.4-1.5c-0.6-2.6-1-5.3-1.7-7.9c-1.4-6.1-2.9-12.3-4.4-18.4 c-1.9-8-3.9-16-5.8-23.9c-0.2-0.8-0.3-1.7-0.6-2.9c9,6.8,17.6,13.4,26.3,19.9c8.7,6.5,17.1,13.5,26.2,19.7c1.1-2.8,2.1-5.4,3.2-8 c0.2-0.6-0.1-1-0.7-1.2c-0.3-0.1-0.6-0.2-1-0.2c-2.3-0.4-4.3-1.7-5.8-3.6c-2.1-2.9-4.2-5.9-6.1-8.9c-0.6-1.1-1-2.3-1.1-3.5 c-0.5-3.7,0.7-7.2,2.2-10.5c2.5-5.5,6.2-10.2,10.3-14.6c5.4-5.7,11.5-10.7,18-14.9c1.5-1,1.5-1.1,1.1-2.7 c-1.7-5.5-3.4-11.1-5.2-16.6c-1.8-5.7-3.6-11.4-5.4-17.1c-0.2-0.6-0.5-1.1-1-1.6c-0.5-0.4-1-0.7-1.6-0.8c-3.9-1.2-7.8-2.4-11.7-3.5 c-8.2-2.4-16.4-4.7-24.9-5.9c-1.2-0.2-2.4-0.5-3.6-0.9c0.2-0.2,0.5-0.3,0.8-0.3c4.9,0.2,9.9,0.4,14.8,0.7c0.7,0.1,1.4,0.2,2.1,0.4 c3.4,1,6.9,1.8,10.2,3c4.4,1.5,8.8,3.2,13.1,4.9c0.5,0.2,0.9,0.4,1.2,0.8c0.3,0.3,0.6,0.8,0.7,1.2c0.3,0.8,1.6,1.1,2.4,1.9 c0.3,0.5,0.6,1,0.7,1.6c0.4,1.3,0.8,2.6,1.2,4c2.8,8.8,5.5,17.6,8.3,26.3c0.2,0.6,0.5,1.2,0.7,1.8c1.3-0.6,1.3-0.6,1-1.5 c-0.5-1.6-1.1-3.2-1.6-4.9c-2.6-8.2-5.1-16.3-7.7-24.4c-0.2-0.7-0.4-1.4-0.6-2.3c3.8,1,4.4,1.5,5.2,3.8c2.5,7.6,5.1,15.2,7.6,22.8 c0.4,1.1,0.7,2.1,1.1,3.2c0.1,0.3,0.7,0.6,0.9,0.5c0.3-0.3,0.6-0.6,0.7-1c0.1-0.2-0.1-0.5-0.2-0.8c-2.3-6.9-4.7-13.8-7-20.7 c-0.5-1.5-0.9-3-1.5-4.7c1.4,0.3,2.7,0.8,3.8,1.6c2,1.1,4,2.3,6,3.3c0.4,0.3,0.9,0.4,1.4,0.3c0.2-0.1,0.4-0.2,0.5-0.4 s0.2-0.4,0.3-0.6c0-0.2-0.1-0.5-0.3-0.7c-0.1-0.2-0.3-0.4-0.5-0.5c-3.7-2.1-7.4-4.2-11.2-6.3c-0.4-0.2-0.9-0.5-1.2-0.8 c-0.3-0.4-0.6-0.8-0.8-1.2c-2.5-7.6-4.9-15.3-7.5-22.9c-3.8-11.3-7.7-22.5-11.6-33.7c-2-5.6-4.1-11.2-6.2-16.8 c-1.3-3.5-5.7-7.2-9.7-6.9c-2.5,0.2-5,0-7.5,0.1c-5.5,0.2-10.9,0.5-16.4,0.7c-2.2,0.1-4.5,0.1-6.7,0.2c-4.9,0.3-9.7,0.7-14.6,1.1 c-4.1,0.3-8.3,0.4-12.4,1c-8.7,1.1-17.5,2.5-26.2,3.8c-4.3,0.6-8.5,2-12.2,4.3c-2.7,1.7-5.1,4-6.7,6.8c-1.1,1.7-1.4,3.7-1,5.7 c0.2,1.1,0.6,2.1,1,3.1c1,2.9,2,5.7,2.9,8.6c1.5,4.8,2.9,9.7,4.4,14.5c1.4,4.2,2.9,8.3,4.3,12.5c0.3,0.9,0.4,1.8,0.3,2.7 c-0.3,2.8-1.7,5.1-3.1,7.4c-0.3,0.5-0.8,0.9-1.3,1.2c-3.5,2.4-7.4,4-11.5,4.9c-1.4,0.3-2.9,0.5-4.5,0.8c0.5,1.1,1.4,1.2,2.2,1.3 c1.8,0.3,3.6,0.6,5.4,1.1c0.4,0.1,1.1,0.6,1.1,1c0,0.3-0.1,0.5-0.2,0.8c-0.1,0.2-0.3,0.4-0.5,0.6c-0.8,0.5-1.7,0.8-2.6,1 c-3.5,1-7.1,1.9-10.7,2.8c-0.9,0.2-1.7,0.5-2.6,0.8c0.5,1.4,1.4,1.1,2.2,1c1.6-0.3,3.1-0.7,4.6-1.1l7.6-1.9c1.3-0.3,2.7-0.7,3.7-1.8 c1.2-1.4,1.3-3.2-0.1-4.3c-0.4-0.3-0.8-0.5-1.3-0.7l15.9-5.2c0.3,0.8,0.7,1.6,1,2.5c1.2,3.5,2.4,7.1,3.5,10.7 c0.3,0.8,0.4,1.7-0.4,2.4c-1.9,1.7-3.7,3.6-5.8,5.1c-4.7,3.5-10,5.8-15.5,7.7c-0.4,0.1-0.8,0.4-1.5,0.7c0.9,0.3,1.4,0.5,2,0.7 c0.5,0.2,1.3,0.4,1.8,0.6c1,0.4,1.9,1.1,1.7,2.4c-0.2,1.2,0.2,2.9-1.7,3.6c-2,0.8-4,1.8-6,2.5c-5,1.8-10,3.5-15,5.2 c-0.7,0.2-1.4,0.6-1.9,1.2c-0.1,0.3-0.3,0.5-0.5,0.6c-0.2,0.2-0.5,0.2-0.8,0.2c-1.8,0.2-3.7,0.5-5.5,0.6c-1.8,0.1-3.5,0.6-5,1.6 c0.8,0.2,1.6,0.3,2.4,0.4c3.5-0.3,7.1-0.6,10.6-1c1.4-0.2,2.7-0.5,4-0.8c0.5-0.1,1.3-0.6,1.4-1c0.3-1.3,1.3-1.5,2.3-1.8 c4.6-1.7,9.1-3.4,13.6-5.2c1.7-0.7,3.3-1.6,4.7-2.8c2.4-2,2.2-4.2-0.2-6.1c-0.5-0.4-0.9-0.7-1.6-1.2c4.4-1.8,8.4-3.6,12.5-5.1 c1.6-0.4,3.2-0.6,4.9-0.6c0.5-0.1,1.1,0,1.6,0.3c0.5,0.2,0.9,0.6,1.2,1.1c-1,1.5-2.4,2.7-4,3.4c-1.6,0.8-3.3,1.4-4.9,2 c0.5,0.2,1,0.4,1.6,0.5c0.9,0.1,1.8,0.5,2.5,1c0.8,0.5,1.4,1.3,1.8,2.1c0.3,0.4,0.4,0.9,0.3,1.4c-0.1,0.5-0.3,0.9-0.6,1.3 c-1.2,1.3-2.8,2.3-4.5,2.7c-2.7,0.8-5.3,1.4-8,2.1c-0.6,0.2-1.2,0.2-1.2,1c1.6,0.4,3.1,0.7,4.6,1.2c2.7,0.8,5.2,2.2,7.3,4.1 c1.5,1.4,1.7,2.6,0.7,4.4c-2.3,4.1-5.5,6.9-10.3,7.9c-2.6,0.5-5.1,1.2-7.7,1.7c-3.2,0.8-6.5,1-9.8,0.7c-1.1,0-2.2-0.3-3.2-0.9 c0.4-0.2,0.8-0.4,1.1-0.7c0.2-0.3,0.5-0.7,0.4-1c-0.1-0.2-0.6-0.5-0.9-0.5c-0.5,0-0.9,0-1.4,0.1c-2.4,0.2-4.7,0.4-7.1,0.5 c-2,0.1-4,0-5.9,0.1c-5.9,0.4-11.9,0.6-17.7-0.1c-1.7-0.2-3.4-0.2-5.1-0.3c-2.5-0.1-5-0.2-7.5-0.3c-0.5,0-1.1,0-2,0 c0.9,1,1.7,1.7,2.3,2.5c2.1,2.7,0.9,5.5-2.4,6.1c-0.3,0-0.5,0.1-0.8,0.1c-4.2,0.6-8.4,0.6-12.6,0c-1-0.2-2-0.5-3-0.9 c-1.2-0.6-2.4-1.4-3.6-2.1c-1.1-0.6-2-1.5-2.6-2.6c-0.6-1.1-1-2.3-1-3.6c-0.1-1-0.1-2,0.1-3c0.4-3.2,0.8-6.3,1.4-9.4 c0.5-2.8,1.5-5.3,4.4-6.6c0.2-0.1,0.4-0.3,0.5-0.4s0.2-0.4,0.3-0.6c0.3-1.4,0.4-2.8,0.8-4.2c0.3-1.7,1.1-3.3,2.2-4.7 c1.1-1.3,2.6-2.3,4.3-2.9c4.2-1.6,8.7-1.8,13-0.6c2.7,0.8,4.8,2.3,5.4,5.2c0.5,2.2,0.1,4.4-1,6.3c-1.1,2-2.7,3.6-4.7,4.7l-1.9,1.1 c0.4,0.3,0.6,0.5,0.7,0.5c13.8-2.2,27.6-4.7,41.2-8.1c0.4-0.2,0.9-0.4,1.3-0.6c-1-0.2-1.6-0.3-2.2-0.3c-2.8-0.2-5.7-0.3-8.5-0.6 c-2.1-0.2-4.2-0.6-6.2-1.2c-2.1-0.7-2.5-2.6-0.9-4.2c0.7-0.8,1.6-1.3,2.6-1.7c3.2-1,6.5-1.9,9.8-2.8c3.5-0.9,7-1.7,10.5-2.7 c5.2-1.6,9.9-4.3,14.7-6.6c0.5-0.4,0.9-0.8,1.3-1.2c-0.5,0-0.9,0-1.4,0.1c-4.9,1.1-9.7,2.4-14.6,3.2c-7.7,1.2-15.5,1.6-23.2,1.3 c-1.3-0.1-2.6-0.3-3.9-0.6c-1.7-0.4-2-1.2-1.4-2.8c0.1-0.3,0.2-0.7,0.4-1.2c-0.6-0.2-1.2-0.3-1.8-0.4c-2.1-0.1-4.2-0.2-6.3-0.4 c-1.1-0.1-2.2-0.3-3.3-0.5c-2.4-0.6-3.2-2.6-1.9-4.7c0.6-0.9,1.4-1.7,2.3-2.4c2-1.4,4.3-2.4,6.6-2.9c0.5-0.1,1.2-0.1,1.2-1.1 l-1.7-0.2c-2.5-0.3-5-0.4-7.5-0.8c-4.1-0.5-8-1.9-11.5-3.9c-2.9-1.5-5-4.1-6-7.3c-0.4-1.3-0.8-2.6-0.9-4c-0.2-2.8-0.7-5.6-0.2-8.3 c0.9-5.4,2.4-10.8,3.6-16.1c0.7-3.3,1.9-6.4,1.7-9.9c0-0.6-0.1-1.1-0.3-1.6c-0.2-0.5-0.5-1-0.9-1.4c-1.5-1.3-2.9-2.6-4.4-3.9 c-0.5-0.4-1-0.6-1.6-0.7c-3.6-0.4-7.2-0.9-10.8-1.1c-3.1-0.2-6.2-0.1-9.3-0.2c-9.5-0.4-19-0.9-28.4-1.1c-9.8-0.2-19.6-0.2-29.4-0.1 c-4.5,0-8.9,0.3-13.4,0.4c-5.9,0.2-11.9,0.6-17.8,0.8c-5.5,0.1-10.9,0.5-16.3,1.2c-4.7,0.7-9,5.2-9.4,10.1c0,0.5-0.1,0.9-0.2,1.4 c-1.1,4.1-2.3,8.1-3.2,12.2c-1.7,7.3-3.3,14.6-4.8,22c-1.6,7.5-3,15.1-4.4,22.7c-1,5.2-1.8,10.5-2.8,15.7c-1,5.4-2.1,10.8-3.2,16.3 c-0.7,3.6-1.4,7.2-2.1,10.9c-0.8,4.2-1.8,8.4-2.5,12.6c-1.2,7.3-2.4,14.5-3.4,21.8c-1.1,7.7-2.2,15.5-3.2,23.3 c-0.5,3.9-0.9,7.7-1.5,11.6c-0.6,4.4-1.3,8.9-1.8,13.3c-0.9,8.7-1.7,17.4-2.4,26.2c-0.5,6.7-0.6,13.4-0.8,20.1 c-0.1,4.3,0,8.7-0.4,13c-0.3,2.5-0.3,5.1,0.2,7.6c0.6,2.9,1.7,5.5,4.2,7.3c2.1,1.6,4.7,2.5,7.4,2.5c1.6,0,3.2,0,4.7-0.1 c3.2-0.2,6.3-0.6,9.4-0.8c6.6-0.3,13.1-0.7,19.7-0.8c7.4-0.1,14.9-0.2,22.3,0.1c7,0.3,13.9,1.1,20.8,1.9c6.3,0.7,12.7,1.5,19,2.4 c3.3,0.4,6.5,0.9,9.8,1.5c4.5,0.8,8.9,1.7,13.4,2.5c2.1,0.4,4.2,0.3,6-1c1.6-1.1,2.9-2.5,3.8-4.2c1-1.7,1.5-3.5,1.7-5.4 c0.7-6,1-12,1.6-18.1c0.5-4.6,1-9,3-13.4c4.8-10.6,11.1-19.9,20.3-27.3c1.9-1.5,3.9-2.9,5.8-4.4c0.6-0.4,1.2-0.9,0.9-1.8 s-1.2-0.9-2-0.8l-1.8,0.4c1.3-1.9,2.9-3.6,4.7-5c1.7-1.4,3.3-2.8,5.1-4.1c1.7-1.3,3.5-2.5,5.3-3.7c1.8-1.2,3.7-2.5,5.6-3.7 c1.9-1.2,3.6-2.4,5.5-3.4c1.9-1,3.8-1.8,5.7-2.6c-0.4-0.4-0.7-0.6-1-0.5c-1.5,0.3-2.9,0.8-4.3,1.3c-2.7,1.3-5.4,2.7-8,4.2 c-5.6,3.3-11.2,6.7-16.1,11c-1.6,1.5-3.1,3-4.5,4.7c-0.6,0.7-0.9,1.6-0.9,2.5c0.3,1.4-0.3,2.1-1.3,2.7c-0.7,0.4-1.3,0.9-1.9,1.4 c-6.5,5.1-12,11.3-16.1,18.5c-0.3,0.5-0.7,1-1,1.5c-0.3-0.5-0.4-1-0.3-1.5c0.1-2.1,0.4-4.2,0.4-6.3c0-1.2,0.4-2.3,1-3.3 c3.8-5.9,7.6-11.7,12.7-16.6c2.8-2.7,5.5-5.4,8.5-7.9c5.4-4.4,11.4-7.8,17.5-11.1c6.6-3.5,13-7.2,20.1-9.5c0.4-0.2,0.7-0.5,1-0.8 l-0.1-0.4l-14.8,0.7c4.5-2.4,9.3-4.2,14.2-5.4c4.8-1.3,9.6-2.7,14.5-3.8c4.9-1.1,9.9-1.9,14.8-2.8l0-0.4l-9.7-2.6 c0-0.9,0.6-0.7,1.1-0.8l6.8-0.9c11.6-1.6,23.2-1.8,34.6,1.6c4.4,1.3,8.7,2.9,12.3,5.9c0.3,0.2,0.6,0.4,1,0.5 c0.3-1.2,0.4-2.5,0.2-3.8c-0.1-2-0.5-4-0.6-6.1c-0.1-2.2-0.1-4.5-0.1-6.7c0-0.4,0.1-0.9,0.1-1.3c3,10.7,4.5,21.6,6.6,32.5 c-5.4-4.6-11.5-8.5-18-11.5c0.5-0.2,1-0.3,1.6-0.5c1.2-0.4,2-1.1,1.8-1.8c-0.2-1.1-1.1-1.3-1.9-1.4c-4.4-0.5-8.9-1-13.3-1.4 c-0.7,0-1.3,0.1-2,0.2c0.6,1.2,1.5,1.1,2.3,1.2c2.9,0.3,5.7,0.6,8.6,0.9c-1.3,0.3-2.6,0.4-4,0.4c-0.6,0-1.2,0.2-1.7,0.5 c-0.2,0.1-0.4,0.2-0.5,0.4c-0.1,0.2-0.2,0.4-0.2,0.6c0,0.2,0.1,0.4,0.2,0.6c0.1,0.2,0.3,0.3,0.5,0.4c0.3,0.2,0.7,0.3,1.1,0.4 c1.8,0.5,3.7,1,5.5,1.7c7.8,3.2,14.8,7.9,20.6,13.9C388.4,343.5,388.8,344.4,389,345.3z M434.7,282.1c-4.4-6.3-8.8-12.7-13.3-19 c-0.4-0.5-0.8-1-1.1-1.6c-0.1-0.3,0-0.7,0-1.1c0.4,0.1,0.9,0,1.2,0.2c0.5,0.4,1,0.9,1.4,1.4c3.2,4.2,6.5,8.4,9.6,12.7 c1.6,2.2,2.9,4.5,4.4,6.7c0.3,0.5,0.5,1,0.7,1.6C435.6,283.5,435.7,283.5,434.7,282.1z M439,289.8c-0.6-1-1.1-2-1.6-3.1 c1.6-0.9,2-0.8,2.7,0.6c0.4,0.8,0.7,1.6,1.1,2.6C439.8,290.8,439.6,290.8,439,289.8z M442,294.9c0-0.2,0.5-0.5,1.1-1l0.4,2.7 C442.3,296.4,442,295.7,442,294.9z M451,269.2c-0.8,0.4-1.7,0.7-2.5,0.6s-1.8-0.3-2.5-0.8c-0.8-0.6-1.5-1.3-2-2.1 c-1.7-2.4-3.2-5-4.8-7.4c-0.1-0.3-0.2-0.7-0.3-1c0.5,0,1,0.1,1.5,0.3c0.5,0.2,0.9,0.5,1.2,0.9c1.4,1.4,2.6,2.9,3.9,4.4 c0.7,0.8,1.2,1.7,1.9,2.5c0.1,0.2,0.3,0.3,0.5,0.4c0.2,0.1,0.4,0.2,0.7,0.2c0.2,0,0.5,0,0.7-0.1c0.2-0.1,0.4-0.2,0.6-0.3 c0.3-0.3,0.4-0.7,0.5-1.2c0-0.4-0.1-0.9-0.4-1.2c-1.2-1.9-2.5-3.6-4.7-4.6c-2.8-1.2-5.2-3.3-6.7-5.9c-0.1-0.2-0.2-0.3-0.2-0.5 c0-0.2,0-0.4,0.1-0.6c0.5,0.4,0.9,0.8,1.3,1.2c1.5,1.7,3.3,3,5.3,4.1c1.8,1,3.6,2.2,5.3,3.4c0.6,0.4,1.1,0.9,1.5,1.4 c0.4,0.6,0.7,1.2,0.8,1.9C452.9,266.6,452.4,268.2,451,269.2z M453.5,248.4l-3.5-2.6l1.6-1.9l3.5,2.6L453.5,248.4z M457.4,251.7 l-1.2-1l1-1.5C458.8,250.1,458.8,250.1,457.4,251.7z M433.6,222c0.7-0.1,1.5-0.1,2.2-0.1c4.1,0.8,8.4,1,12.3,2.6 c2.1,0.9,4.2,1.9,6.1,3.1c0.7,0.5,1.4,1,1.9,1.7c0.8,0.9,1.3,2,0.7,3.3c-0.3,0.6-0.7,1.2-1.3,1.6c-0.6,0.4-1.2,0.6-1.9,0.6 c-2.5,0.2-4.7-0.8-6.8-2.1c-0.7-0.4-1.3-0.9-1.8-1.5c-2.7-2.7-5.7-5.1-8.8-7.2c-0.8-0.6-1.7-1.1-2.6-1.6 C433.5,222.3,433.5,222.2,433.6,222z M427.7,232.7c6.7,2.2,13.4,4.7,19.5,8.4c0.4,0.2,0.7,0.5,1.1,0.8c-1.1,2-1.3,2.1-2.9,1.1 c-4.4-2.7-9.2-4.5-13.9-6.6c-1.5-0.7-3-1.4-4.4-2.1c-0.4-0.1-0.7-0.4-1-0.7c-0.3-0.3-0.4-0.7-0.5-1.1 C426.3,232.5,427,232.5,427.7,232.7z M426.2,240.1c0.8,2.1,0.6,4.2-0.9,5.7c-1.6,1.6-3.5,1.6-5.5,1c-2.1-0.7-3.9-2.1-5-4 c-1.5-2.2-2.9-4.5-4.4-6.8c-1.2-2-2.5-3.9-4.9-4.6c-1.2-0.3-2.5-0.5-3.7-0.6c0.2-0.3,0.6-0.6,0.9-0.7c0.4-0.1,0.8-0.2,1.2-0.1 c1.2,0,2.4,0.2,3.4,0.8c1.1,0.5,2,1.3,2.7,2.2c1.4,1.9,2.6,4,4,5.9c1,1.5,2.2,3,3.4,4.4c0.5,0.7,1.2,1.2,2,1.6 c0.8,0.4,1.6,0.5,2.5,0.5c0.4,0,0.9-0.1,1.3-0.3c0.4-0.2,0.7-0.5,1-0.8c0.3-0.4,0.4-0.8,0.5-1.2c0.1-0.4,0-0.9-0.1-1.3 c-0.4-1.4-1.3-2.6-2.5-3.4c-1.6-1.1-3.3-2.1-4.9-3.2c-2-1.4-4-2.8-5.9-4.3c-1.5-1.2-2.7-2.8-3.3-4.6c-0.3-0.7-0.3-1.4-0.2-2.1 c0.2-0.7,0.5-1.4,1-1.9c0.5-0.6,1.1-1,1.8-1.2c0.7-0.2,1.5-0.1,2.1,0.2c1.3,0.5,2.6,0.9,3.9,1.3c0.6-1.1,0-1.7-0.5-2.3 c-1.4-1.7-3.2-2.6-5.2-3.4c-1.1-0.4-2.2-0.8-3.2-1.4c-2.1-1.3-2.2-3.5-0.2-5c0.8-0.6,1.8-1,2.8-1.3c1-0.2,2-0.3,3-0.1 c0.4,0,0.7,0.6,1,1c-0.3,0.3-0.6,0.7-1,0.8c-1,0.3-2.1,0.3-3.1,0.5c-0.4,0.1-0.8,0.2-1.2,0.5c-0.3,0.3-0.6,0.7-0.7,1.1 c0.6,1.4,2.1,1.5,3.3,1.9c2.4,0.9,4.6,2,6.2,4.1c0.6,0.8,1.1,1.6,1.4,2.6c0.2,0.4,0.3,0.8,0.2,1.2c0,0.4-0.2,0.8-0.5,1.1 c-0.3,0.3-0.6,0.6-1,0.7c-0.4,0.1-0.8,0.2-1.2,0.1c-1-0.2-2-0.5-3-0.9c-0.6-0.2-1.2-0.4-1.9-0.5c-0.3-0.1-0.6,0-0.9,0 c-0.3,0.1-0.5,0.3-0.7,0.5c-0.2,0.2-0.3,0.5-0.4,0.8c0,0.3,0,0.6,0.1,0.9c0.2,0.8,0.6,1.5,1.1,2.1c1.4,1.4,2.8,2.7,4.4,4 c2,1.4,4.1,2.7,6.1,4C423.5,236.4,425.3,237.8,426.2,240.1L426.2,240.1z M459.7,219.5c-2.3-2.2-4.5-4.4-6.9-6.5 c-10.4-9.6-21.4-18.5-32.9-26.7c-4.1-2.9-8.1-5.8-12.2-8.7c-2-1.4-4.2-2.5-6.3-3.7c-0.4-0.3-0.9-0.5-1.6-1c0.5-0.2,1.1-0.3,1.7-0.4 c5.5-0.4,11-0.8,16.5-1.3c0.5,0,0.9,0.1,1.3,0.2c0.4,0.2,0.8,0.4,1.1,0.8c7,5.8,14,11.6,21,17.2c4.3,3.4,8.8,6.7,13.2,10 c0.9,0.6,1.5,1.5,1.8,2.5c1.8,5.7,3.7,11.3,5.6,17c0.2,0.6,0.3,1.2,0.5,1.9c-0.6,0-1.1-0.2-1.6-0.4 C460.5,220.3,460,219.9,459.7,219.5L459.7,219.5z M464.2,220.4c-2.9-8.9-5.7-17.8-8.8-26.6c-2.7-7.6-5.7-15-8.5-22.5 c-0.2-0.6-0.5-1.1-1.1-1.5c-0.5-0.4-1.1-0.5-1.8-0.5c-3.1,0-6.2-0.1-9.3,0c-5.1,0.1-10.1,0-15.2,0.3c-9.5,0.6-19,1.5-28.5,2.4 c-2.9,0.3-5.8,1-8.7,1.4c-2.5,0.4-5.1,0.8-7.6,1.2c-1.9,0.3-3.7,0.7-5.8,1.1l-0.8-1.5c0.4-0.2,0.7-0.4,1.1-0.6 c1.6-0.3,3.2-0.5,4.9-0.8c4.3-0.7,8.7-1.5,13-2.2c2.6-0.4,5.2-0.7,7.8-1c7.3-0.7,14.5-1.6,21.8-2c8.5-0.5,16.9-1.2,25.5-0.8 c1,0,2.1,0.3,3.2,0.2c2.1-0.1,2.9,1.1,3.6,2.9c3.8,9.8,7.7,19.5,11,29.6c2.4,7.4,4.8,14.7,7.3,22.1c0.1,0.3,0.2,0.6,0.3,1.2 C465.7,222.7,464.7,222,464.2,220.4L464.2,220.4z M243.4,285.3c-1,7.4-2,14.8-3,22.3c-0.3,2.2-0.7,4.4-1,6.6 c-0.1,0.8-0.1,1.6-0.2,2.4c-0.3,3.5-0.6,7.1-1,10.6c-0.5,4.5-1.1,9-1.6,13.5c-0.3,2.6-0.6,5.2-0.9,7.9c-1.1,10.8-2.3,21.6-3.1,32.4 c-0.9,11.6-1.4,23.3-2,34.9c0,0.5-0.1,0.9-0.1,1.4c-0.1,1-0.4,2.1-0.9,3c-0.5,0.9-1.2,1.7-2,2.4c-0.8,0.6-1.8,1.1-2.8,1.4 c-1,0.2-2.1,0.3-3.1,0.1c-2.5-0.4-5-1-7.6-1.3c-2.8-0.4-5.6-0.6-8.4-0.9c-3.6-0.3-7.2-0.7-10.8-0.9c-3.4-0.2-6.8-0.3-10.3-0.4 c-8-0.3-15.9-0.5-23.9-0.7c-9.2-0.2-18.4-0.3-27.7-0.4c-3.8,0-7.6-0.2-11.4,0.1c-3.5,0.2-7,0.1-10.4-0.2c-3.2-0.3-6-1.5-7.9-4.2 c-0.7-1.3-1.3-2.6-1.7-4c-0.1-0.2,0-0.5-0.1-0.8c-1.7-4.7-1.2-9.5-1-14.2c0.3-7,0.7-14.1,1.2-21.1c0.6-7,1.5-14.1,2.3-21.2 c0.5-4.4,1-8.8,1.6-13.1c0.7-5.6,1.6-11.2,2.3-16.8c0.7-5.6,1.5-11.2,2.4-16.8c0.5-3.7,1.2-7.4,1.8-11.1c0.9-5.2,1.8-10.5,2.8-15.7 c1.1-6,2.4-12,3.5-18c1-5.1,2-10.2,2.9-15.3c1.3-7.1,2.6-14.2,4-21.3c0.9-4.7,1.8-9.6,2.8-14.3c1.4-6.8,3-13.6,4.5-20.4 c1.2-5.4,2.4-10.8,3.4-16.2c0.4-2.3,1.4-4.4,3-6.1c1-1.1,2.2-2.1,3.4-3c0.9-0.6,2-1,3.1-1.1c4.4-0.4,8.8-0.6,13.2-0.8 c7.5-0.4,15-0.8,22.5-1.1c3-0.1,6-0.2,9.1-0.2c3.6,0,7.2,0,10.9,0v-0.2c10.2,0.3,20.4,0.6,30.6,0.9c7,0.2,13.9,0.5,20.9,0.8 c1.8,0,3.6,0.6,5.1,1.7c1.5,1,2.7,2.5,3.3,4.2c1.5,3.4,2.1,7.1,1.7,10.8c-0.5,4.9-1.7,9.6-2.5,14.4c-1.2,6.7-2.5,13.4-3.8,20.1 c-0.9,4.4-1.9,8.9-2.9,13.3c-2.5,10.4-4.7,20.9-6.3,31.5C245.9,268.3,244.6,276.8,243.4,285.3z M367.7,302.2c-1,1.9-2.4,3.5-4.7,3.8 c-3.3,0.4-6.6,0.8-10,1.1c-2.4,0.2-4.7,0.2-7.1,0c-3.2-0.1-6.3,0.3-9.3,1.1c-2.8,0.8-5.8,1-8.7,1.5c-5.8,1-11.5,2-17.3,3 c-5.8,1-11.6,2.1-17.5,3c-4.5,0.8-9.1,1.4-13.6,2.1c-0.8,0.2-1.5,0.4-2.2,0.7l0.1,0.5c4.5,0.2,9,0.7,13.5,1.6 c-0.3,0.3-0.6,0.5-1,0.7c-8.7,4.2-17.6,7.9-26.8,11c-4.3,1.5-8.5,3.2-12.7,4.8c-0.3,0.1-0.7,0.2-1.4,0.4c0.1-1,0.1-1.8,0.2-2.6 c0.6-4.8,1.2-9.7,1.8-14.5c0.1-1,0.6-1.9,1.4-2.5c5.7-5.2,12.5-8.5,19.5-11.4c1.2-0.5,2.4-1,3.6-1.6c0.1,0,0.1-0.2,0.3-0.5 c-0.4-0.2-0.8-0.3-1.2-0.3c-1.8,0-3.5,0.1-5.3,0.2c-1.1,0-2.2,0.3-3.5-0.3c0.3-0.3,0.6-0.6,1-0.8c3.8-1.7,7.8-3.1,11.9-4 c4.4-1.2,8.8-2.6,13.3-3.8c4.1-1.1,8.2-1.9,12.3-2.8c2.7-0.6,5.4-1.1,8.1-1.7c0.3-0.1,0.6-0.4,1.3-0.8l-10.3-2.2v-0.5 c0.6-0.1,1.2-0.3,1.8-0.4c2.7-0.4,5.4-0.9,8.2-1.3c4.7-0.6,9.5-1.3,14.3-1.7c4.3-0.3,8.5-0.3,12.8-0.4c2,0,4,0.1,5.9,0.2 c1.2,0.1,2.3,0.4,3.4,0.8c1.5,0.6,1.7,1.6,0.5,2.7c-1,0.8-2.1,1.6-3.2,2.3c-0.4,0.3-0.8,0.5-1.2,0.8l0.1,0.4c0.7,0,1.5,0.1,2.2,0.1 c4.6,0,9.2,0.7,13.5,2.3c2,0.7,3.8,1.9,5.1,3.5C368.3,298.6,368.7,300.4,367.7,302.2L367.7,302.2z"></path><path class="st0" d="M538.4,454.1c1.1-7,1.3-14,0.4-21c-0.4-3.4-1.2-6.7-2.5-9.9c-2.3-5.4-6-9.8-10.3-13.8c-1.7-1.6-3.7-2.8-6-3.6 c-2.2-0.8-4.6-1.1-6.9-0.9c-4.9,0.3-9.4,2-13.6,4.2c-3.9,2.1-7.7,4.5-10.3,8.2c-3.5,5-6.6,10.3-8.4,16.2c-2.3,7.2-1.9,15,1.1,22 c0.7,1.6,0.7,1.6,2.5,1.5c0.9-0.1,1.8-0.3,2.7-0.4c4.6-0.6,9.3,0,13.5,1.7c0.3,0.1,0.5,0.4,0.8,0.7c-0.2,0.1-0.5,0.2-0.7,0.3 c-3.3,0.5-6.5,1-9.8,1.3c-6.1,0.5-12.1,1.7-18,3.4c-5.9,1.8-11.7,3.8-17.2,6.8c-0.8,0.4-1.7,0.8-2.5,1.1c-0.7,0.2-1.4,0.2-1.7-0.5 c-0.1-0.3-0.1-0.5-0.1-0.8c0-0.3,0.1-0.5,0.2-0.8c0.4-0.6,1-1.2,1.6-1.7c2.9-2.3,6.2-3.7,9.5-5.2c0.7-0.3,1.3-0.7,2.3-1.2 c-3.6-2.7-7.4-4.2-11.2-5.6c-3.8-1.5-7.8-2.4-11.9-2.8c-4.1-0.4-8.1-0.4-12.2,0c-4.1,0.4-8.1,1.3-11.9,2.5c-4,1.1-7,4-11.1,5.7 c0.4-1.3,1.1-2.5,2-3.5c3-3,6.6-5.3,10.6-6.5c4.7-1.4,9.5-2.2,14.4-2.2c4.5-0.2,9,0.1,13.3,1c2.4,0.5,4.8,1.2,7.2,2.1 c4.8,1.8,9.5,3.9,13.3,7.5c0.3,0.3,0.6,0.5,1,0.6c0.4,0.1,0.8,0,1.1-0.1c1.9-0.6,3.9-1.1,5.9-1.7c0.4-0.1,0.8-0.3,1.2-0.5 c-0.4-2.6-0.9-4.9-1.2-7.3c0-0.4-0.2-0.7-0.4-1c-0.3-0.3-0.6-0.4-1-0.4c-2.2-0.4-4.4-0.8-6.6-1.2c-4-0.8-7.9-2.1-11.6-3.8 c-2.7-1.3-4-3.4-4-6.6c0.1-9.9,0-19.9,0-29.8c0-2.1-0.1-2.3-2.1-3c-5.8-2.2-12.1-2.9-18.2-2c-1,0.2-2,0.3-2.9,0.3 c-0.3,0-0.7-0.3-0.8-0.5c0-0.2,0-0.4,0.1-0.5c0.1-0.2,0.2-0.3,0.3-0.4c0.8-0.5,1.6-0.9,2.5-1.2c6.2-1.8,12.7-1.9,18.9-0.3 c0.6,0.2,1.2,0.2,2.1,0.4c0.1-0.9,0.1-1.6,0.2-2.3c0.2-5.9,0.3-11.7,0.4-17.6c0-0.5,0-0.9,0.2-1.3c0.2-0.4,0.4-0.8,0.8-1.1 c1.1-0.9,2.2-1.8,3.4-2.7c0.5-0.3,1-0.6,1.5-0.9c-1.1-0.4-1.8-0.6-2.6-0.8c-2.6-0.7-4.4-2-4.9-4.7c-0.2-0.7-0.4-1.4-0.6-2.1 c-0.9-2.8-0.7-3.6,1.6-5.2c3.6-2.6,7.1-5.2,11.2-7c0.6-0.3,1.2-0.7,2-1.1c-0.3-0.2-0.6-0.3-0.9-0.4c-2.4-0.3-4.7-0.7-7-1 c-3-0.3-6.1,0-9,0.9c-3.3,1.2-6.6,2.7-9.6,4.6c-2.7,1.5-5,3.6-6.8,6.2c-4.8,7.5-8.2,15.8-9.9,24.5c-0.9,4.5-1.3,9.1-1.9,13.7 c-0.2,1.3-0.6,1.8-1.9,2.1c-1,0.2-2,0.6-2.9,1c-2.9,1.5-5.8,3.2-8.7,4.7c-3.6,1.9-6.2,4.9-9.1,7.6c-4.1,3.5-6.6,8.5-7,13.9 c-0.7,8.2,2.4,13,9.3,16.6c4-2.8,8.6-5,13.3-6.3c4.5-1.3,9.2-2,13.8-1.9c3.4-0.1,6.9,0.4,10.1,1.6c1.3,0.4,2.4,1.2,3.3,2.2 c-3.2-0.2-5.9-0.5-8.6-0.6c-7.9-0.3-15.6,0.6-23,3.7c-5.6,2.4-10.4,5.8-14,10.9c-2.5,3.6-4.3,7.4-4.4,11.9 c-0.2,6.9,2.2,13.7,6.9,18.8c2.5,2.8,5.4,5.2,8.1,7.8c0.4,0.4,0.8,0.8,1.2,1.2c-4.6-1.6-8.8-3.7-11.9-7.3c-5.4-6.3-8-13.5-7.1-21.9 c0-0.5,0-1-0.1-1.5c-0.3,0.1-0.7,0.2-1,0.3c-4.4,2.3-8.2,5.7-10.8,9.8c-4.5,6.7-5.3,13.9-2.2,21.4c2.9,7,7.9,12,14.4,15.6 c4.2,2.2,8.8,3.6,13.4,4.3c5.7,0.9,11.5,0.7,17.1-0.6c4.3-1,8.4-2.6,12.4-4.6c2-1,4-2.2,6.4-3.6c-0.7-0.3-1.5-0.6-2.2-0.9 c-2.9-0.7-5.7-1.4-8.6-2.2c-2.3-0.5-4.5-1.6-6.3-3.2c0.5,0,0.9,0,1.4,0c3.8,0.8,7.6,1.7,11.3,2.5c3.1,0.7,6.3,1.2,9.5,1.6 c5.8,0.4,11.6,0.8,17.4,0.8c8.2,0,16.3-0.4,24.5-0.5c8.4-0.1,16.7-1.7,24.4-4.9c4.4-1.8,8.4-4.2,11.4-7.9 c4.8-5.9,8.9-12.4,12.1-19.3C535.2,468.7,537.4,461.5,538.4,454.1z"></path><path class="st0" d="M588.4,411.9c-4.3-3.8-9.7-6-15.4-6.5c-2.8-0.2-5.7,0.3-8.3,1.2c-4.8,1.6-9.2,3.9-12.5,7.9 c-2.1,2.7-4.3,5.3-5.3,8.7c-0.8,2.9-1.6,5.8-2.3,8.8c-0.7,3.1-1.1,6.2-1.1,9.4c-0.1,4.1-0.5,8.3-0.7,12.4c0,0.6,0,1.1,0,1.7 c1.3,0.2,2.4,0.4,3.4,0.7c0.9,0.3,2.3-0.3,2.8,1l-7,1.7c-2.9,14.3-9.6,26.6-18.3,38l0.3,0.5c1-0.1,2.1-0.1,3.1-0.2 c1.3-0.1,2.6-0.2,4-0.4c4.6-0.6,9.3-1.1,13.9-1.9c2.9-0.5,5.7-1.5,8.6-2.2c8.6-2,15.8-6.5,21.8-12.8c3.6-3.7,6.9-7.8,10.2-11.8 c2.6-3,4.7-6.6,5.9-10.4c1-3.1,1.8-6.2,2.4-9.3c0.7-4,1.3-8,1.6-12.1c0.2-5.1-0.4-10.3-1.8-15.2 C592.8,417.7,591.2,414.3,588.4,411.9z"></path><path class="st0" d="M66.1,164.3c3.3-5.8,7.2-11.2,11.6-16.2c0.3-0.3,0.5-0.5,0.8-0.7c0.2,0.1,0.3,0.2,0.4,0.3 c0.2,0.3,0.4,0.5,0.5,0.8c3.4,6.1,7.4,11.9,11.9,17.1c2,2.2,4.1,4.2,6.3,6.2c0.8,0.7,1.8,1.1,2.8,1.2c1.8,0.2,2.9-1.1,2.5-2.9 c-0.1-0.5-0.3-1-0.6-1.4c-1-1.6-2-3.1-3.1-4.6c-4.9-6.5-9.5-13.3-13-20.7c-1.7-3.4-1.7-3.4,1.2-6c0.2-0.1,0.4-0.3,0.7-0.4 c0.4,0.4,0.9,0.8,1.4,1.3c4.4,4.7,8.7,9.5,13.1,14.2c0.8,0.9,1.7,1.7,2.6,2.4c4.4,3,9.4-0.5,9.5-4.7c0-1.2-0.1-2.4-0.3-3.5 c-0.7-4.5-1.8-8.9-2.1-13.4c-0.5-5.5-0.4-11.1,0.5-16.5c0.1-0.6,0.3-1.1,0.7-1.5c0.4-0.4,0.9-0.7,1.4-0.8c0.2,0.4,0.3,0.7,0.4,0.9 c1.1,3.6,2.2,7.2,3.3,10.7c0.6,1.9,1.3,3.7,2.2,5.5c2.6,4.4,8.1,4.5,10.9,0.3c0.6-1,1.2-2.1,1.6-3.2c1.9-4.2,4-8.3,7.1-11.8 c1.3-1.4,2.6-2.6,4.8-2.7c2.2,0,3.3-1.6,3.3-3.7c-0.1-1.5-0.6-3-1.5-4.2c-0.9-1.2-2.3-2-3.7-2.4c-2.8-0.7-5.3,0.1-7.6,1.7 c-2.8,1.9-4.7,4.5-6.7,7.2c-0.4,0.6-0.8,1.1-1.5,2c-0.7-2.1-1.2-3.8-1.7-5.6c-0.6-1.9-0.6-2,1.1-3c7.1-4.2,14.5-8,22.1-11.2 c6.2-2.7,12.6-4.9,19.1-6.8c7.2-2,14.4-3.5,21.8-4.5c6-0.8,11.9-1.1,17.9,0.4c3.9,1,7.5,2.5,10.4,5.3c4.7,4.5,6,10.2,5.4,16.4 c-0.6,6.8-3.3,13-7,18.6c-2.1,3.1-4.6,5.9-6.8,8.9c-0.4,0.5-1.2,1.2-0.5,1.8c0.8,0.7,1.3-0.2,1.7-0.7c4-4.5,7.6-9.2,10.3-14.6 c2.8-5.7,4.7-11.8,4.3-18.2c-0.2-4.7-2.1-9.2-5.3-12.7c-3.5-3.9-8.1-5.7-13.1-6.8c-5.2-1.1-10.5-1.2-15.7-0.4 c-8.2,1-16.2,2.7-24.1,4.9c-7.3,2.1-14.5,4.7-21.5,7.8c-6.6,2.9-12.9,6.2-19.1,9.9c-0.7,0.4-1.3,0.7-2.2,1.2 c-0.4-0.9-0.7-1.5-0.9-2.1c-1-2.2-1.8-4.4-2.9-6.5c-0.9-1.6-2-3.1-3.3-4.3c-0.7-0.6-1.4-1.1-2.3-1.4c-0.9-0.3-1.8-0.4-2.7-0.4 c-0.9,0.1-1.8,0.3-2.6,0.7c-0.8,0.4-1.5,1-2.1,1.7c-1,1.2-1.8,2.5-2.4,4c-0.9,2.5-1.4,5.1-2,7.6c-1.4,5.5-2.3,11.2-2.6,16.9 c0,0.4-0.1,0.8-0.3,1.1c-0.2,0.3-0.4,0.7-0.7,0.9c-1.6,1.4-3.2,2.8-4.7,4.1c-0.3,0.2-0.6,0.3-0.9,0.5l-8.8-8c2-3.3,4-6.4,5.9-9.5 c2.2-3.4,4.1-7.1,5.4-10.9c1.2-3.7,1.9-7.4,1-11.2c-0.8-3.2-3.4-4.7-6.4-3.7c-1.2,0.4-2.3,1-3.4,1.6c-1.9,1-3.7,2.2-5.6,3.3 c-1.4,0.8-2.8,1.5-4.1,2.4c-7.7,5.7-14.7,12.2-20.9,19.5c-5.3,6.1-10.6,12.3-15,19.1c-3.6,5.6-6.8,11.5-9.5,17.7 c-2.2,5-4.3,10-5.2,15.5c-0.4,2.5-0.7,5.1,0.2,7.6c0.2,0.6,0.5,1.2,1,1.8c0.4,0.5,1,0.9,1.6,1.2c0.6,0.3,1.3,0.4,2,0.4 c0.7,0,1.3-0.1,2-0.4c2-0.9,3.8-2.1,5.4-3.5c11.4-9.9,22.2-20.3,31.7-32.1c0.6-0.8,1.3-1.6,2.1-2.5c1.3,2.8,2.4,5.3,3.7,7.7 c0.6,1.1,0.3,1.8-0.4,2.6c-2.6,3.2-5.2,6.3-7.5,9.6c-3.4,4.7-6.4,9.6-7.9,15.3c-0.8,2.7-0.9,5.6-0.4,8.4c0.9,4.1,3.8,7.7,9.5,8.9 c3.1,0.6,6.3,0.6,9.4,0.1c4.5-0.5,8.9-1.8,12.9-3.9c0.6-0.4,1.1-0.8,1.6-1.2l-0.2-0.5c-0.5,0.1-0.9,0.2-1.4,0.4 c-2.8,0.9-5.5,2-8.4,2.7c-4.1,1.1-8.3,1.4-12.5,0.9c-3.6-0.5-6.7-1.9-8.4-5.4c-0.9-2-1.2-4.2-1-6.4 C62.7,171.4,64.2,167.8,66.1,164.3z M113.7,111.2h0.3c0,0.4,0.1,0.9,0.1,1.3h-0.6L113.7,111.2z M100.1,125.6 c0.5,1.4,0.7,6.9,0.4,9.1l-5-5.1C97,128.1,98.5,126.8,100.1,125.6L100.1,125.6z M86.7,135.6l-2.7,2.7c-1.1-2.7-2-5.1-3-7.4l0.3-0.3 C83.3,132.2,85.1,133.9,86.7,135.6L86.7,135.6z M75.7,114.4c-0.8-0.2-1.7-0.2-2.6,0c-0.8,0.2-1.6,0.6-2.3,1.2 c-0.7,0.6-1.2,1.3-1.5,2.1s-0.5,1.7-0.4,2.5c0.1,1.8,0.4,3.5,0.8,5.2c0.6,2.1,1.3,4.3,2.1,6.3c0.3,0.6,0.4,1.2,0.3,1.8 c-0.1,0.6-0.3,1.2-0.8,1.6c-5.3,6.7-11,13.1-17.1,19.1c-5.5,5.2-11.1,10.3-16.7,15.4c-1.3,1.1-2.8,2-4.3,2.7 c-1.6,0.8-2.8,0.1-3.5-1.4c-0.8-2-0.9-4.2-0.3-6.2c0.7-3.3,1.7-6.6,2.8-9.8c4.7-12.6,11.6-24.4,20.2-34.8 c4.7-5.6,9.3-11.4,14.7-16.5c3.7-3.5,7.5-6.8,11.5-9.9c3.2-2.5,6.8-4.5,10.6-6c0.7-0.3,1.4-0.5,2.1-0.7c2.2-0.5,3.4,0.2,4,2.4 c0.9,3.8,0.1,7.5-1.4,11c-1.7,3.6-3.5,7.2-5.6,10.6c-1.5,2.6-3.2,5.1-5,7.8c-1.5-1.1-2.6-2-3.8-2.7 C78.4,115.3,77.1,114.7,75.7,114.4L75.7,114.4z"></path><path class="st0" d="M551.8,370.7c-0.3-1.1-1.1-1.5-2-1.9c-3.7-1.8-7.4-1.5-11.1-0.3c-4.1,1.4-8,3.5-11.3,6.3 c-0.4,0.4-1,0.7-1.5,0.8c-0.6,0.1-1.2,0.1-1.7,0c-1.7-0.4-3.5-0.8-5.2-1.1c-1.1-0.2-2.2-0.3-3.2-0.5c-0.8-2.1-0.5-4.4-1.8-6.4 c-0.3,0.2-0.7,0.5-0.9,0.8c-0.8,1.3-1.6,2.6-2.3,3.9c-0.2,0.5-0.5,0.8-0.9,1.1c-0.4,0.3-0.9,0.4-1.4,0.3c-1.9-0.1-3.8-0.1-5.7-0.2 c-3.7,0-7.4-0.3-11.1,0c-7.7,0.5-15.3,1.4-23,2.1c-3.9,0.5-7.8,1.5-11.4,3c-2,0.8-2.8,1.9-2.7,4.2c0.3,6.2,0.5,12.4,0.5,18.6 c0.1,12.4,0.1,24.8,0,37.2c0,1.6,0.5,2.5,2,2.9c3.9,1,7.7,2.2,11.6,3.1c2.1,0.4,4.1,0.7,6.2,0.8c0.3,0,0.7-0.4,1-0.7 c-0.3-0.3-0.5-0.7-0.9-0.8c-1.9-0.4-3.7-0.8-5.6-1.2c-1.7-0.4-1.7-0.4-2-2.2c-0.2-1.5-0.4-3-0.6-4.5c0-0.4,0-0.9,0-1.3l3.2,0.4 c-0.6-6-2.1-11.7-2.3-17.6l2.2-0.2c0-0.7,0-1.4,0-2c-0.1-2.3-0.3-4.6-0.4-6.9c-0.1-1.2,0.3-2.5-1-3.4c-0.2-0.1-0.2-0.5-0.3-0.7 c-0.2-2.1-0.5-4.2-0.7-6.3l1.9-0.4c-0.1-1,0-1.8-0.2-2.5c-0.2-1.4-0.4-2.8-0.7-4.2c-0.2-1-0.5-2-0.7-3c-0.2-1.2-0.3-2.4-0.5-3.9 l13.1,1.3c-0.2,1.8,1.3,3.7-1.3,4.6c0.4,2.6,0.7,5,1.2,7.5c0.3,1.4,0.6,1.6,2,1.7c2.4,0,4.9,0.1,7.3,0c1.3,0,1.4-0.3,1.4-1.6 c-0.1-2-0.1-4.1-0.2-6.1c-0.1-1.6-0.2-1.8-1.9-1.8c-1.8,0-3.7,0-5.4,0c-0.8-2.9-0.8-2.9-0.5-4.2h14.8v4.2c-1.6,0-3.1,0-4.6,0.1 c-1.4,0-1.6,0.3-1.5,1.6c0.1,0.7,0.1,1.4,0.1,2.2c0.2,3.5,0.4,7.1,0.6,10.6c0.1,1.1,0,2.2,0,3.2c-3,0-5.8,0-8.5,0 c-1,0.1-2,0.2-2.9,0.4c-0.3-0.5-0.6-1-0.7-1.5c-0.4-2.4-0.7-4.8-1-7.2c-0.3-2.8-0.5-5.6-0.7-8.4c0-0.4-0.1-0.7-0.4-1 c-0.3-0.3-0.6-0.4-1-0.4c-2.2-0.2-4.5-0.5-6.7-0.6c-1.1-0.1-1.4,0.3-1.2,1.4c0.2,1.3,0.4,2.6,0.7,3.9c0.2,1.1,0.5,2.2,0.8,3.2 c0.1,0.4,0.3,0.7,0.6,0.9c0.3,0.2,0.7,0.3,1,0.3c1.1,0.1,2.2,0.1,3.4,0.2c1.3,0.1,1.5,0.2,1.6,1.4c0.2,1.8,0.4,3.5,0.6,5.3 c0,0.5,0,1.1,0,1.6c-2.1-0.3-4-0.5-5.8-0.7c-2-0.2-2.4,0.1-2.1,2.1c0,0.3,0.1,0.6,0.2,1c0.2,0.9,0.4,1.9,0.5,2.9 c0.1,1.2,0.1,2.4,0.3,3.5c0.3,2.3,0.7,2.6,3,2.8c0.7,0,1.3,0.1,1.9,0.3c0.4,0.2,1,0.6,1.1,1c0.4,2.1,0.5,4.2,0.5,6.3 c-1.2-0.1-2.2-0.1-3.2-0.2c-1.2-0.1-2.3-0.4-3.5-0.5c-1-0.1-1.4,0.3-1.2,1.2c0.5,2.5,1,5,1.5,7.5c0,0.5,0.3,1,0.7,1.4 c0.4,0.4,0.9,0.5,1.5,0.5c1.5,0,2.7,0.4,2.8,2.1c0.2-0.1,0.3-0.1,0.3-0.1c0.7-3.5,1.8-7,3.4-10.2c0.1-0.6,0.1-1.1,0-1.7 c-0.2-2.2-0.4-4.5-0.7-6.8c0.3,0,0.6-0.1,0.8-0.1c2,0.2,2.2,0.1,2-1.9c-0.2-1.9-0.5-3.8-0.7-5.7c-0.1-0.4-0.1-0.8,0-1.1 c0.1-0.4,0.3-0.7,0.6-1l1.7,9.8c1.3-0.1,1.6-1.1,2.1-1.8c2.4-3.5,5.1-6.7,8.5-9.2c0.3-0.2,0.5-0.5,0.6-0.8c0.1-0.3,0.2-0.7,0.1-1.1 c-0.2-2-0.3-4-0.4-5.9c0-0.5,0-1.1,0.1-1.6c1.4,0,2.7,0,4,0c2.4,0,4.9-0.1,7.3-0.2c1.9-0.1,2.1-0.5,1.9-2.3 c-0.2-1.8-0.3-3.4-0.4-5.1c-0.1-2.1-0.1-2.2-2.3-2.1c-1.6,0-3.3,0.3-5-0.1v-4.1c4-1,8.1-0.7,12.4-1.2c0.3,1.6,0.4,3.2,0.3,4.8 c-1.2,0.1-2.3,0.2-3.3,0.3c-1.2,0.1-1.5,0.4-1.3,1.7c0.2,2,0.5,4,0.8,6.1c0.1,0.4,0.1,1,0.3,1.1c1.1,0.7,1.2,2,1.5,3.2l1.8-0.2 c0.1-1,0.2-1.7,0.3-2.5c2-0.3,3.8-0.6,5.6-0.9c1.3-0.2,1.4-0.5,1.4-1.7c0.1-1.8,0.2-3.7,0.3-5.5c0.2-1.7-0.1-2-1.7-2h-3.5 c-0.1-1.4-0.3-2.8-0.5-4.5c2.5-0.2,4.7-0.7,7.1-0.5c0.2,1.5,0.5,2.8,0.7,4.2c-1.3,0.6-1.4,1.7-1.3,3c0.1,1,0,2.1,0,3.2 c0,1.2-0.3,2.5,0.8,3.5c0.2,0.2,0.2,0.7,0.2,1.1c0,0.9-0.1,1.7-0.1,2.6c0,1.3,0.2,1.5,2,1.5v-5.6c0.5-0.2,0.9-0.4,1.2-0.5 c0.4-0.1,0.7-0.3,0.9-0.6c0.2-0.3,0.3-0.7,0.3-1c0-1.8,0-3.6,0.1-5.3c0-0.8-0.2-1.5-1.1-1.6c-0.9-0.1-1.2-0.7-1.3-1.5 c-0.1-0.9,0-1.9,0-3l4.4-0.6c0.1,1.6,0.2,2.9,0.3,4.2c-0.9,0.5-2,0.9-1.9,2.3c0.3,2.1,0.5,4.2,0.7,6.2c0.3,3,0.6,6.1-0.9,9.1 l2.1,1.6c0.2-0.6,0.3-1.2,0.4-1.8c0.2-2.2,0.3-4.5,0.4-6.7c0-1.1-0.1-2.2,1.1-2.9c0.1-0.1,0.2-0.2,0.3-0.4c0.1-0.1,0.1-0.3,0.1-0.5 c-0.2-2.5,0.5-4.9-0.5-7.4c-0.3-1.1-0.3-2.2-0.2-3.3c0-0.6,0.5-0.8,1.3-0.6c0,0.9,0,1.8,0,2.7c-0.1,1.7-0.2,3.4-0.2,5.1 c-0.1,3.3-0.2,6.6-0.2,9.9c0,1.1-0.1,2.2-1.2,3c-0.3,0.2-0.4,0.5-0.4,0.8c-0.1,1.6-0.4,3.2,1.2,4.3c0.7,0.6,1.5,1.3,2.1,2.1 c0.4,0.2,0.9,0.4,1.3,0.6c-0.6-7.9,1.8-14.9,4.9-21.7C542.2,382,545.7,375.4,551.8,370.7z M456.4,381.9c0.9,0.8,1,1.3,0.5,3.7 C455.8,384.7,455.7,383.6,456.4,381.9z M456.1,398.5L456.1,398.5v-1.9V398.5z M456.7,438c0-1.8,0-3.6,0-5.4h0.4 c0.3,2.2,0.6,4.4,0.9,6.6C456.9,439.3,456.7,438.7,456.7,438L456.7,438z M461.2,405.5c0.2,2.5,0.4,5,0.6,7.5c0.1,0.5,0.2,1,0.4,1.5 c0.2,1,0.6,1.7,1.8,1.8c0.2,0,0.4,0,0.6,0.1c0.2,0.1,0.4,0.2,0.5,0.4c0.1,0.2,0.3,0.3,0.3,0.6c0.1,0.2,0.1,0.4,0.1,0.6 c0.2,1.8,0.4,3.7,0.6,5.5c0,0.2-0.2,0.5-0.3,0.9l-1.5-0.2c-0.9-0.1-1.2,0.3-1.2,1.1c0,0.5,0.1,1.1,0.2,1.6c0.8,4,1.6,8,2.3,12 c0.2,0.9,0.2,1.9,0.4,3.2c-2.2-0.6-4-1.1-5.8-1.7c-0.2-0.1-0.4-0.3-0.6-0.5c-0.2-0.2-0.3-0.4-0.3-0.7c-0.7-4.3-1.3-8.7-1.9-13 c-0.1-0.7-0.1-1.4-0.2-2.2c0-0.5-0.1-0.9-0.3-1.3c-1.6-2.7-0.4-5.5-0.6-8.3c1.2,0,1.7,0.5,1.8,1.4c0.3,1.8,0.6,3.6,0.9,5.4 c0.1,0.4,0.1,1.1-0.1,1.3c-0.8,0.8-0.6,1.7-0.5,2.6c0.2,1.7,0.5,3.4,0.7,5.1c0.4,2.7,1.4,3.5,4.5,3.4c0-0.5,0-1-0.1-1.5 c-0.3-2.2-0.7-4.4-1.1-6.6c0-0.3,0-0.8-0.2-0.9c-1.6-1.8-1.2-4.1-1.6-6.2c-0.2-1.2-0.7-2.4,0.3-3.6c0.1-0.1,0.1-0.4,0-0.6 c-0.3-3.2-0.6-6.3-0.9-9.4c-0.1-0.3-0.2-0.5-0.4-0.7c-0.2-0.2-0.4-0.4-0.6-0.5c-0.3-0.2-0.6-0.4-0.8-0.7c-0.2-0.3-0.3-0.7-0.2-1 c0-1.6-0.1-3.2-0.1-4.7c0-0.3-0.1-0.6,0.1-0.8c1-1.2,0.6-2.6,0.6-4c0-3.1,0-6.2,0-9.7l6.5,0.8v4l-5.1-0.8c-0.1,0.4-0.2,0.8-0.3,1.2 c0,2.2,0.1,4.5,0,6.7c0,0.2,0,0.5,0,0.7c0.1,0.2,0.2,0.4,0.3,0.6c0.1,0.2,0.3,0.3,0.5,0.4c0.2,0.1,0.4,0.2,0.7,0.2 c0.8,0.1,1.5,0.3,2.3,0.4c1.5,0.3,1.9,0.6,2.1,2.1c0.2,1.7,0.4,3.4,0.6,5.1c0,0.1-0.1,0.2-0.2,0.6l-3.3-0.5 C461.4,404,461.1,404.2,461.2,405.5L461.2,405.5z M522.9,380c-9.6,0.8-19.1,1.7-28.8,1.7c-6,0-12.1,0-18.2-0.4 c-4.2-0.3-8.4-1.2-12.7-1.8v-0.5c0.5-0.2,0.9-0.4,1.4-0.5c11.4-2.6,23-3.1,34.7-2.4c3.2,0.2,6.4,0.2,9.7,0.4 c5.9,0.4,11.8,0.8,17.8,2.9C525.3,379.5,524.1,379.8,522.9,380L522.9,380z"></path><path class="st0" d="M596.4,388.8c-1.9-5.4-5.3-10.1-9.8-13.6c-3.6-2.8-7.8-4.3-12.2-5.2c-3.4-0.8-6.8-0.9-10.2-0.2 c-6.1,1.2-11.5,4.6-15.2,9.6c-7.3,9.6-11.9,20.4-12.7,32.6c-0.1,0.9,0.1,1.8,0.5,2.6c2.1,3.2,3.7,6.7,5,10.3 c0.3-0.4,0.6-0.8,0.9-1.3c0.7-1.6,1.3-3.3,2.1-4.9c3.4-6.7,8-12.1,15.1-15.1c6.8-2.9,13.6-3.9,20.7-1.4c4.1,1.3,7.8,3.4,11.1,6.2 c2.9,2.6,4.6,6,6,9.6c0.2,0.5,0.2,1.2,1.2,0.9c0.2-1.8,0.5-3.6,0.7-5.4c0.5-5.2,0.9-10.5-0.4-15.7 C598.4,394.8,597.5,391.8,596.4,388.8z"></path><path class="st0" d="M496,256.1c-6.7,2.2-13.2,5.3-19.2,9c-5,3.2-9.8,6.9-14.1,11.1c-3.2,3-6.2,6.3-8.8,9.8 c-3.4,4.6-6.2,9.6-6.9,15.4c-0.3,1.8,0.1,3.6,1,5.2c0.9,1.6,2.3,2.8,3.9,3.5c1.6,0.7,3.2,1.1,4.9,1.2c4.7,0.2,9.5-0.5,13.9-2.2 c4.7-1.8,9.3-3.9,13.8-6.3c4.7-2.7,9.2-5.8,13.4-9.2c4.7-3.8,9-8.1,12.7-12.8c3.8-4.9,7.1-10,7.9-16.5c0.3-1.8,0-3.7-0.9-5.3 c-0.9-1.6-2.3-2.9-3.9-3.7c-2.2-0.9-4.6-1.3-7-1.2C503.2,254.2,499.5,254.9,496,256.1z M489.4,261.7c2.1-0.9,4.3-1.7,6.4-2.5 c0.3-0.1,0.7,0.2,1,0.3c-0.1,0.3-0.2,0.9-0.4,1c-2.4,0.9-4.7,1.8-7.2,2.6c-0.1,0-0.3-0.2-0.7-0.5 C488.9,262.2,489.1,261.8,489.4,261.7z M455.1,289.2c2.2-2.6,4.2-5.4,6.5-7.9c5.7-5.9,12.1-11,19.2-15.2c1.3-0.8,2.7-1.5,4.1-2.2 c0.7-0.4,0.7-0.3,1.9,0.3c-0.6,0.5-1.3,0.9-1.9,1.3c-8.3,4.4-15.8,10.1-22.4,16.9c-2.2,2.3-4,4.8-6,7.3c-0.4,0.5-0.9,1-1.4,1.6 c-0.2-0.1-0.3-0.3-0.4-0.4c-0.1-0.2-0.2-0.4-0.2-0.6c0-0.2,0-0.4,0.1-0.6C454.8,289.5,455,289.4,455.1,289.2z M487.6,297.1 c0,0.3-0.1,0.5-0.3,0.7c-0.9,0.7-1.8,1.3-2.8,1.9c-5.1,3-10.5,5.4-16.1,7.2c-3.2,1-6.5,1.5-9.9,1.7c-2,0.1-4.1-0.4-5.9-1.3 c-0.7-0.3-1.3-0.7-1.7-1.3c-0.4-0.6-0.7-1.3-0.7-2c-0.1-1.6-0.1-3.1,0.2-4.7c0.4-1.5,0.9-3,1.6-4.4c0.3-0.4,0.6-0.8,0.9-1.1 c0.9,1.1,0.3,1.8,0.1,2.5c-0.4,1.3-0.9,2.6-1.4,3.9c-0.1,0.3-0.1,0.5-0.2,0.8c-0.6,3.2,0.8,5.2,4,5.7c3.8,0.5,7.8,0.2,11.5-1 c6.7-1.9,13.1-4.9,18.9-8.7c0.2-0.2,0.4-0.3,0.7-0.4c0.2,0,0.4,0,0.6,0.1l0.6,0.1C487.6,296.9,487.5,297,487.6,297.1L487.6,297.1z  M489.1,289.1c-5.2,3.5-10.7,6.4-16.9,7.2c-2.1,0.3-4.1,1.3-5.5,2.9c-2.9,2.8-3,2.8-7.4,1.7c1.4-1.7,3.2-2.9,4.8-4.7 c-0.5-0.3-0.8-0.7-1.2-0.9c-1.6-1.1-2.3-2.5-1.7-4.4c0.4-1.5,1.1-2.8,1.9-4c6.9-8.7,15.4-15,26.1-18.3c1.6-0.5,3.3-0.8,5-0.9 c1.1-0.1,2.1-0.5,2.8-1.2c0.9-0.8,1.8-1.5,2.6-2.4c0.4-0.4,0.8-0.8,1.4-0.9c0.5-0.2,1.1-0.2,1.6-0.1c0.9,0.2,1.8,0.3,2.7,0.4 l0.2,0.5c-1.3,1.3-2.7,2.6-4.2,4c0.8,0.5,1.3,0.8,1.8,1.2c0.6,0.4,1.1,1,1.4,1.7c0.3,0.7,0.3,1.5,0,2.2c-0.5,1.9-1.5,3.5-2.8,4.9 c-0.4,0.5-1.1,0.7-1.7,0.7c-1.6-0.1-3.1-0.4-4.8-0.7c0.3-0.7,0.6-1.2,0.8-1.7c0.2-0.5,0.4-1.1,0.5-1.7c0-0.2-0.1-0.4-0.2-0.6 c-0.1-0.2-0.2-0.4-0.4-0.5c-0.2-0.1-0.4-0.1-0.6,0c-0.2,0-0.4,0.1-0.6,0.3c-1.4,1.2-2.8,2.5-4.1,3.7l-13.6,12.4 c-0.4,0.4-0.8,0.8-1.4,1.5c0.5,0.1,1.1,0.1,1.6,0c2-0.8,3.9-1.8,5.8-2.9c1.1-0.7,2.4-1,3.7-0.8c1,0.2,2,0.3,3.1,0.5l0.4,0.6 C489.8,288.7,489.5,288.9,489.1,289.1L489.1,289.1z M511.5,257.7c1.2,0.3,2.3,0.9,3,1.9c0.8,0.9,1.2,2.1,1.3,3.3 c0.1,3.3-1,6.2-2.5,9c-3.5,6.3-8,11.9-13.5,16.5c-2.5,2.2-5.1,4.2-7.6,6.2c-0.4,0.2-0.7,0.5-1.1,0.6c-0.1-0.1-0.3-0.1-0.3-0.2 c-0.1-0.1-0.2-0.2-0.2-0.4c0-0.1,0-0.3,0-0.4c0-0.1,0.1-0.3,0.2-0.4c0.4-0.4,0.9-0.8,1.4-1.1c3.4-3,7-5.8,10.3-8.9 c4.5-4.5,8.4-9.4,10.8-15.4c0.7-1.6,1.1-3.2,1.2-4.9c0.1-3.2-1.9-4.2-4-4.6c-2.7-0.4-5.5-0.3-8.2,0.2c-0.7,0.1-1.5,0.1-2.2,0.2 c-0.1-0.2-0.1-0.4-0.2-0.7c0.4-0.3,0.8-0.7,1.2-0.8C504.4,257.2,507.9,256.6,511.5,257.7L511.5,257.7z"></path><path class="st0" d="M476,365.1c4-0.6,8.1-0.9,12.1-1.8c5.3-1.2,10.5-2.8,15.8-4.3c5.7-1.7,11.3-3.4,16.6-6.2 c0.6-0.3,1.2-0.5,1.9-0.6c1.8-0.2,3.5-0.3,5.3-0.4c0.4,0,0.8,0.1,1.2,0.2l-1.3,1.6c0.6,1.3,1.1,2.4,1.6,3.6c2.4-0.7,3.7-2.9,3.1-4.9 c-0.3-1-0.2-1.6,0.8-2c1-0.5,1.8-1.4,2.1-2.5c0.6-1.4,1.3-2.7,2-4.1c0.4-0.6,0.5-1.3,0.5-2c0-0.7-0.3-1.4-0.7-1.9 c-0.7-0.9-1.6-1.8-2.5-2.6c-3.4-2.9-7.2-5.3-11.3-7.1c-5.4-2.4-10.8-4.7-16.4-6.7c-5.1-1.8-10.3-3.1-15.6-4 c-4.8-0.8-9.7-1.2-14.5-1.1c-0.9,0-1.7,0.2-2.5,0.3c-3,0.5-5.9,1.1-8.9,1.6c-0.6,0.1-1.2,0.3-1.8,0.6c-0.5,0.3-1,0.8-1.3,1.3 c-1.3,1.8-2.3,3.9-2.8,6c-0.8,3.2-0.7,3.2,1.6,5.4l0.3,0.3c2.7,2.6,5.9,4.6,9.4,6c4,1.6,7.9,3.2,11.9,4.7c3.7,1.5,7.4,3,11.6,2.8 c0.4,0.1,0.8,0.2,1.1,0.4c-1.8,1.2-3.7,1.1-5.4,1.5c-7,1.3-13.8,3.2-20.5,5.6c-5.8,2.2-11.1,5.3-15.8,9.2c0.6,0.4,1.3,0.7,2,0.9 c2.1,0.4,4.2,0.6,6.3,0.7C466.4,365.9,471.2,365.7,476,365.1z M507.2,347.3l-10.7-2.4l1-4.1l10.6,3C507.8,345,507.6,346,507.2,347.3 z M519,349.4l-9.5-1.5c0.2-1.2,0.3-2.3,0.5-3.6c3.3,0.2,6.2,1.3,9.5,1.7C519.4,347.2,519.2,348.2,519,349.4z M525.2,349.8 c-0.3,0.2-0.4,0.3-0.5,0.3c-3.3,0.2-3.6-0.1-2.7-3.7l4,0.2C525.7,347.9,525.4,348.9,525.2,349.8z M527.8,350 c-0.3-2.9,0.2-3.6,2.2-3.2C529.9,348.9,529.6,349.4,527.8,350z M532.2,347.9c0.2-0.5,0.5-1.1,0.8-1.6 C533.1,347.2,533.1,347.2,532.2,347.9z M465.8,322.8c0.9-0.4,1.8-0.7,2.8-0.9c3-0.7,6.1-0.8,9.2-0.5c4,0.3,7.9,0.7,11.8,1.3 c6.4,1,12.9,2.1,18.9,4.5c5,2,9.9,4.3,14.8,6.6c3.3,1.7,6.2,4,8.6,6.8c0.7,0.9,1.2,1.9,1.7,2.9c-1.3,0.1-2.1,0.3-2.9,0.3 c-4.6,0-9.2-0.4-13.7-1.3c-9.5-1.6-18.6-4.5-27.8-7.5c-6.7-2.2-13.5-4.3-19.9-7.5c-1.4-0.7-2.6-1.5-3.8-2.4 C464.3,324.2,464.5,323.4,465.8,322.8L465.8,322.8z M461.5,329.4c-0.3-1.2,0.3-2,1.1-3.1C463,327.9,462.1,328.6,461.5,329.4 L461.5,329.4z M464.9,332.1c-2-0.8-2-1.2-0.5-4l1.7,1.1C465.7,330.3,465.3,331.2,464.9,332.1L464.9,332.1z M471,336.3l-4.6-2.8 c0.5-1.2,0.8-2.1,1.2-3c1.9,0.1,3.7,0.8,5,2.1L471,336.3z M481.2,340.3c-0.4,0-0.8-0.1-1.2-0.2c-1.9-0.8-3.9-1.6-5.8-2.5 c-1.4-0.6-1.4-0.7-0.9-2.2c0.3-0.7,0.6-1.4,1-2.4c2.8,1.1,5.7,1.5,8.5,3C482.2,337.7,481.7,339,481.2,340.3L481.2,340.3z  M494.2,344.2c-1.9-0.6-3.7-1.1-5.5-1.6c-1.8-0.6-3.7-0.5-5.4-1.6c0.5-1.4,1-2.7,1.6-4.1l10.8,3.3 C495.1,341.6,494.7,342.8,494.2,344.2L494.2,344.2z"></path><path class="st0" d="M40.7,255.4c3.1-0.7,6.1-1.5,9.1-2.4c2.3-0.6,4.5-1.3,6.8-2.1c0.7-0.2,1.3-0.7,1.7-1.3c0.4-0.6,0.6-1.3,0.6-2.1 c-0.1-0.7-0.5-1.3-1-1.8c-0.5-0.5-1.1-0.8-1.8-0.9c-0.4-0.1-0.8-0.2-1.2-0.2c-1.8-0.2-3.7-0.3-5.5-0.4c-0.6,0-1.1-0.1-1.7-0.2 l-0.1-0.4l18-4.9v-0.4c-0.6,0-1.3,0-1.9,0c-2.8,0.2-5.7,0.5-8.5,0.5c-6.6-0.1-13.1,1.4-19.6,2.1c-0.9,0.1-1.8,0.4-2.6,0.8 c-0.5,0.2-1,0.6-1.3,1.1c-0.3,0.5-0.5,1.1-0.5,1.7c0,0.6,0.2,1.2,0.6,1.8c0.4,0.5,0.9,0.9,1.5,1.2c1,0.4,2,0.7,3,0.9 c1.6,0.3,3.2,0.6,4.7,0.9c-2.2,0.9-4.5,1.5-6.8,2.1c-2.3,0.6-4.6,1.1-6.9,1.7l-6.7,1.7c-2.3,0.6-4.6,1.1-6.9,1.7 c-2.3,0.5-4.6,1.1-6.9,1.6s-4.6,0.6-6.8,1.6c0.3,0.3,0.3,0.5,0.4,0.5c0.5,0.1,1.1,0.1,1.6,0.1c5.9-0.5,11.8-0.8,17.7-1.5 c5.7-0.7,11.4-1.6,17.2-2.5C38.1,255.9,39.4,255.7,40.7,255.4z"></path><path class="st0" d="M72.3,266.3c-2.7,1.5-5.4,3-8.1,4.6c-6.6,3.9-13.2,7.8-19.8,11.9c-1.4,0.9-2.7,1.9-3.8,3.1 c-1.7,1.8-1,4,1.4,4.4c1.5,0.3,3,0.3,4.5,0.2c2.2-0.1,4.3-0.3,6.5-0.5c0.5,0,1,0,1.5,0.1c-0.7,0.7-1.2,1.1-1.6,1.6 c-1.7,1.6-3.4,3.1-5,4.7c-2.2,2.3-4.2,4.7-6.4,6.9c-5.4,5.2-10.9,10.3-16.4,15.4c-0.8,0.8-1.6,1.7-2.4,2.5l0.3,0.3 c1.1-0.8,2.3-1.5,3.3-2.3c10.3-7.6,20.1-15.7,29.8-24c1.5-1.3,2.9-2.7,4.2-4.2c1.9-2.4,0.8-4.9-2.2-5.2c-1.2-0.1-2.4-0.1-3.6-0.1 c-2.7,0.1-5.3,0.4-8,0.6l-0.3-0.4c0.3-0.2,0.7-0.4,1-0.6c3.8-2.1,7.1-4.9,10.5-7.7c4.9-4,10-7.7,15.4-11c0.7-0.4,1.3-1,1.9-1.4 l-0.2-0.3C74,265.5,73.1,265.8,72.3,266.3z"></path><path class="st0" d="M7.4,201.4c3.9,1.1,7.7,2.1,11.6,3.2c7.4,2.1,14.9,4.3,22.3,6.5c3.2,0.9,6.3,1.9,9.5,2.7 c2.8,0.8,3.7,0.3,4.7-2.1l7.9-1c-0.4-0.6-0.4-0.9-0.6-1c-1.6-0.9-3.3-1.6-5-2.2c-2.7-0.7-5.5-1.1-8.3-1.6c-1.7-0.3-3.3-0.1-4,2 c-0.7-0.2-1.2-0.3-1.8-0.4c-4.2-1.2-8.4-2.5-12.7-3.6c-7.5-1.8-15-3.5-22.5-5.2c-0.8-0.2-1.7-0.2-2.5-0.1c-0.2,0-0.4,0.1-0.6,0.3 c-0.2,0.1-0.3,0.3-0.4,0.5c0,0.2,0,0.4,0.1,0.6c0.1,0.2,0.2,0.4,0.4,0.5C6,200.9,6.7,201.2,7.4,201.4z"></path><path class="st0" d="M538.6,313.8c3.2,2.8,6.3,3.6,10.1,1.5c1-0.5,1.9-1.1,2.8-1.8c5.1-3.7,8.8-8.6,11.8-14.1 c0.4-0.8,0.9-1.6,1.4-2.5c0.3,0.2,0.5,0.3,0.7,0.5c6,6.8,9.5,14.6,9.7,23.8c0,5.7-0.8,11.3-2.4,16.7c-0.3,1.2-0.5,2.4-0.8,3.6 l0.4,0.1c0.5-1.4,1.1-2.7,1.6-4.1c1.3-4.2,2-8.6,2.3-13c0.3-4.2-0.1-8.4-1.2-12.5c-1.6-5.6-4.5-10.8-8.4-15c-0.5-0.4-0.8-1-0.9-1.6 c-0.1-0.6,0-1.3,0.3-1.8c1.7-4,2.8-8.2,3.3-12.5c0.4-4.3,0.1-8.7-1.1-12.9c-1.1-4.4-2.8-8.6-5.2-12.5c-0.4-0.7-0.9-1.3-1.4-1.9 c-0.2-0.2-0.5-0.4-0.8-0.5c8,13.1,10,26.6,3.7,41c-0.5-0.4-0.9-0.6-1.2-0.9c-1.8-1.6-3.6-3.3-5.5-4.8c-2.8-2.4-5.7-4.5-9.3-5.5 c-5.6-1.6-9.9,0.1-12.4,5.2c-2.7,5.5-3.4,11.8-1.9,17.7C534.8,309,536.3,311.8,538.6,313.8z M536.2,290.4c2-5.6,6.7-8.6,13-5.9 c2.1,0.9,4.1,2.1,5.9,3.5c2.7,2.1,5.1,4.5,7.7,6.7c0.2,0.1,0.3,0.3,0.5,0.4c0.1,0.2,0.2,0.4,0.3,0.6c0,0.2,0,0.4,0,0.6 c0,0.2-0.1,0.4-0.2,0.6c-3,6-6.7,11.4-12.2,15.5c-0.8,0.6-1.6,1.1-2.5,1.6c-3.5,2.2-7,1.4-9.7-1.3c-2.3-2.3-3.7-5.3-4.1-8.5 c-0.2-1.4-0.2-2.9-0.3-4.3C534.5,296.6,535.1,293.4,536.2,290.4L536.2,290.4z"></path><path class="st0" d="M491.7,210.1c3.7-1.7,7.9-2.3,11.9-1.5c0.7,0.1,1.4,0.4,2,0.8c0.2,0.2,0.4,0.4,0.6,0.6c0.1,0.2,0.2,0.5,0.3,0.8 c-0.1,0.3-0.3,0.5-0.5,0.7c-0.2,0.2-0.5,0.3-0.7,0.4c-1.2,0.2-2.3,0.3-3.5,0.2c-2.1,0-4.2-0.2-6.3-0.2c-0.7,0.1-1.4,0.3-2.1,0.6 c0,0.2,0,0.4,0,0.6c0.6,0.4,1.2,0.7,1.9,0.9c1.7,0.4,3.5,0.6,5.2,1c2,0.4,4.1,0.3,6-0.3c2.7-0.9,4.6-3.8,1.6-6.7 c-0.6-0.5-1.3-0.9-2-1.2c-2.3-1.1-4.7-0.9-7.2-0.7c-2.8,0.2-5.5,1.1-7.9,2.7c-0.6,0.3-1.5,0.7-1.1,1.6 C490.3,211.2,491,210.4,491.7,210.1z"></path><path class="st0" d="M501.7,297.2l-2.2-2.4c-0.4,0.2-0.6,0.3-0.7,0.4c-0.2,0.1-0.5,0.4-0.8,0.6c-1.2,0.9-1.2,0.9-0.3,2.2 c0.8,1.3,1.7,2.6,2.6,3.9c0.3,0.3,0.7,0.6,1,0.9c1.7-1.4,3.3-2.7,4.9-4.1c0.6-0.5,1.1-1,1.6-1.5c0.9-0.9,1.9-1.8,2.8-2.7 c0.5-0.5,0.8-1,0.4-1.6c-1.1-1.9-2.4-3.6-3.8-5.2c-0.4,0.2-0.8,0.5-1.1,0.8c-1.5,1.5-1.5,1.7-0.3,3.5c0.7,0.9,1.3,1.9,2,2.9 c0.3,0.5,0.5,1.1-0.4,1.6c-1.7-1.2-2.1-3.7-4.3-5c-0.7,0.7-1.7,1.3-2,2.1c-0.2,0.6,0.7,1.4,1,2.2c0.1,0.1,0.1,0.2,0.2,0.3 C502.5,296.5,502.4,297,501.7,297.2z"></path><path class="st0" d="M494.6,365c-3.9,0.9-7.8,1.8-11.7,2.7c-0.2,0-0.3,0.2-0.6,0.5c0.3,0.8,0.7,1.5,1.2,2.2c0.2,0.2,0.4,0.3,0.6,0.5 c0.2,0.1,0.5,0.2,0.7,0.2c4-0.3,8-0.3,11.9-1.5c0.5-0.2,1-0.4,1.4-0.7c-0.4-0.9-0.6-1.7-1-2.5C496.5,364.7,496.2,364.6,494.6,365z"></path><path class="st0" d="M469.8,315.4c-0.3-0.3-0.6-0.6-0.8-0.9c-0.7-0.9-1.4-1.7-2.1-2.6l-3.5,0.8c0.9,1.5,1.7,2.7,2.4,3.9 c1.3,2.1,1.3,2.1,3.7,1.6c0.6-0.1,1.2-0.1,1.7-0.3c1.7-0.4,3.5-0.6,5.1-1.7c-1-1.5-2-3-3-4.4c-1-1.4-1.1-1.5-2.7-0.9 c-0.5,0.2-1.1,0.4-1.7,0.7c0.2,0.5,0.4,0.8,0.6,1.1c0.4,0.7,1,1.2,1.3,1.9c0.1,0.2-0.1,0.7-0.2,1 C470.6,315.7,470.1,315.6,469.8,315.4z"></path><path class="st0" d="M489.3,307.4c-0.6-0.9-1.2-1.9-1.8-2.8c-0.1-0.2-0.2-0.3-0.3-0.4c-0.1-0.1-0.3-0.2-0.5-0.3 c-0.2-0.1-0.4-0.1-0.5,0c-0.2,0-0.4,0.1-0.5,0.2c-0.7,0.4-1.4,0.9-2.1,1.4c1.3,1.9,2.5,3.7,3.7,5.3c0.1,0.1,0.3,0.2,0.5,0.3 c0.2,0.1,0.4,0.1,0.6,0c2.3-1.2,4.7-2.3,6.8-4.2c-1.2-1.8-2.4-3.5-3.6-5.2c-0.2-0.2-0.4-0.3-0.6-0.3c-0.2-0.1-0.5-0.1-0.7,0 c-0.7,0.4-1.3,0.9-1.9,1.4c0.8,2,2.7,3.3,2.8,5.4C490,308.6,489.7,307.9,489.3,307.4z"></path><path class="st0" d="M518.9,274.3c0.6,0.8,1.2,1.5,1.7,2.4c0.3,0.5,0.7,1.2-0.5,1.8l-3.1-4c-0.7,1-1.3,1.9-1.8,2.7 c-0.1,0.1-0.1,0.2-0.1,0.4s0,0.3,0.1,0.4c1.2,1.8,2.4,3.5,3.8,5.5c1.9-2.4,3.2-5.2,4-8.2c0.1-0.5,0.1-1-0.1-1.5 c-1-1.6-2-3.2-3.1-4.7l-0.6,0.1c-0.2,0.6-0.4,1.2-0.7,1.8C517.8,272.1,518,273.2,518.9,274.3z"></path><path class="st0" d="M502,368.1c1.4-0.4,2.8-0.8,4.1-1.2c3.3-1,3.1-0.5,2-4c-0.4-1.4-0.8-1.5-2.2-1.1c-2,0.6-4,1.1-6,1.7 c-0.6,0.2-1.2,0.4-2,0.8c0.5,1.1,0.8,1.8,1.2,2.6C499.9,368.5,500.3,368.6,502,368.1z"></path><path class="st0" d="M480.3,317.1l13.2,0.7c-0.6-2.4-1.1-4.4-1.7-6.7l-11.5,5.7L480.3,317.1z"></path><path class="st0" d="M460.9,372.2c2.4,0.1,4.7,0.2,7.1,0.2c0.4,0,0.7-0.1,1.1-0.2c-0.2-2.7-0.9-3.3-3.2-3.4 c-2.3-0.1-4.7-0.4-7.1-0.6c-0.5,0-1,0-1.6,0c0.3,0.8,0.6,1.3,0.8,1.9c0.2,0.6,0.5,1.2,1.1,1.6C459.6,372,460.3,372.2,460.9,372.2z"></path><path class="st0" d="M315.9,329.1c1.4,0.3,2.9,0.3,4.4,0c4.3-0.4,8.6-0.8,12.9-1.2c0.8-0.1,1.7-0.1,2.5-0.2c0.4-0.2,0.8-0.4,1.1-0.7 C333.5,325,319.9,326.3,315.9,329.1z"></path><path class="st0" d="M479.3,368c-1.8,0.1-3.7,0.2-5.5,0.4c-1.1,0.1-2.2,0.3-3.2,0.4c0.2,2.9,0.7,3.3,3.2,3c1.8-0.2,3.5-0.3,5.3-0.5 c0.9-0.1,1.9-0.3,3-0.5c-0.2-0.6-0.2-0.9-0.3-1.1C481.1,368,481.1,367.9,479.3,368z"></path><path class="st0" d="M520.4,357.2c-2.6,1.1-2.6,1-1.1,3.5c0,0.1,0.1,0.1,0.1,0.2c0.4,0.9,1,1,1.8,0.6c1-0.5,2.1-0.9,3.1-1.3 c3.5-1.7,3.5-1.7,1.7-5.4c-0.3,0.1-0.6,0.2-0.9,0.3C523.4,355.7,521.9,356.5,520.4,357.2z"></path><path class="st0" d="M511,365.3c2.4-0.6,4.8-1.5,7-2.8c-0.4-1.3-0.8-2.5-1.2-4c-2.6,0.9-5,1.3-7.4,2.6L511,365.3z"></path><path class="st0" d="M495.1,298l-2.7,2c1.2,1.8,2.4,3.4,3.4,5c0.3,0.3,0.6,0.7,0.9,1l2.8-2.1C497.9,300.9,496.3,298.7,495.1,298z"></path><path class="st0" d="M508.3,286.4l4.3,5.9l2.5-2.9c-1.5-2-2.8-3.9-4.3-5.9L508.3,286.4z"></path><path class="st0" d="M479.4,307.4c-0.1,0.1-0.1,0.2-0.3,0.5c0.7,1.1,1.5,2.2,2.2,3.3c1.7,2.7,1.7,2.7,4.8,0.9 c-0.2-0.5-0.5-1.1-0.8-1.6c-0.5-0.8-1.1-1.5-1.6-2.2C482,306.1,482.6,305.7,479.4,307.4z"></path><path class="st0" d="M517.2,283.7c-0.7-1.1-1.4-2.2-2.2-3.2c-0.3-0.4-0.7-0.7-1.1-1.1c-0.4,0.5-0.7,0.9-1,1.2 c-1.1,1.4-1.1,1.5-0.1,2.9c1,1.4,2,2.8,3,4.2C518,286.4,518.3,285.5,517.2,283.7z"></path><path class="st0" d="M465.2,318.3c-1.1-1.6-2.1-3.2-3.2-4.7c-0.1-0.2-0.3-0.3-0.5-0.5c-0.2-0.1-0.4-0.2-0.6-0.2 c-1.1,0-2.1,0.2-3.6,0.3c1.1,1.6,2,2.9,2.9,4.2C461.3,319.1,463.1,319.5,465.2,318.3z"></path><path class="st0" d="M476.3,308.7c-0.8,0.3-1.5,0.6-2.2,1c1.1,1.9,2.3,3.7,3.7,5.4c0.2,0.1,0.4,0.2,0.6,0.3c0.2,0,0.4,0,0.7,0 c0.8-0.3,1.5-0.6,2.2-0.9c-0.9-1.9-2.1-3.8-3.5-5.4c-0.2-0.2-0.4-0.3-0.7-0.3C476.8,308.7,476.5,308.7,476.3,308.7z"></path><path class="st0" d="M502.5,243.7c0.4-0.7,0.1-1.1-0.5-1.5c-1.5-1-2.9-2-4.4-3c-1.1-0.8-2.3-1.4-3.6-2.2l-1.5,1.6 c2.9,2,5.5,3.8,8.2,5.5C501.4,244.7,502,244.4,502.5,243.7z"></path><path class="st0" d="M499.2,307.6c0.7,2.4,1.3,4.7,1.9,7c0.3,1.1,0.6,2.3,1,3.4c0.2,0.7,0.6,1.3,1.8,0.9c-0.9-4.5-2.1-9-3.5-13.3 C498.9,306,498.9,306.7,499.2,307.6z"></path><path class="st0" d="M523.2,271c0.4-1.4,0.3-2.9-0.3-4.3c-0.5-1.4-1.5-2.6-2.7-3.4c-0.1,1.2-0.5,2.3-0.1,3.1 C521,268,522,269.5,523.2,271z"></path><path class="st0" d="M452.2,312.2c0.9,3,3.8,5.7,6.2,5.5c-0.8-1.2-1.6-2.3-2.3-3.5C455.2,312.6,453.9,312.2,452.2,312.2z"></path><path class="st0" d="M495.6,309.6c-0.1-0.1-0.2-0.2-0.3-0.2c-0.1-0.1-0.2-0.1-0.4-0.1c-0.1,0-0.2,0.1-0.3,0.1 c-0.1,0.1-0.2,0.2-0.2,0.3c-0.1,0.4-0.1,0.8,0,1.1c0.6,2.1,1.2,4.3,1.9,6.4c0.2,0.5,0.5,0.9,0.9,1.3l0.6-0.3c0-0.5,0-1-0.1-1.5 c-0.6-2.1-1.2-4.3-1.8-6.4C495.8,310,495.7,309.8,495.6,309.6z"></path><path class="st0" d="M506.7,245.9c-1.5,1-1.6,1.4-1,2c1.2,1.1,2.5,2,3.9,2.9c0.2,0.2,0.7,0,1.2-0.1 C509.9,248.8,508.5,247.1,506.7,245.9z"></path><path class="st0" d="M456.7,370.9c-0.7-1.7-0.7-3.8-3.2-3.8C453.1,369.6,454.2,371,456.7,370.9z"></path><path class="st0" d="M246.8,185.3c-1-0.2-1.9-0.4-2.9-0.5c-6.1-0.5-12.2-1-18.3-1.3c-5.7-0.3-11.4-0.2-17.2-0.3 c-7.2-0.1-14.4-0.2-21.5-0.1c-7.4,0.1-14.9,0.5-22.3,0.8c-2.2,0.1-4.4,0-6.5,0.3c-5.2,0.6-10.4,1.1-15.6,2.3 c-0.9,0.1-1.7,0.5-2.4,1.2c-0.7,0.6-1.2,1.4-1.4,2.3c-0.6,1.9-1.1,3.8-1.6,5.7c-1.2,4.6-2.3,9.3-3.4,14c-0.9,3.8-1.7,7.6-2.5,11.3 c-0.8,4-1.6,7.9-2.3,11.8c-1,5-2,9.9-2.9,14.9c-0.8,4.3-1.4,8.6-2.1,12.8c-1.1,6-2.2,11.9-3.3,17.8c-0.9,4.9-1.6,9.7-2.5,14.6 c-0.8,4.9-1.6,9.7-2.4,14.6c-0.7,4.1-1.2,8.2-1.9,12.3c-0.8,5.2-1.8,10.4-2.5,15.6c-1.1,7.9-2.1,15.8-3,23.7 c-0.6,4.9-1.1,9.8-1.6,15.1c0.1,0.6,0.2,1.6,0.4,2.5c0.3,1.1,1,2,1.9,2.7s2,1,3.2,0.9c6.9-0.4,13.8-0.9,20.7-1.1 c10.1-0.4,20.1-0.7,30.2-0.9c10.9-0.2,21.7,0.1,32.6,0.8c3.8,0.2,7.6,0.7,11.4,1c2.5,0.2,5,0.3,7.5,0.5c0.6,0.1,1.1,0,1.6-0.3 c0.5-0.2,0.9-0.6,1.3-1.1c1-1.3,1.5-3,1.4-4.6c0-2.3,0.1-4.6,0.3-6.9c0.5-5.6,1.1-11.3,1.7-16.9c0.6-5.8,1.2-11.5,1.9-17.3 c0.9-7.4,1.8-14.8,2.8-22.1c0.6-4.4,1.2-8.7,1.8-13.1c0.8-5.3,1.5-10.5,2.3-15.8c0.7-4.6,1.3-9.1,2.1-13.6c0.7-4.4,1.6-8.8,2.4-13.2 c1.4-7.4,2.7-14.9,4.2-22.3c1.4-7.2,2.9-14.4,4.5-21.6c1.2-5.6,2.5-11.2,3.8-16.7c0.6-2.5,1.2-5,1.8-7.5 C248.5,186.1,248.2,185.6,246.8,185.3z M136.9,314.7c-0.2,0.5-0.6,1-1.1,1.3c-0.5,0.3-1,0.6-1.5,0.7c-0.4,0.1-0.8,0.1-1.2,0.1 c-0.4-0.1-0.8-0.2-1.1-0.4c-0.3-0.2-0.6-0.5-0.8-0.9c-0.2-0.4-0.3-0.7-0.4-1.2c-0.1-0.7,0.1-1.4,0.3-2.1c1.2-2.8,5.4-5.1,9-4.9 C138.9,310,137.9,312.4,136.9,314.7L136.9,314.7z M199.9,268.5c-0.6-4.1-1.8-8.1-2.6-12.1c-0.7-3.2-0.6-6.5,0.5-9.6h0.5 c0,0.4,0,0.9,0,1.4c-0.3,3.7,0.2,7.4,1.5,10.8c1.3,3.6,2.2,7.4,2.8,11.3c0.6,4.5-0.3,8.7-1.9,12.9c-2.4,6.4-4.8,12.8-7.3,19.1 c-0.6,1.8-1.5,3.5-2.7,5.1l-0.5-0.1c0.1-1.3,0.2-2.7,0.5-4c1.3-3.9,2.8-7.6,4.1-11.5c1.8-5.1,3.8-10.1,5.1-15.3 C200.4,273.9,200.4,271.1,199.9,268.5z M132.6,251.5c0-0.8,0.1-1.6,0.2-2.5c1.3-6.8,2.7-13.7,4-20.6c0.1-0.9,0.4-1.7,0.9-2.4 c0.5-0.7,1-1.4,1.8-1.9c7.6-5.8,14.5-12.4,21.5-18.9c5.3-4.9,10.5-9.8,15.7-14.7c0.4-0.4,0.8-0.7,1.3-0.9c0.5-0.2,1-0.3,1.5-0.3 c7-0.1,13.9-0.2,20.9-0.4c0.6,0,1.2,0.1,2.1,0.1C176.7,207.1,153.3,228,132.6,251.5L132.6,251.5z M157.4,304.4 c0.2-0.2,0.4-0.5,0.6-0.8c0.7-1.4,1.7-2.7,3-3.6c0.3-0.2,0.6-0.6,0.7-0.9c0.1-0.4,0.1-0.8-0.1-1.1c-0.9-2.7-1.6-5.4-2.1-8.2 c-1-5.8-2.1-11.6-1-17.4c0.5-2.8,1.2-5.5,2.8-7.9c1-1.6,2.4-3,4-4c1.9-1.2,3.8-2.5,5.7-3.8c0.5-0.4,1-0.8,1.7-1.3l-1.4-0.7 c1.2-0.9,2.5-1.7,3.9-2.5c1.7-0.8,2.8-0.3,3.3,1.5c0.3,0.9,0.4,1.8,0.5,2.7c0.1,2.7,0.2,5.4,0.1,8.1c-0.2,2.2-0.5,4.3-1,6.4 c-0.7,3.3-1.4,6.5-2.1,9.8c-0.4,1.9-0.5,3.8-1,5.6c-0.7,2.6-1.4,5.2-3.5,7.1c-0.8,0.7-1.8,1.3-2.8,1.7c-0.8,0.2-1.5,0.6-2.1,1.2 c-0.6,0.5-1.1,1.2-1.5,1.9c-0.6,1.3-1.5,2.3-2.7,3c-0.7,0.5-1.4,1.2-1.8,2c-0.6,0.8-1,1.7-1.6,2.5c-0.3,0.4-0.7,0.7-1.2,0.9 c-0.5,0.2-1,0.2-1.5,0.1c-0.5-0.1-0.9-0.3-1.3-0.7c-0.4-0.3-0.6-0.8-0.7-1.3c-0.2-0.9-0.1-1.9,0.2-2.8c0.3-0.9,1-1.7,1.7-2.2 c0.2-0.1,0.5,0,1.1,0c-0.3,0.6-0.6,1.2-0.8,1.9c-0.3,0.7-0.4,1.5-0.5,2.3C155.8,304.8,156.7,305,157.4,304.4L157.4,304.4z  M165.4,243.9c0.5,0.9,1.2,1.7,1.9,2.5c0.4,0.4,0.7,0.9,0.8,1.4c0.1,0.5,0.2,1.1,0,1.7c-0.5,2-0.6,4.1-2,5.7 c-0.5,0.6-0.9,1.4-2.1,0.8c1.9-1.6,2.3-3.8,2.5-6c0.1-0.6,0-1.1-0.1-1.6c-0.2-0.5-0.5-1-0.9-1.4c-0.5-0.4-1-1-1.3-1.6 c-0.3-0.6-0.5-1.3-0.6-2c-0.1-1,0.1-2,0.5-2.8c1.4-2.1,3.1-3,5.1-0.4c0.4,0.7,0.8,1.4,1,2.1c0.2,0.5,0.4,1,0.7,1.4 c0.6,0.8,1.2,0.7,1.7-0.1c0.2-0.3,0.2-0.8,0.5-1.1c0.5-0.8,1.2-1.5,2-2.1c1.8-1,3.3-0.1,3.3,2c-0.1,0.5-0.2,1.1-0.5,1.6l-1.6-2.1 c-1.3,0.1-1.6,1.1-1.8,1.9c-0.1,0.6-0.5,1.2-1,1.5c-0.5,0.4-1.1,0.6-1.8,0.5c-0.6,0-1.2-0.2-1.7-0.6c-0.5-0.4-0.9-0.9-1-1.5 c-0.3-0.9-0.7-1.8-1.2-2.7c-0.6-0.9-1.3-0.9-1.9,0c-0.4,0.4-0.6,0.9-0.7,1.4C165.1,242.9,165.2,243.5,165.4,243.9L165.4,243.9z  M170.3,299.3c0,0.5-0.1,1-0.2,1.5c-0.3,1.1-0.7,2.3-1,3.4c-0.2,0.6-0.4,1.1-0.7,1.6c-0.3,0.5-0.8,0.8-1.3,1 c-0.5,0.1-1.1,0.1-1.6-0.2c-0.5-0.3-0.8-0.8-1-1.3c-0.1-0.5-0.1-1.1,0.2-1.6c0.2-0.6,0.5-1.1,1-1.5 C167,301.2,168.5,300.3,170.3,299.3L170.3,299.3z M161.7,326.5c1.8,0.7,3.8,0.9,5.7,0.6c1.9-0.3,3.7-1.2,5.2-2.5c1-0.8,2-1.7,3-2.6 c0.3-0.3,0.7-0.5,1.3-0.9c-4.5,8.7-14,8.8-18,3.9C159.7,325.6,160.7,326.1,161.7,326.5L161.7,326.5z M174.1,306.1 c-0.5,0.9-1,1.8-1.7,2.6c-0.2,0.3-0.3,0.7-0.3,1v0c-0.4,0.1-0.8,0.3-1.2,0.5c-1.3,0.7-2.8,1-4.2,0.7c1.6-0.5,3-0.9,4.6-1.3 c0.1,0,0.1,0,0.2,0c0.1,0,0.1,0,0.2,0c0.2,0,0.3,0.1,0.5,0.1c0.3-3,0.5-6,1.9-8.6l0.1-0.1c0.1-0.2,0.2-0.3,0.3-0.5l0.1-0.2l0.2-0.4 l0.4-0.6c0.4-0.4,0.8-0.8,1.2-1.2c1.1-1,2.2-2.1,3.1-3.3c0.4-0.4,0.7-1,0.8-1.5c-0.1-2.7,1.3-4.9,1.8-7.4c1-4.5,2.1-8.9,3.2-13.4 c0.2-0.7,0.3-1.4,0.4-2.3c0.9,0.9,0.8,2,1.1,2.9c1.4,4.5,0.4,8.9-0.8,13.2c-0.7,2.7-1.6,5.4-2.6,8c-1,2.5-2.6,4.7-4.8,6.3 C176.5,301.9,175,303.8,174.1,306.1L174.1,306.1z M185.8,266.1v-1.6h0.1v1.6H185.8z M186.9,243c-1-2.1-2-4.3-3.1-6.3 c-0.9-1.8-2.1-3.3-4.3-3.7c-0.3-0.1-0.6-0.2-1-0.4c0.5-0.4,1-0.6,1.6-0.6c0.6-0.1,1.2,0.1,1.7,0.3c1.1,0.5,2,1.2,2.8,2.1 c2,2.5,3.3,5.4,4,8.5c0.1,0.7,0.1,1.3,0,2C187.5,244.4,187.3,243.6,186.9,243L186.9,243z M142.2,287.9c-0.2-0.5-0.3-1.1-0.3-1.7 c0-0.6,0.2-1.2,0.4-1.7c0.3-0.5,0.6-1,1.1-1.4c0.4-0.4,1-0.7,1.5-0.9c1.3-0.5,2.6-0.7,4.2-1c0.3-1.3,0.4-2.7,1.9-3.5v5 c-1.2,0.2-2.5,0.5-3.6,0.7c-0.8,0.2-1.6,0.4-2.4,0.8c-1.2,0.7-1.4,1.3-1,3.2c0.4-0.2,0.8-0.3,1.2-0.5c0.6-0.3,1.1-0.7,1.7-0.9 c1.6-0.6,2.9,0.3,2.9,2c0,1.4-0.1,2.9-0.2,4.3c-0.2,2.9,0.2,5.8,1.2,8.5c1.4,3.7,1.7,7.8,0.9,11.6c-0.1,0.4-0.2,0.8-0.3,1.1 c0,0.1-0.2,0.1-0.5,0.3c0-0.9-0.1-1.6-0.1-2.4c0.1-4.1-0.5-8.3-2-12.2c-1-2.8-1.1-5.8-0.5-8.7c0.2-0.9,0.3-1.9,0.5-3.2 c-0.7,0.1-1.4,0.3-2.1,0.5c-0.5,0.2-0.9,0.6-1.2,1C144.2,290.4,143,290.1,142.2,287.9L142.2,287.9z M223.7,307.8 c-0.6,5-1.3,10-1.9,15.1c-0.8,6.7-1.6,13.3-2.4,20c-0.6,5.4-1,10.7-1.5,16.1c-0.5,5.7-0.9,11.4-1.4,17.1c-0.2,1.8-0.9,2.5-2.8,2.6 c-1.4,0.1-2.9,0-4.3-0.1c-15.6-2-31.2-2.5-46.9-2.3c-5.1,0.1-10.1,0.1-15.2,0.2c-1.2,0-2.5,0.1-3.8,0.2c0.2-1,0.9-1.3,1.5-1.7 c4-2.8,8.1-5.6,12.1-8.5c8.8-6.3,17.3-13.1,25.3-20.4c6.5-5.8,12.9-11.6,19-17.8c7.1-7.1,13.8-14.6,20.7-21.9c0.4-0.5,0.9-1,1.3-1.4 l0.5,0.1C223.9,306,223.9,306.9,223.7,307.8L223.7,307.8z M246.4,188.6c-0.1,1-0.7,1.3-1.7,1.2c-1.8-0.3-3.7-0.5-5.5-0.7 c-1.6-0.2-3.3-0.3-4.9-0.4l-6.5-0.5c-0.8-0.1-1.6-0.2-2.4-0.2c-8.6-0.2-17.1-0.5-25.7-0.6c-4.9,0-9.9,0.3-14.8,0.4 c-2.8,0.1-5.5,0-8.3,0.1c-6.7,0.4-13.4,0.9-20.1,1.3c-3.3,0.2-6.6,0.6-9.8,0.8c-2.4,0.1-3.5,1.1-4,3.2c-1.6,7-3.5,13.9-5.1,20.9 c-1.3,5.6-2.2,11.2-3.3,16.8c-1.4,7.4-2.9,14.8-4.3,22.3c-1.3,7.2-2.5,14.4-3.8,21.6c-0.8,4.3-1.6,8.7-2.3,13c-1.2,7-2.3,14-3.5,21 c-1.1,6.6-2.2,13.2-3.2,19.9c-1.1,7.2-2.1,14.5-2.9,21.7c-1,8.5-1.9,17-2.8,25.5c0,0.3,0,0.5-0.1,0.8c-0.2,0.5-0.5,1.4-0.7,1.4 c-0.3,0-0.6-0.1-0.9-0.2s-0.6-0.3-0.8-0.5c-0.4-0.4-0.6-0.9-0.8-1.5c-0.1-0.5-0.2-1.1,0-1.7c0.5-4.5,0.9-9,1.4-13.6 c0.7-6.3,1.5-12.5,2.4-18.8c0.9-6.3,2-12.6,3-18.9c0.7-4.4,1.3-8.9,2-13.3c1.2-7.5,2.5-15.1,3.8-22.6c1.3-7.6,2.7-15.3,4.1-22.9 c0.7-4.2,1.3-8.3,2.1-12.5c1.4-7.6,2.8-15.3,4.3-22.9c1.6-8,3.3-16.1,5.2-24.1c1.2-5.1,2.7-10,4-15.1c0.1-0.5,0.3-0.9,0.7-1.2 c0.4-0.3,0.8-0.5,1.3-0.5c8.6-1.6,17.4-2,26.1-2.2c6.2-0.2,12.5-0.5,18.7-0.6c5.5-0.1,11.1,0.1,16.6,0.2c7.2,0.1,14.5,0.1,21.7,0.3 c6.6,0.2,13.3,0.8,19.9,1.2c0.3,0,0.6,0.1,0.9,0.2C246.6,187.6,246.6,188.1,246.4,188.6L246.4,188.6z"></path><path class="st0" d="M168,388c-3.4-1.4-6.9-2.1-10.6-1.4c-2.3,0.5-4.5,1.4-6.5,2.7c-2.5,1.6-3.8,4.1-4,7.6c0.2,0.9,0.5,1.7,0.8,2.6 c0.9,2.1,2.2,3.9,3.9,5.4c2.6,2.4,5.6,4.1,9.3,3.6c5.8-0.7,9.9-3.9,11.9-9.4C174.5,394.2,172.8,389.9,168,388z M171.6,396.2 c-1.3,5-4.2,8.5-9.3,10c-2.2,0.6-4.5,0.4-6.5-0.7c-2.7-1.3-4.8-3.5-6.1-6.2c-0.8-1.5-1-3.2-0.6-4.8c0.4-1.6,1.4-3,2.7-3.9 c2.7-1.8,5.9-2.8,9.1-3c2.7,0.2,5.2,0.6,7.5,1.8C171.4,391.1,172.4,393.1,171.6,396.2z"></path><path class="st0" d="M452.2,232.5c0.8,0.2,1.8,0.3,2.2-0.7c0.4-1-0.5-1.4-1.1-1.9c-2.2-1.8-4.8-3.2-7.6-4c-1.1-0.4-2.2-1.2-4-0.5 c2.2,2,4.1,3.9,6.2,5.5C449.3,231.6,450.8,232.1,452.2,232.5z"></path><path class="st0" d="M487.3,273.1c-6.2,2.4-11.2,6.5-15.6,11.4c-0.9,1.1-1.7,2.3-2.2,3.6c-0.4,0.8-0.3,1.7,0.8,2.5 c6.4-5.9,12.9-11.6,19.1-17.8C488.7,272.8,487.9,272.9,487.3,273.1z"></path><path class="st0" d="M172.2,277.9c0.4,0.8,0.9,1.6,1.9,1.4c1-0.1,1.4-0.9,1.6-1.8c0.4-1.7,0.7-3.3,1-5c1-4.8,1.2-9.8,0.6-14.7 c-0.1-0.5-0.2-1.1-0.3-1.8c-1.2,0.3-2.1,1.1-2.7,2.2c-2,3.5-3,7.4-3,11.5c0,2.2,0.3,4.5,0.5,6.7C171.8,277,171.9,277.5,172.2,277.9z "></path><path class="st0" d="M165.2,293.5c1.7-0.9,2.8-2.4,3.9-3.8c1.1-1.5,0.9-3,0.5-4.9c-1.2,0.8-2.3,1.4-3.3,2.1c-0.6,0.4-1.2,0.7-1.7,0 c-0.5-0.7-0.1-1.4,0.5-1.9c0.6-0.4,1.2-0.8,1.7-1.3c0.9-1,2.8-1.1,2.9-2.6c0.1-1.3-0.4-2.7-0.6-4.1c0-0.1-0.1-0.1-0.2-0.3 c-0.1,0-0.2,0-0.2,0c-2.5,1.4-4.9,2.7-7.3,4.2c-0.2,0.2-0.4,0.4-0.5,0.6c-0.1,0.2-0.2,0.5-0.1,0.7c0.5,3.4,1,6.7,1.7,10.1 C162.7,293.8,163.8,294.2,165.2,293.5z"></path><path class="st0" d="M161.2,278.2c2.4-1.5,4.8-2.9,7.1-4.4c0.3-0.2,0.6-0.5,0.6-0.7c0.2-1.8,0.2-3.6-0.1-5.4c-0.3,0.1-0.7,0.2-1,0.3 c-2.1,1.3-4.2,2.6-6.3,4c-0.4,0.3-0.8,0.7-0.9,1.2c-0.4,1.7-0.4,3.4-0.1,5.1C160.9,278.2,161.1,278.3,161.2,278.2z"></path><path class="st0" d="M167.7,265.5c2.2-1.1,2.7-3,2.9-5.4c-4,1.1-8.7,5.6-8.5,8.7c0.6-0.3,1.1-0.5,1.6-0.8 C165,267.1,166.3,266.2,167.7,265.5z"></path><path class="st0" d="M133,311.9c-1,1.2-1,2.5-0.2,3.2c0.9,0.6,2.1,0.1,2.9-1.3c0.7-1.4,1.4-3.1,2-4.6l-0.4-0.4 C135.6,309.4,134.2,310.5,133,311.9z"></path><path class="st0" d="M167.3,304.8c0.3-0.9,0.6-1.8,0.8-2.7c-1.6,0.4-2.1,1.1-2.3,2c-0.1,0.3,0.2,0.8,0.4,1.2 C166.6,305.1,167.2,305.1,167.3,304.8z"></path><path class="st0" d="M389.1,345.1c2.4,10.2,4.4,20.4,6.7,30.6c3.5,8.2,2,27.7,12.8,29c10-4.2,8.7-4.7,9.6-15.2 c-1.7,0.2-3.7,1-4.7-0.6c-1.2-4.3-1.9-8.7-3-13.1c-3.2-14.4-5.9-28.9-9.4-43.2c-11.7-48.4-24-96.8-41.5-143.4 c-2.4-9.3-8.8-18.9-7.5-28.5c5.4-11.3,31.4-9.4,42.7-11.6c12-1.5,24.1-1.9,36.2-2.3c7.3-0.6,15.8-1.1,18.8,7.2 c8.2,23.9,17.1,47.5,24.3,71.7c-2-1.1-4-1.1-4.8-3.1c-2.2-6.6-4.5-13.2-6.6-19.8c-3.6-11.6-8-23-12.6-34.2c-0.5-1.3-1.3-2.5-2.8-2.8 c-25.5-2.2-51.7,1.1-77,4.6c-8.5,0.2,1.9,14.5,2.2,19.2c7.1,21.3,14.2,42.6,20.4,64.2c8.2,29.6,16.6,59.3,22.4,89.5 c0.8,5.8,6.3,4,10.3,2.8c5.4-1.3,11-2.2,16.5-2.8c8-0.7,16.1-1.8,24.1-2.6c0-3.8-23.5,0.9-27.6,0.8c-4.6-0.3-19.3,6.6-21.2,2.6 c-3.8-18.4-8.8-36.3-12.8-54.7c18,13.3,34.4,26.6,52.5,39.5c5.5-13.6,3.4-5.6-4.2-13c-19.4-19.3,7.3-41.6,23.3-52.4 c3.6-0.8-3.8-15.8-4.1-19.3c-2.3-6.1-3.3-13-6.4-18.7c-13.4-5.2-27.8-8.2-41.9-11c9.3-0.7,19,0.6,27.9,3.8c4.7,2.4,11.8,2.6,15,6.9 c0.6,1.2,3,1.6,3,3.4c3.4,10.7,6.4,21.5,10.2,32.1c1.3-0.6,1.3-0.6,1-1.5c-3.3-10.6-6.9-21-9.8-31.6c3.8,1,4.4,1.5,5.2,3.8 c3.5,8.5,4.9,19,9.6,26.5c0.6-0.5,0.9-1.1,0.5-1.8c-2.8-8.6-5.8-16.8-8.5-25.4c2.4-0.1,14.5,9.2,11.3,3.1c-4-2.5-8.4-4.5-12.4-7.2 c-3.5-7.6-5.2-16.2-8.2-24.1c-3.8-11.3-7.7-22.5-11.6-33.7c-4-8.2-4.5-23-15.9-23.7c-19.2,0.2-38.4,1.3-57.5,3 c-14.7,3.6-44.6,0.1-46.1,20.5c2.8,8.7,5.7,17.4,8.3,26.2c8.3,18.2,4.3,26.5-15.8,29.5c1.7,2.3,5.1,1.4,7.6,2.4 c4.8,3.7-13.3,5.4-15.6,6.9c1.4,2.6,4.7,0,6.8-0.1c3.6-0.9,18.1-3.4,9.9-8.8l15.9-5.2c1,4,5.6,12,4.1,15.5 c-6.2,6.7-14.3,10.3-22.7,13.6c2.1,1.1,5.6,0.9,5.6,3.7c1.1,5.9-18,8.8-22.7,11.4c-3.8,3.6-9.4,1.6-13.7,4.4 c5.7,0.3,13.6,0.5,18.4-2.4c0.3-1.3,1.3-1.5,2.3-1.8c5.4-2.9,28.3-7,16.6-15.3c6.4-1.8,14.1-8.7,20.1-4.4c-2,3.1-5.7,4.1-9,5.4 c6.9,1,8.6,7,1.1,9c-2.7,1.3-7.4,0.9-9.2,3.1c32.3,7.1-3.7,24.8-18.3,19.1c6.7-4.2-12-0.7-13.8-1.4c-10.8,1-21.5-0.8-32.3-0.8 c3.8,2.8,5,8.4-0.9,8.7c-8.7,1.6-24.6,0-22.7-12.2c1.2-5.5,0-12.9,5.8-16c1.4-1.2,0.9-3.6,1.5-5.3c1.6-8.5,12.4-10.1,19.5-8.1 c9.6,2.6,5.2,14.8-2.2,17.4c14-0.8,29.3-4.5,43.2-8.2c-4.5-0.8-27.3-0.3-15.1-7.9c12.3-3.9,25.8-5.5,36.4-13.3 c-4.6,0.9-49.8,10.7-44.1,0c-5.1-0.9-20.6,0-11.1-8.3c1.7-2,7.8-2.4,7.8-4c-38.8-1.3-26.9-23.9-22.5-50.4c-1.7-7.9-11.3-8.3-18-8.7 c-26.9-0.8-53.7-2.4-80.5-1.1c-12.8,2.6-42.5-4.9-43.7,13.4c-14.7,59.9-25.2,121-32.9,182.2c-1.6,15.3-3,30.8-3.2,46.3 c-0.2,13.4-4.3,33.4,16.2,30.4c33.7-3.4,67.6-1.4,101,4.2c35.8,11.5,20.7-18.9,29.5-39.6c4.8-10.6,11.1-19.9,20.3-27.3 c1.9-2.1,6.3-3.2,6.7-6.1c-0.6-1.5-2.6-0.6-3.7-0.4c8.5-9.8,20.3-17,31.9-22.6c-8.8-0.3-22,10.6-29.4,16c-1.9,2.2-5.2,4.1-5.4,7.2 c0.3,1.4-0.3,2.1-1.3,2.7c-8,5.5-14.1,13.1-19,21.4c-2.2-11.1,6.9-20,13.8-27.8c12.8-13.7,30.4-21.6,47.1-29.3l-0.1-0.4l-14.8,0.7 c13.6-6.6,28.8-9.3,43.6-12.1l0-0.4l-9.7-2.6c0-0.9,0.6-0.7,1.1-0.8c18.3-2.9,39-4.3,54.8,7.1c0.8-5.9-1.2-11.9-0.4-17.9 c3,10.7,4.5,21.6,6.6,32.5c-5.4-4.6-11.5-8.5-18-11.5c12.1-3.9-11-5.3-13.8-4.8c2.6,2.5,7.4,1.2,10.9,2.1c-10.6,0.9-6.1,2.9,0.9,4.8 C375.1,332.5,384.6,337.2,389.1,345.1z M434.8,281.9c-4.4-7.3-11.1-14-14.4-21.7c1.2-0.1,1.9,0.7,2.6,1.6c5,6.9,10.9,13.4,14.7,21 C435.7,283.3,435.7,283.2,434.8,281.9z M439,289.5c-0.6-1-1.1-2-1.6-3.1c2.7-1.9,2.8,1.4,3.8,3.1C439.8,290.6,439.6,290.6,439,289.5 z M442.1,294.7c0-0.2,0.5-0.5,1.1-1l0.4,2.7C442.4,296.1,442,295.5,442.1,294.7z M451,268.9c-6.3,2.9-9.7-6.6-12.2-10.8 c4.2-1,8.7,13.2,11.4,7.2c-1.3-6.3-11-6.5-11.9-12.8C441.8,257.8,457.8,261,451,268.9z M453.6,248.2l-3.5-2.6l1.6-1.9l3.5,2.6 L453.6,248.2z M457.4,251.4l-1.2-1l1-1.5C458.8,249.9,458.8,249.9,457.4,251.4z M433.6,221.8c28,0.5,28.8,18.7,13.1,10.8 c-4.3-3.6-8.2-7.7-13.2-10.3C433.5,222.1,433.6,221.9,433.6,221.8z M427.7,232.5c7.1,2.4,14.3,4.9,20.6,9.2c-1.1,2-1.3,2.1-2.9,1.1 c-5.9-4.4-15.1-5.1-19.8-10.5C426.3,232.3,427,232.3,427.7,232.5z M426.2,239.8c2.9,8.3-8.5,8.8-11.5,2.7 c-3.6-4.8-5.7-12.3-12.9-12.1c10.2-4.7,11.1,14.3,20,14.5c4.2-0.2,3-5.6,0.2-7.1c-4.9-3.7-11.6-6.2-14.1-12.1 c-1.3-6.2,4.8-5.6,8.7-3.7c0.6-4.5-6-5.2-8.9-7.1c-5.3-3.4,3.9-9,6.6-5.4c-1.5,2-5.1,0.2-6,2.9c2.5,2.8,7.3,2.4,9.4,6 c1.8,1.8,2.6,6.1-1.1,5.7c-3.4-1.2-9.6-2.9-5.7,2.9C415.1,232.4,423.1,233.8,426.2,239.8z M459.7,219.3 c-18.2-17.6-38.2-33.4-59.8-46.5c6.4-0.9,13.1-1.6,19.5-1.4c7.6,5.7,14.7,12.1,22.2,18c17.1,12.1,15.1,11.5,21.1,31.4 C461.5,220.7,460.4,220.1,459.7,219.3L459.7,219.3z M464.2,220.2c-5.2-16.6-11-32.9-17.3-49c-0.3-1.2-1.6-2.1-2.8-2 c-25.2-0.4-50.3,1.5-75,6.4l-0.8-1.5c24.1-5.4,49.4-7.3,74.1-7.3c2.7,0.3,6-0.2,6.8,3.1c7,17.3,12.9,35,18.6,52.9 C465.7,222.5,464.8,221.8,464.2,220.2L464.2,220.2z M243.4,285.1c-6,43.3-10.9,86.8-12.8,130.5c0.1,9.5-9.9,8.8-16.5,6.9 c-6.4-0.8-12.8-1.3-19.2-1.8c-27.9-1.5-55.8-1.3-83.7-1.7c-17.7-2.3-8.8-32-9.5-44.3c2.1-22.7,5.4-45.4,8.6-67.9 c7.4-44.3,16.3-88.4,25.6-132.4c1.9-11,13.9-10.9,22.7-10.9c14.1-0.8,28.3-1.6,42.4-1.3v-0.2c10.2,0.3,20.4,0.6,30.6,0.9 c9.4,1.8,24.1-3.4,29.4,6.7c4.9,14.7-3.1,30.4-4.6,45.3C250.8,238,246.3,261.4,243.4,285.1z M367.8,302c-3.7,6.5-15.3,4.4-21.8,4.9 c-22.9,2.9-45.9,7.5-68.7,11.5l0.1,0.5c4.5,0.2,9,0.7,13.5,1.6c-13.2,7.2-27.8,11.4-41.8,16.9c1.3-6.4,0.2-14,3.5-19.6 c6.6-6.6,15.7-9.1,23.4-13.4c-3.3-1.1-6.6,0.7-10.1-0.5c14.8-7.6,32.3-8.9,47.9-13.9l-10.3-2.2v-0.5c4.6-1.4,64-9.5,42.6,3.1 l0.1,0.4C353.2,291.3,370.1,291.5,367.8,302L367.8,302z M538.5,453.9c5.9-24.1-9.4-62-38.9-44.9c-9.8,4.5-15.3,14.5-18.7,24.4 c-2.3,7.2-1.9,15,1.1,22c0.7,1.6,0.7,1.6,2.5,1.5c5.6-0.8,12.3-1.2,17.1,2.1c-9.4,2.1-19.3,1.9-28.5,5c-6.9,1.9-13.3,4.8-19.7,7.9 c-0.7,0.2-1.4,0.2-1.7-0.5c0.8-5.7,9.2-6.7,13.5-9.6c-17.4-11.7-40.8-11.6-58.3-0.3c8.9-15.5,32.7-13.9,47.6-9.2 c13.8,4,10,11.3,22.5,5.8c-1.1-14.7-5.5-5.8-20.7-13.8c-7.5-2.1-2.7-28.6-4-36.4c0.3-5.7-16.1-5.7-20.3-5 c-12.5,0.6,8.3-6.8,20.1-2.1c0.4-6.7,0.4-13.2,0.6-19.9c0-3,3.7-4.5,5.8-6.1c-4.6-0.9-7.5-2.8-8.1-7.6c-2.7-5.9,10.8-10.6,14.8-13.3 c-30.5-9.1-43.9,23.5-45.1,48.4c-0.2,1.3-0.6,1.8-1.9,2.1c-7.8,2.7-15,7.3-20.7,13.2c-9.5,8-10.2,25.3,2.3,30.5 c11.1-7.2,28.9-12.5,40.5-4.3c-37.4-7-71.1,24.4-33.7,53.6c-13.5-3.8-20.4-17.3-19-30.7c-42.6,25.5,8.3,71.8,49.7,42.7 c-5.5-2.5-12.4-2.1-17.1-6.3c21,5.2,42.5,5.5,64.1,4.3C517.6,508,532.9,484,538.5,453.9z M588.4,411.7c-10.2-9.6-27.3-7.9-36.2,2.7 c-9.6,11.2-8.5,27.1-9.4,40.9c1.9,0.7,5.3,0.1,6.2,1.7l-7,1.7c-2.9,14.3-9.6,26.6-18.3,38l0.3,0.5c18-1.5,38.4-3.3,51.3-17.4 c8.5-9,17-18.7,18.5-31.5C596.1,436.3,597.6,421.2,588.4,411.7z M66.2,164.1c3.6-6,7.5-12,12.4-16.9c2.2,3.4,21.9,35.1,24.5,22.7 c-1.8-6.1-24.8-29.7-14.9-33c6.5,4.7,21,30.4,26.6,13.1c-0.3-8.7-6.8-29.6,0.1-35.8c2.7,7.2,6,28.5,16.9,17.5 c3.7-6,5.6-15.9,13.4-17.6c10-2.7-4.1-22.4-17.8,0.5c-0.3-2.9-3.9-7.1-0.7-8.6c7.1-4.2,14.5-8,22.1-11.2 c18.4-7.1,38.9-14.3,58.8-10.9c19.7,3.5,18.8,27.5,8.8,40.4c-1.2,2.8-8.1,8.5-7.3,10.8c3.2,0.1,10.3-12.1,12-15.3 c24.2-63.7-70.7-32.6-96.6-14.3c-5.3-17.3-17.8-21.5-21.3-0.7c-1.7,5.9-2,12.1-2.9,18.1c-1.8,2.1-4.1,4-6.3,5.5l-8.8-8 c5.6-9.8,14.6-19.6,12.3-31.6c-0.8-3.2-3.4-4.7-6.4-3.7c-13.3,5.9-24.5,15.8-33.9,26.7c-13.2,15.6-31.3,38.4-29.5,59.8 c5.6,14.8,40.2-29.5,45.8-35.2c0.9,3.6,5.2,7.1,3.3,10.3c-6.1,7.7-12.8,15.2-15.5,24.9c-6.1,20.6,21.3,21,33.1,12.2l-0.2-0.5 C76.1,190.9,53,189.2,66.2,164.1z M113.8,110.9h0.3c0,0.4,0.1,0.9,0.1,1.3h-0.6L113.8,110.9z M100.2,125.4c0.5,1.4,0.7,6.9,0.4,9.1 l-5-5.1C97,127.9,98.5,126.6,100.2,125.4L100.2,125.4z M86.7,135.4l-2.7,2.7c-1.1-2.7-2-5.1-3-7.4l0.3-0.3 C83.3,131.9,85.1,133.6,86.7,135.4L86.7,135.4z M75.7,114.1c-11.5-0.7-4.9,13.1-3.5,19.1c-9,13.9-22.5,24.8-34.5,36.1 c-12,9.9-8.2-8.6-5.3-14.8c4.7-12.6,11.6-24.4,20.2-34.8c11-12.8,22.4-27.3,38.8-33.1c12.6,1.4-4.4,26.2-8,31.8 C80.8,116.6,78.8,114.9,75.7,114.1L75.7,114.1z M551.8,370.4c-6.4-7.3-18.2-0.8-24.4,4c-3.3,2.3-7.9-0.9-11.6-0.8 c-0.8-2.1-0.5-4.4-1.8-6.4c-2.1,1.3-2.4,4.2-4.1,5.8c-5.9,0.8-12.2-0.5-18.2,0.2c-7.8,1.7-36.2-0.2-37.1,9.3 c0.8,18.6,0.5,37.1,0.5,55.7c-2.2,3.5,19.6,8.1,20.8,6.2c-7.1-4.1-8.7,1.7-9.1-9.9l3.2,0.4c-0.6-6-2.1-11.7-2.3-17.6l2.2-0.2 c-0.5-3.9,0.7-9-1.4-12.3c-0.7-2.2-0.6-4.7-1-7.1l1.9-0.4c0-4.9-1.7-8.8-2.1-13.7l13.1,1.3c-0.2,1.8,1.3,3.7-1.3,4.6 c1,2.7-0.4,9,3.2,9.1c2.1-0.5,9.1,1.6,8.7-1.5c-0.4-8.2,1.4-8.3-7.5-7.9c-0.8-2.9-0.8-2.9-0.5-4.2h14.8v4.2 c-1.9,0.5-6.4-1.2-6.1,1.7c0.3,5.3,0.8,10.7,0.7,16c-4,0.1-7.6-0.4-11.4,0.4c-2.5-5.6-1.2-12.4-2.8-18.2c-2.3-1.1-5.2-0.7-7.7-1.1 c-2.8-0.5,0,8.2,0.8,9.5c7.9,1.2,5.7-0.5,6.6,8.8c-11.5-2-7.3,0-7,8.8c1.1,6.6,7.4-2.2,6.5,10.4c-10.6-1.2-8-1.2-6.3,8.1 c0.3,3.1,4.9,0.7,5,4c1.4-2.9,1.9-7.2,3.7-10.3c0.2-2.8-0.5-5.6-0.7-8.5c1.9-0.2,3.3,0.7,2.8-2c0.1-2.5-1.7-5.6-0.1-7.7l1.7,9.8 c1.3-0.1,1.6-1.1,2.1-1.8c2.4-3.5,5.1-6.7,8.5-9.2c1.9-2.5-0.3-6.4,0.4-9.4c2.8-0.7,14.4,1.9,13.3-2.5c-0.8-9,1-6.8-7.6-7.3v-4.1 c4-1,8.1-0.7,12.4-1.2c0.3,1.6,0.4,3.2,0.3,4.8c-1.7,0.4-5.1-0.6-4.7,1.9c0.4,2.3,0.4,5,1.1,7.2c1.1,0.7,1.2,2,1.5,3.2l1.8-0.2 c0.1-1,0.2-1.7,0.3-2.5c2.2-0.9,6.8,0.4,7.1-2.5c-0.3-5.9,3-8.2-4.9-7.5c-0.1-1.4-0.3-2.8-0.5-4.5c2.5-0.2,4.7-0.7,7.1-0.5 c0.2,1.5,0.5,2.8,0.7,4.2c-1.9,0.1-1.8,8.8-0.5,9.6c0.2,0.2,0.2,0.7,0.2,1.1c0.2,1.8-1.2,4.4,1.9,4.1v-5.6c1.1-0.5,2.5-0.7,2.4-2.2 c-0.5-2.1,1.3-6-1.1-6.9c-2.1-0.4-1.1-2.9-1.3-4.5l4.4-0.6c0.1,1.6,0.2,2.9,0.3,4.2c-4.6,1.9,1.5,12.7-2.1,17.6l2.1,1.6 c1.4-4-0.5-8.9,2.4-12.3c0.9-2.2-2.4-12.7,0.7-11.3c-0.8,5.5,1,16.5-1.6,20.6c-2.1,3.1,1.4,6.6,4.2,7.7 C534.2,395.3,540.9,380.4,551.8,370.4z M456.4,381.7c0.9,0.8,1,1.3,0.5,3.7C455.8,384.5,455.7,383.4,456.4,381.7z M456.1,398.3 L456.1,398.3v-1.9V398.3z M456.8,437.8c0-1.8,0-3.6,0-5.4h0.4c0.3,2.2,0.6,4.4,0.9,6.6C456.9,439.1,456.8,438.4,456.8,437.8 L456.8,437.8z M461.2,405.3c0.1,18.4,5.4,4.1,4.6,18.8c-0.9-0.1-2.9-0.8-2.7,0.8c0.8,5.7,2.3,10.9,2.9,16.7 c-2.4-0.8-4.6-0.9-6.4-2.1c-1.2-4.4-1.4-9.2-2.2-13.7c-0.2-1.2,0-2.4-0.5-3.5c-1.6-2.7-0.4-5.5-0.6-8.3c2.4-0.5,2.8,6.6,2.6,8.2 c-1.4,2.3,0.3,5.2,0.3,7.7c0.4,2.7,1.4,3.5,4.5,3.4c-0.2-3-0.9-6.1-1.4-9c-1.6-1.8-1.2-4.1-1.6-6.2c-0.2-1.2-0.7-2.4,0.3-3.6 c-0.1-3.3-0.6-6.7-0.9-10c-0.1-1-1.3-1.2-1.7-2c-0.5-2.1-0.4-4.5-0.3-6.6c1.6-4.3,0.1-8.7,0.6-13.6l6.5,0.8v4l-5.1-0.8 c-2.7,18.8,7,2,6,18.1C464.8,404.6,460.7,402.6,461.2,405.3z M522.9,379.8c-19.8,1.7-39.9,3.2-59.6-0.6v-0.5 c20.7-4.8,42.8-4.3,63.5,0.5C525.3,379.3,524.1,379.6,522.9,379.8L522.9,379.8z M596.4,388.6c-6-19.5-35-27-47.4-9.5 c-7.3,9.6-11.9,20.4-12.7,32.6c0.5,4.6,4.5,8.3,5.5,12.9c7.1-21.3,31.6-32.4,49.9-16.5c2.9,2.6,4.6,6,6,9.6c0.2,0.5,0.2,1.2,1.2,0.9 C600.6,408.6,600.6,398.2,596.4,388.6z M496.1,255.9c-12.4,4.1-23.9,11-33.3,20.1c-7.6,7.6-24.1,25-10.9,34 c21.4,5.3,45.7-13.9,58.8-29.3C525,263.8,519.4,248,496.1,255.9z M489.4,261.5c2.4-0.6,5-2.8,7.4-2.2c0.4,1.2-7.7,4.1-8.3,3.1 C488.9,262,489.1,261.6,489.4,261.5z M455.2,289c6.9-9.4,15.7-17.2,25.7-23.1c2.1-0.7,3.8-3.4,6.1-1.9 c-12.3,6.9-23.3,15.7-31.7,27.1C454.6,290.6,454.5,289.5,455.2,289z M487.6,296.9c-8,9.1-48.7,21.5-34.7-3.3c1.5,4.2-6,11,2.6,12.9 c11.8,2.1,22.1-6.3,32.2-9.9C487.6,296.7,487.6,296.8,487.6,296.9L487.6,296.9z M489.2,288.9c-5.2,3.5-10.7,6.4-16.9,7.2 c-2.1,0.3-4.1,1.3-5.5,2.9c-2.9,2.8-3,2.8-7.4,1.7c1.4-1.7,3.2-2.9,4.8-4.7c-12.7-8.6,21.4-29.4,30.1-28.6c4.6-0.8,5.6-6.4,11.2-4.2 l0.2,0.5c-1.3,1.3-2.7,2.6-4.2,4c5,1.8,3.5,7.1,0.4,10c-1.8,1.6-4.3,0.2-6.5,0.1c3.7-7.3-1.8-3.7-4.6-0.5 c-0.7,0.7-14.8,13.3-15,13.8c5-0.1,8.8-5.5,14.2-3.1l0.4,0.6C489.9,288.5,489.5,288.6,489.2,288.9L489.2,288.9z M511.5,257.4 c14.8,8.1-12.3,32.4-20.4,37.6c-2.2-1.9,9.9-8.9,11.4-11.5c9.8-9.5,22-29.6-2.4-24.5c-0.1-0.2-0.1-0.4-0.2-0.7 C503.1,256.5,507.6,256.6,511.5,257.4L511.5,257.4z M476,364.9c9.5-0.9,18.7-3.3,27.9-6.1c8.6-1.4,16.1-8.2,25-6.9l-1.3,1.6 c0.6,1.3,1.1,2.4,1.6,3.6c5.5-1.8,1.4-5.6,3.9-6.9c2.3-1.8,5.8-7.6,3.9-10.4c-10.2-13.1-71.9-34.5-77.7-11.6 c-3.9,9,29.1,19.1,35.9,19.6c-14.4,4-30.1,5.8-41.8,16.3C460.4,366.6,468.6,365.5,476,364.9z M507.3,347l-10.7-2.4l1-4.1l10.6,3 C507.9,344.8,507.6,345.8,507.3,347z M519.1,349.2l-9.5-1.5c0.2-1.2,0.3-2.3,0.5-3.6c3.3,0.2,6.2,1.3,9.5,1.7 C519.4,346.9,519.3,347.9,519.1,349.2z M525.2,349.6c-3.1,1-4.4,0.3-3.2-3.5l4,0.2C525.7,347.7,525.5,348.7,525.2,349.6z  M527.8,349.8c-0.3-2.9,0.2-3.6,2.2-3.2C530,348.7,529.6,349.2,527.8,349.8z M532.2,347.6c0.2-0.5,0.5-1.1,0.8-1.6 C533.2,347,533.2,347,532.2,347.6z M465.8,322.6c17.9-4.8,57.6,4.4,67.8,20.7C528.6,347.3,457.7,328.4,465.8,322.6z M461.6,329.2 c-0.3-1.2,0.3-2,1.1-3.1C463,327.6,462.1,328.4,461.6,329.2L461.6,329.2z M465,331.9c-2-0.8-2-1.2-0.5-4l1.7,1.1 C465.7,330.1,465.4,331,465,331.9L465,331.9z M471,336l-4.6-2.8c0.5-1.2,0.8-2.1,1.2-3c1.9,0.1,3.7,0.8,5,2.1L471,336z M481.3,340.1 c-2.5-0.3-4.7-1.8-7-2.6c-2.5-0.7-0.3-2.8,0.2-4.6c2.8,1.1,5.7,1.5,8.5,3C482.2,337.5,481.8,338.8,481.3,340.1L481.3,340.1z  M494.3,344c-3.7-1.3-7.4-1.7-11-3.2c0.5-1.4,1-2.7,1.6-4.1l10.8,3.3C495.2,341.4,494.7,342.6,494.3,344L494.3,344z M40.8,255.2 c5.7-1.9,12.7-2.2,17.6-5.8c2.7-6.3-7-4.9-10.6-5.6l-0.1-0.4l18-4.9v-0.4c-10.9,0.5-22.1,0.6-32.6,3.4c-6.2,4.9,4,7.3,7.8,7.5 c-13.3,4.4-27.4,6.7-41,10.2C13,260.6,27.5,256.9,40.8,255.2z M72.3,266c-9.1,6-55.7,27.5-17.7,23.8c-10.5,10.6-21,20.9-31.8,31.2 l0.3,0.3c11.6-8,22.4-17.1,33.1-26.2c12.6-10.5-0.9-10-9.6-8.9l-0.3-0.4c10.1-6.1,18.7-14.5,28.8-20.7l-0.2-0.3 C74.1,265.2,73.2,265.6,72.3,266z M7.4,201.1c11.3,3.1,22.6,6.4,33.9,9.7c4.2,0.3,12.1,6.2,14.2,0.6l7.9-1 c-1.2-2.7-17.5-7.4-17.9-2.7C43.4,207.2-5.5,192.8,7.4,201.1z M538.6,313.6c10.9,8.9,21.4-8.4,26.1-16.8 c12.5,11.4,11.8,29.6,7.2,44.6l0.4,0.1c6.9-15.4,4.6-33.7-6.7-46.3c5.2-13.4,5.6-31-4.9-42.1c8,13.1,10,26.6,3.7,41 c-7.1-6.6-21.4-19.3-28.3-6C532.3,296,532,307.1,538.6,313.6z M536.2,290.2c5-14.2,20-2.7,26.6,4.3c2.4,4-8.2,15.1-11.7,17.7 C537.4,322.7,531.1,300.1,536.2,290.2L536.2,290.2z M491.7,209.9c2-2.1,18.6-3,13.5,1.7c-3.9,0.8-8.1-0.8-12,0.6c0,0.2,0,0.4,0,0.6 c4.5,2.8,20.9,4,14.7-5.1c-3.8-3.6-16.2-2.4-18.1,2.3C490.4,211,491.1,210.2,491.7,209.9z M501.7,297l-2.2-2.4 c-1.2,0.9-3.4,1.5-1.9,3.2c1.2,1.5,2,3.6,3.7,4.8c3.3-2.7,6.3-5.3,9.3-8.3c1.6-2.2-2.3-4.9-3.4-6.8c-6.2,3.1,2.9,6.1,0.2,8.8 c-1.7-1.2-2.1-3.7-4.3-5C498.3,294.2,504.5,295.3,501.7,297z M494.7,364.7c-4,1.2-8.6,1.3-12.3,3.2c1,5.2,12.2,2,15.8,0.7 C497.3,366.8,497.3,363.8,494.7,364.7z M469.9,315.2c-1.1-1.1-1.9-2.3-2.9-3.5l-3.5,0.8c2.1,2.4,2.4,6.9,6.2,5.4 c2.4-0.5,4.6-0.6,6.8-2c-2.4-2.9-2.9-7.5-7.4-4.7C469.3,312.3,472.7,315.9,469.9,315.2z M489.3,307.1c-1.8-2.9-2.5-4.9-5.8-2 c4.4,7.7,5,6.2,11.6,1.4c-1.9-2.3-3.6-8-6.9-4.1c0.8,2,2.7,3.3,2.8,5.4C490,308.3,489.7,307.6,489.3,307.1z M519,274.1 c0.6,1.2,3.3,2.9,1.2,4.1l-3.1-4c-3.6,3.4,0,5.7,2,9c3.8-4.8,5.5-9.6,0.8-14.4l-0.6,0.1C518.7,270.7,517.3,272.5,519,274.1z  M502.1,367.9c1.4-0.4,2.8-0.8,4.1-1.2c3.3-1,3.1-0.5,2-4c-0.5-3.1-8,1-10.3,1.4C499.1,366.1,499.2,369.1,502.1,367.9z M480.4,316.9 l13.2,0.7c-0.6-2.4-1.1-4.4-1.7-6.7l-11.5,5.7L480.4,316.9z M461,371.9c2.7-0.1,5.5,0.6,8.2,0c0.2-5.5-8.2-3.2-11.9-4 C458.1,369.8,458.6,372,461,371.9z M315.9,328.8c6.8-0.1,14.4-0.3,20.9-2.1C333.5,324.8,319.9,326.1,315.9,328.8z M479.3,367.8 c-2.9,0.2-5.9,0.3-8.8,0.8c-0.4,5.7,8.1,2,11.5,2.1C481.5,368.7,481.6,367.4,479.3,367.8z M520.4,356.9c-2.8,1.1-2.5,1.2-1,3.7 c1,2,3.4-0.4,4.8-0.7c3.5-1.7,3.5-1.7,1.7-5.4C524,355,522.3,356.2,520.4,356.9z M511.1,365.1c2.4-0.6,4.8-1.5,7-2.8 c-0.4-1.3-0.8-2.5-1.2-4c-2.6,0.9-5,1.3-7.4,2.6L511.1,365.1z M495.1,297.7l-2.7,2c1.6,2.2,2.6,4.2,4.3,6l2.8-2.1 C497.9,300.6,496.3,298.5,495.1,297.7z M508.3,286.1l4.3,5.9l2.5-2.9c-1.5-2-2.8-3.9-4.3-5.9L508.3,286.1z M479.4,307.1 c-0.1,0.1-0.1,0.2-0.3,0.5c2.3,2.5,2.6,7.8,7,4.3c-0.5-1.4-1.5-2.6-2.4-3.8C482,305.9,482.6,305.4,479.4,307.1z M517.2,283.5 c-1-1.5-1.9-3.2-3.3-4.3c-3.8,3.2,0.1,5.3,1.9,8.4C518,286.1,518.3,285.2,517.2,283.5z M465.2,318.1c-2.1-3.2-3.4-6.6-7.9-5.1 C459.6,315.8,460.8,320.5,465.2,318.1z M476.3,308.5c-0.8,0.3-1.5,0.6-2.2,1c1.8,2.5,3.5,7.6,7.2,4.7 C480,312.3,478.9,308.5,476.3,308.5z M502.5,243.5c0.4-2.4-6.4-5-8.4-6.6l-1.5,1.6C495.3,239.5,500.5,245.6,502.5,243.5z  M499.2,307.3c1.3,2.4,1.6,12,4.7,11.4c-0.9-4.5-2.1-9-3.5-13.3C499,305.8,499,306.5,499.2,307.3z M523.2,270.8 c0.7-2.9-0.5-6.1-2.9-7.7C519.3,266.3,521.5,268.3,523.2,270.8z M452.2,311.9c0.9,3,3.8,5.7,6.2,5.5 C456.7,315.2,455.7,311.7,452.2,311.9z M495.7,309.3c-3.1-1.5,0.6,7.9,1.5,8.9l0.6-0.3C497.6,315,496.4,312.2,495.7,309.3z  M506.7,245.7c-1.5,1-1.6,1.4-1,2c1.7,1,3,3.3,5.1,2.9C510,248.6,508.5,246.9,506.7,245.7z M456.8,370.6c-0.7-1.7-0.7-3.8-3.2-3.8 C453.1,369.4,454.2,370.8,456.8,370.6z M246.8,185.1c-27.2-3.3-54.9-2.3-82.2-1.4c-7.4,0.1-14.8,1.1-22.1,2.6 c-4.3,0.7-4.3,5.8-5.4,9.1c-11.4,46-18.2,93-25.7,139.8c-7.9,63-12.1,41.3,51.8,42.9c67.8-3.3,51.1,23.8,59.6-44.8 c4-33.6,8.9-67.1,15.6-100.2c3-15.3,6.4-30.6,10-45.8C248.6,185.8,248.2,185.4,246.8,185.1z M136.9,314.5c-7.3,7.7-9.8-7.4,3.1-7.4 C138.9,309.7,138,312.1,136.9,314.5L136.9,314.5z M200,268.3c-0.9-7.2-4.8-14.5-2.2-21.7h0.5c-1.1,8.2,3.3,15.5,4.2,23.5 c0.3,12.9-6.7,25.6-11.9,37.1l-0.5-0.1C191.5,293.8,201.9,281.9,200,268.3z M132.6,251.2c4.2-34,5.8-23.9,28.2-46.2 c19.7-18.9,14.1-16.1,41.5-16.1C176.8,206.8,153.3,227.8,132.6,251.2L132.6,251.2z M157.5,304.1c6.5-7.9,3.7-5.3,2-14.7 c-3.6-15-1.5-27,13.2-34.4l-1.4-0.7c10.9-9.8,7.7,10.3,6.7,16.2c-2.4,7.4-1.3,16.5-6.6,22.6c-1.4,1.4-3.5,1.7-4.9,2.9 c-1.7,2.7-3.9,4.6-6,6.9c-1,1.5-1.9,4-4.2,3.5c-3.5-0.7-2.4-7.3,1-7C156.4,300.6,154.5,305.7,157.5,304.1L157.5,304.1z M165.4,243.7 c0.9,1.9,3.4,3.3,2.7,5.6c-0.7,2.1-0.8,7.2-4,6.5c7-8.1-2.7-9.2,0-15.4c5.1-7.1,5.9,6.2,8.6,3c1-4.2,7.4-5.1,5.2,0.4l-1.6-2.1 c-2.5,0.5-1.6,4.4-4.6,4c-2.7,0-2.8-3.1-4-4.8C166.4,238.8,164.4,242.4,165.4,243.7L165.4,243.7z M170.3,299 C169.3,312.7,157.7,304.5,170.3,299L170.3,299z M161.7,326.3c6,2.7,10.8-1.7,15.1-5.3c-4.5,8.7-14,8.8-18,3.9 C159.8,325.4,160.8,325.9,161.7,326.3L161.7,326.3z M174.2,305.9c-0.5,1.3-1.8,2.3-2,3.7c-1.8,0.6-3.5,1.7-5.5,1.2 c1.9-0.3,3.6-1.6,5.4-1.2c0.4-4.2,0.8-8.8,4.2-11.6c1.4-1.5,3.3-2.8,3.9-4.8c1.4-7.8,4.1-15.3,5.5-23.1c4.1,7.7,0.2,16.5-2.3,24.1 C181.9,299.3,175.9,300.9,174.2,305.9z M185.8,265.9v-1.6h0.1v1.6H185.8z M187,242.8c-2.2-4-3.2-9.4-8.4-10.4 c6-2.6,10.2,7.5,10,12.3C187.5,244.2,187.3,243.4,187,242.8L187,242.8z M142.3,287.7c-1.7-4.6,3.2-6.3,6.9-6.7 c0.3-1.3,0.4-2.7,1.9-3.5v5c-2.7,0.9-8.3,0.3-7,4.7c5.6-3.6,6.4-0.4,5.6,4.9c-0.9,7.1,5.3,15.1,1.2,21.6c0.9-9.2-4.8-17.3-2-26.5 C146.1,286.8,143.8,292.3,142.3,287.7L142.3,287.7z M223.8,307.6c-3,22.7-5.5,45.4-7.2,68.3c-0.1,3.7-4.6,2.5-7.1,2.5 c-21.9-2.8-43.9-2.6-65.9-1.8c28.9-20.8,56.4-44.5,79.9-71.7l0.5,0.1C224,305.8,223.9,306.7,223.8,307.6L223.8,307.6z M246.5,188.4 c-0.8,2.6-5.1,0.2-7.1,0.5c-4-0.4-9.7-0.8-13.8-1.1c-26.3-1.1-52.5-0.4-78.7,2c-7-2.5-14.2,55.4-16.7,63.2 c-7.9,41.3-13.7,83.5-19.3,124.9c-5.4-1.1-0.6-13.2-1.1-17.4c1.9-17.1,4.8-34,7.4-51c7.1-40.1,12.8-80.6,23.5-120 c3.8-4.6,21.7-3.1,28.2-4c25.9-0.8,52-1,77.8,1.3C246.6,187.4,246.6,187.8,246.5,188.4L246.5,188.4z M168,387.8 c-7.9-4.3-24.3,0.2-20.3,11.5c2.2,5,7.4,9.6,13.2,9C170.9,408.3,179.3,392.4,168,387.8z M171.7,396c-2.5,14.2-23.2,13-22.5-1.6 C151.7,385.3,173.6,384.6,171.7,396z M452.3,232.2c8.2,0-7.9-9-10.4-7.2C445.3,228,447.8,231.4,452.3,232.2z M487.3,272.9 c-4.6,1.6-21.1,12.2-17,17.5c6.4-5.9,12.9-11.6,19.1-17.8C488.7,272.6,488,272.7,487.3,272.9z M172.2,277.7 c5.4,7.5,6.1-19.2,4.8-21.8C170.2,260,170.7,270.9,172.2,277.7z M165.3,293.2c3-1.9,5.7-4.9,4.4-8.7c-1.8,0.6-3.4,3.3-5,2.1 c-0.5-0.7-0.1-1.4,0.5-1.9c3.9-2.9,6-2.8,3.8-8.3c-2.5,1.6-7,2.7-8.2,5.5C161.9,284.7,160.7,295.3,165.3,293.2z M161.2,278 c4.7-3.2,9.4-3.7,7.6-10.6c-4.4,2-10.2,4.7-8.3,10.6C161,278,161.1,278.1,161.2,278z M167.7,265.3c2.2-1.1,2.7-3,2.9-5.4 c-4,1.1-8.7,5.6-8.5,8.7C164.2,267.7,165.7,266.2,167.7,265.3z M133,311.6c-1,1.2-1,2.5-0.2,3.2c2.9,1.4,3.8-4,4.9-6l-0.4-0.4 C135.7,309.2,134.2,310.3,133,311.6z M167.4,304.6c0.3-0.9,0.6-1.8,0.8-2.7c-2,0.5-2.8,1.7-1.9,3.2 C166.6,304.9,167.3,304.8,167.4,304.6z"></path></svg>