<svg id="Layer_1" xmlns="http://www.w3.org/2000/svg" xmlns:xlink="http://www.w3.org/1999/xlink" x="0px" y="0px" viewBox="0 0 600 600" xml:space="preserve" width="100%" height="100%"><style type="text/css">
	.st0{fill:#FFFFFF;}
</style><path class="st0" d="M596,408.2c-11.3-56-28.7-110.6-46.8-164.7c-5.9-18.1-12.2-36.2-18.6-54.1c-3.7-8.5-5.5-23.2-16.9-23.7 c-22.4,0.2-44.9,1.5-67.2,3.5c-17.8,4.1-43.6,0.1-53.2,19.1c-1.8,6.6,3.3,13.1,4.4,19.6c2.7,9.6,6,19.1,9.5,28.4 c4.4,13.7-12,20.4-23,21.5c1.9,2.7,5.9,1.6,8.8,2.7c6.2,4.2-16,6.3-18.1,8.4c0.9,1.3,2,1,3,0.8c4.7-1.8,26.7-3.5,16.6-11.4l18.4-6 c1.2,3.6,7.3,16,4.4,18.4c-7.3,7.8-16.4,11.6-26.3,15.2c5.6,1,10.5,5.4,3.8,9.2c-7.6,3.1-15.5,5.6-23.3,8.4 c-1.4,0.5-2.5,0.9-2.8,2.3c-4.4,1.1-8.9,0.6-13.1,2.4c2.2,2.3,15.8-0.5,19.5-1.1c2.2-0.5,1.8-3,4.2-3.3c6.3-3.1,33.3-8.4,19.4-17.9 c6.2-1.7,17.4-10.3,23.5-5.2c-2.5,3.6-6.5,4.8-10.3,6.5c3,0.6,6.9,2,7,5.6c-2.7,6.4-11.8,5.1-17.1,8c38.2,9.2-3.1,28.3-20.9,22.6 c0.9-0.4,1.6-1.2,2-2.1c-11.8-1.1-24.4,2-36.5,0.3c-6-0.8-12.1,0.1-18.1-1c-0.2,0-0.4,0.2-1.2,0.6c18.9,14.3-32.9,14.8-27.1-4.4 c1.4-6.6,0-15.6,7.3-19.1c0.1-13,11.4-18.1,22.9-15.5c10.3,1.4,8.8,15.1,0.7,19.1c-0.7,0.4-1.7,0.6-2,2c16.7-2.7,33.1-5.5,49.2-10 c-5.8-1.3-32.7-1.2-15.3-10c13.9-3.9,29.1-6.2,40.9-15.1c-4.5,1.6-59.4,11.9-51.1,0.1c-4.9-1.4-10.7,0.3-15.3-2.3 c-4.3-6.4,7.1-9.7,11.5-11.4c-47.4-4.9-30.2-26.5-26.4-60c-4.3-11.3-18.6-8.5-28.5-9.3c-41.8-2.5-83.8-2.9-125.5,1 c-6.9,1-11.1,6.8-11.6,13.5c-2.4,9.9-4.8,19.9-7.2,29.8c0,2.4-4,10.3,0.4,9.6c2-8,3.7-16.1,5.5-24.1c2.4-7.8,1.4-17.3,7.4-23.4 c5.5-6.5,14.8-4,22.3-5.1c15.8-0.2,31.5-2.1,47.3-1.7c15.5,0.3,30.9,0.9,46.4,1.4c18.8-0.3,30.2,1.1,26.9,23.7 c-6.8,39.7-17.8,78.6-22,118.8c-5.9,42.9-10.9,85.9-13.8,129.1c-2.5,22.7,5.8,37.1-25.3,29.7c-22.7-2.7-45.6-2.6-68.4-3.2 c-11.1-0.2-22.3-0.4-33.4-0.2c-9.5,0.4-23.3,1.2-24.4-11.4c-3-29.5,3.1-59.8,6.4-89.3c2.1-15.7,4.3-31.4,6.8-47 c0.4-1.4-0.4-2.7-1.9-2.8c-6.1,36.5-11.2,73.4-13.9,110.3c-0.6,10.5-0.8,21.1-1,31.6c-1.3,9.1-0.9,22.8,10,24.8 c22.6,0.9,45.6-2.9,68.4-1.3c24.8,1.5,49.5,4.7,73.9,9.6c22.6,0.6,9.6-38,19.7-51c6.1-14.1,16.2-26,29-34.5c3.5-2,0-4.3-2.7-2.8 c9.2-12.4,24.1-19.1,37-26.9c-7-0.7-44.3,21.3-40.3,29.3c-10.2,6.8-17.9,15.7-24.1,26.2c-0.9-7.3,1.1-14.1,5.9-19.6 c14.9-23.3,40.7-35.7,65.1-46.7l-0.2-0.5l-16.6,0.9c15.4-8.3,33.4-10.5,50.3-14.1v-0.5l-11.8-3.2c21.4-5.2,46.8-5.5,65.8,7.3 c0.2-7.1-1.4-13.9-0.7-21c1.4,3.3,7,33.2,7.6,38.3c-6.3-5.6-13.5-10.2-21.3-13.5c14.7-4.4-11.9-7-15.4-5.4v0.6 c3.9,1.1,8.2,0.8,12.2,1.7c-2.1,1-6.1-0.8-7,1.9c0,1.9,2.5,1.6,3.8,2.1c11.1,3.4,20.5,9.6,28.6,17.9c7,20.2,9.2,42.5,15.1,63.2 c5.7,13.4,12.2,10.8,23.9,8.1c23.8-6.5,47.9-11.4,72.2-15.1c9.3-2.9,23.3,0.4,29.9-6.6C605.1,433.8,597.9,422.3,596,408.2z  M428.4,347.7c-5.3,10.3-26.8,3.6-36.5,7.5c-22.9,4.3-46.2,7.3-69,12c0,0.2,0,0.4,0.1,0.6c5.2,0.3,10.4,0.8,15.6,1.4l0.1,0.6 c-15.5,7.9-32.3,13.6-48.6,19.5c1.5-7.4,0.1-16.5,4.2-22.8c7.8-7.5,18-10.7,27.4-15.4c-4.1-1.1-7.9,0.2-12.2-0.5 c17.1-8.8,37.4-10.6,55.8-16c-4.1-1.5-8-1.7-12.2-2.9c5.2-2.1,74.8-11.9,50,3.7C411.4,335.8,430.1,335.7,428.4,347.7L428.4,347.7z  M595.9,426.6c-4.1,12.3-22.6,7.3-32.9,9.9c-16.2,2.2-32.5,4.1-48.6,6.9c-32.8,4-31.7,17.1-36.1-8.2 c-10.7-51.9-23.4-103.3-38.2-154.1c-26.9-107.3-68.8-104,44.1-113.1v0.3c10.5,0.8,29.5-5.2,36.6,3c12.6,25.7,19.4,54.5,29.2,81.5 c13,37.5,24.4,75.5,34.5,113.9c4.9,17.4,8.1,35.1,11.6,52.8C596.5,422,598.1,424.5,595.9,426.6L595.9,426.6z M307.3,297.7l-0.1,0 c0,0.1,0,0.1,0,0.2C307.2,297.8,307.3,297.8,307.3,297.7z M257.3,404.8c4.7-44.6,11.1-89.1,19.6-133.2c3.6-19.1,8-38.1,12.3-57.1 c1.3-4.1-8.9-2.9-11.4-3.8c-37-1.5-74.7-3.1-111.4,2.6c-2.3,0.2-4.2,2-4.7,4.3c-0.2,3.7-8.5,25.2-4.8,25.3c4.1-8,4.1-18.8,8-27.1 c4.8-1.7,10.4-1.7,15.5-2.4c35.6-2.2,71.4-2.3,107,0.6c-0.1,3.3-0.3,3.3-3.2,3c-7.1-0.7-14.2-1.4-21.3-1.9 c-30.7-1.3-61.5-0.7-92,2.4c-5.8-1-7.4,21.2-9.7,26.3c-0.7,3.4,6.4,5.2,8.7,7.5c2.5-2.7,6.4-4.6,8-7.9c-0.1-6.1,4.4-11.5,1.8-17.5 h0.4c0,0.6-0.1,1.1-0.1,1.7c5.1,2.8-0.1,9.2,1.3,13.4c8.8-7.8,17-16.1,25.8-23.8c9.5-0.8,19.5-1.1,29-0.5 c-13.8,8.6-25.9,19.4-38.4,29.6c-1.3,1.1-1.2,1.2-0.4,2.7c5.6,9.1,5.2,20.2,8.5,30c2.1,0.7,2.2,5.5,4.3,4.6 c-0.3-5.2-5.1-10.1-4.1-15.1c6.6,2.6,6.7,12.3,4.5,18c-0.1,0.8-1.2,1.2-1.8,0.7c-8.7-10.4-5.6-26.9-14.1-37.7 c-5.3-6.7-8.2-1.4-6.3,4.9c2.1,10,11.4,19.1,9.5,29.5c-4.3,5.7-2.3,8.4-2.4,14.6c-2.2,4.8-3.2,0.1-5.3-1.8c0.1,1.5,0.3,3.2-0.8,4.3 c-3-2.8-3.4-7.9-6.3-11.2c-3.2-4.2-6.7-3.7-5,2.1c3.4,15,23.3,27.2,13.5,43.8l-2.7-2.6c-4.2,7.9,3.8,15.1,3.6,23 c-0.6,3.5-4,6.1-3.4,9.9c0,1.1-0.2,2.2-0.8,3.2c-2.1,3.1-8.1,6.9-10.7,2.4c-7-5.3-18.7-1.4-23.9,5.1c-1.6,1.8-3,6.6,0.7,6.6 c5.2-0.5,20.8-3.5,12.6,6.2c-5.5,5.8,1,6.4,5.9,7.6c-4.7,4.9-12.3,5.2-16.7,0.8c3.1-2.1,6.2,2.5,9.3,0.7c-6.3-5.2,0.4-5-7.6-12.1 c-11,1.9-10.9-8.3-4.3-14.2c-2.2-3.4-3.2-3.7-1.1-7.4c0-2,1.6-2.1,3.1-3.3c-5.2-3.1-8.5-8.7-13.4-12.1c-3.9,20.2-6.3,40.7-9,61.2 c-1.4,3.5-0.9,27.6-4.5,25.8c-5.1-2.3,2.8-36.2,2.8-43.4c2.3-15.6,4.9-31.2,7.4-46.7c0.2-1.2,0.1-2.3-1.5-2.6 c-5.5,29.8-10.4,60.2-12.3,90.5c1.6,9.5,18.1,2.9,25,4c13.3-0.6,26.7-1.4,40-1.3C265,434.3,251.7,456.9,257.3,404.8z M176.1,243.6 c-3.2,0.5-2.1-5.1-4.1-6.7c-5.2-4.9-7.2-20.7,4-15.7c-5.1-1.1-7.8,2.8-6.8,7.4C170.1,234,177.3,238.1,176.1,243.6z M246.8,298.7 c0.5-5.9,0.4-11.8,0.6-17.9c6.7,5.9,1.7,28.7-2.5,36l-0.4-0.2C245.3,310.7,246.3,304.7,246.8,298.7z M218.5,241.4 c26.1,10.5,28.4,43.6,19.1,67.4l-0.6-0.1C238.9,276.9,233.1,267.1,218.5,241.4z M231.4,340.7c0.1-0.2,0.3-0.3,0.6-0.4 c0.4,8.5-5.5,17.8-10.6,24.7C224.2,356.7,228.8,349.1,231.4,340.7L231.4,340.7z M223.1,286.2c-0.3-1.3-0.6-2.6-1.1-4.4 C223.3,282.8,223.7,284.7,223.1,286.2z M211.8,262.2c2.9,2.3,4,4.9,4.6,8.4C214.3,268.1,211.7,265.9,211.8,262.2L211.8,262.2z  M199.8,346.6c3.1-7.9,4-16.6,3.7-25c-1.8-2.7,0.7-31.4,3.9-18c2.9-1.7,5.4-1.7,7.3,1.3c4.1,4,3-16.6,6.4-17.8 c2.5,7.6,2.1,15.7-1.4,22.9c-0.6,2.7-0.9,5.4-1.5,8c-0.5,3.4-1.5,2.9-4.3,3.8c-0.5,5.8-1.5,11.6-4.6,16.6c-2,2.4-3.5,9.3-7,8.8 c-0.5,0.5-1.9,2.2-2.3,2.7C199,348.7,199.4,347.5,199.8,346.6L199.8,346.6z M176.2,391.7c2.2-1.7,3.9-6.8,7.2-5.5 c0.8,0.5,1.4,0,2.1-0.4c7.7-3.7,10.2-14.3,14.8-11c10.6-10.7,16.5-24.4,19.3-39.1c-0.2,6.9-2,13.4-4.1,19.9c1.1,8-5.5,15.1-9.6,21.4 c-1.9,2.8-5.6,2.5-7.8,5.1c-3.9,3.9-15,20.4-16.6,6.5c-2.5,0.5-3.1,4.9-5.6,4.1C175.9,392.3,176,392,176.2,391.7L176.2,391.7z  M171.6,407.9c14.8-1.8,28.3-9.8,39.1-20.3c5.7-5.4,13-9.6,16.9-16.6c7.9-10.7,12.4-23.2,16.1-35.8c0.4-1.2,0.3-2.6,2.1-3.6 c1.9,5.7-1,11.4-1.7,17c2.2,0.8,2.2,0.9,1.8,3.1c-0.1,2.9-8.9,28.3-11.3,18.3c-6.9,9.8-14.4,18.9-23.9,26.1 C203.9,402.7,178.1,420.1,171.6,407.9L171.6,407.9z M253.5,419.8c-0.4,4.6-0.7,9.1-1,13.6c0.2,4.7-4.4,3.9-7.7,3.6 c-25.7-3.6-51.8-2.7-77.7-2.4c24.3-16.5,46.2-35,67.4-55.1l0.4,0.3c-6.6,7.8-14.2,14.5-22.2,20.9c1.1,0.9,1.9,0.5,2.8,0.1 c9-3,14.3-10.9,21.7-16.1c10.4-9.4,13.5-24,23.8-33.7c0.1,6.7-0.9,14.2-2.9,20.7c-6.3,10-13.6,19.3-21.9,27.4 c2.4,4.3,14.7-10.6,16.6-13.4c1.8-2.5,3.1-5.5,5.1-7.8C256.5,391.8,254.7,405.7,253.5,419.8z M180,227.6L180,227.6L180,227.6 L180,227.6z M40.3,199.4C58.1,187.8,72.2,171,86,155.1c1,4.2,6.3,8.4,3.5,12.3c-4.2,4.8-8,9.9-11.5,15.3 c-20.3,30.3,6.8,43.3,32.1,27.5l-0.3-0.4c-46.6,17.8-44-15.8-17.8-41.9c2.6,5,23.2,38.9,28.4,27.5c-5.6-11.8-15.4-21.8-20.7-34.2 c-1.5-2.3,1.6-3.6,2.9-5.3c7.9,5,21.4,32.6,30.5,18c2-7.2-2.2-14.6-2.2-21.9c0.1-5.2-2.4-20.3,3.1-22.3c2.7,8.7,7.9,34.7,20,19.5 c3.8-6.8,6.4-17.6,15-19.6c11.8-2.6-4.2-26.4-20.5,0.4c-0.6-3.1-4.7-8.2-0.8-9.9c15-8.9,31-16.1,47.7-20.9 c20.8-5.1,59.9-15.7,64.7,14.8c2,16-9.5,27.7-16.8,39.8c16.9-12.1,30.4-47.9,4.8-59.5c-31.9-10.5-75.2,9.1-103,24.9 c-4.1-12.8-15.8-27.4-23.2-7.5c-2.3,7.3-3.7,14.9-4.2,22.5c0.1,5.9-4,8.5-8,11.8l-10.4-9.4c6.6-11.2,16.8-22.6,14.5-36.5 c-0.9-3.9-3.9-5.8-7.6-4.6c-16.6,7.3-30,20.1-41.7,33.6C56,135.3,14.1,202.1,40.3,199.4z M133.2,126c0,0.4,0,0.8,0,1.2 c-0.1,0-0.3,0-0.4,0l-0.1-1.2L133.2,126z M117.4,142.4c0.1,3.8,0.3,7.2,0.4,10.6l-0.4,0.2l-5.9-5.9 C113.5,145.7,115,143.9,117.4,142.4L117.4,142.4z M101.3,154.3l-2.8,3.1c-1.5-2.8-2.7-5.7-3.5-8.8 C97.4,150.2,99.5,152.1,101.3,154.3z M35,188c8.5-33.9,32.2-62.9,59.4-83.9c31.3-21.7,13.3,19.3,3.1,30.6 c-5.2-5.4-16.9-8.6-16.6,2.3c-0.4,5.3,5.7,13.3,2.7,17c-11.1,14.6-24.8,26.8-38.2,39.2C38.4,199.9,32.9,197.9,35,188L35,188z  M243.7,153c0,0.2,0,0.4,0,0.7C243.8,153.4,243.7,153.2,243.7,153z M122.5,249.1c-10.2,37.8,32.7,94.6,64.3,112.7 c0.7-1.7,3.5-3.8,1-5c-6.5-4.1-12.7-8.9-18.2-14.3c-3.8-4.2-20.4-19.8-19.2-24.4c1.7-1.6,3.6,2.6,4.6,3.4 c9.8,11.7,20.8,26.3,34.8,32.2c-1.8-7.6-8.1-15.2-2.5-22.8c-3.7-0.8-15.2-0.1-14.3-5.8c-0.4-2.9-0.1-5.8-0.2-8.9 c4.3,2.4,14.9,3.4,12.4-4.3c-5.6-5.4-15-1.1-21.7-4.7c-9.3-4.1-16.2-15.8-12.1-25.8c-0.1-3.5-4-5.8-5.5-8.8c9.6-7.9,6.5-5,13.2,2.6 c18.4,2.6,13.3,0,15.8,14.7c-4.4-1.2-12.3-4.3-13.7,2.4c0.7,6.5,11.5,4.6,16.3,4.8c-6.3-16.3,5.3-16,10.8-3l5,1.2 c-5.1-10.7-12.8-19.8-21.6-28c-1.4-2.9-19.4-12.9-14-14.3c9.7,5.2,17.8,13.8,25.3,21.9c1.6,2.1,5,1.1,7.3,2 C181,261.5,136,222.3,122.5,249.1z M149.7,248.5c7.3,6.1-8.6,0.1-10.6-0.5c-23.3-1.8-3,44.3,3.1,54.2c1.6,3.5,4.8,6.7,5.7,10.3 c-2.1,3.7-4.5-3.1-5.9-4.6C130.9,291.5,107.6,230.1,149.7,248.5z M39.8,294.8c9.5-1.7,20.6-2.8,28.7-8c3.1-7.1-8.1-5.7-12.2-6.3 c6.9-3.7,14.1-3.6,21.4-6.7c-11.3,0-27.3,0.9-38.2,3.8c-8.4,5.8,4.2,8.5,8.9,9c-16.1,4.5-31.8,8.3-48.2,11.6C1,299.5,2.1,299,3,299 C15.3,298.3,27.6,296.9,39.8,294.8z M67.5,329.1c-4.4,0-8.5,0.6-12.9,0.4c11.4-7.8,21.7-16.9,33.4-24.3l-0.2-0.4 c-10.5,6.5-69.9,34.5-23.4,28.8C59,338.3,54,343.7,49.2,349c-6.9,7.4-15.9,13.4-21.8,21.5c13.6-9.1,25.6-20,38.2-30.3 C69.4,337.6,76.4,329.7,67.5,329.1z M7.2,229.9c17.3,5.3,35.1,9.9,52.4,15.2c2.7,0.9,4.6,0,5.8-2.8c2.9,0.2,5.9-0.1,8.7-1 c-1.8-3.1-20-8.3-20.8-2.9C50.2,238.2,0,222.2,7.2,229.9z M148,337.2c1-0.9,2.1-1.7,3.3-2.6c-1.3-1.7-2.5-3.2-3.8-4.9 c-3.6,2.7-7.4,4.8-10.6,7.9c4.6,6.2,10.2,11.3,15.2,17.1c0.9,0.9,1.7,1.2,2.7,0.4c2.8-2.5,7-4.3,9.1-7.3c-1.7-1.2-3.6-5.3-5.9-2.9 c-2.6,1.8-5.2,4.4-8.2,5.4c-5.1-2.1,6.5-6.2,7.4-8.8c-1-1.7-2.4-3.3-3.9-4.6c-1.8,0.9-4.8,4.6-6.4,2.6 C146.1,338.3,147.3,337.8,148,337.2z M117.3,290c5.9-3.8,6.3-3.5,3.2-10.4c-2,1.1-7.3,6.9-7.3,2.2c4.7-5,7.8-3.7,5.1-11.8 c-3.5,1.9-7.4,4.1-10.1,7c0.3,5.5,1.8,11.3,3.9,16.5L117.3,290z M121.6,314.2c2,2,6.3,14.6,9.2,11.9c2.9-2.3,6.5-4.1,8.9-6.7 c-0.2-1.9-2.1-3.2-3-4.9c-2.3,0.5-9.5,8.7-10.1,4c3.9-6.3,12.1-3.1,5.3-12.6c-3.7,2.9-6.8,5.1-10.5,7.8 C121.6,313.8,121.5,314,121.6,314.2z M187.7,445.9c-24,0-18.8,26.9,1.4,25.7C205.9,467.8,207.1,445.9,187.7,445.9z M200.4,455.2 c-0.7,15.6-21.5,19.8-26.4,3.9C171.9,446.2,198.3,443,200.4,455.2z M105.3,375.9c-9.6,3.9-20.2,7.5-27.7,14.8l0.2,0.4 c10.8-4.2,22.7-8,31.9-15C108.5,375.2,106.7,375.2,105.3,375.9z M145.6,327.4c-5.6-9.2-5.3-2.9-14.5,2.1c1.1,2,2.5,3.8,4.1,5.4 L145.6,327.4z M164.6,351.6c-2.8,2.3-6.3,4-8.5,6.7l4.9,4.3l10.5-7.9C169,353.3,167.2,349.1,164.6,351.6z M120.8,310.4 c5.1-4.8,12.6-4.8,7.1-12.6l-10.9,7.3l2.9,5.5C120.2,310.5,120.5,310.6,120.8,310.4z M107.6,266.6c-0.1,2.3-0.8,4.4,0.6,6.7 c5.9-4.7,11.4-5.2,9.5-14.2C114.2,260.7,109.5,263.2,107.6,266.6z M115.1,300.6c1.6,3.4,8-4.3,10.3-5.2c1.5-1.5-0.6-4.7-1.8-6.3 c-2.7,1.9-5.4,3.6-7.9,5.6C112.2,297.1,114,297.8,115.1,300.6z M94.3,341.8c-2.6,9.9,15.5,0.9,17.6-2.8c-5.5,0.6-10.2,4.7-15.7,4.5 c2.7-4.9,8.5-6.8,13.7-7.7c0-0.3,0-0.5,0-0.8C104.2,333.9,97.5,336.9,94.3,341.8z M172.8,357.5c-2.7,2-5.4,3.9-8,5.9 c-1.1,0.9-1.1,1.5,0.1,2.2c5.3,2.7,10.1-1.6,14.1-5C176.8,359.6,175.1,356,172.8,357.5z M190.4,266.1c-1.3-3-2.7-6-4.2-9.3 c-1.7,2.2-6.5,3.8-3.2,6.4c3.6,3.9,6.9,8.2,10.7,11.9l0.7-0.3C193.4,271.7,191.6,269,190.4,266.1z M137.9,218.4 c-1.1-3.5-6.2-7.4-8.3-2.8c-0.3,4.7,2.2,9.9,5.2,13.4c5.9,2.2-2.8-8.4-1.3-10.6C135,217.9,136.3,219.6,137.9,218.4z M368,379.2 c0.6,0.9,1.5,0.5,2.3,0.4c7.2-1.4,15.1-0.7,22.1-2.6C388.8,374.5,371.4,376.2,368,379.2z M118.5,253.4c0.4-1.3,0.5-2.6,0.8-4.6 c-5,3-9.3,6-10.7,12C112.2,259.3,116.4,256.6,118.5,253.4z M182.4,369.4c5.6-2.7,4.9-4.3-0.4-6.7c-2.3,0.7-4,2.7-6.5,4.2 C177.7,367.7,180.1,370.1,182.4,369.4z M117.3,352.5l-2.9,0.5l1.4-2.4c-1.6-1.4-5.1,1.7-5.6,3.3C109.8,358.6,117,356,117.3,352.5z  M577.4,357.6c-15.4-54.1-31.7-108-51.6-160.6c-1.2-2.7-1.7-6.5-5.1-7.3c-12.5-2.1-25.3-0.7-37.9,0c-17.5,2-35.3,2-52.6,5.6 c-6.5,1.2-0.6,8.6,0.1,12.4c3.5,10.2,7,20.3,10.4,30.5c8.2,24.6,15.8,49.3,22.5,74.3c7.6,27.9,14.9,55.9,20.7,84.3 c1.1,6.8,8.2,3.5,12.6,2.5c24.8-5.4,50.3-5.9,75.5-7.7v0.1c4.6-0.3,12.6,1.8,12.3-5.2C583.2,376.6,579.6,367.2,577.4,357.6z  M465.7,197.5c7.6-0.7,14.9-1.8,22.3-1.4c9.6,6.6,18.1,15,27.5,22.1c4.9,4.9,12.6,7.6,16.2,13.6c2.4,8,5.7,15.7,7.5,23.8 C516.9,233.5,492.3,214.1,465.7,197.5z M546.8,390.6c-16.2,1.9-32.7,1.8-48.5,6c-3.7,0.1-10.9,5.3-12.4-0.1 c-4.3-21.1-9.8-41.9-14.7-62.9c25.4,18.8,49.8,38.6,75.8,56.5L546.8,390.6z M580.6,389.4c-16.9-65.3-36.3-130.1-60-193.2 c0-5.4-27.1-1.4-32.6-2.3c-19.6,0.8-39.1,3.4-58.3,7.1l-0.8-1.8c20.4-4.8,41.6-6.3,62.5-7.8c7,0.2,26.4-3,30.8,1.5 c17,42.6,29.9,86.7,43.4,130.6c6.3,20.4,12.1,41,17.1,61.7C583.2,387.3,582.8,388.1,580.6,389.4L580.6,389.4z M546.1,405.5 c-18.6-11.3-30.2,12.8-10.2,21.1C547.2,430.5,556.3,411.8,546.1,405.5z M548.1,416.2c-4.1,15.9-23,6.5-21.3-6.4 C531.5,400,551.5,404.4,548.1,416.2z"></path></svg>