<svg id="Layer_1" xmlns="http://www.w3.org/2000/svg" xmlns:xlink="http://www.w3.org/1999/xlink" x="0px" y="0px" viewBox="0 0 600 600" xml:space="preserve" width="100%" height="100%"><style type="text/css">
	.st0{fill:#FFFFFF;}
</style><path class="st0" d="M399.2,443.2c-11.2,4.3-24.3,5.1-35.4-0.1c-1.4-0.7-2-0.6-3.2,0.4c-10,16.4-32,16.9-47.5,8.5 c-15.6,15.5-24,35.5-30.3,56.2c-1.5-22.3,12.2-43,27-58.5c-19.8-19.6-5.5,2.2-35,2.2c12,35.8-19.6,72.1-53.8,46.6 c35.8,14.9,59.2-11,50.8-46.6c-25.7-2.3-35.5-31.7-31.1-54c-6.7-1.7-11.8-10.9-9.8-17.4c3.8,4.2,5.9,11.4,11.3,13.6 c3.9-4.4,7.2-8.9,12.8-11v0c-13.3,14.1-12.7,36.2-2.1,51.8c5.9,9,17.3,12.8,27.7,11.2c21.6-3.9,22.5-31.1,23.5-48.6 c0.8-18.9,2.3-42.7-15.8-54.3c-28-17.6-56.3-33-83.6-4.8c-23.5,20.9-28.1,55-27.7,84.9c-0.3,16.2,5,32.2,5,48.2 c-4.4-4.1-4.4-10.9-6.3-16.3c-40.5,20.7-11.1,62.4,13.6,82.8c22.7,20.9,65.5,29,86.5,2.2c-14.7-0.6-31.2-2.2-43.3-11.1 c18,3.1,35.9,7.6,54.3,5.6c50.5-5.8,104.3-37.6,112.6-91.4C399.3,443.2,399.2,443.1,399.2,443.2L399.2,443.2z M333.2,226.3 C333.2,226.3,333.2,226.3,333.2,226.3C333.2,226.3,333.2,226.3,333.2,226.3L333.2,226.3z M489.1,372c20-32.9-23-51.6-39.6-73.3 c-15.3-21.4-41.2-37.2-67.9-28c-10.4-19.9-29.6-33.2-52.1-35.5c0.9-3.2,1.8-6.3,2.8-9.5c0.4,0.2,0.6,0.4,0.8,0.5 c0.4-11.5,7-23.3,6.9-35.4c2.4,13.5,7.2,32.1,9.3,35.9c-1.4-12.6-3.9-25-6-37.5c15.3-2.7,20.7,6.3,21,20.3 c0.8,4.4-2.9,12.6,1.2,15.3c1.9,0.7,2.8-1.3,3.9-2.4c12.4-13.7,24.1-28.2,33.6-44.1c-0.1-0.1-0.2-0.1-0.3-0.2 c-11.4,12.9-21.5,26.6-33.7,38.7c0.9-12.5-1.2-31.6-17.2-32.2c0.8-2,7.1-28.5,0.4-21c-0.5,6.9-1,13.9-0.9,20.9h-8.9 c-1.8-7.5-2.7-15.2-4.4-22.7c-0.1-0.6-0.2-1.3-1.1-1.4c-1.3,7.5,1.1,16,1.8,23.7c-9.8-19.6-37.2-8.8-51.5,0 c-48.6,30.9-71,86.6-97.7,135.2c-11.1,24-40.9,51.8-47.9,8.6c-2.5-12,2.5-30.1-9.7-37.5c-22-6.8-35.8,78.8-27.6,91.2 c-0.4-18.7,1.9-37.4,7-55.5c1.6-6.8,11.3-41.2,21.5-29.4c3.6,13-0.8,26.9,2.6,40c8.6,36.6,41.6,25.4,56-0.8 c31.3-51.4,52.4-113.6,105.9-147c10.6-6.3,33.6-22,39.8-3.6c-6.7,0.8-12.9,4.6-19.1,5.4c-0.4-0.3-1.1-0.1-1,0.5c0.1,0.9-0.5,1-1,1.3 c-4.3,2.3-8.6,4.5-12.7,7.1c-8.6-7.3-15.2-7-3.2,1.8c-12.4,9.5-24.2,20.1-34.3,32.3c-1,1.8-4.4,4.8-3.7,6.8c1.4,0.7,2.4-1.4,3.4-2.1 c11.5-12.7,23.9-24.7,38.3-34.1c3.1,3.2,6.6,4.5,10.9,4.8c0.1-0.1,0.1-0.2,0.2-0.3c-2.6-2.1-5.3-4.2-8-6.4c4.2-2.6,8.4-4.8,12.8-6.8 c4.8,4.9,9.2,10.2,13.8,15.2c0.9,3.6-1.9,8.6-2.8,12.3c-2.7-2.3-4.7-6-8.6-4.7c2.8,2,5.6,4,8.5,6.1c-1.2,4.1-2.4,8.1-3.6,12.2 c-27.3-6.6-77.3,5.1-70.5,41.3c2.8,10.1,10.8,18.1,11.1,28.9c5.2-5.6-10.9-24.5-10.6-33c-2.1-19.2,17.8-31.9,34.3-35.5 c58.7-17.3,110.2,54.5,62.3,98.6c0.3,0.5,0.7,1,1.1,1.6c2.1-1.5,3.5-4.8,6.3-3.6c4.7,1.5,9.2,2.5,14.1,3.7c-3.1,5-6.8,9.4-11.1,13.4 c0.4,0.5,0.7,0.9,1.1,1.5c17.8-14.6,23.8-37.9,22.1-60.1c1-4.1-3.7-15.2-0.4-16.9c4.5,0.4,1.8,21.7,4.9,22.9 c38.2,20.4,24.7,52.9,35.9,83.7C447.4,394.5,476.3,392.7,489.1,372L489.1,372z M322,194.7c5.2-2.1,10.4-3.8,16-4.7 c0.3,7.1-1.7,13.6-3.4,20.5C330.8,204.7,326.5,199.8,322,194.7L322,194.7z M335.1,237.3c-1.6,2-3.4,1.4-6,0.1 C329.2,234.9,333.4,237.3,335.1,237.3z M366.7,265.3c-1,0.1-1.6-0.2-2.2-1.1c-4.6-7.3-10.6-13.2-17.5-18.4c2.5-0.5,5.4-2.9,7.7-1.5 c8.1,5.2,15.8,11.7,20.8,20c0,0,0,0,0,0C372.7,265.1,369.6,264.9,366.7,265.3L366.7,265.3z M385.1,313.3c-0.2,0.7-0.3,1.2-0.5,1.5 c-4.2-0.8-8.2-1.7-12.3-2.8c2-7.8,2.6-15.6,1.6-23.5c3.9,0.4,7.5,0.7,11.2,1C386.2,296.4,386.2,308.8,385.1,313.3L385.1,313.3z  M240.5,317.2c19.1,4.4,55.4,18,63.6,36.8c7.6,19.8,5.2,42.1,3.7,62.9c-3.4,19.8-13.8,19.6,9,32c30.1,11.9,46.1-5.1,42.4-35.5 c-0.4-18.3,6.8-36.4,3.3-54.7c-4.2-22.3-30.6-30-49.1-37.8C290.6,313,261.9,299.8,240.5,317.2z M111.6,205 c16.7,11.3,43.4,0.2,37.9-22.1c-4.4-1.1-11.3-1.2-12.9-6c1.1-1.4,3.4,0.5,4.9,0.6c10.4,3.6,21.9,1.9,31.9-2c-0.1,1.5-1.1,2.6-0.8,4 c0.7,0.1,0.8-0.3,0.9-0.7c1.1-6.1,8.2-7,11.5-11.8c5.5-5.4,7.3-12.5,10.3-19.2c6.7-6.3,13-13.2,21.2-17.6c-0.7,2.1-2.2,3.6-2.5,5.8 c5.9-4.4,11.8-8.8,18.5-11.7c3.5,2.8,7.1,3.5,11.3,1.7c-2.2,5.1,0.7,8.7,5.9,6.2c4.8-2.1,3.5-10.2-2-9.9c1.5-1.5,1.5-3.4,1.9-5.2 c2.8-1.3,5.8-1.9,8.6-3.5c-1.3-1.1-2.7-0.5-4.1-0.9c1.9-1.9,5.6-1.9,6.5-4.5c-4.5,1.4-8.7,3-12.9,4.7c-5.2-4.8-6.1,0.7-8.9-0.6 c-4.7-0.9-8.2,5.5-7.5,9.7c-3.5,2-6.9,4-10.5,6.1c0.2-1.5,1.3-2.5,1.1-4c-10.7,4.7-19.1,13.9-26.9,22.5c7-40.8-28.1-68.6-65-46.5 c-0.7,11.1-4.8,24.8-15.3,30c-0.2,1.3,0.2,2.3,1.5,2.9c6,3.8,2.2,11.1,0.7,16.1c1.7,6.4,10.7,15.9,10,21.4c-3.3,0.4-4-6.1-8.3-6.2 C89.5,157.3,91.1,194.6,111.6,205L111.6,205z M164.9,127.1c-0.1-1.8,1.2-3.5,3-4.2c1.7-0.7,4,1.2,3.7,3.2 C171.6,129.8,165,132,164.9,127.1z M153.6,155.1c0.4-6.1,3.6-12.1,9.2-14.8c10.7-2.4,5.6,16.5,0.8,20.4 C158.3,166.3,153.4,161.7,153.6,155.1z M362.8,438C362.8,438,362.8,438,362.8,438L362.8,438z M422.3,386.3 c-6.4-29.8-0.1-66.1-31.8-82.6c-0.8,19.7-7.5,38.4-22.6,51.4c-0.5,0.6-0.8,1-0.6,1.9c2.7,11.8,0.5,24-1.3,35.7 c-3.2,15,0.2,30.3-3.3,45.3C397.6,454.1,430.5,422,422.3,386.3L422.3,386.3z M304.2,272.2c-10.3-2.7-21.9,1.7-22.8,13.4 c-2.3-0.2-4.7-0.4-7.1-0.4c-2.9-0.5-2,2.9-2.4,4.8c-0.9,9.5,0.3,7.2,8.4,7.6c-0.1,4.4,2.7,7.1,5.7,9.8c-1.2-0.2-2.1-0.3-3-0.4 c0,0.1-0.1,0.2-0.1,0.3c41.4,16.1,32.7-18,46.9-21.4c5.3-2.1,11.7,5.7,5.6,9.8c-11.3,3.5-8.6-4.3-8.1,11.3c0.1,1.6,0.3,1.9,1.8,2.2 c10.4,2.9,23.7-0.4,24.8-13c2.4-0.6,9.1,1.7,8.7-2.1c-0.7-2.4,1.4-9.7-2-9.6c-8.4-0.7-6.7,1.6-10.2-6.1c-6.5-9.8-24.4-12-31.8-2.3 c-3.9,5.4-6.2,11.9-10.9,16.6c-3,2.8-9.9,5.3-12.6,1.2c-1.1-3,0.9-6.5,4.1-6.9c1.9-0.9,6.4,0.8,6.5-2 C305,282.2,307.5,272.5,304.2,272.2L304.2,272.2z M105.2,283.6c10.3-0.9,21.8-33.3,21.1-42.6c-1.1-12.1-10.7-23.8-22.5-14.1 C88.6,239.5,79,278.5,105.2,283.6L105.2,283.6L105.2,283.6z M527,382.7c-0.1,0.3-0.3,0.7-0.5,1.1c-2.9-2.4-12-8.8-13.8-3.1 c-13.1,23.2-24.3,47.6-32.7,72.9c-4,12.2-7.4,24.7-10.4,37.3c-0.1,3.8-3.9,11.1-1.4,13.9c3.3,2.6,7.6,2.6,11.4,3.7 c0.9,0.6,1.5,0.8,2.2,0.1c4.7-4.6,7.1-10.9,9.6-16.8c10.2-25.9,19.6-52.1,29.6-78C522.8,406.3,535.1,387.8,527,382.7L527,382.7z  M505.1,397.2c2.3-5.1,5.3-9.7,7.8-14.7c4.2,0.8,8,2.5,11.7,4.7c-2.1,5.1-4.1,10.1-6.2,15.3C513.9,400.7,509.6,399,505.1,397.2z  M493.9,421.2c4.8,2.1,9.8,3.2,14.3,5.8c-3.5,9.2-6.9,18.2-10.4,27.4c-4.9-1.8-9.7-3.7-14.6-5.6C486.2,439.4,490,430.4,493.9,421.2z  M469.2,499.1c1.4-7.7,3.5-15.3,5.5-23c4.3,1.8,8.7,3,12.8,4.9c-2.5,7.6-5,14.9-7.5,22.3C476.5,501.9,472.9,500.5,469.2,499.1 L469.2,499.1z M527.6,392.3c-7.9,22.4-17,44.5-25.1,66.9c-7,16.1-10.7,34.5-21.5,48.4c-0.1-0.1-0.2-0.1-0.3-0.2 c13-41.8,30.4-82,46.5-122.6C529.7,386,527.9,390.1,527.6,392.3L527.6,392.3z M495.9,370.8c-0.3,0.6-0.6,1.3-0.8,1.9 c0.1,0.1,0.2,0.2,0.3,0.3c56.9-22.6,22.7-68.4-26-62.2c-0.1,0.1-0.1,0.3-0.1,0.4C487.7,324.4,507.8,346.9,495.9,370.8L495.9,370.8z  M36,305.3c-3.9-5.5-7.7-12.1-6.3-19.1c1.7-6.9,1.7-18.9-7.7-19c-16.2,0.3-17.6,19.9-9.7,30.4c6.5,8.7,7.7,22.9,18.7,27.3 C42.4,327.7,41.6,310.8,36,305.3z M423.7,161.1c3.6,13.1,13,21.1,25.5,25.3c14.9,7.4,31.9-0.9,41.1-13.5c1.9,1.8,3,4.1,5.5,4.9 c-1.7-1.8-3.4-3.6-5.1-5.4c10.3-16.3,12.6-39.4,4-56.9c-5.6-9.6-16.3-16.7-27.6-16.3c-3.1,0.8-5.3-0.1-8.2-1.4 c2.6-0.6,4.9-0.1,7.3-0.2C435.1,91.7,415.5,135.4,423.7,161.1L423.7,161.1z M433.4,176.6c-3.5-3.6-6.5-8.4-7.8-13.2 c8,0.9,7.5,8.9,11.7,14.2C435.9,177.3,434.7,177,433.4,176.6L433.4,176.6z M435.6,111.4c4.3-5.4,8.4-10.8,15.8-7.4 c0,0.1,0.1,0.2,0.1,0.4c-5.1,2.5-8.1,7.1-11.1,11.6c-2.1-0.7-4.2-1.4-6.4-2.1C434.5,113,435,112.1,435.6,111.4z M442.4,114.8 c11.3-19.6,41.4-18.7,51.6,1.4c8.1,17.1,5.9,39.4-3.9,55.4c0,0,0,0,0,0c0,0,0,0,0,0h0v0c-2.5-2.9-4.6-5.8-7.3-8.1 c-0.1,0.1-0.2,0.1-0.2,0.2c2.3,2.8,4.7,5.6,7.2,8.6C451.1,216.9,408.4,159.8,442.4,114.8L442.4,114.8z M425.4,132.1 c2.1,0.5,4.1,1.1,6.3,1.6c-1.3,4.7-2.4,9.3-2.6,14.2c-2.2-0.7-4.2-1.3-6.3-1.9C422.9,141.3,423.9,136.8,425.4,132.1z M323.3,91.8 c12.5,0.7,26.6-15.2,13.8-24.6C321,57.5,301.2,88,323.3,91.8L323.3,91.8z M556.4,224.6c-12.1-18.8-25.7-37.1-43.3-51 c-1.7-0.3-0.1,1.7,0.4,2.2c16.7,17.6,31,38.5,41.2,60.3c-0.6,1.6,1.7,1.6,2,2.9c3.6,8.1,3.9-5.3,4.6-8.1c5.9,9.9,9.2,21.2,15,30.9 c0.8-1.7,0.1-3.8-0.4-5.6c-2.6-6-4-12.4-6.2-18.5C567.4,233.1,559.2,207.9,556.4,224.6L556.4,224.6z M582.8,378.8 c-0.3,0.6-0.4,1.4-1.2,2c0.8-26.9-5.6-53-13.8-78.4c-2.6-5.2-2.9-14.2-8.1-17.2c10.5,27.2,18.8,55.6,20.3,84.9 c-0.4,5.2,1.1,11.4-1.1,16.2c-5.8,7-15.5,10.9-24.4,10.3c1.8-1.8,3-3.9,4-6.4c-3.1,2.5-5.6,5.6-9.2,7.7c-0.4,0.2-0.7,0.9-0.6,1.2 c7.9,4.1,18.2,5.3,27.3,6.2c-4.3,16.4-18,29.6-35.9,27.7c1.8-1.1,9.7-2.7,8.4-5.1c-3.9,2.8-8.9,3.2-13,5.3c-0.6,2,13.9,5.3,15.6,5.1 c-3.2-1.2-6.4-2.4-9.5-3.7c25.8,1,37.8-23.3,39.6-45.8c1.8-4.7,5-8.6,6.5-13.5C584.3,375.8,583.9,376.2,582.8,378.8L582.8,378.8z  M576,405.3c-4.4-2.2-9.3-3.3-13.9-5.3c6.3-1.6,12.7-3.7,16.9-9C578.5,396,577.4,400.7,576,405.3L576,405.3L576,405.3z M108.9,125.9 c10.7,6,19-18.2,17.1-26.1c-0.8-5.5-8.2-10.2-12.7-5.7C107.6,101.5,101.8,118,108.9,125.9L108.9,125.9z M430,230.1 c-23.1-3.4-77.4,5.3-28.6-24.4c-17.9,2.8-38.9,25.7-7,26.7c-22.4,5.3-18,13.8,1.3,18.8c1.7,0.5,2.9-1.2,4.6-1.9 c-5.9-2.6-12-3.6-17.2-7.2c-1.8-5.4,20.2-8.5,24.6-9.1C415,231.5,423.5,234.2,430,230.1z M511.7,140.6c9,7.1,16.8,15.7,25.3,23.4h0 c0,0.1-0.1,0.3-0.1,0.4c-7.7-0.9-10.7-0.3-3.9,6.2c7.9,8.2,16.1,16.2,23.9,24.4c1.9-3.6-13.8-18.4-16.2-22.7 c15.4,1.5,0.7-9.6-3.6-13.8c-9.7-6.9-17.7-19.4-29.5-21.9C508.4,138.5,510.3,139.2,511.7,140.6L511.7,140.6z M319.9,97.3 c27.5-2.6,54.9,3.8,81.8,9c-0.5-1.8-2.2-2.4-3-3.7c8.6,2.3,16.8,5.3,25.3,8c-0.2-1.6-2.5-1.9-3.8-2.7c-13.3-4.8-26.8-10.1-40.8-12.4 c1.9,2.3,4.5,3.4,6.8,5c-16.2-3.7-33.1-4.4-49.6-6.2c1.3-0.7,2.9-0.4,3.7-1.8c-3.2-2-28.7,0.8-30.8,3.7c4.4-0.8,8.7-1.2,13.1-1.5 C321.9,95.9,320.5,96,319.9,97.3L319.9,97.3z M39,181.9c-10.9-5.3-12.5,16.8-7.5,22.5C44.1,214.4,47.5,187.5,39,181.9L39,181.9z  M529,288.1c-5-24.3-13.6-49-28.7-68.8c0.3,3.4,1.3,6.7,1.9,10.4c-8-11.7-15.5-23.8-24.9-34.3c-0.1,0.1-0.2,0.2-0.3,0.2 c11,15.8,21.5,31.9,31.5,48.4c1.3-2.7-0.2-4.9-0.3-7.3c11.7,19,16.8,41.7,21.8,62.7C530.1,295.6,529.4,291.8,529,288.1z  M428.4,387.7c-2.4,6.2,0.6,13.3-1.5,19.8c-0.1,2.6-2.1,5.3-1.1,7.8c8.1-7.7,16.6-14.5,26.1-20.4 C443.4,393.9,435.8,391.8,428.4,387.7L428.4,387.7z M273.4,122.1c2,6.9,8,3.9,13.4,4.1c6.7-9.3,13.1-61.4-4.9-59.3 C266.9,62.7,269.2,113.7,273.4,122.1L273.4,122.1z M289.3,118.8c-1.9,5.4-1.7,6.3-7.9,6.3c1.8-3,2.5-6,3.3-9.2 c1.8-0.1,3.6-0.2,5.6-0.3C289.9,116.8,289.7,117.8,289.3,118.8L289.3,118.8z M292.9,95.9c0,2.8-0.3,5.6-0.5,8.5 c-1.9,0.1-3.6,0.3-5.6,0.4c0.1-3.9,0.3-7.6,0.4-11.5c1.8-0.1,3.6-0.2,5.6-0.2C292.9,94,292.9,95,292.9,95.9z M289.2,70.9 c1.5,3.1,2.3,6.7,3,10.6h-6c-0.9-3.5-1.9-7-2.8-10.6L289.2,70.9L289.2,70.9z M271,91.7c2.6-37.8,15.1-27,15.5,2.8h0 C285.1,142.2,268.3,130.7,271,91.7L271,91.7z M65.8,286.6c3.6-4.6,5.8-12.2,1.9-17.6c-4.9-5.1-12.3,2-12.8,7.6 C52,284.4,58.4,295.1,65.8,286.6L65.8,286.6z M162.2,227.9c3.4-3.7,8.1-7.3,8.8-12.5c-0.3-5.1-6.2-2.3-8.4-0.1 C154.7,220.9,144.7,243.5,162.2,227.9z M86.9,343.2c-1.7-1.2-4-0.3-5.7-1.5c-2.4-1.4-6.7,1.4-4.2,3.9c1.2,1.3,1.5,2.9,1.5,4.6 c-0.1,1.8,0,2.8,1.9,3.4C90.8,358.6,94.6,350.6,86.9,343.2z M233.5,99.6c8.3-3.2,16.8-5.7,25.4-7.8c0-0.1,0-0.3,0.1-0.4 c-2.6-1.3-5.7-1.1-8.5-1.6c3.8-2.4,8.8-2.2,12.1-5.3c-7.4,0.3-14.1,3.5-21.1,5.6c-0.5,0.2-1.2,0.3-1.5,1.2c2.9,0.1,5.7,0.1,8.5,0.2 v0.3c-10.1,3.8-20.2,7.6-30,12c-0.4,0.2-1,0.3-0.9,1.2C223,103.6,228.2,101.3,233.5,99.6L233.5,99.6z M392.7,115 c9.6,2.1,18.6,6,27.9,8.7c0-0.1,0.1-0.2,0.1-0.4c-5.6-3.2-11.8-5-17.8-7.4c0-0.1,0-0.1,0-0.2c1.7-0.4,3.6,0.5,4.9-0.8 c-4.5-3.5-11.1-3-16.5-4.6c-7.8-1.3-15.7-2.7-23.6-3.1c-0.6,0-1.3-0.1-1.8,0.8c8.8,0.8,17.1,2.6,25.7,4.5c-0.8,0.5-1.3,0.9-2.1,1.4 C390.8,114.3,391.7,114.7,392.7,115L392.7,115z M592.2,335.5c-0.5-10.6-2.4-20.9-4.7-31.2c-1.7,0.1-1.2,1.2-1,2.3 c3.1,15.7,4,31.6,2.4,47.6c1.3-0.9,3.3-0.9,3.3-2.7C592.5,346.3,592.4,340.9,592.2,335.5L592.2,335.5z M204.9,56.3 c4.3,0.1,15.7-11.2,8.5-13.3C208.8,41.7,197.1,55.4,204.9,56.3z M107.9,139.9c-2.2,3.6,1.5,12.6,5.5,7.4 C119.4,141,114.1,129.7,107.9,139.9L107.9,139.9z M72.3,300c-3.7-3.9-8.3,1.5-7.8,5.6C66.8,315,76.2,306.5,72.3,300L72.3,300z  M229.2,184.4c2-2.5,4.8-9,1.8-11.5C224.7,170.5,221.6,188.4,229.2,184.4L229.2,184.4z M245.1,164.3c5.9-2.1,2.2-11.7-3.6-8.2 C236,158.7,239.6,166.7,245.1,164.3L245.1,164.3z M552.3,264c-4.3-6.9-6.4-16.1-12.6-21.4c6.1,11.5,11.6,23.3,17,35.3 c0.6,1.3,1.6,2.2,3.1,3C557.3,275.1,555,269.6,552.3,264z M171.3,262.6c-2.6-5.7-13.1-2.5-9.8,2.6 C163.9,268.7,172.9,267.2,171.3,262.6L171.3,262.6z M302.1,120.3c7.3,1.5,10-9.1,1.5-7.7C300.6,113.4,297.9,119.8,302.1,120.3z  M257.1,249.7c0.9-1.8,4.4-3.7,3.2-5.8c-0.7-0.8-1.9-0.2-2.5,0.6c-3,2.8-2.8,7-5.5,10c-1.8,1.9-2.4,4.6-2.8,7.2 c2-2.2,4.7-4.7,4.7-7.8C254.3,252.1,256.2,251,257.1,249.7L257.1,249.7z M249.4,261.6C249.4,261.6,249.4,261.6,249.4,261.6 C249.4,261.6,249.4,261.6,249.4,261.6L249.4,261.6z M208.8,166c-2.7,1.8-4.1,4.7-3.7,7.9c1.6,3.2,6.7-3.4,6.3-5.6 C211.7,166.7,210.5,165.1,208.8,166L208.8,166z M332.9,102.8c-5.7,2.6-1.9,8.4,2.9,4.4C337.8,105.4,335.3,101.6,332.9,102.8 L332.9,102.8z M57.8,93.4c1.7-0.4,3.4-2.9,3.4-4.7c-0.2-1.2-0.1-3.8-1.9-2.7C56.9,86.9,54.1,93.5,57.8,93.4z M587.7,361.8 c-0.2,2-1.1,3.8-1,5.8c4-1.6,4.2-4.4,4.7-8.4C589.8,360,587.9,359.9,587.7,361.8L587.7,361.8z M436.2,232.4c1.5,0.1,2.5-0.6,3.5-1.6 c-4-0.4-8-1-11.5,1.4C430.8,232.7,433.6,232,436.2,232.4z M311.1,210c2.6,2.6,5.6,3.7,9.3,3.6c-2.1-3.2-5.5-3.8-9.2-3.8L311.1,210z  M526.5,220.3c4.1,5.8,6.5,13.1,11.7,17.9c-1.7-3.5-10.5-17.2-12-18.6C526.3,219.8,526.3,220.1,526.5,220.3L526.5,220.3z  M108.3,403.8c-0.8-5.4-1.6-10.8-3-16.1C105.5,393.3,106,398.7,108.3,403.8z M401.8,249.9c-1.3,0.2-2.4,1.2-3.7,1.8 c2.8,1.6,5.4,1,8.2-0.2C404.7,250.9,403.3,250.4,401.8,249.9z M496.5,179.3c3.5,3.9,6,8.5,9.8,11.6 C505.6,188.5,498.5,180.1,496.5,179.3L496.5,179.3z M238.7,109.4c-1.3,0.5-1,2.2,0.1,2.8c2.2,1.1,4.2-2.3,1.7-3.6 C239.9,108.8,239.3,109.1,238.7,109.4z M223.7,217.6c-1,1.5-0.5,3.5,1.1,4.7C226.9,221.1,225.9,215.8,223.7,217.6z M414.6,255.9 c4.1,0.9,7.9,1.7,11.8,2.5c0-0.1,0.1-0.2,0.1-0.3C422.6,257.3,418.2,253.7,414.6,255.9L414.6,255.9z M402.1,203 c3.1-0.7,6.4-1.1,9-3.3C407.7,199.5,404.9,201.4,402.1,203L402.1,203z M586.8,301.6c-0.5-1.8-0.9-3.6-1.5-5.4c-0.1,0-0.2,0-0.4,0 c-1,2.2,0.7,4.9,0.9,7.4C587,303.1,587.1,302.4,586.8,301.6z M442.2,263.3c-0.7-0.3-1.8-0.1-2,0.8c0.5,2.2,4.3,0.7,6,1h0 c0-0.1,0-0.2,0.1-0.3C444.9,264.4,443.5,263.9,442.2,263.3L442.2,263.3z M585.2,372.9c2-0.5,4-1,4.1-3.4 C586.9,370.2,585.3,371.5,585.2,372.9L585.2,372.9z M584.5,293.2c-0.7-2.5-1.4-5-2.2-7.5c-0.1,0-0.2,0-0.3,0c0.1,1.7,1.5,7,2.1,7.9 C584.3,293.5,584.5,293.3,584.5,293.2L584.5,293.2z M412.6,253.8c-2.1-1-2.2-1-4.1,0.6C410.2,255.1,411.3,254.4,412.6,253.8z  M516.9,203.6c-1.3-1.7-2.5-3.4-3.8-5.1C513.7,200.7,515.3,202.8,516.9,203.6z M408.8,252.2c-1.5,0.4-2.8,0.7-4.2,1.1 C406.7,254.2,407.1,254.1,408.8,252.2z M449.8,231.8c-1.6-0.3-3.1-0.7-4.8,0.3C447.5,232.5,449.1,232.4,449.8,231.8z M377.4,248.3 c0.6,1.1,0.8,2.2,1.9,2.8C379.2,248.9,378.8,248.3,377.4,248.3z M412.8,198.4c1.6,0.1,2.7-0.9,4-1.5l-0.1-0.4c-1.3,0.5-2.7,1-4,1.5 C412.7,198.2,412.8,198.3,412.8,198.4z M370.1,239.1c-0.7-1.1-1.5-1.9-2.9-2C368.1,237.9,368.9,238.7,370.1,239.1z M439.9,232.2 c1.5,0.1,2.4-0.3,3.1-1.1C441.8,230.8,440.9,231.5,439.9,232.2z M109.9,410.2c0.4,1.1,0.8,2.3,1.2,3.4 C110.8,411,110.8,410.9,109.9,410.2z M337.1,67.2c0.5-0.1,1-0.1,1.5-0.2C337.9,66.5,337.3,66.4,337.1,67.2z M337,67.2 C337,67.2,337,67.2,337,67.2C337,67.2,337,67.2,337,67.2L337,67.2L337,67.2z M253.2,97.4c-0.3,0.6-0.3,1.1,0,1.5V97.4z M243.6,151.1 c0.4,0.3,0.7,0.3,1-0.1C244.3,151.1,244,151.1,243.6,151.1z M237.3,103.2c0.7,0,0.3-0.5,0.3-0.9c-0.1,0-0.3,0-0.4,0.1L237.3,103.2 L237.3,103.2z M333.2,226.3c0.1,0,0.1,0,0.1,0C333.3,226.3,333.2,226.3,333.2,226.3C333.2,226.3,333.2,226.3,333.2,226.3 L333.2,226.3z M334.2,226.6c-0.3-0.1-0.6-0.2-0.9-0.3c0.3,0.2,0.6,0.3,0.8,0.5C334.2,226.7,334.2,226.7,334.2,226.6z M490,171.6 C490,171.6,490,171.6,490,171.6L490,171.6L490,171.6z M163.7,142.2c-8.1,2.4-11.7,22.2-3.2,18.5 C165.1,158.9,171.2,141.6,163.7,142.2L163.7,142.2z M168.6,124c-5.6,2.5,0.2,8.3,1.9,1.9 M455.9,167v6.7c7.8-0.7,9.5,3.1,9.3-6.5 c12.5-0.7,21.7-16.8,13.3-26.9h0c9.7-5.3,5.4-20.4-4.7-20.4v-7.1c-7.5,1.2-8.8-1.7-8.7,7.2c-3.1,0.4-6.1,0.7-9.1,1.1c0,0,0,0,0,0 c-1.6,15.4-4.6,30.5-6.4,45.9L455.9,167L455.9,167z M465.3,128.6c2.5-0.4,9.6-0.2,5.6,3.4c-1.9,0.5-4,0.4-6.1,0.6 C465,131.2,465.1,130,465.3,128.6L465.3,128.6z M461.2,155.7c0.2-1.7,0.3-3.1,0.5-4.7C471.4,149.3,469.4,156.2,461.2,155.7 L461.2,155.7z M276.8,99.6c-0.7-0.1-1.4-0.3-2.2-0.4c-0.3,3.2-1,6.6,0.8,9.2c1.4,1.4,1,2.9,1.2,4.6c0,0,0,0,0,0 c0.6,0.2,1.3,0.3,2,0.5c0.1-1.2,0.1-2.3,0.2-3.5l0,0c4.1-3.2,3.3-10.4,0.5-14.5c-1.7-2.4-2.7-5.2-1.8-8.2c1.5,1.4,0.9,3.1,1.2,4.6 c0,0,0,0,0,0c0.8,0.2,1.5,0.5,2.4,0.7c0.5-2.9,0.7-6-0.7-8.4c-1.6-1.2-1-3.1-1.2-4.9c-0.7-0.2-1.3-0.5-2.2-0.8 c-0.1,1.1-0.1,2-0.2,2.9c-3,2-2.6,6.4-2.4,9.6c-0.1,4.7,6.4,8.3,3.3,12.9C276.5,102.8,277,101.2,276.8,99.6L276.8,99.6z"></path></svg>