<svg id="Layer_1" xmlns="http://www.w3.org/2000/svg" xmlns:xlink="http://www.w3.org/1999/xlink" x="0px" y="0px" viewBox="0 0 600 600" xml:space="preserve" width="100%" height="100%"><style type="text/css">
	.st0{fill:#FFFFFF;}
</style><path class="st0" d="M52.2,255.6C52.2,255.6,52.2,255.6,52.2,255.6C52.2,255.6,52.2,255.6,52.2,255.6z M31.6,262.6 C31.6,262.6,31.6,262.6,31.6,262.6C31.6,262.6,31.6,262.6,31.6,262.6L31.6,262.6z M32.6,261.4C32.6,261.3,32.6,261.3,32.6,261.4 C32.6,261.3,32.6,261.3,32.6,261.4C32.5,261.4,32.5,261.4,32.6,261.4C32.5,261.4,32.6,261.4,32.6,261.4z M53.1,229.2L53.1,229.2 C53.1,229.2,53.1,229.2,53.1,229.2z M26.4,228.9c5.9-3,13.9-2.6,18.6-7.4c1.9-2.8,6.2-2.3,9.2-3.1c1.6-0.4,2.4,1,3,2.3 c6.4-1.1,12.8-1.3,19.3-1.6c0.2-2.4,0.4-4.7,0.6-7.2c-10.9,1.3-21.8,3-32.5,5.5c-8.5,1.6-14.5,4.4-19.3,11.8 C25.8,229.2,26.1,229,26.4,228.9L26.4,228.9z M52.6,227.8c-0.9-3.2,2.6-5.7,2.9-8.6c-2.3,1.3-2.9,4.4-4.4,6.4 c-3.1,0.7-6.7,0.1-9.1,2.4c3.3-0.1,6.2-1,9.5-1c0.4,0.9,0.5,2.1,1.6,2.2C52.9,228.7,52.7,228.3,52.6,227.8L52.6,227.8z M52.7,228.1 c0.1,0.4,0.2,0.7,0.3,1.1C52.9,228.8,52.8,228.5,52.7,228.1z M53,229.2C53,229.2,53.1,229.2,53,229.2 C53.1,229.2,53.1,229.2,53,229.2C53.1,229.2,53.1,229.2,53,229.2z M53.1,229.2C53.1,229.2,53.1,229.2,53.1,229.2 C53.1,229.2,53.1,229.2,53.1,229.2L53.1,229.2z M53.1,229.2L53.1,229.2C53.1,229.2,53.1,229.2,53.1,229.2 C53.1,229.2,53.1,229.2,53.1,229.2L53.1,229.2z M119.5,334.4c0-0.5-0.2-0.9-0.5-1.2c-1.1-0.1-0.8,1.2-1.4,1.7 c-0.1-0.3-0.2-0.6-0.3-0.9c-0.9,0.1-0.9,0.6-0.9,1.2c-0.1,7.5-0.3,15-0.5,22.5c0.1,0.4-0.1,1.8,0.6,1.5c0.9-0.7,2.1-0.6,3.2-1.3 C119.3,350,120.1,342.2,119.5,334.4z M117.5,334.8c-0.1-0.3-0.2-0.6-0.3-0.9C117.4,334.2,117.5,334.5,117.5,334.8z M153.1,319 c-1.5,0.5-3.3,0.6-3.7,2.4c-1.7,8.1-3.5,16.1-4.4,24.4c1.3-0.3,2.7-0.8,3-2.3C149.5,335.3,151.4,327.2,153.1,319L153.1,319z  M123.5,334.9c-0.2-1.4,0.1-2.4-0.3-3.6c-3.2,1-1.8,21.4-2.4,25.8c0.7,0.4,0.9-0.5,1.4-0.5c0.5-0.1,1-0.3,1.6-0.5 c-0.3-8.3,1.4-16.9,0.6-25C123.4,332.2,124,333.6,123.5,334.9z M134.5,327c0,0,0-0.1-0.2-0.3c-3.6,0.8-1.9,6.5-2.9,9.3 c-0.2,5.6-2,11.8-1.1,17.2c0.5-0.2,1-0.4,1.5-0.6C133,344.2,133.7,335.5,134.5,327L134.5,327z M127.1,330.5 c-0.4,8.1-1.3,16.3-1.2,24.4c0.3-0.1,0.7-0.2,1.1-0.3c0.7-8.5,1.6-17,1.5-25.4C127.3,329.4,127.2,329.5,127.1,330.5z M137.4,325.7 c-1.6-0.4-1.1,2.2-1.4,3.2c-0.5,7.5-2.3,15.2-1.9,22.6c0.8,0.1,0.8-0.9,0.9-1.5C135.7,341.9,136.6,333.8,137.4,325.7L137.4,325.7z  M139.4,324.9c-1.3,8.4-2.6,16.9-3.1,25.4c1,0.2,1-0.8,1.1-1.5c0.6-8.3,2.3-16.2,2.8-24.6C139.8,324.6,139.5,324.7,139.4,324.9z  M146,322.3c-0.8-0.3-1,0.4-1.1,0.9c-1.3,8.1-3,16.2-3.3,24.3c0.6-0.1,0.7-0.4,0.8-0.7C143.4,338.6,144.6,330.4,146,322.3z  M157.5,317.8c-2.3,8.2-4.2,16.5-5.8,24.8c3.6-7.6,4.2-17,6.7-25.4C157.9,317.5,157.6,317.6,157.5,317.8L157.5,317.8z M99.5,290.7 c6-6,13.4-10.7,19.4-16.4c-3.4,0-6.5,1.3-9.9,1.3c6.3-4.7,13.9-8.7,19.7-13.3c-8.2-0.6-16.4-1.3-24.6-2.5 c-8.6,9.1-17.9,17.4-25.6,27.3c5.4-2,10.6-3.8,16.1-5.7c-5.1,6.5-12.2,11.2-17.2,17.8c4.3-1.1,8.1-2.4,12.3-3.6 c-5.1,6.5-11.5,12.5-14.7,20.3c10.5-9.6,21.2-18.9,32.8-27.2C104.8,289,102.6,290.1,99.5,290.7L99.5,290.7z M133.5,298 c4.3,1.9,10.4,0,13-3.8c3.4,1.2-0.2-5.9-1.2-2.6c0.3,1.5,0,2.8-1.5,3.5c-9,5.8-16.6-1.6-6.8-8.3c1-0.7,1.6,0.2,2.3,0.8 c2.5-0.2-2.2-5.8-2.3-2.3C132.1,286.9,127.8,294.8,133.5,298L133.5,298z M143.3,285.9c1.2-0.2,4.1-1.1,3.4-2.8 C145.4,281.2,139.5,285.2,143.3,285.9z M145.5,286.6c-1.6,3.6,8.1-0.2,3.9-1.5C148.1,285.5,146.6,285.8,145.5,286.6L145.5,286.6z  M29.5,291.3c-0.3,0.2-0.5,0.5-0.8,0.7c0.7-0.1,1.1-0.5,1.7-1c0.8,0.5,1.3,1.2,1.9,1.8c0-1-1.2-1.3-1.5-2.2c1-1,2-1.9,2.8-3.1 c-1.4,0.4-2.2,3.2-3.8,2.5C29.9,290.5,30,290.9,29.5,291.3L29.5,291.3z M48.5,291.7C48.5,291.7,48.5,291.7,48.5,291.7 C48.5,291.7,48.5,291.7,48.5,291.7c0.2,0.7,0.5,1.4,1.2,1.8c0,0,0,0,0,0c0,0,0,0,0,0C49.5,292.7,49.1,292.1,48.5,291.7z M48.5,291.7 L48.5,291.7C48.5,291.6,48.5,291.7,48.5,291.7z M48.5,291.7C48.5,291.7,48.5,291.7,48.5,291.7C48.5,291.7,48.5,291.7,48.5,291.7z  M49.7,293.5C49.7,293.5,49.7,293.5,49.7,293.5C49.7,293.5,49.7,293.5,49.7,293.5L49.7,293.5L49.7,293.5z M48.5,291.7 C48.5,291.7,48.5,291.7,48.5,291.7C48.5,291.6,48.5,291.6,48.5,291.7C48.4,291.6,48.5,291.7,48.5,291.7L48.5,291.7z M48.5,291.7 C48.5,291.7,48.5,291.6,48.5,291.7C48.4,291.6,48.4,291.6,48.5,291.7C48.5,291.7,48.5,291.7,48.5,291.7L48.5,291.7z M49.7,293.5 C49.7,293.5,49.7,293.5,49.7,293.5L49.7,293.5C49.7,293.5,49.7,293.5,49.7,293.5z M33.7,294.3c0.3,0.4,0.6,0.8,1,1.2 c-0.1-0.8-0.7-1.3-1.2-1.9C33.5,293.9,33.6,294.1,33.7,294.3L33.7,294.3z M34.2,294.9c0.2,0.2,0.3,0.4,0.5,0.6 C34.5,295.3,34.4,295.1,34.2,294.9z M29.2,289.7c-0.2-0.8-1-1.1-1.6-1.6C27.9,288.9,28.6,289.2,29.2,289.7z M36.2,297.2 C36.2,297.2,36.2,297.1,36.2,297.2C36.2,297.1,36.2,297.2,36.2,297.2c-0.1-0.6-0.6-1-0.9-1.4C35.3,296.5,35.7,296.9,36.2,297.2z  M36.2,297.2C36.2,297.2,36.2,297.1,36.2,297.2C36.2,297.2,36.2,297.2,36.2,297.2z M36.2,297.1C36.2,297.1,36.2,297.2,36.2,297.1 C36.2,297.2,36.2,297.1,36.2,297.1z M36.2,297.2C36.2,297.2,36.2,297.2,36.2,297.2C36.2,297.2,36.2,297.1,36.2,297.2L36.2,297.2z  M36.2,297.1C36.2,297.1,36.2,297.2,36.2,297.1C36.2,297.2,36.2,297.2,36.2,297.1L36.2,297.1z M34.6,286.3c0.2-0.1,0.3-0.2,0.2-0.4 C34.6,285.9,34.4,286,34.6,286.3z M26.4,287.4C26.4,287.4,26.4,287.4,26.4,287.4c0.2,0.4,0.6,0.6,1.1,0.6 C27.2,287.7,26.9,287.4,26.4,287.4C26.4,287.4,26.4,287.4,26.4,287.4z M26.4,287.4C26.4,287.4,26.4,287.4,26.4,287.4 C26.4,287.4,26.4,287.4,26.4,287.4C26.4,287.4,26.4,287.4,26.4,287.4z M26.4,287.4L26.4,287.4C26.4,287.4,26.4,287.4,26.4,287.4 C26.4,287.4,26.4,287.4,26.4,287.4C26.4,287.4,26.4,287.4,26.4,287.4L26.4,287.4z M26.4,287.4C26.4,287.4,26.4,287.4,26.4,287.4 C26.4,287.4,26.4,287.4,26.4,287.4L26.4,287.4z M51.3,287c0,0.1-0.2,0.2-0.1,0.3c0.1-0.1,0.1-0.2,0.2-0.2 C51.4,287.1,51.4,287.1,51.3,287L51.3,287z M51.2,287.4C51.2,287.4,51.2,287.4,51.2,287.4C51.2,287.4,51.2,287.4,51.2,287.4 C51.2,287.4,51.2,287.4,51.2,287.4L51.2,287.4z M27.4,311.3c-0.1-0.4-0.3-0.7-0.6-1l0,0l0-0.1C26.9,310.6,27.1,310.9,27.4,311.3 L27.4,311.3z M26.7,310.3C26.7,310.3,26.7,310.3,26.7,310.3L26.7,310.3L26.7,310.3z M29.2,314.3C29.2,314.3,29.2,314.3,29.2,314.3 c-0.2-0.3-0.4-0.6-0.6-0.9C28.6,313.8,28.8,314.1,29.2,314.3C29.2,314.3,29.2,314.3,29.2,314.3z M29.2,314.3 C29.2,314.3,29.2,314.3,29.2,314.3L29.2,314.3z M29.2,314.3C29.2,314.3,29.2,314.3,29.2,314.3C29.2,314.3,29.2,314.3,29.2,314.3z  M29.2,314.3C29.2,314.3,29.2,314.3,29.2,314.3C29.2,314.3,29.2,314.3,29.2,314.3C29.2,314.3,29.2,314.3,29.2,314.3 C29.2,314.3,29.2,314.3,29.2,314.3z M29.5,314.9C29.5,314.9,29.5,314.9,29.5,314.9L29.5,314.9c0.2,0.3,0.4,0.6,0.6,1 C30,315.4,29.9,315.1,29.5,314.9z M29.5,314.9C29.5,314.9,29.5,314.9,29.5,314.9L29.5,314.9C29.5,314.9,29.5,314.9,29.5,314.9 L29.5,314.9z M31,317.4c0,0.3,0.2,0.5,0.4,0.6C31.3,317.8,31.2,317.6,31,317.4C31,317.4,31,317.4,31,317.4z M31.9,318.9 C31.9,318.9,31.9,318.9,31.9,318.9C31.9,318.9,31.9,318.9,31.9,318.9c-0.1-0.2-0.2-0.5-0.3-0.7C31.6,318.5,31.6,318.8,31.9,318.9 L31.9,318.9z M32,318.9C32,318.9,31.9,318.9,32,318.9C31.9,318.9,31.9,318.9,32,318.9L32,318.9z M31.9,318.9 C31.9,318.9,31.9,318.9,31.9,318.9L31.9,318.9C31.9,318.9,31.9,318.9,31.9,318.9L31.9,318.9z M30.1,315.8c0,0.3,0.2,0.5,0.5,0.7 C30.4,316.2,30.2,316,30.1,315.8z M30.4,316.2c-0.1-0.1-0.2-0.3-0.3-0.4C30.2,315.9,30.3,316.1,30.4,316.2L30.4,316.2z M26.4,309.7 c-0.1-0.2-0.2-0.4-0.3-0.6c0,0,0,0,0,0C26.1,309.4,26.2,309.6,26.4,309.7C26.4,309.7,26.4,309.7,26.4,309.7L26.4,309.7L26.4,309.7z  M26.1,309.1C26.1,309.1,26.1,309.1,26.1,309.1C26.1,309.1,26.1,309.1,26.1,309.1C26.1,309.1,26.1,309.1,26.1,309.1L26.1,309.1z  M26.4,309.7C26.4,309.7,26.4,309.7,26.4,309.7C26.4,309.7,26.4,309.7,26.4,309.7L26.4,309.7L26.4,309.7z M31,317.3 C31,317.3,31,317.4,31,317.3c-0.1-0.2-0.2-0.5-0.3-0.8C30.8,316.9,30.7,317.2,31,317.3C31,317.4,31,317.3,31,317.3z M31,317.3 C31,317.4,31,317.4,31,317.3C31,317.4,31,317.3,31,317.3L31,317.3z M31,317.3C31,317.3,31,317.4,31,317.3 C31,317.4,31,317.4,31,317.3C31,317.4,31,317.4,31,317.3z M31,317.3C31,317.4,31,317.4,31,317.3C31,317.4,31,317.4,31,317.3z  M25.8,294.7c1-0.4,2.1-1.3,2.5-2.3c-0.9,0.8-1.8,1.6-2.6,2.3C25.7,294.7,25.7,294.7,25.8,294.7z M24,296.2 C24,296.2,24,296.2,24,296.2c0.7-0.3,1.3-0.6,1.5-1.4C25,295.3,24.3,295.5,24,296.2C24,296.2,24,296.2,24,296.2L24,296.2z M24,296.2 C24,296.2,24,296.2,24,296.2C24,296.3,24,296.2,24,296.2z M24,296.3C24,296.3,24,296.3,24,296.3C24,296.2,24,296.2,24,296.3 L24,296.3L24,296.3z M24,296.2C24,296.2,24,296.3,24,296.2L24,296.2C24,296.2,24,296.2,24,296.2L24,296.2z M46.7,308.8 C46.6,308.8,46.6,308.8,46.7,308.8c1.1-0.5,1.9-1.7,2.9-2.4C48.4,306.7,47.3,307.8,46.7,308.8C46.6,308.8,46.6,308.8,46.7,308.8z  M46.6,308.8C46.6,308.8,46.6,308.8,46.6,308.8C46.6,308.8,46.6,308.8,46.6,308.8z M44.8,310.3C44.8,310.3,44.8,310.3,44.8,310.3 c0.8-0.2,1.4-0.8,1.8-1.5c0,0,0,0,0,0c0,0,0,0,0,0C45.7,309.2,45.4,309.5,44.8,310.3C44.8,310.3,44.8,310.3,44.8,310.3L44.8,310.3z  M44.8,310.3C44.8,310.3,44.8,310.3,44.8,310.3C44.8,310.3,44.8,310.3,44.8,310.3z M44.8,310.3C44.8,310.3,44.8,310.3,44.8,310.3 C44.8,310.3,44.8,310.3,44.8,310.3z M44.8,310.3C44.8,310.3,44.8,310.3,44.8,310.3C44.8,310.3,44.8,310.3,44.8,310.3 C44.8,310.3,44.8,310.3,44.8,310.3C44.8,310.3,44.8,310.3,44.8,310.3L44.8,310.3z M44.8,310.3C44.8,310.3,44.8,310.3,44.8,310.3 C44.8,310.3,44.8,310.3,44.8,310.3C44.8,310.3,44.8,310.3,44.8,310.3L44.8,310.3z M46.7,308.8C46.7,308.8,46.6,308.8,46.7,308.8 L46.7,308.8z M46.7,308.8C46.6,308.8,46.6,308.8,46.7,308.8C46.6,308.8,46.6,308.8,46.7,308.8C46.6,308.8,46.6,308.8,46.7,308.8 L46.7,308.8z M46.6,308.8L46.6,308.8C46.6,308.8,46.6,308.8,46.6,308.8C46.6,308.8,46.6,308.8,46.6,308.8L46.6,308.8z M46.6,308.8 C46.6,308.8,46.6,308.8,46.6,308.8L46.6,308.8z M33.1,321c0.2,0.6,0.4,1.2,0.9,1.6c0,0,0,0,0,0c0,0,0,0,0,0 C33.9,322,33.7,321.4,33.1,321C33.2,321.1,33.2,321.1,33.1,321L33.1,321L33.1,321z M34.1,322.5C34.1,322.5,34.1,322.5,34.1,322.5 C34.1,322.5,34.1,322.5,34.1,322.5z M33.2,321C33.2,321,33.1,321,33.2,321L33.2,321C33.2,321.1,33.2,321,33.2,321L33.2,321z  M32.9,320.4C32.9,320.4,32.9,320.4,32.9,320.4C32.9,320.4,32.9,320.4,32.9,320.4c0.1,0.2,0.2,0.4,0.3,0.6 C33.2,320.8,33.1,320.5,32.9,320.4L32.9,320.4z M32.9,320.4L32.9,320.4C32.9,320.4,32.9,320.4,32.9,320.4z M32.9,320.4 C32.9,320.4,32.9,320.4,32.9,320.4C32.9,320.4,32.9,320.4,32.9,320.4z M32.9,320.5C32.9,320.5,32.9,320.4,32.9,320.5 C32.9,320.4,32.9,320.4,32.9,320.5z M32.9,320.4C32.9,320.4,32.9,320.4,32.9,320.4C32.9,320.4,32.9,320.4,32.9,320.4 C32.8,320.4,32.9,320.4,32.9,320.4C32.9,320.4,32.9,320.4,32.9,320.4L32.9,320.4z M32.9,320.4C32.9,320.4,32.8,320.4,32.9,320.4 C32.8,320.4,32.9,320.4,32.9,320.4L32.9,320.4z M33.2,321.1C33.2,321.1,33.2,321,33.2,321.1C33.2,321,33.2,321,33.2,321.1 C33.2,321,33.2,321.1,33.2,321.1L33.2,321.1z M34.1,322.6C34.1,322.6,34.1,322.6,34.1,322.6C34.1,322.6,34.1,322.6,34.1,322.6 C34.1,322.6,34.1,322.6,34.1,322.6c-0.1,0.2,0,0.5,0.2,0.6c0,0,0,0,0,0c0,0,0,0,0,0C34.4,323,34.4,322.7,34.1,322.6z M34.4,323.2 C34.4,323.2,34.4,323.2,34.4,323.2C34.4,323.2,34.4,323.2,34.4,323.2L34.4,323.2L34.4,323.2z M34.4,323.2 C34.4,323.2,34.4,323.2,34.4,323.2L34.4,323.2C34.4,323.2,34.4,323.2,34.4,323.2z M34.1,322.5C34.1,322.5,34.1,322.5,34.1,322.5 L34.1,322.5z M34.1,322.6C34.1,322.6,34.1,322.6,34.1,322.6C34.1,322.6,34.1,322.6,34.1,322.6C34.1,322.5,34.1,322.5,34.1,322.6 L34.1,322.6z M34.1,322.6L34.1,322.6C34.1,322.5,34.1,322.5,34.1,322.6C34.1,322.6,34.1,322.6,34.1,322.6 C34.1,322.6,34.1,322.6,34.1,322.6z M176.4,344.9C176.4,344.9,176.5,345,176.4,344.9C176.5,345,176.4,344.9,176.4,344.9 C176.4,344.9,176.4,344.9,176.4,344.9C176.4,344.9,176.4,344.9,176.4,344.9C176.4,344.9,176.4,345,176.4,344.9 C176.4,345,176.4,345,176.4,344.9C176.4,345,176.4,345,176.4,344.9L176.4,344.9z M175.2,344.3C175.2,344.3,175.2,344.3,175.2,344.3 C175.2,344.3,175.2,344.3,175.2,344.3C175.2,344.3,175.2,344.3,175.2,344.3z M171.8,358.3C171.8,358.3,171.8,358.3,171.8,358.3 C171.8,358.3,171.8,358.3,171.8,358.3C171.8,358.3,171.8,358.4,171.8,358.3C171.8,358.3,171.8,358.3,171.8,358.3 C171.8,358.3,171.8,358.3,171.8,358.3C171.8,358.2,171.8,358.2,171.8,358.3C171.8,358.3,171.8,358.3,171.8,358.3L171.8,358.3z  M175.2,347.7C175.2,347.7,175.2,347.7,175.2,347.7C175.2,347.7,175.2,347.7,175.2,347.7z M176,345.5 C176,345.5,176.1,345.5,176,345.5C176.1,345.5,176,345.5,176,345.5z M146.3,411.2c4.8,5.2,9.8,10.1,14.5,15.5 c2.8,2.8,7.2-0.2,10.6-0.4c8.5-1.6,17.1-3.1,25.6-4.2c3.3,0.1,1.7-1.7,3.2-3.8c2,0.8,4.1,1.9,6.3,1.8c1.2-5.1,3-10.1,4.4-15.2 c-8.2,4.1-3.3-6.6-5-10.8c-3.5,0.5-7.4,3.8-10.7,3.2c2.9-4.6,6.1-11.4,2.8-16.5c-5.6,11.8-8.5,25.8-13.3,37.3 c12.4-44,32.5-87.9,63.6-121.8c-10.9,0-21.9-0.1-32.7,1.5c-4,1.1-5.2,6.5-7.6,9.5c-21.9,35.9-38.3,75.4-44.2,117.2 c-0.5,0.2-0.8,0.3-1.2-0.1c4.7-45.7,24.1-88.9,49.3-126.9c-4.4-4.6-9.1-8.8-13.6-13.2c6.1-1.8,10.8,8.5,15.1,12 c11.8-1.6,24-2,35.6-2.1c-8.1-9.3-17.8-17-27.5-24.6c-2.3-1.2-5.7-0.5-8.1,0.4c-0.3,0.3-0.8,0.2-1.2,0c-3.4-2.1-6.6-4.6-9.9-7 c-1.9-1.8,1.1-4,2.4-5c-5.7-4.3-12.4-6.9-18.4-10.5c7.8,1.2,14,7.8,21.2,10.1c2.8,0.1,6.3-1.6,8.8-0.1c2.6,2.3,6.6,4.2,8.2,7.2 c-3.6,0.1-7.3-0.2-11,0.4c-2.5-1.9-5.9-4.8-8.9-4.7c2.5,2.3,5.9,3.7,8.4,6.1c4.1-0.9,8.4-1,12.5-0.9c0.5,1.9,0.5,3.7-1.6,3.4 c-0.2,0-0.5-0.1-0.6,0.4c9.8,7.5,19.5,15.7,27.7,25c7.6,1.2,16.3,0.2,23.1,3.7c-8-0.5-15.9-2-23.9-1.7c-6.6,6-12.3,13.1-17.5,20.4 c6.6,5.6,15.5,7.3,23.6,4c-0.7,1.7-1.8,2.2-2.4,4c8.6-10,18.2-18.7,28.2-27.3c-26.5-25.2-55.6-49.2-88.9-64.7c2.1-6.7,2.4-14,1.3-21 c49.7-66.5,136.7-58.2,162.8-101.9c-0.3,3.3-1.6,6.2-2.1,9.2c17.6-25.3-19.6-41-40.4-41.6c-50.4-2.7-102.7,24.1-140.5,55.8 c-5.7-4.4-13.3-4.7-19.9-6.3c41.7-40.9,99-70.1,158.4-68.4c33.9-1.3,87.1,24,68.7,64.7c-21.8,37.1-72.1,42.3-108.5,59 c-27.3,10.8-51.7,29.1-68.9,53c0.5,0.5,1.1,0.7,1.7,0.9c19.8-26.9,48.3-45.9,79.8-56.3c36.1-15.3,88.9-22.5,101.5-65.7 c4.3-49.1-58.3-62.1-96.4-57c-52.5,5.5-102.2,32.1-138.5,69.9c-9.8-0.7-22.4,4-21.1,15.7c-13.8,4.2-28.7,9.7-36.6,22.7 c-5.8,8.3-10.3,18.1-7,28.2c-5.1,4.1-8.5,10.3-10,16.7h1.8c1.8-5.5,4.4-11,8.7-14.9c3,6.9,9.9,14.7,18.3,12.1 c-0.3-2-1.1-4.2-2.9-5.1c-0.9-0.1-1.6-1.5-0.5-1.7c10.2,0.4,0.9,33.7,30.9,18.6c-2.2-2.6-4.7-4.8-7.6-6.7c-0.5-0.3-0.7-0.7-0.5-1.1 c1-1.1,2.9,0.6,3.8,1.2c6,3.9,7.6,10.9,11.9,16c10.1,7.3,25.4,1.9,32.2-7.7c2.4-8.1-4.7-18.6-12.6-20.9c-0.1,0.4-0.3,0.8-0.4,1.2 c4.1,2,15,10.7,5.5,12.5c-9.4,0.5-9.9-10.6-7.1-17c3.2-6.9,6.2-15.8,12.2-20.3c-0.4,3.1-3.5,5.8-4.5,8.9c27,2.5,32.4,41,19.1,60 c-5,4.9-14.5,2-18.2-3.2c-1.3-6.4,6.4-11.5,6.3-18.2c-8.2,9.6-26.1,15.3-35,3.8c-1.7-2-2.7-4.9-4.9-6.3 c-12.6,6.1-24.9,2.6-27.4-12.3c-1.1,0.2-2.2,0.3-3.4,0.4c-2.1,3-3.1,6.4-4,9.9c2.4,0.6,4.9,0.4,7.1,1.7c-2.6,0.6-5-0.3-7.6,0 c-3.9,7.3-21.1,8.2-22.2-1.6c-6.2,0.3-12.4,1-18.6,1.8c-2.6,1.4-2.9,5.5-4.9,7.6c0,0,0,0,0,0c-3,1.3-6.8,0.8-10,1.7 c-2.8,0-2.4-3.8-1.1-5.5c-18.6,3.6-21.2,7.9-31.6,22.9c56.3-24.3,123.5-15,172.9,20.9c-1,0.7-2,0.9-2.9,1.2 c-48.9-34.9-115.2-44.1-170.7-19.7c9.8,32.7,11.8,66.9,12.9,100.8C69.2,358.4,112.1,379.8,146.3,411.2z M171,155.1 c-9.1-6.5-15.1-12.8-28.1-12.2C151.5,140.3,169.7,145.6,171,155.1z M189.8,199.6c-2.7-5-6.5-9.2-11.3-12.4 c9.8-8.7,8.5-26.2-5.1-30.1c6.5-6.4,9.1-14.8,2.2-22.3c37.5-33.9,139.2-84,179.8-36c7,27.8-53,43.9-72.7,51.8 c-34,11.8-66.3,30.6-89,59C192.8,206.1,191.6,202.8,189.8,199.6L189.8,199.6z M179.9,336.5c0,0.1,0,0.1,0,0.2 C179.9,336.6,179.9,336.5,179.9,336.5C179.9,336.4,179.9,336.4,179.9,336.5c0,0,0.1-0.1,0.1-0.2c0,0.1,0,0.2,0,0.2 C180,336.5,180,336.5,179.9,336.5L179.9,336.5z M191.7,269.6c5.8,0.5,14,1,16.6,7.1c0.8,4.3-6.4,5.5-9.4,4.5 c-4.4-3.9-9.2-7.4-13.9-10.9C187.4,269.7,189.5,269.5,191.7,269.6L191.7,269.6z M175.2,283.8c0.8-4.6,2.5-9.3,5.9-12.6 c3.7,2.2,10.8,7.6,14.5,11C190.3,289.4,173.7,302.1,175.2,283.8L175.2,283.8z M191.7,308.7c-3.4,6.2-6.7,12.4-10.2,18.8 C183.9,321.3,187.7,313.9,191.7,308.7L191.7,308.7z M174.9,344.5c0.1-0.1,0.1-0.1,0.2-0.2c0,0,0,0,0,0c0,0,0,0,0,0 c4.1-12.1,11.4-23.1,17.5-34.3c-5.3,11.5-12.3,22.8-17.5,34.3c0,0,0,0,0,0c0,0,0,0,0,0c0.1,0.1,0,0.2-0.1,0.3 C175,344.6,175,344.6,174.9,344.5C174.9,344.5,174.9,344.5,174.9,344.5L174.9,344.5z M170.1,363c0.5-1.1,0.7-2.7,1.4-3.6 c0,0,0,0,0,0c0,0,0,0,0,0c-0.1-0.3-0.1-0.7,0.2-0.9c0,0,0,0,0-0.1c0,0,0,0,0,0c0.3-1.1,0.4-2.7,1.3-3.4c0,0,0-0.1,0-0.1 c-0.2-0.4-0.1-0.7,0.1-1c0,0,0,0,0-0.1c0,0,0,0,0.1,0c0.2-0.7-0.3-0.8-0.8-1c0.2,0.4,0.1,0.8,0,1.2c0,0,0,0-0.1,0 c-0.1,0.3-0.1,0.5-0.2,0.8c-0.3,0.1-0.4,0.3-0.3,0.6c0,0-0.1,0.1-0.2,0.1c0,0,0-0.1,0-0.1c0.1,0,0.1,0,0.2,0c0-0.3,0.1-0.5,0.3-0.6 c0-0.3-0.3-0.6,0.2-0.8c0.1-0.4,0-0.8,0.1-1.2c0,0,0,0,0,0c1.1-1.2,1.2-3.3,2.4-4.3c0,0,0,0,0,0c0-0.3-0.1-0.5,0.3-0.6 c0,0,0-0.1,0.1-0.1c0-0.8,0.4-1.4,0.8-2c0,0,0-0.1,0-0.1c0,0,0,0,0.1,0c0.1-0.2,0-0.5,0.3-0.5c0,0,0-0.1,0-0.1c0-0.2,0-0.4,0.2-0.6 c0,0,0-0.1,0.1-0.1c0.1-0.7,0.4-1.4,0.8-2c0,0,0-0.1,0-0.1c0,0,0,0,0,0c0-0.2,0.1-0.4,0.3-0.5c0,0,0-0.1,0-0.1c0-0.2,0-0.5,0.2-0.6 c0,0,0-0.1,0.1-0.1c0-0.5,0.3-1,0.5-1.4c0,0,0-0.1,0-0.1c0,0,0,0,0.1,0c0.1-0.3,0.1-0.5,0.2-0.8c0.2-0.1,0.3-0.2,0.4-0.4 c0,0,0,0,0-0.1l0.1-0.2c0,0.1-0.1,0.2-0.1,0.2c0,0,0,0,0,0c0,0.2-0.3,0.3-0.4,0.4c0,0.3,0.3,0.6-0.2,0.8c0,0.6-0.2,1.1-0.6,1.5 c0,0,0,0.1,0,0.1c0,0,0,0-0.1,0c-0.1,0.2-0.2,0.5-0.2,0.7c0,0,0,0-0.1,0c-0.1,0.2-0.1,0.5-0.3,0.5c-0.1,0.8-0.3,1.5-0.9,2.1 c0,0,0,0.1,0,0.1c0,0,0,0-0.1,0c-0.1,0.2-0.1,0.4-0.2,0.6c0,0,0,0.1,0,0.1c0,0,0,0,0,0c0,0.2,0,0.5-0.3,0.5 c-0.1,0.8-0.4,1.5-0.8,2.1c0,0,0,0.1,0,0.1c0,0,0,0-0.1,0c-0.1,0.2-0.2,0.4-0.2,0.6c0,0,0,0.1,0,0.1c0,0,0,0,0,0 c0,1.8-0.6,3.8-1.6,5.3c0,0,0,0.1,0,0.1c0.2,0.3,0,0.7-0.1,1c0,0,0,0,0,0.1c0,0,0,0-0.1,0c-0.5,1.1-0.6,2.5-1.3,3.4c0,0,0,0.1,0,0.1 c0,0,0,0,0,0c0.1,0.3,0.1,0.7-0.2,0.9c0,0,0,0,0,0c0,0,0,0,0,0C171,360.5,171.1,362.3,170.1,363C170.1,363,170.1,363,170.1,363 c0.1,0.3,0.1,0.5,0.2,0.7c0,0-0.1,0-0.1,0C170.1,363.5,170.1,363.2,170.1,363z M137.4,280.2c22.7-7,25.6,17.6,4.3,22.5 C124.6,306.1,123.2,285.3,137.4,280.2L137.4,280.2z M74.3,249.2c-0.4,0.5-0.9,0.5-1.5,0.5C73.3,249.2,73.7,249.1,74.3,249.2z  M51.6,256c0-0.3,0.2-0.4,0.5-0.4c0,0,0.1,0,0.1-0.1c0.2-0.4,0.3-0.5,0.8-0.5c0,0,0,0,0.1,0c0-0.4,0.4-0.5,0.7-0.7c0,0,0,0,0,0 c0,0,0,0,0-0.1c0.1,0,0.3-0.2,0.4,0c-0.1,0-0.3,0-0.3,0.1c0,0.4-0.4,0.5-0.7,0.7c0,0,0,0,0,0.1c0,0-0.1,0-0.1,0 c-0.3,0.2-0.6,0.3-0.8,0.5c0,0,0,0.1,0,0.1c0,0,0,0,0,0c0,0,0,0-0.1,0C52,255.7,51.8,255.9,51.6,256C51.6,256,51.6,256,51.6,256 L51.6,256z M50.5,256.6c0.1,0,0.2,0,0.2,0.1C50.6,256.7,50.6,256.7,50.5,256.6L50.5,256.6z M49.6,257.2c0,0,0.2,0,0.2,0 c-0.2,0.2-0.2,0.2-0.7,0.5C49.4,257.4,49.5,257.3,49.6,257.2L49.6,257.2z M40.5,260.5c0.4-0.4,0.8-0.9,1.2-1.3 c0.1,0.1,0.2,0.2,0.2,0.2c-0.6,0.8-1.3,1.5-2.3,2.1C40,261.2,40.2,260.8,40.5,260.5L40.5,260.5z M31.6,262.6 C31.6,262.6,31.6,262.6,31.6,262.6c0-0.1,0-0.1,0.1-0.1c0.1-0.5,0.3-1,0.9-1.2c0,0,0,0,0,0c0,0,0,0,0,0c0.1-0.6,0.6-1,1-1.4 c-0.2,0.8-0.2,0.8-1,1.4c0,0,0,0,0,0.1c0,0,0,0,0,0c-0.1,0.5-0.3,1-0.9,1.2c-0.1,0.1-0.1,0.2-0.1,0.4c0,0-0.1,0-0.1-0.1 C31.5,262.8,31.5,262.7,31.6,262.6L31.6,262.6z M26.9,261.6c1.2-1.3,2-3.8,3.5-4.3c-1.2,2-2.7,4.4-4.3,6.2 C26.2,262.6,26.6,262.1,26.9,261.6L26.9,261.6z M22.5,311.1c1.2-0.6,2.2-1.9,3.6-2c0,0,0,0,0,0c0,0,0,0,0,0c3.6-3.2,8.3-5.5,12-8.7 c1.6,1.6,4.6,7.7,5.2,10.7c-3.6,2.7-7.4,6.1-11.4,7.8c0,0,0,0,0,0c0,0,0,0,0,0c-2.2,2.1-5.5,3.7-8.2,5.1 C22.9,319.9,23,315.4,22.5,311.1z M23.8,329.8c-0.1-0.8,0-1.5,0-2.3c1.3,0.3,2.4,1.8,3.7,2.7c-1.1,0.8-2.2,1.3-3.3,1.8 C24,331.4,23.8,330.6,23.8,329.8z M29.3,331.9c-2.3,1.5-4.1,2.5-5.2,2.8c-0.1-0.5-0.1-1-0.1-1.6c1.5-0.9,2.9-1.5,4.5-2.5 c0.5,0.2,0.9,0.4,1.4,0.7C29.6,331.5,29.5,331.7,29.3,331.9L29.3,331.9z M30.5,331c-0.4-0.2-0.8-0.4-1.4-0.7 c2.1-1.6,4.3-2.8,6.6-4.2c0.2,0.3,0.3,0.5,0.4,0.7C35.2,327.8,32.3,329.9,30.5,331L30.5,331z M41.6,322.6c-0.1,0.2-0.2,0.3-0.5,0.2 c0,0,0,0,0,0c0,0,0,0,0,0c-1.1,1.4-2.9,2.7-4.4,3.5c-0.1-0.1-0.2-0.3-0.3-0.4c1.2-1.3,3.1-2.3,4.7-3.1c0,0,0,0,0,0c0,0,0,0,0,0 c0.1-0.3,0.3-0.4,0.6-0.5C41.7,322.5,41.6,322.6,41.6,322.6z M54,306.1c-0.8-4.3-1.4-9.1-4.3-12.6c0,0,0,0,0,0c0,0,0,0,0,0 c1.2,3.5,4.8,7.9,1.5,11.1c0.5-0.4,1-0.8,1.5-1.3c0.7,1.5,0.2,3.1,0.6,4.5c-3.6,7.8-9.8,13.7-17.5,17.3c-0.7-0.5-0.8-1.4-1.5-1.8 c0,0,0,0,0,0c0,0,0,0,0,0c0.3,0.7,0.6,1.5,0.9,2.2c-2.1,1.7-4.8,2.9-7.2,4.5c-1.7-1.1-4.9-2.5-4.4-5c2.8-1.7,5.5-3.3,8.4-5.1 c0.2,0.2,0.5,0.4,0.7,0.6c0,0,0,0,0,0c0,0,0,0,0,0c-0.1-0.3-0.2-0.6-0.3-0.9c3.6-2.5,7.2-5.1,10.8-7.7c1.2,2,0.3,4.7,1.1,6.6 c0.8-1.5-0.1-5.1-0.4-7c0.3-0.4,0.4-0.7,0.7-1c0,0,0,0,0,0c0,0,0,0,0,0c-0.3,0.1-0.5,0.2-0.8,0.2c-1.5-3.7-3.1-7.1-5.2-10.6 c3.4-2.4,6.3-6.2,9.7-8.3c0,0,0,0,0,0c0,0,0,0,0.1,0c0.1-1.7,2.3-2.5,2.7-4.2c-4,4.1-7.8,8.5-12.8,12c-1-0.6-1.2-1.8-2.2-2.3 c0,0,0,0,0,0c0,0,0,0,0,0c0.5,0.9,1.1,1.7,1.7,2.6c-3.9,3.1-7.9,6.5-12.4,8.4l0,0c0,0,0,0,0,0c-0.6,1.1-1.9,1.4-2.9,2.2 c-0.4-2.8-1.5-6.3-0.7-9c0,0,0,0,0,0l0,0c-0.4-0.9-0.9-1.9-0.6-3c0.8-0.7,2.1-1.2,2.8-2.2c0,0,0,0,0,0c0,0,0,0,0,0 c-1.2,0.2-1.7,1.4-2.9,1.6c-0.4-2.5-0.6-5-0.9-7.5c1.7-1.2,4.1-4,6.3-2.9c0,0,0,0,0,0c0,0,0,0,0,0c-0.2-0.2-0.3-0.5-0.5-0.7 C43.1,276.9,65,283.7,54,306.1L54,306.1z M68.5,357.6c-1.1,0.7-0.5,1.7-0.4,2.8c-4-1.3-8-2.5-11.9-3.8c-1.4-7.2,1.9-19.5,11.4-17.9 c-1.7,4.2-1.5,8.5-1.2,12.8c-0.3,3.1,3.4,2.3,5.3,3.7C70.5,356.1,69.6,356.8,68.5,357.6L68.5,357.6z M77.2,363.9 c-3.1-0.9-6.4-1.8-6.2-5.8c4.3-2.9,6.2-3.5,0-5.8c-3-2.1-1.9-8.8-0.4-11.7C76,346.7,76.7,356.2,77.2,363.9L77.2,363.9z M89.3,369.2 c-3.6-1.5-6.6-3.1-10.3-4.6c-1.2-7.8-1.5-16-5.7-23c1.2-3.3,5-6,8.3-3.9c-3,3.8-1.7,9.2-1.4,13.7c0.2,1.4,1.6,0.8,2.4,1.5 c-4.5,2.5,2.1,13.5,6.5,12.5C89.5,366.7,89.4,367.9,89.3,369.2L89.3,369.2z M86.8,350.5c-1.4-0.6-2.9-0.8-4.2-1.6 c-0.1-3.1-0.3-6.4,1.3-9c4.9,5.8,5.1,14.5,5.3,21.8c-2.8-0.3-4.6-3.7-5-6.2C85,354.1,89.3,351.7,86.8,350.5L86.8,350.5z  M107.4,293.3C93,303.1,80.1,315,67.7,327.3c3.3-9.2,8.2-17.7,14.1-25.5c-3.2-0.9-7.1,1.9-10.6,2.1c3.8-5.9,8.2-11,12.8-16.1 c-3.7,0-7.2,2.5-11,2.9c8.8-12.7,19.5-24,30.7-34.5c10.5,0.8,22,3.7,32.9,4.2c-5.9,4-13.7,6.9-18.5,12.2c2.7,0.1,5.4-0.1,8.1,0 c-4.7,4.8-12.4,7.8-17.3,13c3.2,0.5,5.4,0.3,8.5,0.7C114.2,288.9,110.8,290.9,107.4,293.3L107.4,293.3z M155.9,346.4 c-14.5,6.2-28.9,12.9-43.4,19.2c-0.9-11.1,0.1-22.8,0.2-34.2c17.4-7.4,34.9-14.6,52.6-21.3C162,322,158.7,334.3,155.9,346.4 L155.9,346.4z M177.6,342.1L177.6,342.1C177.6,342.1,177.6,342.1,177.6,342.1z M178.2,341C178.2,340.9,178.2,340.9,178.2,341 c0.1-0.1,0.1-0.1,0.1-0.1C178.2,340.9,178.2,340.9,178.2,341L178.2,341C178.2,340.9,178.2,340.9,178.2,341 C178.2,340.9,178.2,340.9,178.2,341z M178,341.6C178,341.6,178,341.6,178,341.6C178,341.6,178,341.6,178,341.6c0,0,0-0.1,0-0.1 C178,341.6,178,341.6,178,341.6z M176.5,345C176.4,345,176.4,345,176.5,345C176.4,345,176.4,345,176.5,345c0,0,0-0.1,0-0.1 C176.4,344.9,176.4,344.9,176.5,345L176.5,345z M178,341.6C178,341.6,178,341.6,178,341.6C178,341.6,178,341.6,178,341.6 C177.9,341.6,177.9,341.6,178,341.6C178,341.6,178,341.6,178,341.6z M176.7,344.3C176.7,344.3,176.7,344.3,176.7,344.3 C176.7,344.3,176.7,344.3,176.7,344.3C176.7,344.3,176.7,344.3,176.7,344.3C176.7,344.3,176.7,344.2,176.7,344.3 C176.7,344.2,176.7,344.2,176.7,344.3C176.7,344.3,176.7,344.3,176.7,344.3z M180.1,336.3c0,0-0.1,0.1-0.1,0.1 C180,336.4,180,336.3,180.1,336.3z M179,338.5C179,338.5,179,338.5,179,338.5C179,338.5,179,338.5,179,338.5 C179,338.5,179,338.5,179,338.5z M173.2,353.7C173.2,353.7,173.3,353.7,173.2,353.7C173.2,353.7,173.2,353.7,173.2,353.7z  M178.8,339.4C178.8,339.4,178.8,339.4,178.8,339.4C178.8,339.4,178.8,339.4,178.8,339.4L178.8,339.4z M171.7,358.3 C171.8,358.3,171.8,358.3,171.7,358.3C171.8,358.3,171.8,358.3,171.7,358.3C171.7,358.3,171.7,358.3,171.7,358.3 C171.7,358.3,171.7,358.3,171.7,358.3z M173.1,354.8C173.1,354.8,173.1,354.8,173.1,354.8C173.1,354.8,173.1,354.8,173.1,354.8 C173.1,354.8,173.1,354.8,173.1,354.8C173.1,354.9,173.1,354.9,173.1,354.8C173.1,354.8,173.1,354.8,173.1,354.8L173.1,354.8z  M179.5,338.1c0-0.1,0-0.2,0.1-0.2C179.5,338,179.5,338.1,179.5,338.1L179.5,338.1C179.4,338.1,179.5,338.1,179.5,338.1 C179.5,338.1,179.4,338.2,179.5,338.1C179.4,338.2,179.5,338.1,179.5,338.1L179.5,338.1z M171.9,355.2c-0.1,0-0.1,0-0.2,0 C171.8,355.2,171.9,355.2,171.9,355.2C171.9,355.2,171.9,355.2,171.9,355.2z M172.3,354.6c-0.2,0-0.3,0.1-0.3,0.3 C172,354.8,172.1,354.7,172.3,354.6z M174.9,348.3C174.9,348.3,174.9,348.3,174.9,348.3C174.9,348.3,174.9,348.3,174.9,348.3 C174.9,348.3,174.9,348.3,174.9,348.3C174.9,348.4,174.9,348.4,174.9,348.3C174.9,348.4,174.9,348.3,174.9,348.3L174.9,348.3z  M172.5,353.8C172.5,353.8,172.5,353.8,172.5,353.8C172.5,353.8,172.5,353.8,172.5,353.8z M170.1,363C170.1,363,170.1,363,170.1,363 C170.1,363,170.1,363,170.1,363C170.1,363,170.1,363,170.1,363L170.1,363z M173.2,354.8C173.2,354.8,173.1,354.9,173.2,354.8 C173.1,354.9,173.1,354.9,173.2,354.8C173.1,354.9,173.2,354.8,173.2,354.8C173.2,354.8,173.2,354.8,173.2,354.8 C173.2,354.8,173.2,354.8,173.2,354.8L173.2,354.8z M171.5,359.3C171.5,359.3,171.5,359.3,171.5,359.3 C171.5,359.3,171.5,359.3,171.5,359.3C171.5,359.3,171.5,359.3,171.5,359.3C171.5,359.4,171.5,359.4,171.5,359.3 C171.5,359.3,171.5,359.3,171.5,359.3z M173.3,353.7C173.3,353.7,173.3,353.7,173.3,353.7C173.3,353.7,173.3,353.7,173.3,353.7 C173.3,353.7,173.3,353.7,173.3,353.7C173.3,353.6,173.3,353.7,173.3,353.7z M589.4,471.1c-6.1-13-10-28-19.4-38.9 c-1.8-2-4.5-3.1-6.1-5.3c-2.4-6.7-6.6-12.5-10.5-18.4c-8.4-12.1-17.6-23.7-28.1-34.1c-11.6-5.4-25.5-5.7-38-7.8 c-2.4-11.6-7.2-22.7-11.8-33.6c2.2-1.3,4.1-4.1,6.6-4.4c5.7,0.9,11.2,2.7,16.5,4.9c18.9,8.1,37.5,19.8,48.6,37.7 c15.2-18.6,27.4-40.3,33.9-63.5c-19-12-42-15.9-64.2-14.3c3.5-5.2,7.8-10.5,11.6-15.5c16,1.4,33.3-1.1,47.5-8.4 c-0.5-10.7-0.3-21.6,0.2-32.6c-10.1,9-21.9,16.7-35,20.5c24.5-39.9,26.1-101-25.9-118c-1.2-0.5-4.8,0.7-2.7,2 c5.4-0.1,10.3,2.5,14.7,5.4c56.2,38.6,17.6,113.6-18.6,152.6c-56.6,61.4-144,97.6-227.4,89.3c4-4,9-7,14-9.4 c-10.7,0.4-18.8,9.6-25.6,17.1c-1.5-5.2-13-7.8-14.8-2.4c6.4-0.6,11.8,1.5,11.9,9c4.6-3.1,7.4-9.9,12.7-11.9 c10.9,1.2,22.4,1.2,33,1.4c-16,9.1-30.3,21.9-38.7,38.5c9.3,3,19.2-3,28.7-0.8c2.5-0.4,5.3,5,6.5,2.7c7.3-9.7,16.5-17.6,26.7-24 c21.9-15.3,39.4-5.3,8.9-19.6c19.5-3.7,38.8-8,57.3-15.5c-6.8,11.8-12.3,24.6-21.2,35c-7.1,8.2-17.1,15.4-21.5,25.3 c-0.9,3.6-7.9,23.2-3.7,23.6c5.1-7.4,10.5-14.9,17.6-20.3c2.1,1,3.4,5.4,5.7,4.9c5.4-2.2,10.9-4.1,16.6-5.4 c0.2,4.9-2.4,10.6-0.7,15.2c1.9-8.5,1-17.6,8.3-23.7c14.6-18.1,28.6-36.8,43.1-54.9c3.5,9.3,6.8,18.8,8.7,28.7 c-3.8,4.7-8.9,8.7-12.2,13.6c4.6-3.8,8.5-8.2,12.9-12.2c3.4,0.6,6.6,2.1,10,2c-2.9-1.7-5.8-2-8.9-3.1c10.3-11.1,19.8-22.9,29.9-34 c12.1,1.3,24.3,3.8,36.2,6c-3.9,5.4-9.1,9.8-13.9,14.4c-3.3-0.8-6.5-1.5-9.8-2.3c2.2,2,5.9,2.1,8.7,3.4c-9,8.1-17.5,16.7-26,25.2 c-1.6,1.8-4.1,3.2-3.5,6c-4.3,2.1-8.7,3.8-12.9,6c0,1.5,0.3,2.9,0.7,4.4c15.3-17.6,33.9-1.4,20.5,17c2.6-1.5,10.3-1.8,10.6-4.7 c-0.7-6.3-2.7-12.5-3-18.8c6.3-2.1,12.5-4.3,18.6-6.6c0.8-3,0.3-9.5,0.2-12.4c-7.1,1.5-14.4,3.7-21.1,6.3c-0.2-1.6-1.3-3.9-0.2-5.2 c5.9-5.3,11.5-10.9,17.5-16c3.6,2.8,6,6.6,9.7,9.2c-0.8-1.9-4.4-6.2-8.6-10.2c4.7-4.8,9.8-9.2,14-14.4 c14.5,15.6,28.7,32.1,37.9,51.4c-6.2,2.5-12.6,5.3-18.9,7.2c-1.5-1.9-2.6-4.4-4.4-6c0.6,2.4,2.4,4.5,3.3,6.8 c-11,5.8-22,11.7-31.7,19.5c17.1-8.7,33.3-19.5,51.7-25.6c8.9,2.4,12.4,13.1,16.1,20.8c3.4,7.6,7.7,15.4,10.1,23.2 c-6.2-3.2-12.8-5.8-19.4-7.6c-2.4-2.1-4.2-5.6-6.7-7.1c1.8,2.7,3.6,5.2,5.8,7.6c-15.9,4.1-31.2,10.5-46.7,16 c-3.8-3.7-6.8-9.4-10.8-12.5c2.6,4.4,5.6,8.5,9,12.4c-9.7,6.9-18.7,14.6-28,21.9c-1.5-1.1-2.8-2.4-4.6-3.3c0.9,1.7,2.4,2.7,3.5,4.1 C478.7,516,467.3,529.2,456,541c-3.1-9.4-7.5-18.4-13.1-26.5c-0.4,0-0.7,0.1-1.2,0.1c5.4,9.2,10.7,18.5,13.5,28.9 c0.2,0.1,0.6,0.2,0.9,0.3c14.6-17.4,30-34.6,47.9-48.7c5.6-4.4,11.1-9.3,17.3-12.8c5.4-1.3,10.7-3.1,16-4.8 c11.6-2.9,23.1-10.5,35.2-9.4c6.4,0.9,11.8,5.8,17.8,6.7C590.3,473.5,589.8,472.3,589.4,471.1L589.4,471.1z M535,268.1 c1.7,4.3,6.4-2.6,1.2-1.7c0.3-2,3.6-0.1,3.1,1.5C539,270,534.5,271.3,535,268.1L535,268.1z M531.1,274.4c13.3-0.3,26.8-2.5,39-8 c-0.6-6.1-0.2-12.3-0.2-18.4c-9.6,5.2-20,11.9-31.1,13.9c10.6-4.2,21.9-8.4,31.5-15.2c0.8,6.6-0.3,13.4,0.6,20 c-12.3,6.6-26.8,8.7-40.6,8.7C530.4,274.8,530.6,274.5,531.1,274.4L531.1,274.4z M544.1,264.4c1.3-6.5,12.8-7.4,12,0.5 C555.4,271.6,542.6,272.5,544.1,264.4L544.1,264.4z M561.1,259.6c2.3-3.5,5.7,1.1,3.1,3.4C562.2,265,559.5,261.6,561.1,259.6 L561.1,259.6z M553.4,299.4c0.5,0.3,1,0.7,1.3,1.2c-0.7-0.2-1.3-0.5-1.8-1.2C553.1,299.4,553.3,299.3,553.4,299.4z M547,296.9 c0.7,0.1,1.7,0.8,3.2,2c-0.6,0.3-2.2-0.6-2.9-1.2c-0.2-0.2-0.3-0.4-0.5-0.6C546.8,297,546.9,296.9,547,296.9z M542,296 c1.2,0.2,2.7,0.8,3.6,1.6c-1.7,0-3.4-0.1-4.4-1.5C541.6,296,541.8,295.9,542,296z M539.7,296.6c0.7,0.3,1.4,0.5,1.8,1.3 c-1.1,0.3-2.1-0.9-3.5-1.3C538.8,296.1,539.2,296.4,539.7,296.6L539.7,296.6z M498.4,313.9c2.5,0.5,6.3,2.7,8.4,0.6 c0.2-1.5-2.8-1.8-3.9-2.3c-3.1-1.7,1.7-4.1,2.7-5.8c1.1-1,2.9-0.5,3.5-2.2c0.9,0,1.6,0,2.4,0.3c-0.2,0.4-0.3,0.6-0.4,0.9 c0.5,0.2,0.7-0.5,1.2-0.9c0.7,0.2,1.4,0.5,2.1,0.7c0.2,0.7-0.4,0.9-0.4,1.4c0.7,0.8,1.7,1.3,2.5,2.2c-0.7,1.1-1.6,1.8-2.7,2.5 c-0.9-2.3-8.3-4.4-6.1-0.5c9.1,2.2,4.8,9.3-2.8,8.1c-0.6,0.6-1.2,1.2-1.9,1.8c-0.9,0.1-1.7-0.2-2.7-0.5c0.2-0.4,0.3-0.7,0.5-1.1 c-1.1,0.7-2.2,1.2-3.5,0.3c-0.2-0.7,0.7-0.9,0.6-1.5c-0.8-0.2-1.7-0.4-2.6-0.7C495.7,316.3,496.8,315.1,498.4,313.9L498.4,313.9z  M491.7,320.6c9.3,0.6,18.1,6.6,27.5,4.2c18.2-8,4.7-24.1-10.3-22.2c5.8-2.3,13.8,0.9,17.9,5.6c5.7,7-1.1,17.2-9.3,18 c-9.4,1.4-17.9-4.5-27.2-4.8C490.8,320.6,490.9,320.5,491.7,320.6z M486.8,324.7c23,4.4,44.5,16.1,60.3,33.5 c11.5-13.9,20.8-30.1,25.8-47.4c-18.8-9-40.3-12.7-61-11.4c17.8-5.2,44.8,2.5,61.7,10.8c-3.7,18-14.5,34.8-26,49.1 c-17.3-16.2-38.3-29.7-62.2-33.7C485.7,324.9,486.1,324.5,486.8,324.7L486.8,324.7z M545.2,313.9c0.8,2.8,1.5,5.9,1.3,8.8 c-0.1,0-0.2,0-0.3,0c-0.6-5.1-2-9.9-4.1-14.5C543.9,308.9,544.3,312.2,545.2,313.9L545.2,313.9z M544.5,307.9 c3.4,2.9,3.8,8.8,4.4,13.1c-0.1,0-0.2,0-0.3,0C547.8,316.5,546,311.9,544.5,307.9L544.5,307.9z M542.3,325.2c-1,7-12.3,2-6.6-2.9 C538,320.2,543.1,321.4,542.3,325.2z M550.2,311.8c1.4,1.4,1.7,3.5,2,5.6C551.1,316,550.2,313.5,550.2,311.8z M326,397.2 c0.7-6,9.2-1.3,3.1,1.6C328,400,325.7,398.8,326,397.2L326,397.2z M324.2,402.1c6,11.8-20,23.1-21,8.3 C303.6,401.7,319.1,392.5,324.2,402.1L324.2,402.1z M304.5,419.6c-0.4,0.7-0.8,1.4-1.7,1.5c0,0,0,0,0,0c-1.8,1.1-3.4-1.4-1.9-2.5 C301.7,416.5,305.8,417.1,304.5,419.6L304.5,419.6z M351.4,396c3.9,1.4-3.9,2.8-5,3.8c-14.7,6.6-26.8,17.5-37.9,28.9 c-8.8-4.2-18.8-2.1-27.7,0.7c3.8-13.4,27.6-34.3,41.2-37.8c-16,8.6-30.9,20.4-40.2,36.3c8.8-2.5,18.1-4,26.8-0.3 c11.4-13.4,25.7-24.2,42.2-30.8c-5.9-2.5-11.1-4.1-17.1-6.2C339.7,390,345.6,394.4,351.4,396L351.4,396z M371.1,437.6 c-5.8,5.2-10.6,11.3-15.1,17.7c0.5-8.3,3.2-17,6.3-24.8c3.5,0.1,7.3,3.6,10,5.8C372.1,436.8,371.5,437.2,371.1,437.6z M378.6,440.2 c-4.1-4.7-8.9-8.7-14.7-11.1c6.3-7.5,13.4-14.5,20.2-21.6c4.2,2.9,7.3,7,10.6,10.8C389,425.2,383.6,432.5,378.6,440.2z M441.3,377.6 c-9.3,12.9-19.6,25-29.4,37.6c-5.6,6.5-10.5,14.2-16.5,20.1c-5,1.1-9.6,3.2-14.5,4.6c7.9-12,16.9-23.2,25.3-34.9 c-3.7,2.8-6.9,8.2-10.4,11.9c-2.3-2-12.1-10.4-9.2-13.3c6.3-9.6,11.3-19.9,17-29.9c10.9-6.2,23.7-10,34.6-16.8 c-4.8,9.4-9.7,18.7-15.9,27.2c-3.4-2.8-5.9-6.5-9.2-9.6c0.2,1.8,6.2,8.1,8.4,10.6c-1.3,2.8-4.4,5.1-5.1,8c2.9-1.7,4-6.2,7.1-7.8 c7.1-0.5,12.6-4.8,18.3-8.3C441.5,377.2,441.4,377.4,441.3,377.6L441.3,377.6z M444.5,373.4c-6,4.9-12.9,10.5-20.9,10.9 c26.3-41.3,9.6-22.1,49.8-49.8c-3.2,5.9-8.4,11.3-12.1,17.1c-3.5,3.6-8.7,5.2-12.7,8.3c0,0.2,0.1,0.4,0.1,0.5c0,0,0,0,0,0 c3-2,6.4-3.6,9.6-5.2C454.4,361.5,449,367.4,444.5,373.4z M485.2,368.1c-4.6,4.5-8.6,9.5-13.1,14.1c-1.9-2.8-2-7-4-9.8 c-0.2,1.9,1.2,7.5,2.9,11.2c-4.9,5.7-9.6,11.7-14.9,17.1c-3.4-9.4-5.8-19-8.4-28.6c3.5-6.4,9.3-12,13.5-18.2c1.7,1.9,1.4,5.2,3,7.4 c0.2-3.3-3-7-1.1-10.2c3.9-5.2,7.6-10.6,11.7-15.8c5.1,10,7.7,20.7,11.5,31.3C486,367.1,485.6,367.7,485.2,368.1L485.2,368.1z  M499.4,386.4C499.4,386.4,499.4,386.4,499.4,386.4c0.9,0.2,1.8,0.4,2.6,0.6C501.2,386.8,500.3,386.6,499.4,386.4z M394.6,451.1 c0,0.4,0.2,0.6,0.5,0.8c0,0,0,0,0,0C394.8,451.7,394.6,451.4,394.6,451.1L394.6,451.1z M499.4,386.3L499.4,386.3 C499.4,386.3,499.4,386.3,499.4,386.3C499.4,386.3,499.4,386.3,499.4,386.3L499.4,386.3z M539,428.2 C539,428.2,539.1,428.2,539,428.2C539.1,428.2,539.1,428.2,539,428.2z M395.1,451.9C395.1,451.9,395.1,451.9,395.1,451.9 L395.1,451.9C395.1,451.9,395.1,451.9,395.1,451.9L395.1,451.9z M539,428.2C539,428.2,539.1,428.2,539,428.2 C539.1,428.2,539.1,428.2,539,428.2C539.1,428.1,539,428.2,539,428.2z M447,510.9c4.6-4.4,10.2-6.8,16.5-7.4 c-0.6-1.3-2.1-1.1-2.9-2.2c7.7-0.2,6.3,9,4.4,3.8c-5.5,0.4-15.9,2-16.3,8.7c1.5,4.8,8,5.4,12.2,4.6c22.1-3.6,32.7-29.1,6.3-35.9 c3.9-1.2,7.1,0.4,10.5,1.6c1.7-11.1-7.5-17.5-17.5-15.9c1.7-1.4,4-1.4,6-1.9c-0.9-5.3-6.2-8.6-11.1-10.1c4.6-0.6,9.6,1.1,12.1,5.1 c11.6-3.8,23.9-16.1,21.9-29.2c-5.2-12.5-18.7-3.9-24.2,3.9c-7.4,9.2-19,8.7-29.5,10.6c-16.8,3.9-33.3,17.3-36.4,34.9 c-7.8-1.9-7,5.8-4.2,10.4c-81.7,15.1-144.7-17.3-147.2-106.1c4,0.7,8.4,1.6,12.2,2.8c-0.5,0.8-1.5,1.3-1.9,2.2 c4.7-0.4,9.7-0.3,12.1,4.4c5.9-6.9,13.6-13.5,21.8-16.4c-3.9-0.3-7.8-0.4-11.8,0.3c1.2,5-13.4,11.6-13.9,4.9 c-2.1,0.6-3.3,3.1-5.7,2.2c-4.3,0.1-21.2-6.8-22.3-3.1c2.1,0.9,4.5,1.1,6.7,1.9c2.2,30.3,8.8,62.6,31.6,84.4 c34.6,31.3,86.4,33.7,129.6,22.3c5.8,4.6,10.1,10.6,13,17.4c-50.3,18.2-111.7,17.1-154.4-18.2c-0.5,0.7-1,1.3-1,2.1 c40.2,33.3,98.9,37.3,147.2,21.1c7.1,6.7,17.2,6.6,18.5-4.4C434.3,513.2,441.8,513.9,447,510.9L447,510.9z M399.1,491.1 c-0.5-1-0.5-2.1-1.5-2.8c-0.2-0.2-0.3-0.4-0.1-0.7c2-0.2,4.5,1.1,6.3,2.2C403,490.3,401.6,490.7,399.1,491.1z M420.6,516.4 c-2.1,0.1-4.1-2.2-5.9-3.4c1.2-0.7,3.6-1.5,5.2-1.9C420.4,512.6,422.4,515.3,420.6,516.4z M426.7,512.6c-3.6,5.6-4.8-0.7-5.8-3.8 c-0.1-0.2-0.2-0.4-0.2-0.6c0.5-1.3-1.4-2.6-0.2-3.7c2.5-4.5-3.3-9.9-6.6-12.4C413,485.7,432.4,504.5,426.7,512.6L426.7,512.6z  M502.8,274c13.7-16.8,26.5-36.5,28.3-58.7c-0.6,0.2-1,0.4-1.4,0.5c-3.4,20.5-13.9,39.6-27.1,55.3L502.8,274z M205.7,473.7 c4.6-0.2,5.4-5.3,7.9-8.3c8.6-13.3,11.9-29.5,13.6-44.9c-8.3,4-17.8,2.7-26.2-0.2c-7.4,18.8-21.1,37-40.4,44.6 C174.7,470.5,190.3,475.5,205.7,473.7L205.7,473.7z M180.9,465.8c-3.3-0.7-6.9-0.8-9.7-2.8c13.4-9.3,21.9-24.1,30.7-37.5 c6.2,2.4,12.6,3.7,19.3,2.5c-0.3,13.7-5.9,27.7-13.6,39C198.7,468.4,189.7,466.9,180.9,465.8L180.9,465.8z M268.2,525.8 c-3.4-11-9.5-23.5-5.2-34.8c-7.4,1.5-11.8,7.8-11.9,15.2c-0.7,7.7-1.9,15.5,0.4,23.1c6.6-0.5,13.1,1.6,19.2,3 C270.1,530.1,269.1,528,268.2,525.8L268.2,525.8z M325.3,363.3c48.8-3.5,96.1-21.6,135.2-51c-0.6-0.5-1.1-0.9-1.8-1.5 c-54.8,41.5-125.5,57.9-193.3,49.7c0.1,0.6,0.3,1.2,0.7,1.7C285.7,365.4,305.7,364.5,325.3,363.3L325.3,363.3z M238.5,370.1 c-0.9,1.2-3.6,1.7-2.3,3.6c5.7-5.7,12.7-9.7,20.1-12.7c-4.9-15.8-25.3-16.6-32.3-31.1c-0.9,1.2-3.2,5-3.6,6.2c1.3,2,2.4,4.3,3.7,6.3 c8.9-7.7,20.6,14,9.4,18c1.8,3.1,3.7,6,5.8,8.9C239,369.6,238.8,369.9,238.5,370.1L238.5,370.1z M211.5,402.8c8.5-2.6,17.2-5.4,26-6 c-1.7-20.7-7.8-41.1-18.2-59.2c-0.7,1.3-1.5,2.4-2,3.7c10,14.9,14.1,32.6,15.7,50.5c-7.2,1.6-14.2,3.8-21.2,6 c-2.2-0.2-0.6-3.8-1.4-5.3c-1.2,0.2-0.1,2.1-0.8,2.9c-0.4,0.2-0.9,0.4-1.4,0.6c-0.1,2.7-0.2,5.3-0.3,8.1 C209.3,403.8,210.3,403.2,211.5,402.8L211.5,402.8z M381.7,159.6c-34,17.4-61.6,44.7-86.5,73.2c0.5,0.9,0.8,1.7,1.4,2.4 c25.8-29.2,53.9-57.7,89.4-74.9c-0.2-1.3,1.6-2.4,1.3-3.4C385.5,157.8,383.6,158.6,381.7,159.6z M232.2,455.8 c-4.1,0.5-8.4-0.1-12.3,0.8c0.4,0.2,0.6,0.4,0.9,0.6c-0.1,0.4-0.1,0.8-0.2,1.3c3.1,0.2,6-0.2,9.1-0.3c-4,9.6-5.7,20-7.2,30 c-8.3-5.9-18.9-6.9-28.4-6.4c1.1-2,2.3-4,3.6-5.9c-1-0.6-1.4,1.1-2,1.6c-4.2,0-6.8,6.9-8.4,10.3c12.9-2.5,26.9-2.2,37.5,6.5 c1.3-13.2,4.5-25.9,8.9-38.5C233.1,455.8,232.7,455.7,232.2,455.8L232.2,455.8z M388.6,183.9c-28.8,14.7-54.4,35.6-73.9,61.4 c1,0.5,1.9,1,2.9,1.5c20.1-25.4,45.1-46.3,73.7-61.3c-0.5-0.8-0.9-1.4-1.3-2.2C389.5,183.4,389,183.6,388.6,183.9L388.6,183.9z  M204.5,366.5c-0.7,1-3.1,6.3-3.4,7.5c3.8,6.2,4.1,7.8,4.4,13.9c15.9-3.6,15.3-26.7,7.1-37.5c-0.9,1.2-2.9,5.1-3.1,6.1 C218.2,361,209.9,379.6,204.5,366.5L204.5,366.5z M245.7,374.6c5.9-4.5,12.5-7.9,19.2-11.1c-5.8-19.2-29.7-20.6-38.4-37.7 c-0.7,0.9-1.1,1.7-1.7,2.7c5.1,9.7,15.1,13.7,23.7,19.4c2.9,3,10.2,10,9,14c-5.7,2.7-11.7,5.2-16.3,9.7c0.5,1,1.4,1.7,1.9,2.7 c-2,1.7-4.1,3.1-6,4.8c0.2,0.7,0.1,1.4,0.6,2C240.4,379,242.9,376.7,245.7,374.6z M209.6,478c-4.4,0.6-13.4-2.9-14.2,3.2 c9.1-1.3,18.3,1.3,26.4,5.1c1.4-9.3,3.3-18.3,6.7-27.2c-3.4,0.1-6.4,0.3-9.7,0c-0.2,1,0.8,0.4,0.9,0.9c-0.2,1.2-1.1,2.2-1.3,3.5 c4.3,2.1,2.7,7.6-1.5,8.4c-1.7,0.9-6.1-0.5-6.6,1.3c1,0.2,2,0,3.1,0.2c-0.7,1.7-1.5,3.2-2.4,4.6C210.4,478,210,478,209.6,478z  M216,395.2c5.2-1.8,10.6-3.1,15.9-4.5c-1.6-16.7-5.6-34.3-15.3-48.2c-0.4,0.7-0.7,1.3-1,1.9c9.7,14.8,15.8,40.5-3.6,50.1 c-0.1,0.7-0.2,1.3,0.1,2C213.4,396.1,214.7,395.7,216,395.2z M228.4,423.4c3.7,24.7,14.3,49.5,32.6,66.9c0.7-0.3,1.3-0.5,2.3-0.9 c-24.7-23.1-32-57-36.3-89.1c-0.9,0-1.4,0.2-2.2,0.5c0.5,6.1,1.7,12.1,2.6,18.2c0.4,0.1,0.7,0.2,1.1,0.3 C228.7,420.6,228.4,422,228.4,423.4L228.4,423.4z M227.4,324.2c3.6,5.5,7.4,10.6,13,14c1.5-3.6,3-7.3,5-10.7 c-5.7-1.4-10.9-3.5-15.7-7C229,321.9,228.2,323,227.4,324.2L227.4,324.2z M236.2,356.4c3.1-5.7-4.8-18.6-11.2-13.6 c0.9,5.6,4.8,11.2,7.7,16.3C234.5,358.8,235.5,357.8,236.2,356.4z M478.5,416.9c4.5-3.1,8-8.2,12.2-12.1c0.5-9.1-10.4,0.5-13.3,2.9 C478.3,410.7,478.3,413.9,478.5,416.9L478.5,416.9z M214.5,384.9c-1.5,2.6-3.3,4.6-5.6,6.5c14.4-4.8,16-22.9,10.7-35 C220.9,366.2,219.5,376.4,214.5,384.9z M198.9,394.3c-0.1,0.2-0.4,0.5-0.2,0.9c5.2-1.6,10.2-3.4,13-8.6c-12.6,7.1-3.9-3.4-11-11.5 C196.5,380.6,204.4,385,198.9,394.3L198.9,394.3z M241.8,338.1c-0.1,0.3-0.2,0.7-0.2,1c0.5,0.4,1,0.8,1.7,0.9 c2.1-6.2,5.1-11.6,9.3-16.7c-7.5,2-14.8-1.2-20.8-5.5c-0.6,0.6-0.9,1.3-1.3,2c4.8,4,11,5.5,16.7,7.1 C245.2,330.5,243.2,334.2,241.8,338.1L241.8,338.1z M423.9,145.6c6.4-2.9,13.4-4.7,19.4-8.6c-13.4,2.8-25.8,8.9-38.1,14.6 c-0.2,0.8-0.4,1.6-0.6,2.5C411,151.3,417.4,148.3,423.9,145.6L423.9,145.6z M210.3,369.5c3.3-3.3,2.8-9.3-1.4-12.3 c-1.2,2.6-2.7,5-3.6,7.6C205.1,367.4,207.2,371.9,210.3,369.5L210.3,369.5z M393,181.2c8.4-5.6,17.2-10.7,25.6-16.3 c-0.1-0.1-0.1-0.2-0.2-0.3c-9.9,4.6-19.2,10.4-28.3,16.3c0.7,0.3,1.2,0.6,1.9,0.9C392.3,181.7,392.7,181.5,393,181.2z M278.2,379.2 c-16.9,2.6-12.4,11.9,0.3,2.4c0.7-0.6,1-1.4,0.6-2.4C278.8,379.2,278.5,379.2,278.2,379.2z M396.5,453.7c3.2,2.8,6.4,5.7,9.8,8.3 c0.4-0.3,0.8-0.5,0.9-1.1c-3.4-3.1-7.2-5.7-10.4-8.9c3.1-3.6,8.5-6.6,10.7-10.3c-4.4,3-8.4,6.7-12.4,10.3 C395.5,452.6,395.9,453.2,396.5,453.7L396.5,453.7z M395.1,451.9C395.1,451.9,395.1,451.9,395.1,451.9 C395.1,451.9,395.1,451.9,395.1,451.9C395.1,451.9,395.1,451.9,395.1,451.9z M396.5,453.7c-0.6-0.5-1-1.1-1.4-1.8c0,0,0,0,0,0 C395.4,452.6,395.9,453.2,396.5,453.7L396.5,453.7z M401.4,152.8c1.3-0.6,1.5-1.7,1.5-3c-4.3,1.9-8.4,4.2-12.6,6.4 c-0.7,1-1,2-1.8,3.3C392.9,157.4,397,155,401.4,152.8z M300.8,380.8c-4.4-1.6-8.7,0.6-12.1,3.3c5-1.5,10.1-0.4,15-0.2 C303.6,382.4,302.1,381.3,300.8,380.8L300.8,380.8z M214.7,345.9c-0.6,1.1-1.1,2.2-1.6,3.2c2.7,3.7,3.8,7.8,5.8,11.8 C218.8,355.6,218.3,350.2,214.7,345.9L214.7,345.9z M293.5,239.2c-0.9-0.5-1.7-0.7-2.6-0.9c-1.1,1.1-5.3,6.4-6.1,7.8 c0.5,0.7,1,1.3,1.6,2C289,245.5,291,242.1,293.5,239.2L293.5,239.2z M265.6,278.8c0.8-0.9,3.9-5.9,4.4-7c-0.4-0.8-0.9-1.6-1.5-2.6 c-1.8,2.7-3.4,5.2-4.9,7.8C264.3,277.7,264.9,278.3,265.6,278.8z M218.7,469.9c4.1-2.8-1.6-7.9-2.8-5.6c0.4,0.3,1,0.4,1.3,1.1 c-0.8,1.9-1.9,3.8-2.7,5.8C216.2,471.3,217.5,470.9,218.7,469.9L218.7,469.9z M314,247.6c-9.1,11.7-4.5,11.2,2,0.5 c-0.6-0.3-1.1-0.6-1.6-0.8C314.1,247.5,314,247.5,314,247.6L314,247.6z M478.1,474c0.3,0.4,0.5,0.7,0.7,1c3.6-2,6.4-4.9,9.3-7.6 C484.5,469.4,481.3,471.6,478.1,474L478.1,474z M273.9,261.3c1,0,2.1-0.1,3.3-0.1c0.5-0.7,1-1.4,1.5-2.1c-0.4-1.1-0.6-1.8-1.1-2.9 C276.6,257,274.5,260,273.9,261.3z M538.9,427.7c-0.1-0.1-0.2-0.1-0.4-0.1c0.2,0.2,0.2,0.6,0.5,0.6 C539.1,427.9,539,427.8,538.9,427.7z M539.1,428.1L539.1,428.1C539.1,428.1,539.1,428.1,539.1,428.1 C539,428.2,539,428.2,539.1,428.1L539.1,428.1L539.1,428.1z M539,428.1C539,428.1,539,428.2,539,428.1 C539,428.2,539,428.1,539,428.1z M539,428.2C539,428.2,539.1,428.2,539,428.2L539,428.2z M252.7,325.9l0,0.1L252.7,325.9 L252.7,325.9z M499.1,386.4C499.1,386.4,499.1,386.5,499.1,386.4c0.1,0,0.1,0,0.2,0C499.2,386.4,499.1,386.3,499.1,386.4z  M499.1,386.5C499.1,386.5,499.1,386.4,499.1,386.5C499.1,386.4,499.1,386.5,499.1,386.5z M499.3,386.4 C499.3,386.4,499.4,386.4,499.3,386.4c0.1,0,0.1,0,0.1,0C499.4,386.3,499.4,386.4,499.3,386.4L499.3,386.4z M499.1,386.4 c0.1,0,0.1,0,0.2,0C499.3,386.4,499.2,386.4,499.1,386.4L499.1,386.4z M499.3,386.4C499.3,386.4,499.3,386.4,499.3,386.4 L499.3,386.4z M330.3,395.3c-2.2-1.6-4.6,1-4,3.4c0,0,0.1,0.1,0.1,0.1c0.3,0,0.6,0,0.8,0.3c0.6-0.1,1.2-0.2,1.8-0.3 c0.2-0.4,0.6-0.6,1.1-0.6c0,0,0.1-0.1,0.1-0.1C330.6,397.1,331.3,396,330.3,395.3z M448.5,360.3c-0.1,0-0.1,0-0.2,0 c0.1,0.1,0.3,0.1,0.4,0.2C448.6,360.4,448.5,360.3,448.5,360.3L448.5,360.3z M448.6,360.5C448.6,360.5,448.6,360.5,448.6,360.5 C448.6,360.5,448.6,360.5,448.6,360.5C448.6,360.5,448.6,360.5,448.6,360.5z M448.6,360.5C448.6,360.5,448.6,360.5,448.6,360.5 C448.6,360.5,448.6,360.5,448.6,360.5L448.6,360.5z M317.6,398.7c-0.2,0-0.4,0-0.9,0.1c-6.9-0.3-17.7,10.9-10.3,16.6 C316.9,422.7,334.1,401.2,317.6,398.7z M320.9,406.1c0,0.7,0.9,0.6,1.4,0.7c0.1,0.6,0,1.1-0.4,1.6c-0.4,0-0.9,0-1.2-0.1 c-0.7,0.7,0.4,0.8,0.9,1.2c-0.4,1.6-1.6,1.3-2.9,1.1c-1.5,1.2-3,2.4-5.2,1.6c-0.2-0.6,0.3-1.1,0.3-1.5c1.4-0.4,5.6-3,2.5-3.4 c-2.8,1.6-6.6,6.6-8.8,1.1c-0.3-0.1-0.7-0.3-1.2-0.5c0.1-0.5,0.1-0.9,0.2-1.4c0.5-0.1,0.9-0.2,1.2-0.2c0.2-0.8-0.7-0.5-0.8-1.2 c0.1-0.2,0.3-0.5,0.4-0.9c0.5,0,0.9,0.1,1.4,0.1c1-1.3,2.3-2,4-2c0.5,0.6,0.7,1.2,0.9,2c-1.4,0.3-5,2.9-1.8,3.2 C314.3,405.9,319.4,401.2,320.9,406.1L320.9,406.1z M554.8,266.2c3.3-7.5-8.6-8.6-10-1.6C543.7,270.7,552.9,270.9,554.8,266.2 L554.8,266.2z M548,262c0.3-0.3,0.6-0.5,1.1-0.9c0.6,0,1.3,0.4,2.3,1.1c-0.2,0.2-0.3,0.5-0.5,0.8c-0.9-0.5-2.1-0.7-2.3,0.5 c0.5,0.4,1.1,0.3,1.6,0.2c2.7-0.2,2.6,3.1,0.5,4c-0.4,0.3-0.8-0.3-1.2,0.2c-0.1,0-0.3,0-0.3,0c-0.4-0.7-1.3-0.5-1.6-1.3 c0.2-0.2,0.3-0.4,0.6-0.7c0.8,0.7,2.9,0.8,2.8-0.7c-0.3-0.5-1.2-0.2-1.7-0.2C547.5,265.2,546.7,263,548,262L548,262z M541,323.7 c-1-2.7-6.3-1.4-5.9,1.5C535.7,329.4,542.3,327.7,541,323.7L541,323.7z M562.4,262.9c1.6,0.5,2.7-1.7,1.9-3.1 C562.6,256.9,559.4,262.1,562.4,262.9L562.4,262.9z M304.2,419.4c0.7-2.2-2.2-1.7-3.2-0.7c-1.1,1.5,0.2,2.8,1.8,2.4 C303.3,420.6,303.8,420,304.2,419.4L304.2,419.4z M301.8,418.3c-0.3,0.1-0.5,0.3-0.8,0.5C301.3,418.6,301.5,418.4,301.8,418.3z  M302.8,421.1C302.8,421.1,302.8,421.1,302.8,421.1C302.8,421.1,302.8,421.1,302.8,421.1L302.8,421.1z M302.7,421.1 C302.7,421.1,302.8,421.1,302.7,421.1L302.7,421.1C302.8,421.1,302.7,421.1,302.7,421.1z M205.5,466.5c8.1-5.8,14.3-27.3,14.8-37.3 c-6.2,0.7-12.3,0.1-17.9-2.8c-8.3,13.4-17.1,26.8-29.4,36.8C183.5,466.1,194.7,467.1,205.5,466.5L205.5,466.5z M205.1,436.6 c0.6-1.4,3.8-1.7,3.2,0.4C208,438.4,204.6,438.4,205.1,436.6z M195,444c3-5.1,14.4-5.7,14.8,1.5C210.3,456.1,189.3,455.1,195,444 L195,444z M196,458.7c-2.5-0.7-0.5-4.2,1.5-4C200.5,455,198.4,459.5,196,458.7z M198.3,451.7c5.2,2.3,13.9-3.6,9.4-9.1 C201.9,436.2,188.8,447,198.3,451.7z M197.2,446.1c1-1.1,1.7-2.4,3.5-2c0,0.4,0.1,0.8,0.1,1.1c-0.5,0.6-1.3,0.9-1.2,1.6 c1.3,0.8,4.1,1.2,4.9-0.5c-0.5-0.5-1-0.5-1.7-0.6c-0.9-2.7,3-1.6,3.3,0.2c0.1,0.6,0.8,0.4,1.1,0.8c0.3,1.1-1.1,0.7-1.4,1.4 c-2.4,2.4-6.8,1.3-8.9-1C196.8,446.8,196.7,446.4,197.2,446.1L197.2,446.1z M197.2,455.5c-1.4,0.2-2.8,2.5-0.6,2.6 C198,458.2,199.1,455.3,197.2,455.5z M207.1,437.3c1.5-1-1-1.5-1.3-0.1C206.3,437.5,206.7,437.5,207.1,437.3L207.1,437.3z  M494.3,284.1c6.4-5-4.5-37-7.8-44.3c-10.9,17.5-25.7,33.5-44.9,41.6c1.5,14.3,1.2,18.7-0.4,28.3C460.7,304,478.2,295.5,494.3,284.1 L494.3,284.1z M483.3,285.7l-0.3-0.1c1-1.9,1.9-3.9,2.9-5.9C486.3,281,484.9,284.2,483.3,285.7L483.3,285.7z M483.2,273.2 C483.2,273.2,483.2,273.2,483.2,273.2c-4.3-0.1-3.4-6.4,0.6-6.2C487.8,267,486.5,273.2,483.2,273.2L483.2,273.2z M474.6,264.9 L474.6,264.9c1.6-1.7,3.5-9.2,6-7.8c1.1-2.2,1.4-4.9,3.1-6.8c0.2,0.2,0.7,0.7,0.9,0.9c0.4-1.2,0.9-2.6,1.3-3.9l0.3,0.1 c-0.3,2.5-1.2,10-2.8,10.3c-0.6-1.3,0-2.5,0-4c-2.3,3-3.6,11.7-6.5,13c0.1-2.8,2.2-4.9,2.2-7.9c-1.6,2.2-2.5,4.7-4.3,6.8 C474.6,265.2,474.5,265,474.6,264.9L474.6,264.9z M454.4,290.6c-0.2,1.7-2.7,2.5-4,1.6h0C448.6,289.1,454.2,286.8,454.4,290.6 L454.4,290.6z M460.6,292.1c-1.4-0.8-2.5-1.8-3.1-3.4h0c-6.8-13.1,17.1-29.4,21.2-12.1C479.3,285.3,469.5,296.5,460.6,292.1 L460.6,292.1z M454.7,310.5c16.5-5.9,36.6-12.5,48.6-26c0.5-21.1-6-41.2-15.2-60c-10.7,22.6-28.1,43.9-52.2,52.7 c2.9,9.7,4.6,23.2-0.9,38.2C438.5,315.6,452.4,311.5,454.7,310.5L454.7,310.5z M464,302c-38.1,15.8-17.2,8.2-23.5-20 c-0.1-0.7-0.1-1.1,0.7-1.4c19.7-8.3,34.1-25.1,45.6-42.7c6.4,13.6,10.2,28.9,10.7,44C488.4,290.4,475.7,297.1,464,302z M449.9,308 C449.9,308,449.9,308,449.9,308L449.9,308L449.9,308z M452.3,289.3c-1.3-0.1-2.2,2.4-0.5,2.5C453.6,292,454.2,289.3,452.3,289.3 L452.3,289.3z M476.3,283.5c8.3-20.6-21.3-15-18.8,1.7C459.3,297.9,473.1,291,476.3,283.5L476.3,283.5z M463.8,288.5 c-0.5-1-0.9-1.9-1.4-2.9l-1.3,0.5c-0.3-0.6-0.1-1.2,0.7-1.8c-0.6,0-0.7,0-1.4,0.4c-0.1-0.3-0.3-0.6-0.4-1l1.3-1 c-0.3-1-0.5-2-0.9-3.1c2.5-3,5-0.7,8,0.3l-2.3-4.2l4.1-2.6l1.2,2.2l1.4-0.6c1,1-0.2,1.2-0.6,2l1.3-0.4c0.7,0.3,0.5,0.8-0.7,1.8 c0.8,2.8,2.5,4.9-1.2,6.2l-5.3-2.8l-0.3,0.3c0.2,1.6,1.2,3,1.7,4.6L463.8,288.5L463.8,288.5z M483.7,267.9c-2.9,0-3.7,4.3-0.5,4.4 C485.4,272.4,486.6,267.8,483.7,267.9z"></path></svg>