<svg id="Layer_1" xmlns="http://www.w3.org/2000/svg" xmlns:xlink="http://www.w3.org/1999/xlink" x="0px" y="0px" viewBox="0 0 600 600" xml:space="preserve" width="100%" height="100%"><style type="text/css">
	.st0{fill:#FFFFFF;}
</style><path class="st0" d="M299.9,299.6L299.9,299.6L299.9,299.6z M299.9,299.7L299.9,299.7L299.9,299.7L299.9,299.7z M299.9,299.7v-0.1 V299.7L299.9,299.7z M299.9,299.7l-0.1-0.1L299.9,299.7L299.9,299.7z M299.9,299.7L299.9,299.7L299.9,299.7L299.9,299.7z  M299.5,298.4c-0.2-0.4-0.5-0.8-0.7-1.2c0.6,1.7,1,3.6,2.2,5C300.7,300.8,300.2,299.5,299.5,298.4z M299.9,299.7L299.9,299.7 L299.9,299.7C299.9,299.7,299.9,299.7,299.9,299.7z M299.9,299.7C299.9,299.7,299.9,299.7,299.9,299.7L299.9,299.7z M299.4,298.4 c0,1,0.4,1.9,1,2.6C300.1,300.1,299.7,299.2,299.4,298.4z M299.7,299.4c0.1,0.2,0.2,0.3,0.4,0.5 C299.9,299.7,299.8,299.6,299.7,299.4z M299.9,299.7l-0.1-0.1C299.9,299.6,299.9,299.7,299.9,299.7L299.9,299.7z M432,284.6 c2.5-6.5,5-12.8,8-19.1l6.2,5.4c4.1-14.7,7.8-29.5,12.1-44.1c0.1-4.5-7.2-8-9.8-11.8c-1.5,5.6-2.9,10.9-4.4,16.8 c-2.1-3.7-5.4-5.1-8.4-7.2c3.6-19.1,8.7-14.8-5.4-30c-2,8.6-4,16.9-6,25.2l-4.1-1.4c3.6-12.9,7.2-25.7,10.9-38.8 c3.3,5.1,7.9,8.9,10.8,14h-10c7.6,8.1,6.7,13,19.1,11.2c-2.4,9.8,0.7,10.6,2.4,0.4c4.3,3.3,6.9,5.7,7.4,7.2l-10.8,1.2 c10.2,9.2,6.6,10.7,20.6,7.9c3.3-0.3,5.6,3.5,8.3,5c3.8,2.9,8.1,5.2,12.7,6.8c13,4.2,29,5.1,40.3-3.6c-3,11.2-6.9,21.9-10.1,33 c-2.4,5.3-2.4,12.3-6.5,16.5c-11.7,10.5-30.2,6.3-42.6-0.8c-4.3-2.6-8.3-5.6-11.5-9.5c-0.6-0.9-1.8-1.3-2.8-0.9 c-3.6,1.5-9.2,0.7-11.6,3.9c-0.4,2.3,11.4-2,12.6-1.9c14,18,56.4,29,62.7-0.7c9.6,4.9,23.3,4.3,31.6-3c3.1-3.1,4-7.4,4.8-11.5 c2.2-9.3,4.8-18.5,7.2-27.7c1.4-5.6,2.9-11.2,4.2-16.9c1.7-4.9-2.7-9.7-0.1-14.5c3.3-12.8,5.3-10.7-6.1-18.2c-4,2.5-7.9,5.3-12,7.4 c-2.5-1.2-5.4-2.9-7.3-5l11.2-6.4c-3.2,11.9,0.7,12.2,2,0.5c-1.2-3-7.5-4.9-10-7.4c-15.6,8.1-12,8.1-25.6-2.7l-14.5,5.2 c3.7,3.3,7.1,5.2,10.5,8.8c-11,4.4-22.4,7.3-33.9,9.8c-8.1,0.8-24.5,5.8-31.4,2.6c-10-11-6.9-10.2-21.7-11.2 c-1.4-0.2-1.8-0.2-2.2,1.2c-3.4,12.3-6.9,24.7-10.3,37c-0.8,2.5-4.8,1.5-7,2.1c-12.3,0.2-24.6,0.5-37,0.7c-29,0.6-58.2-0.8-87.1,1.5 c-0.2-4-3-13.9-7.6-7.2c-1.4,3.5-0.3,7.5-0.9,11.1c-13.9,9-15.4,26.1-20.9,40.4c-8.3-6.7-14.8-15.1-24.3-20.2 c-2.7-1.8-9.9-3.2-7,2.2c8.4,9.9,18.1,19.3,28.4,27.4l-8.6,26.4c-3.6-1.6-6.9-3.4-10.9-4.3c2.7,4.7,3,10.7,8.2,12.9 c-0.1,1.5-1.4,3-0.2,5c0.6-1.7,1.1-3.1,1.7-4.8l7.3,2.8c-0.5,3.8-5.8,14.2-3,17.2c1.6-5.7,3.2-11.1,4.7-16.6l6.2,2.3 c-1.7,10.9-9.5,22-5.9,32.9c6.1,24.3,10,59.3-15.1,74.1c16.4,31.3,34.3,61.5,51.5,92.4c-28.4-1.2-21.9,6.1-36.3-19.1 c-7.7-13.6-15.1-27.3-22.8-40.9c-3.7-9.1,2.5-19.2,2.6-28.6l-0.6-0.1c-6.7,28.8-9.5,58.6-14.7,87.8c-10.9,1-2-21.4-2.1-27.7 c3.1-18.5,6.9-36.9,10-55.3l-0.5-0.1c-5.8,17.5-7.3,36.5-10.6,54.7c-0.7,12.2-12.1,36.1,10.3,30.4c33.1,0.2,66.4-0.8,99.4,2.7 c4.9,0.7,10.5,1.3,14.8-1.5c6.7-4,5.4-29.5,8.4-38.5c5.7-35.3,10.7-70.7,19.1-105.4c10.1-44.7,27.5-87.2,44.1-129.7 c0.8-4.1-2.6-6.4-6.2-6c-12.6,0.1-25.1,0.1-37.6,0.4c-26,0.7-51.9,1.4-77.8,3.7l-2.7-19c-2.8,1.1-5.5,2.2-8.3,3.3 c-0.1-2.5,5.4-3.2,7.2-4.7l1.1,1.4c44.7-2.4,89.9-1.8,134.8-1.9c24.8,6,3.3,34.4-1.7,48.6c-15.5,35.8-27,73.3-36.2,111.2 c-7.3,30.8-11.9,62.1-15.4,93.5c-4.3,19.6,2,62.1-24.1,65.8c-31.9,0.5-63.8-3-95.7-3c-17.6-0.4-41.6,3.1-46.5-19.3 c-3.1-26.3,6.9-52.5,9.7-78.6l-0.4-0.2c-5.5,18-7,37.4-10.2,56c-5,19.9,2.3,42.8,19.2,54.8c13,6.2,29.1,1.7,43.2,3.2 c23.7,0.8,47.3,2.4,71,3.8c30.7,4.5,41.9-16.9,45.2-44C387.3,435.1,403.2,357.7,432,284.6z M570.3,184.3c-0.4,4.5-2.2,8.3-2.8,12.5 l-6.7-5.5C563.8,188.8,567,186.9,570.3,184.3L570.3,184.3z M561.4,215.4c2.1-1.4,4.2-3,6.1-4.7c-3.8,16.2-8.4,32.2-12.3,48.3 c-3.5,12.6-22.7,13.9-32.4,8c3.6-11.4,7.1-22.6,10.7-34c2.2-5.1,1-9.9-1.4-14.7C541.9,219.9,552.5,220.9,561.4,215.4L561.4,215.4z  M510.2,194.6c22.4-5.5,15.1-12.9,33.3,0.8c13.8,7,7.5,16-5.4,16.4c-11.7-0.6-20.9-10.1-29.9-16.5 C509.1,195,509.6,194.8,510.2,194.6L510.2,194.6z M474,203c26.8-6,18.7-3.6,40.5,11.3c10.6,10.2-9.6,14.1-17,10.9 c-9.4-2.8-16.2-10.7-24.1-16.2c-1.8-1.7-4.2-3-5.3-5.2C470.2,203.5,472.1,203.4,474,203L474,203z M258.5,266.9 c0,1.3-1.7,6.6-2.6,8.2C255.9,273.8,257.6,268.3,258.5,266.9L258.5,266.9z M245,309.4l-0.4-0.1c0.3-0.9,0.6-1.8,0.8-2.7l0.3,0.1 L245,309.4z M246.6,303.7l-0.2-0.1c0.1-0.3,0.2-0.6,0.3-0.8l0.2,0.1L246.6,303.7z M247.7,302c2.9-8.6,5.7-17.2,8.5-25.8 c2.3,1.1,4.1,3,6.3,4.5c-2.6,8.3-5.2,16.4-7.8,24.9L247.7,302z M254.2,312.6c-0.1,0.3-0.5,0.4-0.8,0.6l-0.5-0.4c0.6-2.2,1.3-4.4,2-7 C256.8,307.9,254.5,310.4,254.2,312.6L254.2,312.6z M256.3,306.6c2.4-8.1,4.9-16.2,7.7-24.5l5.9,4.2c-2.6,7.9-5.1,15.8-7.7,23.8 L256.3,306.6z M265.4,274.3c1,2-1.2,4.7-1.5,6.9C263,280,263.9,276.8,265.4,274.3L265.4,274.3z M262.5,310.8 c2.9,1.1,14,9.3,16.5,12.1c-2.3-0.4-15.4-5.6-17.9-7.2L262.5,310.8z M270.4,286.3c0.4-1.3,0.8-2.6,1.3-4.2c3.2,3.6,5.9,7.4,8.7,11 l-0.3,0.3L270.4,286.3z M375.9,240.8c4.5,15.9,9.4,31.5,15.3,46.9c-0.2,7.7-4.9,15.4-7.1,22.9c-3.3-4.1-21.2-61.7-21.7-69.8H375.9z  M337.6,241.2c8,33.8,19.6,66.4,34.1,97.9c2.1,2.9,1.7,5.7,0.7,9c-4.9,15.8-8.6,31.9-12.5,48c-7.6-16.7-14.6-33.8-21.5-50.9 c-0.6-1.5-0.5-1.9,0.7-3c4.9-4.8,9-10.4,13.4-15.7c4.4-6.6-5.1-21.6-11.3-25.1c1.4-5.8,3.5-11.4,6.3-16.6c-0.3-0.8-1.2-1.3-2-1 c-23.8,2.5-16.6-8.1-23.9,14.3c-6.1-18.1-11.2-36.4-15.5-55.3L337.6,241.2z M312.6,306.7c2.7-2.9,10.1-3.1,10-7 c1.4-4.5,2.8-9.1,3.7-13.8c-0.3-3.1,16,0.1,19.7-1.2c-11,25.3-4.8,10.6,4.4,30.1c1.1,2.1,1.8,4.5,2.1,6.8c1.3,2,0.1,3.4-1.1,4.8 c-4.8,6.6-10.5,11.7-15.2,18.5c-4.2-32.1-42.4-10-24,6.3c8.5,7.8,17.7,17,19.4,29c1.8,22-7.9,50.7-30.3,58.6 c-0.3,4.8-1.2,9.6-1.2,14.5c-0.6,1.9,1.6,8.5-1.7,7.6c-5-1.6-10.4-1.7-15.6-2.1c-0.8-0.1-1.6-0.1-1.9-1.1c1.4-4.3,4.5-18.4,2.4-22 c-8.3-6.1-12.2-15.6-17.5-24c6.5-5.7,12.3-12.1,17.3-19.2c9.9,32.8,42.7,12,21.3-6.4c-7.3-7.9-16-15.8-18.5-26.6 C283.1,338.7,295.4,317.9,312.6,306.7L312.6,306.7z M282.3,243.7c2.6-0.7,5.3-0.6,8-0.9c2.7,14.5,5.1,28.9,8.2,43.2 c-4.6-9.6-19.1-31.8-13.5-41.3l-3.2,0.4C281.6,244.4,281.5,243.9,282.3,243.7L282.3,243.7z M282.4,249.6c-2.7,10.9-7.5,21-10.9,31.8 c-1.6-2.7-5.3-4.5-4.8-7.5c4.4-8.7,5-24.3,14.8-28.3C281.9,247.1,282.3,248.4,282.4,249.6L282.4,249.6z M281,243.5 c-10.9,5.5-10.9,20-16.1,29.7c-1.7-1.9-3.5-3.7-5.1-5.7c0-4.6,3-9.3,4.1-13.8c3.3-9.9,5.4-20.5,15.1-26.3 C279.8,233,280.4,238.2,281,243.5L281,243.5z M389.3,430.4c-3.5,21.2-6,42.5-8.5,63.9c-2.6,23.7-5,63.8-37.8,60.8 c-28.2-1.2-56.5-2.9-84.7-3.5c-22.7,0.2-39.7,2.7-50.6-21.5c4.1,4.6,9.6,8.4,16,8.4c13.1,0.1,26.3,0.1,39.4,0.3 c10.3,0.4,20.6,1.4,30.9,1.6c19.7-1.1,60.4,11.5,69.3-11.3c4.8-11.7,4.1-24.8,5.9-37.1c2.2-23.6,5.3-47.2,9.5-70.5 c2.5-1.5,5,1.2,7.3,2.1C388.6,425.2,389.8,426.6,389.3,430.4L389.3,430.4z M410.7,340c-8.2,27.8-15.2,56-20.2,84.6l-0.5,0.3 c-2.6-2.1-5.8-3.4-8.9-4.8c-1.9-0.8-2.1-0.8-1.7-3.4c5-29.2,12.7-57.9,21.3-86.3C404.9,331.1,412.6,334.6,410.7,340z M412.5,332.4 c-0.2,0.6-0.5,1.2-0.7,1.9c-3.4-2.2-6.6-4.4-10-6.7c4.9-16.8,10.8-33.5,17.6-49.6c4.8-17.3,23.7-33.9,14.7-52.4 c10.7,3.4,14.6,15.5,10.1,25.3C432.9,277.8,421.5,304.7,412.5,332.4z M287.9,223.3c0.4,0,0.8,0.1,1.1,0.1 C288.6,223.5,288.3,223.4,287.9,223.3z M203.7,256.5c-22.7-30.7-51.1-63-89.9-71.8c-37-6.8-37.3,41.3-31.4,65.6 c8.7,32.9,23.1,64.5,42.9,92.2c18.6,27,41.5,52.6,70.3,68.9c48.9,26.7,64.6-10.1,55.4-54.2C241.9,321.1,226.7,286,203.7,256.5z  M121.9,316.4c-5.9,2.2-16.2-27.3-19.3-32.5c-10.4-23.7-33-101.4,14.6-90c5.4,2.1,15.9,4.7,18.9,9.5c-0.1,6.4-7.4,1-10.4-0.2 C79.5,179,94.2,245.6,102.9,269c3.5,11,8.6,21.3,13.6,31.6C117.6,305,126.5,313,121.9,316.4z M123.9,245.2c-3.1-3.8,6.5-5.8,8.6-8.2 c1.7-1.1,4-3.9,5.6-1c9.8,20,9.3,10.7,26.7,17.2c2.4,1.6,7.9,1.1,7.8,4.8c0.1,6-0.4,12.1,0.4,18c-0.2,1-1,2.3-2.1,1.4 c-4.3-3.2-10-4.2-15.2-4.1c-8.5,0.8-9.7,13.2-0.8,14.4c12.3,2.6,26.3,0.8,37,8.7c14.3,10,22.3,30.2,14.1,46.5 c9.4,17.4,15,11.1-2.1,22.6c-1.8,1.5-2.6,1.3-3.6-0.8c-2.4-4.7-5.6-9.1-8.5-13.5c-8.4-0.6-17-2.2-24.6-6c-3-4.7-0.4-13.1-1.2-18.7 c-2.1-7.3,6.5,0.5,9.7,0.6c6.1,2.5,15.9-0.3,13.7-8.8c-8.5-15-47.5,6-59.5-39.2C125.2,256.2,140.8,265.9,123.9,245.2L123.9,245.2z  M243.1,362.5c14.8,91.3-66.4,33.9-94.4-3.1c-3.1-4.7-27.2-31.9-22.3-34.8c3.9-2.3,5.9,3.8,8,6.1c6.7,10.6,14.7,20.3,22.7,29.9 c15.7,19.2,81.3,78.8,82.4,21.6c1.3-4.8-4.9-21.7,0.5-22.4C241.6,359.5,243.2,360.9,243.1,362.5L243.1,362.5z M229.8,323.4 c5.1,1.3,7.6,19.2,10,24.4c0.7,2.3-0.9,4.1-3.2,3.7c-3.2-1.1-2.6-6-4.1-8.6C232.3,338.7,223,324.1,229.8,323.4L229.8,323.4z  M224.9,308.2c0.8,2.8,3.9,5.7,2.6,8.6c-1,1.8-3.8,1.8-4.7,0c-6.9-15.8-15.6-30.7-25.3-45c-14.5-21.7-32.2-41.3-52.7-57.4 c-4.2-5.2,3.1-6.5,5.9-2.3C182.4,237.8,207.5,271.6,224.9,308.2L224.9,308.2z M21.5,308c-14.6-83.2,12-175.5,75.1-233 c-5.2,15.8-11.3,31.7-12.7,48.6c-0.7,5.3-5.5,47.4,7,33.1c19.1-50.7,69.6-88.4,115.3-114.5C160,59.7,117.7,92.1,91.9,134.8l-0.3-0.2 c2.5-26.9,10.6-53.1,24.7-76.2c0.3-16.8-18,2.4-23.1,6.4c-45.5,39.5-73.1,96.9-82.2,156c-4.2,31.5-4.3,64.2,4.6,95 c1.7,4.8,4.4,16.5,10.7,14.6c0.9-0.8,0.8-1.7,0.4-2.7C24.3,321.3,22.5,314.7,21.5,308z M219.5,116.2c32.9-30.2,72-53.9,114.9-66.6 c7.2-1.1,15.3-5.9,22.5-3.2c-33.7,18-63.4,45.5-80.9,79.6c-0.3,3,2.8,1.8,4,0.5c11.7-9.8,24.6-17.6,37.8-25.1 c23.2-12,47.8-24.9,73.9-28.5c-2.8,2.7-9.4,1.6-10.5,5.5c0.5,0.9,1.4,1.6,2.5,1.2c12.9-1,26-1.6,39-1.8c-6.1,2.6-29.7,9.7-31,16.2 c3,3.7,12.6,1,17.4,3.5c33.4,8.9,62.8,31.8,79.5,62.1c-13.3-37-53.8-61.8-91.7-67c11.7-7,24.3-11.2,37-16.7 c-12.4-3.9-26.2-1.1-39-0.7c6.3-18.1-67.5,17.3-73.9,21.4c-14.1,7.4-27.3,16.3-39.9,25.9c18.4-31.2,45.6-56.1,77.1-73.6 c6.7-12.4-27.5-1.7-32.1,0c-39.3,13-75.1,34.8-105.8,62.4C218.4,112.5,218.8,114.6,219.5,116.2z M163,469.4c-1.1-4.1,0.5-10-2.5-13 c-10.5,22.4-19.8,46.5-27.8,70.3c-0.9-14.9,3-30.3,4.8-45.2c1.5-10.6,3.6-21.1,4.8-31.8c0-0.9,0.1-2-1-2.4c-1.9-0.4-2.6,2.2-3.6,3.3 c-22.4,32.6-45.9,64.5-66.9,98l-0.6-0.2c4-28.6,16.7-55.5,29.4-81.1c5.5-10.4,11.2-20.8,18.1-30.3c0.5-1,2.1-2.3,1.1-3.3 c-29.3,11.7-56.3,33.7-81.6,53.2l-0.3-0.3c19.1-28.2,43.1-52.6,65.8-77.9c-1-2.4-4.1-1-6-0.9c-11.9,2.3-23.9,4.9-35.8,7.1 c10.4-7.3,20.4-14.8,29.4-23.6c-56.6,39.4-46.6,26.9,10.8,17.6c-6.1,5.6-77.4,80-64.7,81c24.9-19.8,50.7-39,79.1-53.7 c-13.6,20.9-25.9,43.3-34.8,66.8c-4.8,15.1-12.6,30.3-12.3,46.4c2.5,6.3,8.8-8.9,10.9-10.8c19.1-30.1,39.8-59.4,60.7-88.3 c-0.4,3.6-17.7,99.4-6.2,78.8c7-23.6,16.1-46.7,26.2-69.1c1.5,10.8,0.6,22.5,5.4,32.3C164.8,484.6,163.8,477.1,163,469.4z  M472.1,353.7l-2.9,4.8l5.9,1l3.4-4.8c8.2,1.9,16.4,1.1,23-4.4c4.5-3.5,5.4-8.3-0.2-11.2c12.1-1,26.4-11.7,6.4-15.9l4.8-4.3 c-11.7-4.4-7.2,6-17.2,1.6l4.4-4.2c-6.1-2-6.4-0.1-10.7,3.3c-2.3,0.4-5.1-1.4-7.3-0.2c-3.1,2.5-5.8,4.3-3.2,8.5 c-0.1-1.5-0.2-3-0.3-4.7l4.9,0.8c-7.1,7-13.4,14.5-19.2,22.4c-5.8-0.3-6.1-1.1-8.5,4.9l6.2,0.7l-2.8,5c5.8,1.2,5.6,0.4,8.5-4.3 L472.1,353.7z M490.1,325.8c4.1-1,9.1,1.6,13.4,2c3.7,0.4,4.3,4.3,1,5.9c-6.5,4.2-14.7,0.5-21.7-0.8 C485.4,330.4,487.8,328.1,490.1,325.8z M474.4,343c1.4-1.6,2.5-3.5,4.1-4.9c4.4,0.1,8.9,1.8,13.3,2.5c4.8,0.8,4.4,5.6,0.8,7.8 c-6.8,3.8-14.1,0-21.6-0.8C472.3,345.8,473.3,344.4,474.4,343z M111.5,372.4c5.1,7,11,13.3,16.8,19.7c2.3-1.2,21.9-11.7,18.9-13.5 c-2.1-1.5-5.7-8.5-8.2-6.1c-4.4,1.8-15.2,13.1-18.9,8.3c-0.8-1.4-0.4-2.8,1.3-3.9c5.4-3,10.5-6,15.4-9.9l-6.4-8.4 c-3.7,1.4-6.6,5.6-10.6,5.5c-6.3-3.7,4.1-7.7,6.8-10l-6.2-8.9c-6.3,4.5-13.3,7.9-19.6,12.8C104.3,363,107.7,367.6,111.5,372.4z  M491.8,382.6c8.9,2.2,19.1-0.6,24.1-8.6c1.7-6-7.7-21.4-10-28.3c-4.3,9.7-16.7,12.2-26.3,10.1C483.5,364.4,486.4,374.9,491.8,382.6 z M505.4,489.9c-18.6-28.6-43.9-68.6-78.2-78.1c-18.4,10.3,23.4,69.5,32.6,81.4C492.3,540.5,556.3,584.2,505.4,489.9z M522.4,541.1 c-4.9,10.6-26.7-11-31.7-15.6c-23.5-24.4-66.9-75.4-65.7-109.9c8.3-9.2,40,22.3,46.2,29.5c10.9,12,20.4,25.2,29.2,38.8 c1.6,1.7-0.6,1.2,1.1,3.4C510.4,503.9,523.7,521.4,522.4,541.1z M59.3,270.3c0.6,2.2,1.2,4.4,1.9,6.8c6.3-4.5,13.1-8.3,19.6-12.5 c-1.2-3.8-2.3-7.5-3.5-11.2c-4,1.2-9.7,9.6-13.6,5.6c-2.4-4.6,9.4-8.9,12.3-11.8c-0.5-3.9-1-7.6-1.5-11.4 c-6.2,3.4-13.2,6.9-18.7,11.4C56.1,254.8,57.7,262.7,59.3,270.3z M89.3,337.6c2.4-1.7,20.2-10.8,18-12.9c-1.7-1.6-3.7-9.4-6.2-6.9 c-3.9,1.2-16.6,13.8-17.4,5.1c3.7-5.2,11.4-6.9,16.3-11.1c-1.6-3.6-2.9-7.1-5.1-10.4c-6.6,4.4-12.5,9.1-19.5,12.5 c4.2,8.2,7.8,16.7,12.9,24.5C88.9,337.9,89.1,337.7,89.3,337.6z M387.4,151.6c-29.8-3.8-58.9,8.9-84.7,22.6 c4.5-14.1,17.6-23.5,28.5-32.8c-20.9,2.9-60.6,27.2-67.7,47c12.9-17.9,43.9-40.4,62-44.1c-11.5,8.3-23.7,19.3-26.1,34 c25.6-13.9,53.4-27,83.1-26.1c-10.8,4-21,8.8-29.7,16.5c5.6-0.1,11.1-1.1,16.7,0c4.5,0,10.2,3.9,14.2,1.1c-7.8-2.7-16-3.9-24.2-3.7 c8.8-6.3,18.8-10.1,29.2-14.1C388.3,151.9,387.8,151.7,387.4,151.6z M204.1,421.4c-3.4-1.3-6.7-3.3-10.1-4.4 c-4.3,0.6-17.8,15.4-19.4,7.2c-0.4-3.1,11.5-8.5,13.4-10.5c-3.4-2.3-6.5-4.5-9.7-6.7c-6.6,3.7-12.4,8.5-19.4,12 c8.6,5.7,17.3,11.8,27.5,14.3c7.3-1.4,12.8-7.4,19.5-11C205.1,422,204.6,421.7,204.1,421.4z M519.5,334.2c-0.3-0.9-0.7-1.8-1-2.8 c-3.7,5.3-9.1,7-14.8,8.2c5.4,7.9,7.6,17.5,11.8,26.1C535.4,360.7,522.7,347.1,519.5,334.2z M586,260.2c-0.2-0.5-0.3-1-0.4-1.5 l0.3-0.2l3,3.2c-3.4-15-6.6-30.7-12.8-44.8c4.4,14,8.4,28.2,11.7,42.5c-1.3-1.3-2.5-2-3.2-3.5c-3.4-8.6-7.9-16.8-13.3-24.2l-0.4,0.3 l3.9,7.5l0.3-1c3.5,5.6,6.5,11.4,9,17.5l-3.2-0.4c-1.7-5.4-2.9-11.3-6.2-16.1c2.4,3.5,4.4,17.4,7.6,17.1c1.5,0.1,2.3,0.9,2.7,2.4 c7.2,24.7,8.1,51.8,1.8,76.8c-1.2-12.9-5-25-9.6-36.9c0.5,19.4-4.7,39.1-17.8,54c0.5-3.1,2.4-5.9,1.5-9.1c-1.9-4.3-6.4-8.8-11.5-7.1 c-8.3,2.5-18.4,9.5-21.7,17.4c6.1-7.6,13.9-15.8,24.1-16.9c15.4,2.7-6.1,26.2-12.9,29.4c-5.3,4-17.5,7.2-15.7-3.5 c-3.1,4.8,2.7,9.4,6.5,11.4c4.9,0.9,9.8-2,13.8-4.5c20.7-15.8,35.8-40.9,34.3-67.5l0.4-0.1c4.1,11.3,6.3,22.9,8.5,34.6 C594.7,312.9,592.3,284.7,586,260.2z M560.2,344.7c-2.2-1.4-2.6-2.1-2.6-4.2C559,341.5,559.9,343,560.2,344.7z M526.4,371.4 c2-0.3,2.1-0.2,4.1,2.3C528.6,373.8,527.7,372.4,526.4,371.4z M530.8,372.9c-0.5-0.5-1.1-1-1.7-1.3c2.7-1,2.7-1,4.8,1.9 C532.8,374,531.7,374.2,530.8,372.9z M538.3,372c-4.2,1.6-3.1,1.7-5.9-1.4c0.6-0.3,1.1-0.5,1.8-0.7l2.2,1.7c0.2-1.1-0.8-1.3-1.1-2.1 l1.6-1l2.7,2.8C539.2,371.5,538.8,371.8,538.3,372z M540.3,370.9l-2.7-2.7l1.9-1.1l2.5,2.8L540.3,370.9z M542.6,369.5l-2.5-2.7 l1.4-1.2l2.8,2.7L542.6,369.5z M545.1,367.8l-2.8-2.7l1.4-1.1c0.8,0.7,1.6,1.4,2.5,2.4c-0.1-1.5-1.4-1.9-1.7-3 c0.3-0.3,0.7-0.7,1.3-1.2l2.8,2.9L545.1,367.8z M549.2,364.2l-2.9-2.7l1.4-1.4l2.7,2.8L549.2,364.2z M551.1,362.6l-2.7-3l1-1.2 l1.6,1l0.2-0.3c-0.4-0.5-0.7-1-1.2-1.5l1.1-1.4l2.6,2.4c0.1-1.6-1.5-1.9-1.9-3.1l1.1-1.7l2.8,3L551.1,362.6z M556,356.1l-2.7-2.7 l1-1.7l2.8,2.7C556.8,355.1,556.4,355.5,556,356.1L556,356.1z M557.5,353.9c-1-1.2-1.7-2.1-2.6-3.1c0.2-0.3,0.5-0.8,0.8-1.4l2.7,2.5 L557.5,353.9z M556.2,348.1l0.6-1.5l2.1,1.8c-0.5-2.5-2.6-1.8-1.3-5.1c3.1,2.2,2.5,4.5,1.3,7.6L556.2,348.1z M449.8,408.8 c19.2,9.1,38.5,18.5,59.3,23.4c8.2-3.9-25.4-17.6-28.8-20.4c-20-9.3-39-22.1-60.5-27.5C411,387.7,445.9,407,449.8,408.8z  M419.7,386.3l0.4-0.4c14.3,3.7,27.2,11.2,40.4,17.6c16.1,8.7,33.3,15.9,48.4,26.3c-0.1,0.1-0.1,0.3-0.2,0.4 C480.2,422.4,441,406.7,419.7,386.3z M117.1,340.6l-6.4-9.7c-6.6,4.3-12.6,8.1-19.3,12.2l6.4,9.9L117.1,340.6z M160.3,392.1 c-2.7-2.8-5.6-5.5-8.6-8.1c-6.3,4.1-12,8.9-19.1,12.2l8.9,8.8C147.1,399.8,153.9,396.5,160.3,392.1z M77.8,306 c4.9-3.3,10.1-6.4,14.8-10c-1.4-3.4-2.8-6.5-4.2-9.8c-6.6,4.3-12.9,8.5-19.9,11.6l4.8,10.8C75,307.6,76.4,306.9,77.8,306z  M55.6,229.1c-0.3,3.9-0.7,7.2-0.5,11.4c6.6-3.7,13.3-7.4,19.1-12.1c0.3-4.2-0.3-8.2-0.1-12.6c-3.3,1.5-6,4-9.2,5.8 C62.1,224.3,55.9,224.6,55.6,229.1z M70.2,290.7c4.6-2.8,9.3-5.4,13.6-8.7c4.3-2-0.7-8.2-1.2-11.8c-6.5,4.2-13.6,7.5-19.3,12.9 c1.1,3,2.1,6,3.3,9.2C68,292.3,69.1,291.4,70.2,290.7z M173.4,403.6c-2.1-2.4-4.9-4.2-7.2-6.4c-1.4-1.2-1.3-1.2-2.9-0.2 c-5.8,4-12.2,7.3-17.6,11.9c2.9,2.3,5.5,4.4,8.2,6.5L173.4,403.6z M543.2,306.2c2.2,4,4.2,8,6.3,12.1l0.5-0.1 c1.1-11.9-1.8-24.1-5.2-35.5c7.8,5.5,4.5-2,2.6-6.1l-0.3,0.1c0.4,2.1,0.8,4.1,1.2,6.4c-1.9-0.5-3.2-2-5.2-2.4 c3.1,10.9,4.5,21.1,6,32.4c-24.9-43.8-8.8-18.2-16,8.6c-1.4-4.6-2.8-8.8-5.9-12.3c-1.5,2.6-2.5,8.6-1.7,10.2c0.8-2.4,1.6-4.5,2.5-7 c3.1,4,2.4,10.3,5.3,14c4.5-9.1,4.2-21.6,3.2-31.9l0.4-0.1C538.8,298.4,541.1,302.2,543.2,306.2z M224.4,426.5 c-3.2-1.3-7.2-2-10.8-2c-5.8,3.1-11.9,6.8-17,11C207.1,437.1,216,431.9,224.4,426.5z M74.5,208.8c2.9-2.5,2.4-7.2,3.9-10.5l-0.3-0.3 c-8.5,5.4-17.3,10.5-20.1,21.1C63.7,216.2,69,212.1,74.5,208.8z M489.4,383.6c0.5-0.5,0.6-1.4,0.2-2c-3.9-8.4-7-17.2-11.3-25.4 l-2.6,3.8c3.7,8.8,7.5,17.5,11.3,26.4C487.9,385.4,488.6,384.5,489.4,383.6z M537.8,353.1c1.5,4.9-2.7,6.3-2,0.6l-3.4,0.8 c-0.6,2.2,0.6,5.5-2.6,6.1l2.1,2l1.8-1.7c5.5,1.1,8.6-4.4,7.5-8.8c-0.2-4.2,3.2-1.6,2.2,1.3c6.6-0.4,1.1-4.4,5.4-6.8l-1.7-2.2 c-0.7,0.7-1.4,1.3-1.8,1.7C541.3,345.7,537.2,348.7,537.8,353.1z M191.3,146.7c6.8-7.9,13.4-16,21-23.2c1.5-1.1,0.9-3.1,0.2-4.5 C207.7,124.6,188.9,140.1,191.3,146.7z M506,170.2c-0.4,3.6-2.2,6.7-2.4,10.3c3.6-1.2,7.1-1.7,10.5-3.6L506,170.2z M475.1,384.7 l2.3-3.4c1,4.2,4.3,5.9,8.4,5.8c-2.2-1.7-5.9-1.1-6.7-4.2c-3.3-8-6.3-16.1-9.9-24l-0.4,0.2c2.7,7,5.8,13.9,8.4,20.8 C474.8,383.4,474.8,383.4,475.1,384.7z M169.5,174.7l-4.5,8.7l1.8,1.8c1.5-2.7,2.8-5.3,4.3-8L169.5,174.7z M545.3,358.4 c-0.3,0.4-0.5,0.8-0.7,1.2c7-4.2,18.9-26.4,2.1-19.6l0.2,0.5C562.4,335,550.6,354.2,545.3,358.4z M396.6,176.7 c-3.3-1.8-7.8-7-11.7-4.5C387.7,172.8,394.8,178.7,396.6,176.7z M255.3,195.6c-0.9,1.2-0.8,1.2,0.3,2.8c2.4-3.4,5.7-5.8,5.9-10.3 C259.1,190.3,257.4,193.2,255.3,195.6z M525.6,363.7c0.1-0.5,0.7-1.1-0.2-1.8c-4.5,14.2,14.6,3.9,18.3-1.3l-0.4-0.3 C540.2,363.6,523.8,374.6,525.6,363.7z M187.3,147.4l-4.5,6.1l1.7,2.4C187.8,151.9,188.4,150.4,187.3,147.4z M179.5,163.2l3.4-5.1 l-1.5-2.5C178.1,159.7,178,160,179.5,163.2z M454.8,352.2c3.2,8.5,6.4,17,9.6,25.5l0.6-0.2c-3.2-8.5-6.5-17-9.7-25.5L454.8,352.2z  M527.7,358c3.7-5.8,8-9.7,13-14.3C536.5,345.6,528.6,354.2,527.7,358z M512.9,319.6l-3.7,3.2l5.7,1.8 C514.4,322.8,513.7,321.1,512.9,319.6z M173.9,167.4c-1.6,2.2-3.5,4.5-1.4,7C174.6,172.2,174.7,169.9,173.9,167.4z M248.9,207.8 c1-2.6,5.4-4.7,2.9-7.4C250.6,202.9,247.2,204.9,248.9,207.8z M501.4,319.9l-1-3.1l-3.5,3.2C498.5,320.2,500,321.8,501.4,319.9z  M236.9,227.3c1.2-2.5,4.1-5,3.6-7.9H240C238.9,222,237.1,224.3,236.9,227.3z M398.4,178.9c1.5,1.4,3.2,2.5,5,3.5 C401.3,179.7,399.7,178.6,398.4,178.9z M242.3,218c1.5-1.9,1.5-2,0.2-3C241.8,215.9,241.3,216.8,242.3,218z M162.5,192.2 c-1.1,2.3-1.1,2.4-0.8,4C162.7,195.1,163,193.5,162.5,192.2z M545.3,340.5l-4.1,2.4l0.3,0.4C543.1,342.9,544.5,341.9,545.3,340.5z  M245.6,212.9c0.4-1.1,0.4-1.9-0.3-2.6C244.4,211.2,244.5,211.9,245.6,212.9z M287.9,223.3L287.9,223.3L287.9,223.3L287.9,223.3z  M499.8,223.5c5,1.2,12.1,1.5,15.7-2.8c-0.2-6.6-16-14-21.1-18.8c-1.9,5.6-2.6,11.4-4.3,17C493.1,221.5,496.1,222.7,499.8,223.5z  M542.5,209.2c18.4-4.8-6.1-14.1-11.1-20c-1.8,5.4-3.5,10.6-5.3,16C530.9,208.5,536.7,210.7,542.5,209.2z"></path></svg>