<svg id="Layer_1" xmlns="http://www.w3.org/2000/svg" xmlns:xlink="http://www.w3.org/1999/xlink" x="0px" y="0px" viewBox="0 0 600 600" xml:space="preserve" width="100%" height="100%"><style type="text/css">
	.st0{fill:#FFFFFF;}
</style><path class="st0" d="M56.4,162.7c1.1,1.6,2.3,3,3.6,4.5c0.2,0.1,0.4,0.1,0.7,0c0.2-0.4,0.2-0.8,0.1-1.3c-3.4-5.9-7.1-11.7-10.9-17.3 c-4.7-6.6-9.4-13.4-13.9-20.2c-0.5-0.4-0.8-0.9-0.9-1.5c0.4,0.4,0.8,0.8,1.1,1.2c2.9,2.7,5.9,5.3,8.9,8c1.8,1.4,3.7,2.8,5.5,4 c3.7,2.4,7.7,4.1,12.1,5c2.9,0.4,5.2-0.5,7-2.8c1.7-3.4,2.6-7,2.6-10.8c0-3.4,0-6.7-0.2-10.1c-0.3-4.5-0.5-9-0.8-13.4 c-0.2-1-0.4-2-0.3-3c-0.4-5.6-0.8-11.1-1.3-16.6c2,4.9,4,9.7,6.2,14.5c2.1,4.5,4.5,8.8,7.2,12.9c1.7,2.5,3.8,4.6,6.3,6.3 c3.9,2.1,7.2,1.3,10-2.1c1.3-1.8,2.4-3.8,3.4-5.9c2.5-6.4,4.4-12.9,5.6-19.7c0-0.1,0.1-0.2,0.2-0.2c0.2,1.1,0.2,2.2,0.2,3.4 c0.2,5,0.8,10,1.9,15c3.7,13,10.2,14.6,19.5,4.7c3.5-4.1,6.7-8.4,9.6-12.9c-0.5,2.9-1,5.9-1.3,8.9c-0.1,2.2-0.1,4.5,0,6.7 c0.3,4.1,1.7,7.8,4,11.1c1.8,2.4,4.2,4,7.1,4.6c4.4,0.1,8.6-0.8,12.4-2.9c-0.1-0.2-0.3-0.2-0.5-0.2c-2.4,0.6-4.9,1-7.4,1.2 c-2.3,0-4.3-0.7-6.2-1.9c-2.9-2.4-4.8-5.4-5.6-9.2c-1.3-10,0.1-19.6,4-28.9c0.1-0.4,0.1-0.9,0-1.3c-1-1.2-2-1.1-2.9,0.2 c-1,1.9-2.1,3.7-3.2,5.5c-3.3,5.1-6.8,9.9-10.6,14.6c-2,2.4-4.3,4.5-6.8,6.3c-2.8,1.7-5,1.2-6.5-1.8c-1.8-4.1-2.9-8.3-3.4-12.8 c-0.7-8.8-1.1-17.6-1.2-26.4c-0.1-0.3-0.2-0.6-0.3-0.8c-1.9-1.6-3.2-1.2-3.9,1.2c-1.7,10.7-4.2,21.1-7.4,31.4 c-1,2.9-2.4,5.6-4.2,8.1c-0.9,1.2-2.1,1.6-3.6,1.3c-0.8-0.3-1.5-0.7-2.2-1.2c-2.3-2.1-4.2-4.5-5.8-7.1c-2.4-4.2-4.5-8.4-6.6-12.8 c-2.9-6.7-5.7-13.5-8.4-20.3c-0.4-0.9-0.8-1.7-1.4-2.4c-1.3-0.7-2.3-0.5-3.1,0.8c-0.1,1.5-0.1,3,0,4.5c0.6,6.4,1.1,12.8,1.6,19.2 c0.2,1,0.3,2,0.3,3c0.5,6.3,1,12.5,1.4,18.8c0.1,3.8,0.1,7.6,0,11.4c-0.2,2.1-0.6,4.2-1.3,6.2c-0.8,1.9-2.2,2.6-4.3,2.1 c-3.7-0.9-7.1-2.3-10.2-4.4c-4.3-2.9-8.4-6.2-12.3-9.7c-5.3-3.4-10.5-7-15.4-11c4,5.9,8,11.8,11.9,17.8 C43.5,143.5,50,153.1,56.4,162.7L56.4,162.7z M108.4,94.5c0.1,1.1,0.2,2.1,0.3,3.2c0.1-1.1,0-2.2-0.2-3.4 C108.5,94.4,108.4,94.4,108.4,94.5z M66.9,102.9c0-1-0.1-2.1-0.3-3C66.5,101,66.6,102,66.9,102.9z M70.9,105.1c0,1.1,0.1,2.1,0.3,3 C71.3,107.1,71.1,106.1,70.9,105.1z M275.1,175.1c5,2.9,10.2,5.6,15.5,8.1c-0.4-2.7-0.6-5.4-0.6-8.1c-1.9,1.4-3.8,2.7-5.8,4 c-0.2-0.6-0.2-1.2-0.1-1.8c1.1-6.6,3.4-12.7,6.9-18.3c0.3-0.4,0.7-0.7,1.2-0.8c0.2,0.1,0.3,0.2,0.3,0.3c0.1,2.1,0.1,4.3-0.1,6.4 c-0.1,0.6,0,1.2,0.2,1.7c0.7-1.3,1.5-2.5,2.3-3.7c1.6-2.1,3.2-4.1,4.9-6.2c1.4-1.8,2.9-3.4,4.6-4.8c3.1-2.1,6.3-4.3,9.4-6.4 c0.9-0.6,1.9-1,2.9-1.4c0.1,0,0.2,0.1,0.3,0.1c-1.4,2-2.8,4-4.2,6.1c0.1,0.1,0.2,0.1,0.3,0c4.8-3.8,9.8-7.5,14.8-11.1 c1.6-1.1,3.3-2.2,5-3.2c-3.7,1-7.5,2-11.3,3c-2.3,0.9-4.7,1.8-7,2.8c-0.1,0-0.2-0.1-0.3-0.1c1.6-2.2,3.4-4.3,5.4-6.2 c2.7-2.1,5.3-4.2,7.9-6.4c2.7-1.8,5.5-3.5,8.2-5.2c2.8-1.1,5.7-2.2,8.6-3.2c12.9-3.4,25.9-4.4,39.2-3c16.2,3.4,30.5,10.5,43,21.2 c22.8,20.5,33.8,46.2,32.8,77c-0.7,14.6-4.6,28.3-11.7,41c-0.8,0.1-1.6,0.2-2.3,0.5c-0.1,0.6,0.1,1.1,0.5,1.5 c-1.6,0.4-3.1,0.9-4.5,1.6c-1.5,0.9-3.1,1.7-4.7,2.3c-0.8,0.4-1.5,0.9-2.2,1.5c-0.2,0.1-0.4,0.1-0.7,0c-0.3-0.3-0.7-0.5-1.2-0.5 c-2.5,3.4-4.9,6.9-7.1,10.5c-0.1,0.2-0.1,0.4-0.1,0.7c0.2,0,0.3,0,0.5-0.1c2.2-3.3,4.4-6.7,6.7-9.9c0.6,0.3,1.3,0.4,2,0.5 c0.1-0.2,0.2-0.4,0.3-0.7c2.3-1.1,4.6-2.3,6.9-3.5c1.3-0.7,2.7-1.1,4.2-1.2c-2.4,4-5.1,7.7-8,11.3c-4.9,2.8-9.1,6.4-12.6,10.8 c0-0.7,0.2-1.5,0.3-2.2c-0.8-1-1.7-2-2.8-2.8c-0.7-0.1-1.3-0.1-2,0.1c-0.5,0.7-0.8,1.4-1,2.2c-0.1,0.2-0.2,0.5-0.3,0.8 c-0.6,0.3-1.3,0.5-1.9,0.8c-0.6-0.1-1.3-0.2-1.9-0.2c-1.6,0.3-3.2,0.3-4.9,0.3l-2.5-0.5c-1.3-2.2-3.1-3.8-5.4-4.9 c-3.6-0.2-7.3-0.3-10.9-0.3c-2.2-1-4.5-1.9-6.8-2.8c-3.4,0.9-6.8,1.7-10.2,2.4c-5.3-1.6-10.4-3.5-15.4-5.8c-1.3-0.9-2.5-1.8-3.7-2.9 c-6.2-6.2-11.9-12.8-17.1-19.7c-0.8-0.8-1.6-1.6-2.4-2.3c-0.2,0-0.3,0.1-0.4,0.2c-0.1,0.4-0.1,0.8,0,1.2c2.1,5.1,4.8,9.8,8.1,14.1 c0.6,0.6,1.1,1.1,1.7,1.7c0.1,0.6-0.2,0.8-0.8,0.6c-4-4.2-7.7-8.7-11.2-13.4c-0.5-0.9-1.1-1.9-1.5-2.9c-0.7-2-1.5-3.9-2.2-5.9 c-0.7-0.8-1.3-1.6-2-2.3c-1.7-2.5-3.4-4.9-5-7.4c-1.3-2.1-2.3-4.2-3.1-6.6h-0.2c-0.2,0.4-0.3,0.9-0.3,1.3c0.6,1.3,1.2,2.6,1.8,3.9 c2.6,4.1,5.3,8,8.2,11.8c0.7,2.6,1.7,5.2,3,7.6c3.7,5.1,7.7,9.9,12,14.5c0.8,0.3,1.4,0.2,1.9-0.6c0.1-0.2,0.1-0.4,0-0.7 c-1.6-1.6-3-3.3-4.2-5.2c-2-3.2-3.7-6.5-5-9.9c4.1,5.2,8.4,10.4,12.8,15.5c3.1,3.4,6.5,6.5,10.2,9.2c4.9,2.5,10,4.1,15.5,4.8 c3-0.6,5.9-1.2,8.8-1.8c2.3,0.8,4.7,1.6,7,2.4c1.4-0.1,2.9-0.1,4.4-0.2c1.5,0,2.9,0,4.4,0.1c1.1,0.4,2.3,0.7,3.5,0.8 c1.8,1.2,3.1,2.7,4,4.5c1.7,0.3,3.4,0.5,5.1,0.6c0.4-0.1,0.9-0.2,1.3-0.4c1.2-0.1,2.5-0.1,3.7,0c0.8-0.4,1.6-0.8,2.4-1.1 c0.1-0.7,0.4-1.5,0.8-2.2c0.4-0.5,1-0.6,1.6-0.4c0.9,0.8,1.7,1.7,2.3,2.6c-0.6,1.2-1,2.4-1.1,3.7c-0.3,0.6-0.6,1.3-1,1.8 c-1.3,1.1-2.6,2.1-3.9,3.1c-20.9,14.3-43.9,19.7-69.1,16.3c-25.3-4.2-45.8-16.3-61.6-36.4c-1.6-3.6-3.1-7.3-4.5-10.9 c-1.6-5.7-3-11.5-4.2-17.3c-0.4-1.4-0.5-2.9-0.3-4.4c0.6-1.4,1.4-2.7,2.2-4c1.3,2.2,2.4,4.5,3.2,6.9c1-2.1,2.2-4.1,3.4-6.1 c-0.2-5.7-0.3-11.4-0.2-17.1c0.1-3.7,0.5-7.4,1.3-11.1c2.5,1.1,4.9,2.2,7.4,3.3c0.2,0.1,0.5,0.1,0.7-0.1c-2.4-1.5-4.9-2.8-7.6-3.9 c-0.2-0.5-0.2-1,0.2-1.4c9.9,4.9,20,9.3,30.2,13.3c0.3-0.6,0.2-1.3-0.2-1.8c-10-3.8-19.8-8.1-29.4-12.9c-0.2-0.1-0.3-0.3-0.3-0.6 c0.6-2.9,1.5-5.7,2.6-8.4c0.2-0.6,0.3-1.1,0.1-1.7c-3.8-2-7.6-3.8-11.6-5.5c-2.8-1.7-5.5-3.4-8.2-5.2c-0.2-0.1-0.3-0.3-0.3-0.6 c0.1-0.6,0.3-1.1,0.7-1.5c6.1,3.9,12.4,7.3,19,10.4c-0.6-1.2-1.1-2.5-1.5-3.9c-2.6-0.9-5.2-2-7.7-3.3c-3.1-1.7-6.2-3.4-9.2-5.1 c-0.2,0.5-0.4,1-0.5,1.5c-0.3,0-0.6-0.1-0.8-0.3c-6.1-4.1-11.7-8.8-16.7-14.2c-0.5-1-0.9-2.1-1.3-3.2c-0.2-1-0.1-2,0.5-2.9 c1.4-1.2,3-2,4.8-2.3c0.4-0.1,0.9-0.2,1.3-0.3c-0.1-0.2-0.3-0.3-0.5-0.3c-0.3-0.1-0.6-0.2-0.8-0.3c0.2-0.1,0.2-0.3,0.1-0.5 c-1.9-1.6-3.7-3.3-5.5-5c-0.1-0.2-0.3-0.2-0.5-0.2c0,1.5-0.1,3-0.3,4.5c-0.3,1.6-0.7,3.2-1,4.9c1.2-2.3,3.1-3.4,5.7-3.5 c0.4-0.1,0.7,0,1,0.2c-2.2,1-4.4,2.2-6.4,3.6c-0.2,0.1-0.3,0-0.3-0.3c-0.1,0.1-0.2,0.3-0.3,0.4c0.2,3.2,1.4,6.1,3.5,8.5 c1.3,1.8,3,3.3,4.9,4.4c3.7,3.2,7.7,6.1,11.8,8.7c0.1,0.1,0.1,0.2,0.2,0.3c-0.5,1.1-0.8,2.2-0.9,3.4c2,1.4,4,2.8,6,4.2 c-0.6,0.1-1.1,0-1.7-0.3c-1.5-0.7-3.1-1.5-4.5-2.3c-0.2-0.5-0.2-0.9,0-1.4c0-0.3-0.1-0.4-0.3-0.6c-4.9-3.1-9.3-6.8-13.4-11 c-0.4-0.6-0.9-1.3-1.3-1.8c-0.6-0.9-0.7-1.9-0.4-3h-0.7c-0.8,0.6-1.1,1.5-0.8,2.5c0.7,1.3,1.4,2.6,2.3,3.7 c4.2,4.5,8.9,8.3,14.1,11.4c-0.4,1.8-0.8,3.6-1.3,5.4c-2.5-1.6-5-3.2-7.5-4.9c-3.6-2.6-7-5.5-10.2-8.7c-0.9-0.9-1.5-1.9-1.8-3.1 c0-0.4,0.2-0.6,0.5-0.8c0.6-0.3,1.1-0.6,1.7-0.8c-0.7-0.1-1.5-0.1-2.2,0c-1.4,0.3-1.9,1.2-1.4,2.6c0.6,1.5,1.5,2.9,2.7,4 c5.4,5.1,11.4,9.6,17.7,13.4c0.2-0.4,0.4-0.9,0.5-1.3c0.1-0.2,0.2-0.2,0.3-0.1c6.4,4,13,7.6,19.8,10.9c0.1,0.3,0.1,0.7,0,1.1 c-0.1,0.2-0.2,0.3-0.3,0.5c-6.8-3.3-13.5-7-20-10.9c-0.2,0.2-0.4,0.5-0.3,0.8c-0.3,0-0.6-0.1-0.8-0.3c-1.5-1-3-1.9-4.5-2.8 c-0.2,0-0.3,0-0.3,0.2c1.7,1.5,3.5,3,5.4,4.4c-0.1,0.4-0.1,0.8-0.2,1.2c-2.3-1.2-4.5-2.5-6.7-3.8c-2.6-1.6-5-3.6-7-6 c-0.5-0.7-0.7-1.4-0.7-2.2c0.3-0.3,0.5-0.7,0.6-1.2c-1,0-1.6,0.6-1.7,1.6c0.2,0.7,0.4,1.4,0.8,2.1c0.6,0.7,1.1,1.3,1.7,2 c3.8,3.3,7.9,6.1,12.4,8.5c0.3,0.2,0.4,0.6,0.3,0.9c-0.4,2.4-0.6,4.8-0.8,7.2c-1.3,26.8,6.7,50.3,24,70.6 c19.6,21.5,43.9,32.3,73.1,32.6c20.9-0.2,39.8-6.4,56.6-18.6c-0.4,1.2-0.9,2.4-1.3,3.7c-1,2.9-1.4,6-1,9.1c1.3,4.5,3.2,8.7,5.9,12.6 c0.1,0.1,0.3,0.2,0.4,0.2c0.5,0.3,1.1,0.5,1.7,0.5c7.1,2.4,13.9,5.5,20.3,9.3c3,2.2,6.1,4.3,9.2,6.2c2.8,1.9,5.5,4,8.2,6.1 c1.9,0.6,3.8,0.9,5.7,1.1c0.9,0.2,1.8,0.4,2.7,0.3c1.4,0.2,2.8,0.3,4.2,0.3c3,0,6.1,0,9.1-0.2h0.2c1.3-0.3,2.5-0.4,3.9-0.5 c8.8-1.4,16.9-4.8,24-10.2c5.8-4.7,9.8-10.6,12-17.7c0.1-3.4-0.2-6.7-1.2-9.9c-2.3-7.1-6.1-13.3-11.5-18.4 c-8.7-8-18.9-13.3-30.6-15.8c-14.5-3.2-28.6-1.9-42.2,4c7.7-10,13.2-21.1,16.6-33.4c6.7-26.3,3.4-51.2-10.1-74.8 c-15.2-24.5-36.9-39.8-65.3-45.8c-20.6-3.8-40.5-1.3-59.5,7.6c-22.4,11-38.5,28-48.2,51c0.1,0.3,0.2,0.5,0.5,0.6L275.1,175.1z  M269.1,193.1c0.1-0.2,0.3-0.2,0.4-0.1c6.3,4.1,12.8,7.8,19.7,11c0.2,0.3,0.1,0.6-0.2,0.8c-7-3-13.7-6.6-20-10.8 C269,193.8,269,193.5,269.1,193.1L269.1,193.1z M274.9,200.1c-2.1-1-4.2-2.1-6.2-3.3c-0.2-0.4-0.2-0.9,0-1.3 c3.3,1.8,6.5,3.7,9.6,5.8C277.1,201,276,200.6,274.9,200.1z M471.9,273.1c0.9-2.1,2.4-3.7,4.5-4.8c1.1-0.5,2.2-0.3,3,0.6 c0.1,0.2,0.2,0.5,0.2,0.8c-0.3,1.3-0.8,2.6-1.3,3.8c10,2,18.2,6.9,24.8,14.6c5,6.4,5.5,13.2,1.3,20.3c-0.6,0.9-1.2,1.8-1.8,2.7 c-2.7,2.7-5.4,5.4-8.1,8.1c-3.6,2.8-7.5,4.9-11.9,6.1c-0.5,0.1-1,0.1-1.5,0.3c-0.1,0.1-0.2,0.1-0.2,0.3c-1.7,0.3-3.5,0.5-5.2,0.7 c-0.5,0.2-1.1,0.2-1.7,0.2v1c0.1,0.9,0,1.7-0.3,2.5c-0.8,1.1-1.8,1.3-3.1,0.8c-3.8-3.4-5.2-7.6-4.2-12.5c0.2-0.3,0.4-0.5,0.7-0.8 c0.7-0.1,1.3-0.1,1.8,0.1c0.9,0.3,1.6,0.8,2.1,1.5c0.7,1,1.1,2.1,1.4,3.2h1c0.4-0.2,0.8-0.3,1.3-0.3c8.3-1.1,15.7-4.3,22.2-9.7 c1.2-1.1,2.2-2.2,3.3-3.5c1.8-5.3,1.4-10.4-1.3-15.3c-3.5-6.4-8.5-11-15.2-13.9c-2.3-0.9-4.7-1.7-7.1-2.4c-0.5,0.5-1.1,1.1-1.6,1.6 c-0.2,0.1-0.4,0.1-0.7,0.1c0.2-0.8,0.5-1.4,1-2c0.6-0.7,1.2-1.3,1.8-1.9c-0.1-0.1-0.2-0.1-0.3,0c-0.6,0.6-1.2,1.2-1.8,1.8 c-1.6,0.9-2.7,0.5-3.4-1.2C471.3,274.9,471.5,274,471.9,273.1L471.9,273.1z M450.8,283.2c1-0.6,2-1,3.2-1.1c4.9-0.3,9.8,0,14.6,0.9 c0.6,0.2,1.2,0.3,1.8,0.3c0.5,0.1,1,0.1,1.5,0.2c0.3,0.2,0.7,0.3,1.2,0.3c1.8,0.3,3.5,1,5,1.9c0.6,0.7,0.7,1.5,0.2,2.3 c-1.8-0.7-3.6-1.3-5.5-1.7c-0.5,0.1-0.8-0.1-1.2-0.3c-2.6-0.4-5.2-0.9-7.9-1.3c-4.6-0.4-9.1-0.3-13.6,0.3 C450.1,284.3,450.3,283.7,450.8,283.2L450.8,283.2z M477.2,289.1H477c-0.5,0.1-0.9,0.3-1.3,0.5c-4.8,0.9-9.6,0.9-14.5-0.1 c-1.6-0.4-3.1-0.7-4.7-1.1c-0.4,0-0.8-0.1-1.2-0.3c-1.3-0.4-2.5-0.8-3.7-1.4c-0.5-0.3-0.9-0.7-1.2-1.1c3.3-0.2,6.6-0.2,9.9-0.2 c0.9,0,1.7,0.1,2.5,0.3c4.9,0.5,9.7,1.4,14.5,2.9C477.4,288.8,477.3,289,477.2,289.1L477.2,289.1z M448,285.8 c0.6-0.2,1.2-0.2,1.8-0.3v0.5c-2.5,0.6-2.7,1.4-0.3,2.6c2.7,1.1,5.5,1.9,8.4,2.3c0.4,0,0.8,0.1,1.2,0.3h0.7c0.9,0.2,1.8,0.4,2.7,0.3 c5.6,0.6,11.1,0.2,16.5-1.4c0.2-0.2,0.4-0.3,0.7-0.4c0.2-0.1,0.2-0.3,0.1-0.5c-0.4-0.3-0.8-0.4-1.3-0.5c-0.1-0.1-0.3-0.2-0.5-0.3 c0.5-0.1,1-0.1,1.5-0.1c0.9,0.2,1.2,0.7,0.9,1.7c-0.2,0.3-0.6,0.6-0.9,0.7c-0.4,0-0.7,0.2-1,0.5c-4.6,1.2-9.3,1.6-14.1,1.3 c-0.9,0-1.8-0.1-2.7-0.3c-4.5-0.4-8.8-1.5-12.9-3.1c-0.7-0.4-1.2-0.9-1.6-1.6C447,286.8,447.3,286.2,448,285.8L448,285.8z  M446.8,300.1c1.1-0.6,2.2-1,3.4-1.2c4.8-0.3,9.6,0,14.3,0.8c0.6,0.2,1.2,0.3,1.8,0.3c2.6,0.3,5,0.8,7.4,1.8 c0.7,0.3,1.4,0.8,1.9,1.4c0.1,0.6,0.1,1.1,0.1,1.7c-1.9-0.8-3.9-1.5-5.9-2.1c-3.7-0.8-7.5-1.4-11.3-1.8c-2.3-0.2-4.7-0.2-7.1-0.1 c-1,0-1.9,0.2-2.9,0.4c-0.9,0.2-1.8,0.3-2.7,0.3C446,301,446.2,300.5,446.8,300.1L446.8,300.1z M462.9,307.6c-0.9,0-1.8-0.1-2.7-0.3 c-4.6-0.4-9-1.6-13.1-3.6c-0.3-0.3-0.6-0.6-0.8-0.8c0.8-0.4,1.6-0.6,2.5-0.6c0.7-0.2,1.5-0.4,2.4-0.4c1.9-0.1,3.7-0.1,5.5,0.1 c2.9,0.2,5.7,0.5,8.6,0.8c0.3,0.2,0.7,0.3,1.2,0.3c2.7,0.7,5.3,1.6,7.9,2.7c0.2,0.1,0.2,0.2,0.1,0.3c-1.1,0.5-2.1,0.9-3.3,1.2 c-2.6,0.3-5.3,0.4-7.9,0.3H462.9z M444.6,304.4c0.4,0.9,1,1.5,1.8,1.9c3.5,1.7,7.1,2.7,10.9,3.1c1.5,0.3,3.1,0.4,4.7,0.3 c1.2,0,2.3-0.1,3.4-0.2c3.5-0.2,6.9-1.1,10.1-2.6c0.4-0.4,0.4-0.7,0-1.1c0.6-0.2,1,0,1.2,0.7c0,0.4-0.2,0.7-0.5,0.9 c-3.6,1.8-7.4,2.8-11.4,3c-4.3,0.3-8.6-0.1-12.8-1.2c-2.6-0.6-5-1.6-7.2-3c-0.8-0.7-1.2-1.6-1.1-2.6 C444.8,302.9,445.1,303.1,444.6,304.4L444.6,304.4z M446.9,258.7c-0.2-0.2-0.4-0.4-0.6-0.7c0.1-0.1,0.2-0.2,0.3-0.3 C447.5,257.6,447.6,258,446.9,258.7L446.9,258.7z M72.4,127.5c0-2-0.1-3.9-0.3-5.9c0.1,3.4,0.2,6.7,0.2,10.1 C72.4,130.3,72.4,128.9,72.4,127.5L72.4,127.5z M36,128.5c0-0.2,0-0.3,0.2-0.3c-0.3-0.4-0.7-0.8-1.1-1.2 C35.2,127.5,35.5,128.1,36,128.5z M398.7,134.6c0.7,0.8,1.5,1.5,2.4,2.2c2.8,0.6,5.6,1.2,8.4,1.7c2,0.9,4.1,1.7,6.2,2.3 c0.5,0.2,1,0.2,1.5,0.2c0.2-0.1,0.3-0.2,0.3-0.4c-0.6-1-1.4-2-2.3-2.8c-0.2-0.1-0.4-0.1-0.7-0.1c0.1,0.7,0.4,1.3,1,1.8 c-0.1,0-0.2,0.1-0.3,0.1c-1.9-0.7-3.8-1.4-5.7-2.1c-2.7-0.5-5.4-1-8.1-1.5c-0.7-0.8-1.5-1.5-2.4-2.2c-0.6-0.5-1.2-0.8-2-0.8 c0,0.2,0,0.4,0.2,0.6C397.8,133.8,398.3,134.2,398.7,134.6L398.7,134.6z M379,141.4c-0.2,0.4-0.2,0.7-0.2,1.2c1.1,1.5,2.1,3.1,3,4.7 c0.1,0.1,0.3,0.3,0.4,0.4c1.9,0.1,3.7,0.3,5.5,0.5c2.9,1.5,5.7,3.1,8.4,4.7c0.6,0,1.2-0.1,1.8-0.3c2.7,0.6,5.5,0.7,8.2,0.3 c0.4-0.3,0.4-0.7,0.1-1.1c-2-2.3-3.9-4.6-5.7-7.1c0-0.8,0.1-1.6,0.2-2.3c-1.6-1.5-3.2-3-4.8-4.6c-0.4-0.4-0.9-0.5-1.5-0.4 c-0.2,0.2-0.5,0.4-0.8,0.4c-4.8,0.1-9.6,0.2-14.5,0.3c-0.4,0.1-0.8,0.3-1.2,0.5c-0.4,0.3-0.6,0.7-0.4,1.3 C378,140.5,378.5,141,379,141.4L379,141.4z M378.6,139.3c0.5-0.3,1.1-0.5,1.7-0.4c3.9,0,7.8,0,11.7,0.2c1,0.1,1.9-0.1,2.8-0.5 c0.2,0,0.5,0,0.7,0.1c1.4,1.4,2.8,2.8,4.3,4.1c-0.1,0.8-0.1,1.7,0,2.5c0.4,0.2,0.7,0.5,1,0.8c1.5,1.9,2.9,3.8,4.5,5.7 c-2.3,0.2-4.5,0.2-6.7-0.2c-0.6,0-1.2,0.1-1.8,0.3c-2.8-1.7-5.6-3.3-8.5-4.8c-1.9-0.2-3.8-0.4-5.7-0.6c-0.8-1.4-1.7-2.7-2.7-3.9 c0.3-0.4,0.4-0.8,0.3-1.3c-0.4-0.6-0.9-1.2-1.5-1.7C378.4,139.6,378.4,139.4,378.6,139.3L378.6,139.3z M371.4,153.8 c1.5,0.5,2.9,0.9,4.4,1.3c0.3,0.6,0.7,1.2,1.3,1.7c-0.8,0.6-1.5,1.2-2.3,1.8c-0.1,0.3-0.1,0.6,0,0.8c0.9,0.8,1.9,1.3,3.1,1.5 c0-0.2,0-0.4-0.2-0.6c2.6-0.7,5.3-0.9,8.1-0.7c1.6,0.5,3.2,0.7,4.9,0.8c0.1-0.2,0.2-0.4,0.2-0.7c-0.2-1-0.4-2-0.5-3 c0.5-0.9,1.3-1.5,2.3-1.8c0.3-0.5,0.1-0.9-0.3-1.2c-2.5-1.1-4.9-2.2-7.4-3.4c-1.1-0.3-2.2-0.6-3.4-0.7c-0.4-0.1-0.7-0.3-1-0.5 c-1.1-0.1-2.1-0.1-3.2-0.2c-0.6-0.1-1.1-0.3-1.7-0.4c-0.2,0.4-0.5,0.8-0.8,1.1c-1.3,0.9-2.6,1.8-3.9,2.7 C370.5,153,370.6,153.5,371.4,153.8L371.4,153.8z M376.1,149.8c1.6,0.2,3.2,0.4,4.9,0.6c0.1,0.2,0.3,0.3,0.5,0.3 c0.8,0.1,1.7,0.2,2.5,0.3c2.6,1.1,5.1,2.2,7.6,3.4c-0.6,0-1,0.3-1.2,0.8c-0.3,0.1-0.6,0.2-0.8,0.4c-0.1,1.3-0.1,2.6,0.3,3.9 c-2.1-0.6-4.3-0.9-6.5-1c-0.8,0-1.5,0.1-2.3,0.1c-1.2,0.4-2.3,0.7-3.5,1c-0.1,0.2-0.2,0.3-0.3,0.4c-0.4-0.3-0.9-0.5-1.3-0.8 c-0.2-0.1-0.2-0.3-0.1-0.4c0.8-0.6,1.6-1.2,2.3-1.8c0.1-0.3,0.1-0.6,0-0.8c-0.7-0.6-1.3-1.3-1.8-2.1c-1.4-0.3-2.8-0.7-4.2-1.2 C373.5,151.9,374.8,150.9,376.1,149.8L376.1,149.8z M320.9,201c0.3,0.1,0.6,0.2,0.8,0.3c-0.8-2.5-1.6-5-2.6-7.6 c-0.3-0.6-0.7-1.2-1.2-1.7c0.2-2,0.3-4.2,0.3-6.6c0-2.7-0.1-5.3-0.3-8c-0.9-1.3-1.9-2.7-2.9-4c-0.9-1-1.9-1.9-2.9-2.7 c0.6-2.7,1.6-5.3,3-7.7c1.9-0.2,3.8-0.3,5.8-0.4c4.7-1.2,9.4-2.2,14.2-3.3c1.1,0.6,2.3,1.2,3.4,1.7c3-0.8,6-1.2,9.1-1.1 c0.8,0.6,1.8,1.1,2.8,1.4c1.2-0.8,2.6-1.5,4-1.8c-0.2-0.8-0.4-1.7-0.6-2.5c0.5-0.1,1-0.2,1.5-0.4c1-0.6,2-1.1,3-1.8 c1,1.6,2.1,3.1,3.4,4.5c1-0.1,1.9-0.4,2.9-0.8c0.6-0.3,1-0.8,1.2-1.4c0.8,0.4,1.5,0.8,2.3,1.2c-0.2,0.2-0.3,0.4-0.3,0.7 c-0.1,0.1-0.2,0.3-0.3,0.5c-0.1,0.7-0.1,1.3-0.1,2c0.1,0.5,0,1-0.2,1.5c-1.3,0.7-2.4,1.6-3.3,2.7c-1.9,2.1-3.2,4.4-4,7.1 c0.1,0.5,0.3,1,0.6,1.4c3.1,3.4,6.9,4.6,11.3,3.5c0.6,0.1,1.1,0.2,1.7,0.4c3.7,2.2,7.3,4.4,10.9,6.7c1.2,0.3,2-0.2,2.3-1.4 c0.1-1.6-0.4-3.1-1.5-4.4c-1.1-1.5-2.4-2.8-3.8-4c0.3-0.8,0.5-1.6,0.8-2.3c1,0.2,2.1,0.2,3.1,0.1c0.2-0.2,0.2-0.5,0.1-0.8 c-1.9-1.5-3.7-3.1-5.5-4.7c-0.3-0.8-0.6-1.6-0.9-2.4c0-0.1,0.1-0.2,0.2-0.3c3-0.3,6-0.2,8.9,0.3c0.2,0.1,0.3,0.1,0.4,0.3 c0.8,1.7,1.8,3.4,2.9,5c1.7-0.4,3.3-0.9,5-1.3c0.3-0.1,0.6-0.3,0.7-0.7c2.8,0,5.5,0.1,8.2,0.5c3,0.7,6,1.6,8.9,2.7 c3.1,1.1,5.8,2.6,8.4,4.5c0.2,0.3,0.2,0.5-0.2,0.7c-2.2,0.1-4.4,0.1-6.6,0.2c-2.7,0.3-4.7,1.7-6,4c-0.3,3.5,1.3,5.3,4.8,5.4 c-0.4,1.9-0.9,3.8-1.5,5.7c-0.6,0-1.1,0-1.7,0.1c-2.7,1.1-4.4,3-5,5.8c0.9,0.8,1.9,1.6,2.8,2.4c-1.6,3.7-3.1,7.4-4.4,11.3 c0.3,1.2,0.4,2.5,0.4,3.8c0.3,1.3,1,2.4,1.9,3.4c-2.2,3.4-4.2,7-5.8,10.8c-0.3,1.8,0,3.5,0.7,5.2c1.3,1.5,2.6,2.8,4.1,4.1 c-2.1-0.3-4.1-0.5-6.2-0.8c0.5,0.3,0.9,0.8,1.2,1.3c1,0.1,2,0.2,3,0.3c1.2,0,2.4-0.1,3.5-0.3c-0.4-0.8-1-1.4-1.8-1.8 c-1-0.9-1.9-1.9-2.8-2.9c-0.8-1.8-0.9-3.7-0.5-5.7c1.7-3.5,3.6-7,5.6-10.2c-1.3-1.2-2-2.7-2.2-4.5c0.2-2.3,0.6-4.6,1.3-6.8 c0.9-2.4,1.9-4.7,2.9-7c-0.5-1-1.3-1.7-2.4-2.2c-0.3-0.2-0.5-0.5-0.7-0.8c0.9-2,2.3-3.5,4.2-4.5c0.8,0,1.5-0.1,2.3-0.3 c1-2.5,1.6-5,1.8-7.6c-0.9,0.1-1.8,0.1-2.7,0c-1.8-0.7-2.4-2.1-1.9-3.9c1.2-1.9,3-2.9,5.3-3.1c2.2-0.1,4.5-0.1,6.7-0.2 c0.5-0.4,0.9-0.9,1.3-1.3c-0.6-0.7-1.3-1.3-2-1.8c-1.4-0.9-2.8-1.7-4.2-2.5c-4.5-2-9.1-3.4-13.9-4.4c-2.3-0.2-4.7-0.3-7.1-0.2 c-0.4,0.2-0.6,0.4-0.8,0.8c-0.5,0.1-0.9,0.2-1.3,0.3c-1.1,0.2-2.2,0.4-3.2,0.8c-1-1.3-1.8-2.8-2.4-4.3c-0.4-0.6-0.9-0.9-1.6-0.9 c-2.7-0.4-5.5-0.5-8.2-0.3c-1.3,0.1-1.7,0.8-1.3,1.9c0.4,0.9,0.8,1.8,1.2,2.7c1.5,1.2,2.9,2.4,4.4,3.6c-0.8-0.1-1.6-0.1-2.3-0.2 c-0.1,0.1-0.3,0.3-0.4,0.4c-0.1,1.1-0.4,2.2-0.8,3.2c0,0.2,0.1,0.5,0.3,0.7c1.7,1.3,3.1,2.9,4.4,4.7c0.6,0.9,0.8,1.8,0.7,2.9 c-0.1,0.2-0.3,0.3-0.5,0.3c-3.8-2.3-7.7-4.6-11.5-6.8c-1.3-0.5-2.6-0.5-3.9,0c-3.4,0.1-6.2-1.1-8.5-3.6c-0.3-0.6-0.3-1.2,0-1.8 c1.1-2.9,2.9-5.3,5.3-7.3c0.5-0.3,0.9-0.5,1.4-0.8c0-1.9,0.3-3.8,0.9-5.6c-0.1-0.2-0.1-0.4-0.2-0.6c-1.2-0.4-2.4-0.8-3.5-1.3 c-0.2,0-0.3,0.1-0.4,0.2c-0.1,0.4-0.1,0.9-0.2,1.3c-0.8,0.6-1.8,0.9-2.8,0.9c-1.1-1.2-2-2.6-2.8-4.1c-0.6-0.4-1.3-0.4-1.9,0.1 c-1.2,1-2.6,1.6-4.2,1.8c-0.1,0.2-0.2,0.4-0.2,0.7c0.1,0.7,0.3,1.4,0.5,2.1c-1.1,0.4-2.1,0.8-3,1.3c-0.9-0.3-1.6-0.7-2.4-1.3 c-3.2-0.1-6.4,0.3-9.5,1.3c-0.9-0.4-1.8-0.8-2.6-1.4c-1.6-0.1-3.2,0.2-4.7,0.8c-3.5,0.6-7,1.4-10.4,2.3c-2.1,0.3-4.1,0.4-6.2,0.4 c0,0.2,0,0.5-0.1,0.7c-1.4,2.4-2.5,4.9-3.1,7.6c0.1,0.2,0.1,0.4,0.2,0.7c0.9,0.7,1.8,1.5,2.6,2.3c0.9,1.2,1.8,2.5,2.7,3.7 c0.6,5,0.7,10,0.4,15c1.3,2.7,2.4,5.5,3.2,8.4C320.8,200.8,320.9,200.9,320.9,201z M159.6,160.6c1.3,0.5,2.2,0.2,2.9-0.9 c0.2-1.1,0.2-2.2,0.1-3.4c-0.2-0.4-0.3-0.8-0.6-1.2c-0.1-0.4-0.3-0.7-0.7-0.9c-1.5-0.4-2.4,0.2-2.7,1.8c-0.5,1.1-0.4,2.3,0.2,3.4 C158.9,159.9,159.2,160.3,159.6,160.6L159.6,160.6z M146.5,210.2c-3.4,0.6-6.8,1.3-10.1,2.2c-1.9,0.5-3.7,1.2-5.4,2 c-2.8,6.5-6.6,12.3-11.3,17.6c-0.4,0.5-0.7,1-1.1,1.5c0.1-0.7,0.4-1.3,0.9-1.8c2.2-4.2,4.5-8.5,6.8-12.6c1.1-2.2,2.1-4.5,3.2-6.7 c0.4-1,0.7-2.1,1-3.2c1.6-7.6,1.8-15.3,0.8-23c-1.4-9.5-5.9-17.1-13.5-22.8c-5.3-3.8-11.3-5.2-17.8-4.2c-1.7,0.2-3.2,0.7-4.7,1.5 c-2.7,1.8-5,4.1-6.8,6.8c-2.4,3.3-3.6,7.1-3.7,11.3c-0.2,5.5,0,11,0.7,16.5c0.7,4.3,1.4,8.6,1.8,12.9c0.4,3.6,0.5,7.2,0.3,10.8 c-1.4,8.3-4.6,15.9-9.6,22.7c-5.7,6-10.9,12.5-15.5,19.3c-1.2,1.9-1.8,4-2,6.2c-0.1,3,0,6.1,0.2,9.1c-0.9-1.7-2.1-3.2-3.4-4.6 c-3.2-1.2-5.8-0.3-7.6,2.6c-3,5.4-4.1,11.2-3.4,17.3c0.9,7.1,2.3,14.1,4.4,21c0.5,1.6,1,3.1,1.7,4.5c2.1,4.1,4.1,8.3,5.9,12.6 c1.1,2,2.5,3.7,4.3,5.1c5.4,3.4,11,6.2,17,8.4c-1.9-2.4-3.7-4.9-5.5-7.5c-1.2-1.9-2-4-2.5-6.2c0.6,0.9,1.2,1.7,1.8,2.5 c3,2.8,6.2,5.5,9.5,8c7.7,5.4,16.1,9,25.4,10.8c6,1.3,12.1,1.4,18.1,0.5c5.2-0.8,10.4-2,15.5-3.5c5.7-1.7,10.6-4.6,14.9-8.7 c0-0.3-0.1-0.6-0.3-0.8c-2.8-3.3-4.2-7.1-4.2-11.4c0.1-0.3,0.2-0.4,0.5-0.5c0.4,0.3,0.7,0.7,0.8,1.2c3.1,10.1,9.9,14.5,20.4,13.2 c4.7-1.6,9.1-3.6,13.3-6.2c3.8-2.3,6.8-5.5,9-9.3c0.7-0.9,1.6-1.8,2.4-2.6c1.9-1.3,3.9-2.7,5.7-4.2c3.1-2.4,5.4-5.4,7-9 c1-5.1,0.2-9.7-2.5-14.1c-0.9,1-1.8,2-2.8,2.9c-2.3,1.7-4.5,3.6-6.5,5.6c-2.9,4-5.7,8-8.6,11.9c-2.4,2.8-5.3,4.7-8.8,6 c-4.6,1.7-9.4,2.7-14.3,3.2c-4,0.1-7.6-0.9-11.1-2.9c-7.7-4.3-11.4-10.9-11.3-19.7c-3.8-1.2-7.4-2.9-10.6-5.2c-2.1-2-3.8-4.3-5-7 c-0.4,2.6-1,5.2-1.8,7.7c-1.9,6.4-5.3,11.8-10.2,16.3c-0.1-0.2-0.1-0.4,0-0.7c1.6-3.3,3.3-6.6,5-9.9c2.2-4.8,3.6-9.7,4.1-15 c0.1-0.7,0.2-1.5,0.2-2.3c0-1.1-0.1-2.2-0.3-3.3c-0.4-2.8-1.2-5.3-2.6-7.7c-1.1-0.6-2.2-1.2-3.3-1.8c-2.6-2.4-4.9-5.1-6.6-8.1 c-1.5-3.3-2.4-6.7-2.8-10.2c0-1.5,0.1-3,0.2-4.5c0.2-1.2,0.4-2.4,0.8-3.5c1.7-4.1,4.3-7.4,7.8-10c3.7-2.3,7.4-4.4,11.3-6.4 c2.2-0.8,4.4-1.4,6.7-1.8c2-1,4.1-1.7,6.2-2.3c0.8-0.4,1.6-0.6,2.5-0.6c-0.7,0.3-1.3,0.5-2,0.8c-6.8,2.7-13.4,6-19.7,9.8 c-3.4,2.6-5.8,5.8-7.5,9.7c-2.6,7.7-1.6,14.9,2.9,21.7c2.1,2.8,4.8,4.3,8.3,4.5c1,0.2,2,0.4,3,0.3c0.6,0,1.3-0.1,1.8-0.2 c3.3-0.4,6.4-1.3,9.4-2.6c3.6-2,7.2-4.1,10.8-6.2c3.4-1.8,7-3.2,10.8-4.2c4.4-2.1,8-5.1,11-9c2.6-5,4.3-10.3,5.1-16 c0.1-0.7,0.2-1.4,0.2-2.2c0-1.2-0.1-2.3-0.3-3.4c-0.5-3.1-1.7-5.9-3.6-8.4c-2.7-2.5-5.6-4.9-8.7-7c-1.5-0.7-3.1-1.3-4.7-1.8 C158.3,210.5,152.5,209.9,146.5,210.2L146.5,210.2z M584.9,344c-12.5,5.1-25.4,8.7-38.8,10.7c-0.5,0-0.9,0.1-1.3,0.3 c-10.3,1.6-20.7,2.2-31.1,1.9c1.4-1.1,2.8-2.1,4.2-3.2c17.3-14.4,30.7-31.7,40.2-52c0-0.4,0.2-0.8,0.5-1c1.3-3,2.6-5.9,3.9-8.9 c0.9-2.9,2-5.7,3.1-8.6c0.1-0.6,0.2-1.1,0.5-1.5c1.8-5.9,3.3-11.9,4.5-18c0.2-0.5,0.3-1,0.3-1.5c0-0.4,0.1-0.8,0.2-1.2 c0-0.5,0.1-0.9,0.3-1.3c0.2-1.5,0.4-3.1,0.7-4.5c0-0.7,0.1-1.3,0.3-1.8c0-0.7,0.1-1.4,0.3-2c0-1.1,0.1-2.2,0.3-3.2v-0.2 c0-0.8,0.1-1.6,0.3-2.3c0.1-0.9,0.1-1.8,0.2-2.7c0-1.4,0.2-2.8,0.5-4.2V237c0.3-1.2,0.4-2.4,0.3-3.7c0.3-3.3,0.4-6.7,0.3-10.1 c-0.1-0.8-0.4-1.5-0.7-2.2c-2.1,4.4-4.5,8.6-7.2,12.6c-2,2.2-4.1,4.4-6.3,6.5c-2.6,2.2-5.1,4.4-7.6,6.6c0.6-3.8,1.3-7.7,2-11.6 c0.6-4.6,1.1-9.2,1.5-13.8c0.1-3.9,0.1-7.7,0-11.6c-0.3-3.2-0.6-6.4-0.9-9.6c-0.1-1.1-0.3-2.2-0.5-3.2c-1.2-7.9-2.9-15.6-5.2-23.2 c-0.2-0.7-0.4-1.3-0.7-1.8c-0.6-1.9-1.4-3.7-2.4-5.4c-2.2-2.7-3.6-2.4-4.5,1c-0.2,0.3-0.3,0.7-0.3,1.2c-0.5,1.7-0.9,3.3-1.3,5 c-0.2,0.3-0.3,0.7-0.3,1.2c-0.1,0.2-0.2,0.3-0.2,0.5c-0.2,0.3-0.3,0.7-0.3,1.2c-0.1,0.2-0.2,0.3-0.2,0.5c-0.2,0.3-0.3,0.7-0.3,1.2 c-0.3,1-0.7,2-1,3c-0.2,0.4-0.4,0.9-0.5,1.3c-1.1,3.2-2.2,6.3-3.5,9.4c-6.1,13.4-13.1,26.2-21.2,38.5c-0.1,0.2-0.2,0.2-0.3,0 c-0.9-2.7-1.8-5.3-2.8-7.9c0-0.6-0.2-1.2-0.5-1.7c-0.3-1-0.7-1.9-1-2.9c0-0.4-0.1-0.8-0.3-1.2c-0.5-1.3-0.9-2.6-1.4-3.9 c-3.5-7.2-7.3-14.3-11.3-21.2c-1.3-2.1-2.8-4.2-4.3-6.2c-0.7-0.7-1.3-1.3-2.1-1.9c-0.6-0.2-1.1-0.1-1.5,0.3c-0.1,2-0.3,4-0.5,6.1 c-0.2,0.3-0.3,0.7-0.3,1.2c-0.3,0.9-0.5,1.9-0.8,2.9c-0.3,0.6-0.5,1.1-0.7,1.7c-2.2-4.3-4.8-8.3-7.8-12.1 c-7.7-9.5-16.7-17.4-27.1-23.5c0.5,0.7,0.8,1.5,1.1,2.3c3.2,2.4,6.5,4.7,9.7,7.1c9.6,7.6,17.3,16.9,23.1,27.6c1,1.1,1.8,1.1,2.6-0.2 c0-0.4,0.1-0.8,0.3-1.2c0.5-1.8,1.1-3.6,1.6-5.4c0.3-1.5,0.5-3,0.5-4.5c0.9,1,1.7,2,2.5,3c4.7,7.3,8.9,14.8,12.8,22.5 c1.1,2.3,2,4.8,2.9,7.2c1.3,4,2.6,7.9,4,11.9c0.9,1.7,2,1.9,3.3,0.4c4.4-6.9,8.6-13.9,12.6-21c6.5-11.7,11.6-24.1,15.2-37.1 c0.4-2.3,1.1-4.6,1.9-6.8c0.1-0.2,0.3-0.2,0.4-0.1c0.2,0.2,0.4,0.4,0.6,0.6c2.7,5.5,4.6,11.3,5.8,17.3c0.2,0.3,0.3,0.7,0.3,1.2 c1.1,5,2,10,2.7,15.1c0.2,0.8,0.3,1.6,0.3,2.5v0.8c0.2,0.8,0.3,1.6,0.3,2.5c0,0.5,0,0.9,0.2,1.3c0.1,4.1,0.2,8.2,0.2,12.3v1.3 c-0.2,1.8-0.3,3.6-0.5,5.4c-0.2,0.6-0.2,1.2-0.2,1.8c-0.2,0.7-0.4,1.5-0.3,2.3v0.2c-0.2,0.8-0.3,1.6-0.3,2.5 c-0.7,4.3-1.5,8.5-2.3,12.8c-0.3,2.3,0.5,2.8,2.4,1.4c4.6-3.5,9-7.4,13-11.7c2.1-2.4,4-5.1,5.5-7.9c0.1,2.6,0,5.2-0.3,7.7 c-0.3,1.8-0.4,3.7-0.5,5.5c0,0.9-0.1,1.9-0.2,2.9h-0.2c-0.1,0.8-0.1,1.7-0.2,2.5c-0.4,2-0.7,4-0.8,6.1c-0.2,0.4-0.2,0.9-0.2,1.3 c-0.4,1.5-0.6,3-0.8,4.5c-0.3,1.9-0.6,3.8-1,5.7c0.1,0.6-0.1,1.1-0.3,1.5c-0.4,2-0.9,4-1.3,6.1c0,0.7-0.2,1.3-0.5,1.8 c-0.3,0.8-0.4,1.6-0.5,2.4c-0.1,0.5-0.3,0.9-0.5,1.3c0,0.4-0.1,0.8-0.3,1.2c-2.8,8.7-6.2,17.1-10.2,25.4 c-4.9,9.8-10.7,18.9-17.5,27.4c-9.1,10.2-19.1,19.5-29.8,27.9c0.2,0.2,0.4,0.3,0.7,0.4c6.1,0.1,12.1,0,18.1-0.3 c20.8-1.3,40.9-5.6,60.4-13c0.1,0,0.2,0.1,0.3,0.1c-2.8,5-5.6,10-8.5,15c-20.8,33.9-46.5,63.9-76.9,90c-12.3,10.1-25,19.6-38,28.7 c-3.4,2.4-6.9,4.5-10.6,6.3l-0.2-0.2c3-5.1,5.9-10.2,8.7-15.5c2.7-5.5,5.3-11.1,7.8-16.8c-0.1-0.3-0.3-0.5-0.7-0.5 c-3.6,1.4-7.3,2.5-11.1,3.3c-5.2,11.2-10.7,22.2-16.6,33c-1.5,2.7-3.2,5.4-5.1,7.9c-0.8,0.6-1.7,1.1-2.5,1.6 c1.3-0.3,2.6-0.5,3.9-0.8c15.2-6.5,29.7-14.4,43.3-23.5c24.1-17,45.8-36.7,65.3-59.1c19.7-22.9,36.1-48,49.3-75.4 C591.6,341.7,588.2,342.8,584.9,344L584.9,344z M177.8,173.4c2.6-2.3,3.5-5.1,2.9-8.5c-0.1-1.4-0.9-2.1-2.3-2.2 c-3.4,2.1-4.8,5.2-4.3,9.2C174.9,173.7,176.1,174.1,177.8,173.4z M292.3,166.9c0.1-0.1,0.2-0.2,0.3-0.3c-0.2-0.5-0.2-1.1-0.2-1.7 C292.2,165.6,292.2,166.2,292.3,166.9z M274.2,174.5c-2.2-1.2-4.3-2.6-6.2-4.1c-0.4-0.2-0.8-0.3-1.2-0.3c0.1,0.8,0.4,1.4,1,1.9 c1.9,1.4,3.9,2.7,5.9,3.9C274.2,175.6,274.4,175.1,274.2,174.5z M155.4,176.6c-1.9,1.1-3.1,2.7-3.8,4.8c-0.6,2.5,0.3,4.3,2.4,5.5 c0.8,0.4,1.6,0.4,2.3,0c2.3-0.8,3.9-2.2,4.9-4.4c0.3-0.6,0.4-1.2,0.3-1.8c0-0.7-0.1-1.3-0.3-1.8c-0.2-0.7-0.5-1.3-1-1.8 C158.8,176.1,157.2,175.9,155.4,176.6L155.4,176.6z M198,184.7c0.6-0.7,0.9-1.5,0.8-2.4c0.2-1-0.2-1.6-1.2-1.8 c-0.7,0.7-1.1,1.6-1.2,2.7C196.4,184.2,196.9,184.7,198,184.7z M296.1,186.2c-1.8-1.1-3.7-2.1-5.5-2.9c0.1,0.4,0.2,0.9,0.3,1.3 C292.5,185.5,294.2,186,296.1,186.2z M169,188.3c0.7-1.2,0.8-2.3,0.2-3.5c-0.3-0.3-0.7-0.4-1.1-0.3c-1.2,1-1.5,2.3-0.8,3.7 C167.8,188.9,168.4,188.9,169,188.3z M551.3,185.3c0-0.4-0.1-0.8-0.3-1.2C551,184.5,551.1,184.9,551.3,185.3z M320.4,202.6 c0.2-0.2,0.3-0.4,0.3-0.8c0.1-0.5-0.1-0.9-0.5-1.1c-9.5-3.7-18.8-7.8-27.9-12.3c0.4,0.8,0.7,1.7,1,2.6 C302.2,195.3,311.2,199.2,320.4,202.6z M150.9,193.7c0-1.2-0.6-1.7-1.8-1.6c-0.6,0.3-1.1,0.8-1.6,1.3c-1,1.6-0.7,2.7,1,3.4 C149.9,196.3,150.7,195.3,150.9,193.7L150.9,193.7z M320.6,204.9c-9-3.7-18-7.6-26.9-11.7c-0.3-0.1-0.5-0.1-0.7,0.3 c8.8,5.1,18,9.4,27.6,12.8C320.8,205.8,320.8,205.4,320.6,204.9L320.6,204.9z M27.9,196.9c0.1,0.2,0.2,0.3,0.4,0.3 c0.5-0.1,0.9-0.3,1.3-0.7c0.2-0.1,0.3-0.2,0.4-0.3c0.3-0.7,0.3-1.4-0.1-2c-0.5-0.6-1.1-0.6-1.7-0.2c-0.4,0.1-0.7,0.3-0.8,0.7 c-0.5,0.7-0.4,1.3,0.2,1.8C27.6,196.7,27.7,196.9,27.9,196.9L27.9,196.9z M487,196c-0.2,0.3-0.3,0.7-0.3,1.2 C486.9,196.9,487,196.5,487,196z M48.9,202.2c0.4-0.4,0.6-0.8,0.8-1.3c0.2-0.7,0.1-1.4-0.3-2c-0.1-0.4-0.3-0.7-0.7-0.8 c-0.2-0.1-0.3-0.3-0.5-0.4c-1.2-0.3-2.1,0.1-2.7,1.1c-0.1,0-0.2,0.1-0.2,0.2c-0.7,0.9-0.7,1.8,0,2.7c0.1,0.3,0.3,0.5,0.5,0.8 C46.9,203.1,48,203.1,48.9,202.2L48.9,202.2z M381.9,222.6c0.5,0.1,1,0,1.5-0.2c-12-3.6-24-7.4-36-11.3c-8.5-3.1-17.1-6.3-25.5-9.5 v1.7c16.5,6.7,33.4,12.5,50.6,17.4C375.6,221.5,378.8,222.1,381.9,222.6L381.9,222.6z M201.6,207.2c1.4,0.1,2.3-0.5,2.7-1.9 c0.2-0.8,0.2-1.5,0.1-2.3c-0.1-0.2-0.1-0.3-0.3-0.3c-1.3-1.4-2.3-1.3-3.2,0.5c-0.3,1.1-0.4,2.1-0.2,3.2 C201.1,206.6,201.3,206.9,201.6,207.2z M554.3,202.9c0-0.9-0.1-1.7-0.3-2.5C554,201.3,554.1,202.1,554.3,202.9z M321.1,202.9 c-0.1,0.3-0.2,0.7-0.2,1.1c0,0.5,0.1,0.9,0.3,1.3c0.2,0.1,0.3,0.2,0.5,0.2c0-0.7,0.1-1.5,0.2-2.2C321.7,203.1,321.4,203,321.1,202.9 L321.1,202.9z M554.7,206.3c0-0.9-0.1-1.7-0.3-2.5C554.3,204.6,554.4,205.4,554.7,206.3z M330.9,210c0.2-0.1,0.2-0.3,0.2-0.5 c-0.6-0.1-1.3-0.2-1.8-0.5c-0.4-0.4-0.9-0.7-1.5-0.9c-2-0.9-3.9-1.7-5.9-2.6v1.3c2,0.8,4.1,1.6,6.2,2.2 C328.9,209.3,329.9,209.6,330.9,210L330.9,210z M393.2,236.6c0.9-0.7,1.8-0.8,2.9-0.5c0.8,0.3,1.5,0.8,2.2,1.3 c0.6,0.1,1.2,0.1,1.7,0c-1.1-0.6-2.1-1.3-3.2-1.9c-0.9-0.5-1.9-0.5-2.9-0.2c-0.7,0.3-1.5,0.6-2.2,1c0.3,0.2,0.7,0.3,1,0.4 c-0.8,0.7-1.7,0.9-2.7,0.8c-0.2-0.1-0.2-0.2,0-0.3c0.4-0.2,0.8-0.4,1.2-0.7c-9.2-1.5-18.2-3.6-27-6.4c-14.5-4.4-28.7-9.4-42.7-15 c-0.1-0.5-0.1-1-0.2-1.5c0.2-2.2,0.3-4.5,0.5-6.7c-0.3-0.2-0.5-0.3-0.8-0.3h-0.2c-0.1,1.2-0.1,2.5-0.2,3.7c-0.1,1.5-0.1,3,0,4.5 c0.1,0.1,0.2,0.1,0.3,0.2c0.1,0.6,0.2,1.1,0.3,1.7c19.3,8,39.2,14.4,59.6,19.2c2.8,0.6,5.6,1.2,8.4,1.7c-1.2,0.7-2.4,1.4-3.5,2.1 c-0.2,0.1-0.3,0.2-0.5,0.3c0.4,0,0.8,0.1,1.2,0.3c-0.1,0.1-0.1,0.1-0.2,0.2c-1.8,0.1-3.6,0.1-5.4-0.3c-0.2,0.1-0.2,0.3,0,0.4 c4.7,0.9,9.5,1.6,14.3,2c1.8,0.1,3.7,0.1,5.5,0c0.2-0.1,0.3-0.1,0.5-0.2c-0.4-0.2-0.9-0.3-1.3-0.5c-3.3-0.3-6.5-0.7-9.7-1.2 c-1.1-0.2-2.1-0.4-3.2-0.7c1.4-0.9,2.8-1.6,4.4-2.3c3.1,0.6,6.1,1,9.2,1.1c-0.4-0.3-0.9-0.7-1.3-0.9c-0.3-0.1-0.6-0.3-0.8-0.5 C396.6,237.2,394.9,236.9,393.2,236.6L393.2,236.6z M320.1,218v1c-0.1,1.3,0,2.6,0.2,3.9c0.1-0.4,0.2-0.9,0.2-1.3 c0.3-1.7,0.4-3.3,0.4-5c-0.1-0.1-0.3-0.2-0.4-0.2c-0.2,0.5-0.2,1.1-0.2,1.7H320.1z M320.1,219c-0.2,1.5-0.2,3-0.2,4.5h0.2 c0.1-0.2,0.1-0.4,0.2-0.7C320.1,221.6,320.1,220.4,320.1,219L320.1,219z M385.1,222.8c-0.6-0.2-1.1-0.3-1.7-0.4 c-0.5,0.2-1,0.2-1.5,0.2C383,222.7,384,222.8,385.1,222.8z M8.8,227.3c0.6,0.7,1.2,0.7,1.8,0c0.2-0.1,0.4-0.3,0.4-0.5 c0.1-0.4,0.2-0.8,0.3-1.2c0-0.4-0.2-0.8-0.5-1c-0.9-0.9-1.8-0.9-2.6,0.2C7.5,225.8,7.7,226.6,8.8,227.3L8.8,227.3z M25.7,235.3 c-0.9,2.6-0.9,5.3,0.1,7.9c0.2,0.6,0.5,1.1,0.9,1.5c0.8,1.3,1.9,2.2,3.4,2.5c1.3,0.5,2.5,0.4,3.7-0.2c1-0.5,1.7-1.3,2-2.3 c0.3-1.6,0.5-3.2,0.6-4.9c0.2-1,0.4-1.9,0.8-2.9c0.6-0.8,1-1.6,1.3-2.5c0.3-0.4,0.4-0.9,0.4-1.5c0.1-1.2,0.1-2.4-0.1-3.5 c-0.2-2-1.2-3.3-3-4c-1.1-0.6-2.2-0.6-3.4-0.2c-0.5,0-1,0.2-1.3,0.5c-1.2,0.5-2,1.4-2.3,2.7c-0.6,1.9-1.5,3.7-2.6,5.4 C25.9,234.3,25.8,234.8,25.7,235.3L25.7,235.3z M144.7,226.6c0.2,0,0.4,0,0.5,0.2c0.7-0.2,1.3-0.5,2-0.8 C146.3,226,145.5,226.2,144.7,226.6L144.7,226.6z M119.8,232c-0.1-0.1-0.2-0.2-0.2-0.3c-0.5,0.5-0.8,1.2-0.9,1.8 C119.1,233,119.5,232.5,119.8,232z M366.5,236.4c-0.6-0.1-1.1-0.1-1.7,0c1,0.5,2,0.9,3,1.2c3.7,0.9,7.4,1.8,11.1,2.5 c0.4,0.1,0.8,0.1,1.2-0.1c0-0.2,0.1-0.5,0.2-0.8c0.3-0.1,0.6,0,0.8,0.1c0.3,0,0.5,0,0.7-0.2C376.7,238.4,371.6,237.4,366.5,236.4 L366.5,236.4z M415.5,240c2.1,0.1,4.1,0.2,6.2,0.3c0.6,0,1.2-0.1,1.7-0.3c0.2-0.2,0.1-0.4-0.2-0.5c-2.5-0.2-4.9-0.4-7.4-0.5 c0-0.3,0.1-0.7,0.3-0.9c0-0.2-0.2-0.4-0.3-0.5c-0.9,0-1.9-0.2-2.8-0.4c-0.6,0.2-1.1,0.7-1.4,1.3c0.9,0.9,1.8,1.8,2.9,2.7 C415.2,241.1,415.6,240.8,415.5,240L415.5,240z M414.9,239.9v-0.5h0.8C415.6,239.8,415.3,239.9,414.9,239.9z M412.5,238.5 c0.1-0.2,0.2-0.3,0.3-0.4c0.7,0.2,1.4,0.2,2.2,0.3v0.5c-0.5,0.4-1,0.6-1.7,0.5C413,239.1,412.8,238.9,412.5,238.5L412.5,238.5z  M413.9,239.7c0.5-0.1,0.7,0.1,0.8,0.5C414.3,240.3,414.1,240.1,413.9,239.7z M381.8,239.2c-0.2,0.2-0.4,0.2-0.7,0.2 c1.3,0.2,2.7,0.3,4,0.5c0.2-0.1,0.3-0.2,0.5-0.3C384.3,239.5,383,239.4,381.8,239.2z M407.5,239.4c0.2,0.9,0.4,1.9,0.5,2.9 c-0.5,0.1-0.9,0.3-1.3,0.7c-1-1.7-2.4-2.9-4.3-3.6c-0.6-0.1-1.3-0.2-1.8-0.4c-0.1,0.4,0.1,0.7,0.3,0.9c1,0.2,1.9,0.5,2.9,1 c1,1,2,2,3,3.1c0.7-0.4,1.3-0.9,1.9-1.3c0-1,0-1.9-0.3-2.9c-0.2-0.1-0.2-0.3-0.2-0.5C408,239.1,407.7,239.2,407.5,239.4L407.5,239.4 z M574.2,238.7c-0.3,1.4-0.5,2.8-0.5,4.2C573.9,241.5,574.1,240.1,574.2,238.7z M173.9,256.9c-2.6,2.5-5.5,4.3-8.7,5.7 c-2.2,0.7-4.4,1.4-6.6,2.2c-4.8,2.8-9.6,5.6-14.5,8.2c-2.1,0.9-4.3,1.7-6.6,2.3c-2.1,0.6-4.2,0.9-6.4,0.9c-0.7,4-0.1,7.8,1.6,11.4 c1.2,2.8,2.9,5.2,5.3,7.1c3.5,2.2,7.2,3.6,11.3,4.3c1.3,0.3,2.7,0.4,4,0.2c5.4-0.7,10-3.1,13.7-7.1c3.1-4.3,6.9-7.8,11.5-10.3 c2.5-1.1,4.9-2.2,7.4-3.4c0.7-0.4,1.3-0.9,2-1.3c6.5-5,9.7-11.6,9.5-19.9c-0.8-2.9-2.1-5.6-3.9-8.1c-2.4-3.4-5.5-6-9.4-7.6 c-1.2,3.2-2.7,6.2-4.5,9.1C177.8,252.8,175.8,254.9,173.9,256.9L173.9,256.9z M571.6,241.4c-0.2,0.9-0.3,1.9-0.3,2.9h0.2 C571.5,243.3,571.6,242.3,571.6,241.4z M428.1,250.4c-0.2,0.4-0.6,0.8-0.9,1.1c-0.1,0.2-0.1,0.4,0.1,0.6c1.6,0.1,3.1,0.1,4.7,0 c1.1-1,2.2-2,3.4-3c0.6-0.3,1.3-0.6,1.8-1c0.2-0.3,0.2-0.7,0-1c-2.5,0-5-0.2-7.4-0.4c-0.1,0.4-0.3,0.7-0.7,0.9 c-0.9,0.5-1.8,1-2.8,1.4c-0.1,0.4-0.1,0.7,0.3,0.9L428.1,250.4L428.1,250.4z M429.3,248.3c0.5-0.2,0.8-0.6,1-1.1 c1.6,0.2,3.2,0.4,4.9,0.6c-1.2,1-2.4,2.1-3.4,3.4c-1.1,0.1-2.1,0.1-3.2-0.1c0.4-0.3,0.6-0.7,0.4-1.2c-0.6-0.2-1.2-0.5-1.8-0.8 C428,248.9,428.7,248.6,429.3,248.3L429.3,248.3z M573.4,247.8c0.1-0.7,0.1-1.4,0.1-2.2c-0.2,0.7-0.3,1.5-0.3,2.3 C573.3,247.9,573.3,247.8,573.4,247.8L573.4,247.8z M45.4,244.1c-0.2-0.5-0.4-0.9-0.8-1.3c-1.6-0.9-2.7-0.5-3.4,1.3 c-0.3,0.7-0.5,1.4-0.5,2.2c0.2,2.1,0.5,4.2,1,6.2c0,0.6,0.1,1.2,0.4,1.7c0.7,1.1,1.5,1.1,2.3,0.2c0.6-0.8,1-1.7,1.1-2.7 c0.1-0.1,0.2-0.3,0.3-0.5c0.3-2.1,0.3-4.1,0-6.2C45.7,244.6,45.5,244.3,45.4,244.1L45.4,244.1z M408.8,248.8 c-0.1,0.2-0.2,0.3-0.3,0.4c-1.7,0.6-3.4,1.4-5,2.2c-0.5,0.1-1,0.1-1.5,0c-0.2,0.2-0.2,0.3,0,0.4c0.5,0.3,1,0.6,1.5,0.9 c0.6,0.1,1.2,0.1,1.8-0.2c3.5-0.1,7-0.1,10.4-0.2c0.9,0.7,1.9,0.9,3,0.7c1.2-0.1,2.2-0.5,3-1.3c1.2-0.6,2.3-1.2,3.5-1.7 c-0.1-0.2-0.2-0.3-0.3-0.3c-2.6-0.1-5.3-0.1-7.9-0.2C414.3,249.2,411.6,249,408.8,248.8z M416.9,252.4c-0.3-0.2-0.6-0.4-0.8-0.7 c-3.5-0.1-7-0.1-10.4,0c-0.7,0.4-1.4,0.6-2.2,0.3c1.8-0.7,3.6-1.4,5.4-2.1c4.3,0.3,8.6,0.6,12.9,0.9 C420.4,252.1,418.8,252.6,416.9,252.4L416.9,252.4z M573.2,248.1c-0.3,1-0.4,2.1-0.3,3.2C573.1,250.3,573.2,249.2,573.2,248.1z  M572.5,253.3c-0.2,0.6-0.3,1.2-0.3,1.8C572.4,254.6,572.5,254,572.5,253.3z M421.5,255.8c-0.8-0.2-1.7-0.2-2.6-0.2 c-1.2,1-2.6,1.6-4.2,1.8c0,0.2,0,0.4,0.2,0.6c2.3,0.1,4.4-0.4,6.4-1.5C421.5,256.4,421.6,256.1,421.5,255.8z M417.6,257.2 c0.5-0.3,1-0.6,1.5-0.9c0.4,0,0.9,0,1.3,0.1C419.5,256.9,418.6,257.2,417.6,257.2L417.6,257.2z M417.6,257.3c1-0.1,2-0.3,2.9-0.8 c-0.4-0.1-0.9-0.1-1.3-0.1C418.6,256.6,418.1,256.9,417.6,257.3L417.6,257.3z M446.6,257.7c-0.1,0.1-0.2,0.2-0.3,0.3 c0.2,0.2,0.4,0.5,0.6,0.7C447.6,257.9,447.6,257.6,446.6,257.7L446.6,257.7z M571.5,259.7c-0.2,0.4-0.3,0.8-0.3,1.3 C571.4,260.6,571.5,260.2,571.5,259.7z M396.9,261.9c0-1.2-0.1-2.3-0.3-3.4C396.6,259.7,396.7,260.8,396.9,261.9z M5.7,275 c0.1,0.8,0.3,1.6,0.7,2.3c0.1,0.8,0.4,1.5,0.8,2.2c0.3,0.7,0.6,1.4,0.9,2c1.4,2.5,3.3,4.4,5.8,5.9c0,0.1,0.1,0.2,0.2,0.3 c1.4,0.5,2.9,0.7,4.4,0.5c0.3-0.1,0.5-0.2,0.7-0.4v-0.2c0.2-0.2,0.4-0.6,0.3-0.9c-0.1-0.7-0.3-1.4-0.5-2.1c-0.3-2.6-0.6-5.2-0.8-7.7 v-0.2c0-2.1-0.1-4.1-0.3-6.2c-0.1-0.8-0.3-1.6-0.6-2.3c-0.6-2.5-1.9-4.5-4-5.9c-1.3-0.8-2.7-0.9-4-0.2c-1.5,0.9-2.5,2.2-3,3.9 c-0.4,0.8-0.6,1.7-0.7,2.7c-0.1,0.8-0.2,1.7-0.2,2.6c0,1.2,0.1,2.4,0.3,3.6V275z M190.2,279.3c-3.1,1.3-6.2,2.7-9.2,4.2 c-2.4,1.3-4.6,3-6.5,5c-1.5,2.2-3.1,4.4-4.7,6.6c-6,6.4-13.4,9-22.1,7.7c0.1,4.3,1.4,8.2,4,11.8c4,4.6,9,7.2,15.1,7.7 c5.5-0.3,10.8-1.5,15.9-3.6c2.4-1,4.4-2.4,6.1-4.3c2.8-3.8,5.6-7.6,8.2-11.4c2.4-2.5,5-4.8,7.8-6.8c3.3-3.2,5.8-7,7.6-11.2 c1.4-3.9,0.9-7.5-1.3-10.9c-1.2-1.8-2.5-3.6-3.9-5.4c-2.1-2.5-4.7-4-7.8-4.5C198.4,270.4,195.3,275.5,190.2,279.3L190.2,279.3z  M567.9,265.9c0.3-0.4,0.4-0.9,0.3-1.5C568.1,264.9,568,265.4,567.9,265.9z M566.1,273.8c0.3-0.6,0.5-1.2,0.5-1.8 C566.3,272.5,566.1,273.1,566.1,273.8z M422.4,275.5c-0.6,0-1.2,0-1.8,0.1c-0.6,0.8-1.3,1.5-2.2,2c-0.6,0.4-1.2,0.5-1.8,0.3 c-0.4-0.3-0.9-0.4-1.5-0.3c-2.2-0.7-4.1-1.7-5.8-3.2c-0.4-1.4-1-2.8-1.5-4.2c-0.2-0.6-0.3-1.2-0.3-1.8c-0.1-0.1-0.3-0.3-0.4-0.4 c-2.9,0.6-5.8,1.1-8.7,1.6c0-2.8-0.1-5.6-0.3-8.4c-0.1-1.4-0.3-2.8-0.6-4.1c-0.3-0.1-0.7-0.1-1,0c-1.9,1.5-3.9,2.5-6.2,3.2 c-1.3,0.5-2.4,1.2-3.5,2.1c-0.6,1.8-1.4,3.5-2.4,5.1c-0.6,0.1-1.2,0.1-1.8,0c-2,0-3.6-0.8-4.6-2.4c-0.5-1.9-0.7-3.8-0.4-5.7 c-0.1-0.3-0.3-0.5-0.5-0.6c-1,0.1-1.9-0.2-2.6-0.9c-0.4-0.8-0.6-1.6-0.7-2.5c-0.2-2.2-0.1-4.4,0.2-6.6c1.2-0.9,2.6-1.3,4.1-1.3 c0.6-2.4,1.4-4.6,2.5-6.8c-0.2-0.2-0.4-0.2-0.7-0.1c-1.2,1.9-2,4-2.3,6.1c-0.9-0.1-1.8,0.1-2.5,0.5c-1.1,0.2-1.8,0.8-2.1,1.8 c-0.1,2-0.1,4,0,6.1c0.1,0.6,0.2,1.2,0.3,1.8c0.4,1.7,1.5,2.6,3.3,2.5c0,1.1,0,2.2,0.1,3.4c0,2.2,0.9,3.8,2.8,4.8 c1.4,0.4,2.8,0.7,4.3,0.9c0.8,0,1.4-0.3,1.8-0.8c0.9-1.6,1.7-3.2,2.4-4.8c3-1.5,5.9-3.2,8.7-5c0.1,0.2,0.1,0.4,0.1,0.7 c0.3,1.1,0.4,2.2,0.3,3.4c0.1,2.7,0.2,5.4,0.3,8.1c0.1,0.2,0.2,0.4,0.4,0.6c0.5,0.1,1,0.1,1.5,0c2.4-0.5,4.8-0.9,7.2-1.4 c0.5,2,1.2,3.8,1.9,5.7c2.7,2.6,5.9,3.9,9.7,3.8c1.2-0.5,2.2-1.3,3-2.3c1.5,0,3.1-0.2,4.5-0.5c0.2-0.2,0.2-0.3,0-0.4 c-0.1-0.1-0.3-0.2-0.5-0.2C424.1,275.3,423.3,275.4,422.4,275.5L422.4,275.5z M481.9,278.3c7.9,2.8,13.9,7.8,17.9,15.2 c1.3,2.4,2.2,5,2.4,7.7c0.1,1.3,0.2,2.6,0.3,3.9c0.5-1,0.9-2.2,1-3.4c0.3-1,0.4-2,0.3-3.1c0-1.1-0.1-2.1-0.3-3.1 c-0.2-1.3-0.6-2.5-1.1-3.7c-0.6-1.1-1.3-2.2-2-3.2c-6.1-6.3-13.4-10.7-21.9-12.9c-0.6,0.2-1.1,0.5-1.5,1 C478.6,277.3,480.2,277.9,481.9,278.3L481.9,278.3z M396.1,276c-1.5,0-2.9,0.1-4.4,0.2C393.1,276.3,394.6,276.3,396.1,276z  M565.1,277.5c0.2-0.4,0.4-0.9,0.5-1.3C565.2,276.5,565.1,277,565.1,277.5z M564.8,278.7c0.2-0.3,0.3-0.7,0.3-1.2 C564.8,277.8,564.7,278.2,564.8,278.7z M566.1,281.7c-0.3,0.5-0.4,1-0.5,1.5C565.9,282.8,566.1,282.3,566.1,281.7z M567.9,301.7 c0.6-0.9,0.8-1.8,0.7-2.7c-0.2,0.6-0.4,1.1-0.8,1.7C567.7,301,567.8,301.4,567.9,301.7z M558.5,300.7c-0.3,0.3-0.5,0.6-0.5,1 C558.3,301.4,558.5,301.1,558.5,300.7z M422.7,314c0.1-0.1,0.2-0.1,0.3-0.2c-1.5-2.4-2.7-4.8-3.7-7.4c0-0.3-0.1-0.6-0.3-0.8 c-0.1,0.4-0.1,0.8,0.1,1.2c0.3,2.2,0.9,4.4,1.7,6.6C421.4,313.5,422,313.8,422.7,314L422.7,314z M461.9,335.2 c-13.6-10.1-28.9-15.7-45.9-16.8c-13.8-0.7-26.4,2.8-37.8,10.4c-15.1,11.4-22.6,26.6-22.8,45.6c5.6,4,11,8.3,16.2,12.8 c12.6,14.6,22,31.3,28,49.8c3.5,1.9,7.2,3.4,11,4.7c0.8,0.4,1.7,0.7,2.7,0.8c5.1,1.7,10.4,2.6,15.8,2.8c13.7-7.8,27-16.2,40-25 c3.3-2.4,6.6-4.9,9.7-7.5c0.2,1.5,0.2,3.1,0.2,4.7c0,0.7,0,1.5-0.1,2.2c-0.1,0.1-0.2,0.2-0.3,0.3c0,0.9-0.1,1.7-0.3,2.5v0.2 c-0.2,0.9-0.4,1.9-0.5,2.9c-0.7,3.3-1.3,6.6-1.9,9.9c3.4-2.6,6.3-5.7,8.9-9.1c5.6-7.3,9.3-15.5,11-24.5c0.2-0.7,0.3-1.4,0.3-2.2 c0.8-5.9,0.4-11.7-1.3-17.5c-3.9-13.5-10.6-25.4-20.1-35.6c-2.1-2-4.1-4-6.2-6.1C466.4,338.8,464.2,337,461.9,335.2L461.9,335.2z  M401.8,350.1c0.2-0.3,0.6-0.6,0.9-0.7c0.6-0.2,1.1-0.4,1.7-0.7c0.4-0.9,1.1-1.4,2-1.8c2.5-0.3,5,0,7.4,0.8c3.7,1.4,7.3,3,10.7,4.9 c3.7,2.3,7.3,4.6,10.9,6.9c2,1.5,3.8,3.1,5.5,5c0.9,1.7,0.7,3.2-0.6,4.5c0,0.5,0.1,0.8,0.4,1.2c0.3,1.2-0.1,2.1-1.1,2.8 c-2,0.7-4.1,1-6.2,0.7c-11.8-2.3-21.6-8-29.5-17.1c-0.9-1.3-1.7-2.7-2.2-4.2C401.7,351.6,401.7,350.9,401.8,350.1L401.8,350.1z  M439.6,348.7c1.4-1.5,2.7-3,4.1-4.4c0.2-0.1,0.4-0.1,0.7,0c2.4,2.1,4.8,4.1,7.2,6.2c4.6,4.3,8.5,9.2,11.4,14.7 c1.2,1.9,2.3,3.9,3.2,6.1c0.6,0.9,1,1.8,1.3,2.9c0,0.1-0.1,0.2-0.2,0.2c-0.4-1-0.8-1.9-1.3-2.9c-1-1.9-2-3.7-3-5.5 c-3.7-6.1-8.3-11.5-13.8-16.2c-1.2-0.8-2.3-1.6-3.4-2.4c-1.2,0.7-2.5,1.3-3.8,1.8c-0.7,0.1-1.4,0.2-2.2,0.2h-0.2 C439.6,349.1,439.6,348.9,439.6,348.7L439.6,348.7z M442.6,420c-0.2,0-0.4,0-0.5,0.2c-1.6,0.1-3.1,0.3-4.5,0.7h-0.3 c-0.9,0-1.7,0.1-2.5,0.3c-6.1,0.5-12.2,0-18.1-1.5c-0.4,0-0.8-0.1-1.2-0.3c-1.7-0.3-3.4-0.7-5-1.2v-0.8c-0.1-1.2,0.1-2.3,0.3-3.4 c0.2-1.8,0.5-3.6,1-5.3c0.1-0.2,0.2-0.3,0.3-0.3c1.1,0.6,1.8,1.6,2.1,2.9c0.5,2,0.7,4,0.6,6.1c3.7,0.6,7.3,1.2,10.9,1.9 c9.2,0.6,18.1-0.8,26.5-4.2c4.1-1.8,7.7-4.3,10.8-7.5c0.8-0.9,1.6-1.9,2.3-2.9c-0.6,1.1-1.3,2.1-2,3c-4.8,6.6-11.2,10.6-19.3,11.9 C443.4,419.6,443,419.8,442.6,420L442.6,420z M410,407.7c0.2-0.9,0.7-1.6,1.4-2c0.2,0,0.4,0.1,0.5,0.2c0.1,0.7,0,1.3-0.1,2 c-0.3,0.1-0.5,0.2-0.8,0.2C410.6,407.9,410.3,407.8,410,407.7L410,407.7z M470.3,384.5c-0.1-0.3,0-0.6,0.2-0.8 c0.8,7.5-0.8,14.3-4.9,20.5c1.7-3.5,3-7.2,4.1-10.9C470.2,390.4,470.4,387.5,470.3,384.5L470.3,384.5z M399.2,389.2 c-2.5-2-4.9-4.2-7.1-6.6c-1.7-1.7-2.9-3.8-3.5-6.2c-0.3-1.8,0.4-2.7,2.3-2.7c-0.2,0.5-0.4,1.1-0.6,1.7c-0.2,0.1-0.4,0.2-0.7,0.3 c-0.1,0.4-0.1,0.8,0,1.2c2,3.5,4.5,6.6,7.6,9.2c6.6,5.4,14.1,9.1,22.5,10.9c1.9,0.4,3.8,0.3,5.7-0.2c0.3-0.2,0.6-0.4,0.9-0.6 c0.1-0.4,0.1-0.8,0-1.2c-0.1-0.2-0.3-0.4-0.6-0.3c-0.3,0.2-0.7,0.3-1,0.4c-1.1,0.1-2.2,0.1-3.4,0c-1.3-0.3-2.7-0.6-4-0.8 c-4.3-1.5-8.5-3.5-12.4-5.7c-4.6-2.8-8.7-6.2-12.3-10.2c-0.8-0.9-1.3-1.9-1.6-3c1.6,0.1,3.2,0.4,4.7,0.8c5.3,2.1,10.5,4.5,15.6,7.1 c4.3,2.4,8.4,5.3,12.1,8.6c0.9,0.8,1.7,1.7,2.3,2.6c0.2,0,0.4,0,0.6-0.2c0.3-0.3,0.4-0.6,0.3-1c-5.6-5.7-12.1-10.3-19.4-13.7 c-3.1-1.4-6.2-2.8-9.2-4.2c-2.3-0.8-4.6-1.4-6.9-1.8c0.4-0.4,0.7-0.8,1-1.3c1.8-0.7,3.6-0.8,5.5-0.3c4.7,1.4,9.2,3.2,13.4,5.5 c4.8,2.8,9.4,5.8,13.8,9.1c1.3,1.1,2.4,2.4,3.3,3.8c0.1,0.7,0.1,1.3,0,2c-0.3,0.6-0.6,1.2-0.9,1.7c0.9,2,0.3,3.4-1.8,4 c-1.3,0.2-2.6,0.2-3.9,0.2c-3.5-0.3-6.8-1.1-10.1-2.4C407.2,393.9,403.1,391.7,399.2,389.2L399.2,389.2z M434.5,423.5 c-0.5,0-1,0.1-1.5,0.2c-0.5-0.1-0.9,0-1.3,0.2c-1.8,0.1-3.5,0-5.2-0.2c-2.4-0.3-4.8-0.7-7.2-1.1c-1.6-0.3-3.1-0.7-4.5-1.3 c-0.1,0.5-0.2,0.9-0.3,1.3c-0.1,1.8-0.7,3.5-1.6,5c-1,1.1-2.1,1.3-3.5,0.6c-1-1.1-1.7-2.4-2.2-3.8c0-0.4-0.1-0.8-0.3-1.2v-0.2 c0-0.5-0.1-0.9-0.3-1.3c-0.3-3.2-0.2-6.4,0.4-9.6c0.3-1,0.6-2,1.2-2.9c0.3-0.5,0.7-0.9,1.3-1.2c0.3,0.1,0.4,0.2,0.3,0.5 c-1.4,5-1.7,10-0.9,15.1c0.2,0.5,0.4,1,0.7,1.5c0.2,0.3,0.4,0.4,0.8,0.3c0.1-2,0.2-3.9,0.3-5.9c1.2,0.6,2.5,1,3.9,1.3 c4.2,1.1,8.5,1.8,12.8,2.2h1.5c4,0.1,8-0.1,11.9-0.8c0.3,0,0.5,0,0.7,0.2C439,423.1,436.7,423.3,434.5,423.5L434.5,423.5z  M463.2,413.3c-2.6,2.1-5.5,3.9-8.6,5.3c-0.1,0-0.2-0.1-0.2-0.2c4.1-2.2,7.6-5.2,10.3-9.1c1.7-2.8,3.3-5.6,4.7-8.6 c3.2-7,3.9-14.3,2.2-21.8c-4.6-15-13.4-27-26.2-36c-0.1-0.1-0.1-0.3,0.1-0.3c1.4-1,2.7-2.1,3.9-3.4c0.3-0.3,0.3-0.6,0.1-0.9 c-0.7,0-1.4,0.1-2,0.3c-3.5,2.3-6.6,5.1-9.2,8.3c-0.1,0.2-0.2,0.4-0.2,0.7c0.3,0.6,0.7,1.1,1,1.7c-1,1.3-2,2.6-3,4 c-0.3,0.1-0.6,0.1-0.9-0.1c-0.1-0.4-0.1-0.9,0-1.3c0.7-1.5,1.6-2.9,2.6-4.2c0.1-0.8,0.1-1.6,0.2-2.3c0.2-1.1,0.6-2.1,1.3-3 c1.7-2.2,3.6-4,5.8-5.6c1.2-0.6,2.4-1.1,3.7-1.4c0.8,0,1.7,0,2.5,0.2c1.7,0.6,2.3,1.7,1.9,3.5c-1.2,2.1-2.7,4.1-4.5,5.8 c6.6,4.9,12.2,10.7,16.9,17.4c3.5,5.8,6.1,12,7.9,18.5C476.9,393.7,473.5,404.6,463.2,413.3L463.2,413.3z M499.9,342.9 c7.6-2.9,14.1-7.4,19.4-13.5c2.9-3.5,4.9-7.5,6.1-11.9c-1.1,2-2.3,3.9-3.7,5.7c-4.2,4.7-9.1,8.5-14.7,11.3c-0.7,0.2-1.3,0.5-1.8,0.8 c-2.2,0.8-4.4,1.6-6.6,2.4c-2.4,0.7-4.8,1.3-7.2,1.8c-1.5,0.1-2.9,0.2-4.4,0.5c-0.7-0.1-1.5,0-2.2,0.2c-4.1,0.3-8.2,0.1-12.3-0.5 c-1.7-0.2-3.4-0.4-5-0.6c0.4,0.5,0.9,0.9,1.3,1.3c2.1,2.1,4.3,4.2,6.4,6.2C483.6,347.1,491.9,345.9,499.9,342.9L499.9,342.9z  M473.3,325.2c0.1,0.3,0.1,0.7,0.2,1c6.2-0.4,11.9-2.3,17.1-5.5c0.9-0.6,1.7-1.1,2.5-1.8c-1,0.3-1.9,0.8-2.9,1.4 C485,323.2,479.4,324.8,473.3,325.2L473.3,325.2z M490,338.1c0.2,0,0.4-0.1,0.5-0.3c-1.3,0.1-2.6,0.2-3.9,0.5 C487.7,338.3,488.9,338.2,490,338.1L490,338.1z M485.4,338.6c0.4,0,0.7-0.1,1-0.3c-3,0.1-6,0.2-9.1,0.2 C480,338.7,482.7,338.7,485.4,338.6z M484.8,340.2c-4.1,0-8.2-0.1-12.3-0.5C476.6,340.3,480.7,340.5,484.8,340.2z M475.2,346.6 c-2.1-2.1-4.3-4.1-6.4-6.2c0,0.2,0,0.3-0.2,0.3c2.1,2,4.1,4,6.2,6.1C474.9,346.6,475,346.5,475.2,346.6z M409.2,360.4 c7.2,6.3,15.5,10.3,24.9,12.1c1.6,0.2,3.2,0.1,4.7-0.3c0.8-0.4,1-1,0.7-1.8c0.3-0.4,0.5-0.9,0.7-1.3c-1.6-2-3.4-3.7-5.4-5.3 c-2.4-1.9-5-3.7-7.6-5.4c-6.2-3.4-12.5-6.3-19.2-8.7c-0.8-0.2-1.7-0.3-2.5-0.4h-1.2c-0.1,0.5-0.3,1-0.3,1.5c-0.3-0.1-0.6,0-0.8,0.2 c-0.7,0.3-0.8,0.7-0.4,1.3C404.4,355.3,406.6,358,409.2,360.4L409.2,360.4z M404.9,350.8c0.2,0,0.4,0.1,0.6,0.2 c1.1,0.1,2.2,0.3,3.2,0.6c4,1.5,7.9,3.2,11.8,5c6.2,2.9,11.8,6.7,16.8,11.3c0.7,0.6,1.3,1.3,1.8,2.1c-0.5,0.1-0.9,0.2-1.3,0.3 c-1.2,0-2.4,0-3.5-0.1c-9.7-2.4-18.3-7-25.7-13.8c-1.7-1.5-3-3.3-4-5.3h-0.2C404.4,350.9,404.6,350.8,404.9,350.8z M179.4,424.9 c-0.2-0.9-0.5-1.7-0.9-2.5c-0.4-0.4-0.6-0.8-0.8-1.3c0.3,0.5,0.7,0.9,1.1,1.3c0.4,0.6,0.8,1.1,1.2,1.7c0.2-0.1,0.3-0.2,0.3-0.4 c-0.6-1-1.2-1.9-1.9-2.8c-2.2-2.4-4.5-4.8-7-7c-3.9-3-8.3-5.1-13.1-6.4c-17.4-3.1-32.2,1.8-44.3,14.7c-4.9,5.6-8,12.1-9.1,19.5 c-2.7-2-5.3-4-7.8-6.1h-0.7c-6.2-5.4-11.8-11.4-16.9-17.9c-0.6-2.1-1-4.3-1.3-6.6c-0.1-1-0.3-2.1-0.5-3c-0.4-2.4-0.7-4.8-0.8-7.2 c-0.1-1.3-0.2-2.6-0.3-3.9c-0.3-3.2-0.4-6.5-0.3-9.7c-0.1-5,0-10,0.3-15c3,6,6,12,9.2,18c0.6,0.7,1.1,1.5,1.6,2.3 c1.3,0.6,2.1,0.2,2.3-1.2c-1.5-8.3-1.7-16.6-0.7-25c-0.1-1.5,0-2.9,0.2-4.4c0.2,0.1,0.2,0.3,0.2,0.5c0.4,1.5,0.8,3,1.2,4.5 c0.2,0.4,0.4,0.9,0.5,1.3c0.7,2.4,1.8,4.5,3.4,6.4c0,0.2,0,0.3,0.2,0.3c0.2-0.8,0.2-1.6,0-2.4c-0.3-1.7-0.6-3.5-1-5.2 c0-0.4-0.1-0.8-0.3-1.2c-0.3-1.6-0.7-3.3-1.2-4.9c0-0.4-0.1-0.8-0.3-1.2c-0.2-0.8-0.3-1.7-0.4-2.5c-0.5-0.6-1.2-0.8-1.9-0.6 c-1.9,1.8-3.8,3.5-5.6,5.3c-0.1,1.1,0.3,1.5,1.4,1.1c1-0.9,2-1.7,2.9-2.6c0,0.3-0.1,0.6-0.3,0.8c-0.2,0.3-0.3,0.7-0.3,1.2 c-0.4,1.5-0.8,3-1.1,4.5c-0.1,0.5-0.1,1-0.1,1.5c-0.1,1.8-0.3,3.6-0.5,5.4v5.7c0.2,1.5,0.3,3.1,0.3,4.7c0,0.3,0,0.6-0.1,0.8 c-3.2-6.4-6.5-12.8-9.7-19.2c-0.9-0.7-1.7-0.7-2.5,0.2c-0.1,8.7-0.1,17.5,0,26.2c0.3,5.2,0.8,10.3,1.4,15.5c0.2,0.6,0.3,1.3,0.3,2 c0.2,0.9,0.3,1.8,0.3,2.7c-5.9-7.5-11.4-15.2-16.6-23.2c-0.5-0.7-1.1-1.3-1.8-1.9c-0.4-0.3-0.8-0.4-1.3-0.4c-1.1,0-1.6,0.6-1.5,1.7 c0.1,0.6,0.1,1.2,0.2,1.8c0.2,0.3,0.3,0.7,0.3,1.2v0.2c0.2,0.3,0.3,0.7,0.3,1.2c0.2,0.5,0.3,1,0.3,1.5c0.2,1,0.5,1.9,0.8,2.9 c0.2,0.2,0.2,0.4,0.2,0.7c0.2,0.3,0.3,0.7,0.3,1.2c0.3,1.1,0.6,2.1,1,3.2c0.2,0.4,0.4,0.9,0.5,1.3c0.7,1.7,1.3,3.4,1.8,5.2 C64.8,420,70,430,76.2,439.4c1.9,2.6,3.8,5.2,5.7,7.7c1.6,2.1,3.4,4.1,5.5,5.8c2.3,0.8,3.2,0,2.4-2.4c-1.6-4.1-3.1-8.2-4.6-12.3 c-0.1-0.5-0.3-0.9-0.5-1.3c-0.4-1.2-0.8-2.4-1.2-3.5c0-0.4-0.1-0.8-0.3-1.2c-0.7-2.7-1.4-5.3-2.2-8c0.1-0.1,0.1-0.2,0.2-0.3 c3.7,4,7.6,7.9,11.6,11.7c3.9,3,7.8,6,11.8,9c0.2,5.8,1.8,11.2,4.8,16.1c0.6,2.3,1.5,4.3,2.9,6.2c4.3,5.6,9.8,9.5,16.6,11.6 c0.3,0.2,0.7,0.3,1.2,0.3c1,0.4,2.1,0.6,3.2,0.7c0.8,0,1.6,0.1,2.3,0.3c2.6,0.2,5.2,0.2,7.7,0c0.7-0.2,1.5-0.3,2.3-0.3 c0.6-0.2,1.3-0.3,2-0.3c2.6-0.4,5-1.1,7.4-2c0-0.3,0-0.7,0.2-1c-0.1-0.1-0.2-0.2-0.3-0.2c-2.2,0.8-4.4,1.4-6.7,1.8 c-0.4,0-0.8,0.1-1.2,0.3h-0.7c-0.8,0-1.5,0.1-2.2,0.3h-0.2c-2.3,0.1-4.6,0.2-6.9,0.2c-1.4-0.1-2.8-0.2-4.2-0.3 c-0.3-0.2-0.7-0.3-1.2-0.3c-5-1.1-9.5-3.2-13.6-6.3c-3.2-2.5-5.7-5.7-7.3-9.3c3.1,3.8,6.9,6.7,11.3,8.7c9.6,3.8,19.4,4.1,29.2,0.8 c-8.7-3.7-17-8.1-25-12.9c-1.2-0.7-2.4-1.2-3.7-1.7c-1.2-0.7-2.2-1.6-3.2-2.5c-4.8-3.1-9.5-6.3-14-9.7c-0.1-1.1-0.1-2.1,0.1-3.2 c3.5,2.6,7.1,5.1,10.7,7.6c-0.9-3.7-1-7.5-0.3-11.3c0-0.4,0.1-0.8,0.3-1.2c1.4-6,4.2-11.3,8.4-15.8c0.1,0,0.2-0.1,0.2-0.2 c-1-0.2-2-0.2-3-0.2c-1.3-0.6-1.5-1.4-0.5-2.4c1.3-0.3,2.7-0.3,4-0.1c0.7,0.3,1.5,0.5,2.3,0.5c0.4,0.2,0.8,0.3,1.2,0.4 c1,0.9,0.9,1.7-0.3,2.3c-0.7,0.1-1.4,0-2-0.2c-4.2,4-7,8.8-8.6,14.4c-0.2,0.3-0.3,0.7-0.3,1.2c-1.4,6.5,0.3,12,5,16.6 c1.6,1.1,3.2,2.1,4.9,3c0.8,0.5,1.6,0.8,2.5,0.9c0.3,0.3,0.6,0.4,1,0.3c0.2,0.1,0.3,0.2,0.5,0.2c0.7,0.3,1.5,0.4,2.3,0.3 c0.6,0,1.1-0.1,1.6-0.2h1.3c0.8-0.2,1.7-0.3,2.5-0.3c4.6-0.9,9-2.3,13.1-4.4c2.3-1.4,4.4-3.1,6.1-5.1c0.1-0.3,0.1-0.7,0-1 c-0.4-0.8-0.8-1.6-1.1-2.4c-0.1-0.4,0.1-0.8,0.5-1c1.1-0.1,2,0.4,2.6,1.3c0.9,1.7,1.7,3.5,2.4,5.4c1-1.8,2-3.5,3-5.2 c1.1-2.2,2.3-4.4,3.5-6.6C172.3,433.9,175.7,429.2,179.4,424.9L179.4,424.9z M86,447.4c0.1,0.2,0.1,0.4,0,0.7 c-11-13.7-19.4-28.9-25.1-45.5c0-0.4-0.1-0.8-0.3-1.2c-0.7-2.5-1.4-5-2.2-7.5c0-0.3,0.1-0.3,0.3-0.1c5.6,8.8,11.8,17.2,18.5,25.2 c0.4,1.2,0.8,2.4,0.9,3.7c0.2,0.3,0.3,0.7,0.3,1.2c0.6,2.2,1.1,4.4,1.7,6.6c0.2,0.8,0.4,1.5,0.7,2.2C82.2,437.6,83.9,442.5,86,447.4 L86,447.4z M132.8,424.7c3.6-4.2,8.1-7,13.5-8.3c1.5-0.4,2.7,0,3.7,1.1c-6.1,0.8-11.3,3.4-15.7,7.7c-0.4,0.6-0.7,1.2-0.9,1.8 c-0.1,0.5-0.1,1-0.2,1.5c0,0.3-0.2,0.4-0.3,0.2c-0.6-0.4-0.8-1-0.8-1.8C132.1,426.1,132.3,425.4,132.8,424.7L132.8,424.7z  M138.6,430.2c-1.1,0.3-2.2,0.4-3.4,0.3c-0.7-0.1-1.3-0.5-1.7-1.2c0.2-1.3,0.6-2.4,1.3-3.5c1.6-1.9,3.4-3.5,5.6-4.6 c3.1-1.8,6.4-2.8,9.9-3.1c0.6,0.8,0.8,1.7,0.6,2.7c-1.5,2.7-3.5,4.9-6.1,6.5C142.9,428.6,140.8,429.5,138.6,430.2z M147.5,436.5 c0.9-2.1,2.2-3.9,3.9-5.5c2.3-2,4.9-3.6,7.7-4.7c0.7-0.2,1.3-0.4,2-0.6c0.8,0,1.6,0,2.3,0.2c0.5,0.2,1,0.4,1.5,0.6 c0.1,0.1,0.3,0.3,0.3,0.4c-0.7,0.1-1.4,0.2-2.2,0.3c-0.7,0.1-1.3,0.3-1.8,0.6c-5,1.2-9,3.8-12,8.1c-0.8,1.3-1.3,2.7-1.5,4.2 C147.1,438.9,147,437.7,147.5,436.5z M167.1,429.9c-0.6,1.5-1.5,2.9-2.5,4.2c-2.5,2.8-5.4,5.2-8.7,7c-0.8,0.3-1.7,0.6-2.5,0.9 c-1.1,0.1-2.2,0.2-3.4,0.2c-0.2-0.1-0.4-0.3-0.5-0.5c-0.3-0.4-0.6-0.7-0.9-1c0.2-2.2,1-4.1,2.3-5.9c3-3.4,6.6-5.6,11-6.7 c1.2-0.3,2.3-0.6,3.5-0.7c0.2,0,0.4,0.1,0.5,0.2C167.1,428,167.5,428.7,167.1,429.9L167.1,429.9z M61.2,357.8c1.3-0.1,2.4-0.4,3.5-1 c0.5-0.3,0.9-0.8,1.2-1.3c-0.5-1.1-1.3-2.1-2.2-2.9c-0.3-0.6-0.8-1.1-1.3-1.5c-0.4-0.6-0.9-1-1.5-1.4c-0.3-0.3-0.6-0.4-1-0.4 c0-0.1-0.1-0.2-0.2-0.3c-0.9-0.3-1.7-0.3-2.5,0.1c-1.1,0.2-2.1,0.2-3.2-0.2c-1.7-0.8-3.4-1.7-5-2.6c-3.5-2-6.2-4.8-8-8.5 c-0.8-1.1-1.7-2.1-2.5-3.2c-1.8-2-3.9-3.5-6.5-4.4c-1.5-0.8-2.9-0.7-4.4,0.2c-0.9,0.5-1.8,1-2.7,1.5c-0.7,0.2-1.4,0.2-2.2,0.1 c-0.3-0.3-0.6-0.4-1-0.4c-1-0.8-2-1.7-2.8-2.7c-2-2.6-4-5.2-5.9-7.9c-1.3-1.8-3-3-5.1-3.8c-0.8-0.2-1.4-0.1-2,0.4 c-0.4,0.4-0.6,0.8-0.8,1.3c0,0.6-0.1,1.2-0.1,1.8c0,1.6,0.3,3.2,0.8,4.6c0.3,1,0.6,1.9,1,2.9c0.1,0.6,0.3,1.2,0.7,1.7 c1.6,4,3.8,7.6,6.6,10.8c2.5,2.8,5.4,5,8.8,6.6c1.1,0.7,2.4,1.1,3.7,1.3c0.4,0.3,0.9,0.4,1.3,0.2c-0.3-0.2-0.6-0.4-0.8-0.7 c-2.1-2.2-3.8-4.6-5.1-7.4c-0.5-1.1-0.7-2.3-0.8-3.5h0.5c0.4,0.9,0.9,1.8,1.5,2.7c0.2,0.6,0.4,1.1,0.8,1.7c3.3,5.1,7.7,9,13.2,11.6 c0.9,0.6,1.9,1.1,3,1.5c1.1,0.6,2.2,1.1,3.4,1.3c1.1,0.5,2.2,0.9,3.4,1c0.7,0.2,1.4,0.4,2.2,0.6c0.4,0.1,0.9,0.1,1.3,0.1 c0.7,0.2,1.5,0.4,2.3,0.3h0.3C55.9,358.5,58.5,358.4,61.2,357.8L61.2,357.8z M89.1,366.4c0.1-1.3,0.2-2.6,0.3-3.9 c0-0.2,0-0.4-0.2-0.5C89.1,363.5,89,364.9,89.1,366.4L89.1,366.4z M90.6,367c0.2,0.4,0.4,0.9,0.5,1.3C90.7,368,90.6,367.6,90.6,367z  M85.9,374.4c0.2-1.8,0.4-3.6,0.5-5.4C86,370.8,85.8,372.6,85.9,374.4z M86.2,384.9c-0.1-1.6-0.2-3.2-0.3-4.7 C85.8,381.8,85.9,383.3,86.2,384.9z M55.1,392.3c0-0.4-0.1-0.8-0.3-1.2C54.8,391.5,54.9,391.9,55.1,392.3z M55.5,393.6 c0-0.4-0.1-0.8-0.3-1.2C55.1,392.9,55.2,393.3,55.5,393.6z M58.6,393.8c-0.2-0.2-0.2-0.2-0.3,0.1c0.8,2.5,1.5,5,2.2,7.5 c0.2,0.3,0.3,0.7,0.3,1.2 M80,430.4c-0.6-2.2-1.1-4.4-1.7-6.6c0-0.4-0.1-0.8-0.3-1.2 M86,447.4c0.1,0.2,0.1,0.4,0,0.7V447.4z  M259.4,477.1c-0.1-0.4,0-0.7,0.3-1.1c0-0.1-0.1-0.3-0.2-0.4c-0.7,0-1.2-0.3-1.6-0.8c-2.1-5.5-3.9-11-5.4-16.6 c-2.7-10.3-3.7-20.7-2.9-31.3c0-1.1,0.1-2.1,0.3-3c0.6-4.4,1.5-8.8,2.7-13.1c0-0.4,0.1-0.8,0.3-1.2c0.9-4.1,2.6-7.8,4.9-11.3 c0.6-0.9,1.1-1.7,1.8-2.5c0.1-0.1,0.1-0.2,0-0.3c-0.7,0.8-1.4,1.6-1.9,2.5c-0.8,0.9-1.5,1.9-2.3,2.9c-2.2,3.5-4.1,7.1-5.9,10.9 c-0.6,1.8-1,3.6-1.3,5.4c-0.1,0.1-0.2,0.1-0.3,0.2c-1-0.7-2-1.4-3-2.1c-5.7-3-11.8-5.2-18.1-6.7c-9.1-1.6-17.8-0.5-26.2,3.2 c-13.1,6-23.4,15.1-30.9,27.5c-1.2,2-2.3,4.1-3.4,6.2c-2.9,6-4.9,12.2-6,18.8c-0.4,2.1-0.5,4.1-0.4,6.2c3.9,1.4,7.8,2.6,11.8,3.5 c-1-7.1-0.6-14.1,1.2-21.1c-0.1-0.1-0.1-0.2-0.2-0.3c-0.9,0.5-1.8,1-2.7,1.6c-0.9,0.3-1.8,0.3-2.7-0.1c-0.7-0.6-0.8-1.4-0.4-2.2 c2.1-2.1,4.7-3.4,7.6-3.9c0.7-0.5,1.5-0.6,2.3-0.3c0.5,0.1,0.9,0.4,1.3,0.8c0.5,1,0.3,1.9-0.6,2.6c-0.8,0.3-1.5,0.5-2.3,0.8 c-0.7,1.7-1.2,3.4-1.5,5.2c-1,5.8-1,11.5-0.1,17.3c14.1,3.6,28.3,6.5,42.7,8.7c1.2,0.2,2.3,0.3,3.5,0.2c2.1-2.2,4.1-4.6,6-7 c1.9-3.1,3.5-6.3,4.7-9.7c0.2-0.6,0.3-1.2,0.2-1.8c-0.9-0.8-1.9-1.7-2.9-2.5c-0.3-0.4-0.4-0.8-0.4-1.3c0.3-1.4,1.1-1.9,2.5-1.5 c1.1,0.3,2.1,0.8,3,1.5c1.7,1.6,3.4,3.2,5.1,4.8c0.6,0.6,1.1,1.3,1.5,2c0.3,2.7-0.9,3.6-3.5,2.6c-1.2-1.2-2.4-2.4-3.5-3.6 c-0.6,2.3-1.4,4.4-2.6,6.4c-2.4,3.5-4.8,7.1-7.1,10.6c3.7,0.6,7.5,0.9,11.3,1c1.7,0.2,3.4,0.3,5.2,0.3c2.3,0.2,4.7,0.2,7.1,0.1 c2.9-4.6,5.2-9.4,7.1-14.5c0.5,1.2,0.9,2.4,1.3,3.7c0.1,0.1,0.2,0.2,0.3,0.3c0.1-0.3,0.1-0.6,0.2-0.8c0.2,0.4,0.3,0.8,0.4,1.2 c0.6,1,1.1,2,1.5,3.1c-0.9,2.4-2,4.8-3.2,7.1c0.5,0.2,1.1,0.2,1.7,0.2c0.9-1.8,1.7-3.7,2.6-5.5c1.2,1.9,2.4,3.7,3.6,5.5 c0.9,0.1,1.8,0,2.7-0.2C262.7,482.5,261,479.8,259.4,477.1L259.4,477.1z M185.1,454.4c-0.2-1.8-0.1-3.6,0.3-5.4 c1.9-5.4,4.5-10.4,8.1-15c1.1-1.2,2.2-2.2,3.4-3.3c0.9-0.7,1.8-1.2,2.9-1.6c0.9-0.1,1.7,0.1,2.3,0.6c-0.9,0.5-1.8,1.2-2.7,1.8 c-5.4,5.2-9.4,11.4-12,18.4c-0.6,2.3-0.5,4.6,0.3,6.9C186.3,456.7,185.4,455.9,185.1,454.4L185.1,454.4z M205.3,436.6 c-1.1,5.3-3.3,10.1-6.4,14.5c-1.2,1.6-2.5,3.2-4,4.6c-0.8,0.7-1.7,1.3-2.7,1.8c-0.9,0.4-1.9,0.5-2.9,0.3c-0.7-0.3-1-0.8-1-1.6 c0.2-0.5,0.2-0.9-0.2-1.3c0-1.2,0-2.4,0.1-3.5c0.7-3,1.8-5.8,3.4-8.4c2.3-4,5.1-7.6,8.5-10.8c0.8-0.7,1.7-1.2,2.6-1.8 c1.3,0.5,2.2,1.4,2.5,2.9C205.4,434.4,205.4,435.5,205.3,436.6z M212.6,461.2c-0.1,0.1-0.1,0.2-0.2,0.3c-1.3-1.1-2-2.5-2.1-4.2 c-0.1-1.3-0.1-2.6,0-3.9c0.9-4.8,2.7-9.2,5.4-13.3c1.6-2.3,3.3-4.5,5.2-6.6c0.7-0.6,1.3-1.1,2.1-1.6c0.9-0.2,1.8-0.5,2.7-0.8 c0.8-0.1,1.4,0.1,2,0.6c-7.3,4.7-12.3,11.2-14.9,19.6C211.9,454.7,211.8,457.9,212.6,461.2L212.6,461.2z M231.5,437.1 c-1.1,7.5-3.9,14.4-8.2,20.7c-1.7,2.4-3.9,4-6.6,5c-0.3,0.1-0.7,0.1-1,0c-0.5-0.3-1-0.5-1.5-0.7c-0.5-0.8-0.8-1.7-0.9-2.6 c-0.4-5,0.6-9.6,3-13.9c2.5-4.7,5.9-8.7,10.2-12c0.2-0.2,0.4-0.4,0.4-0.8c0.9-0.6,2-0.8,3.1-0.6c0.7,0.4,1.2,1,1.3,1.8 c0.3,0.6,0.4,1.2,0.3,1.8C231.7,436.3,231.7,436.7,231.5,437.1L231.5,437.1z M247.3,420.6c-2-2.3-4.3-4.4-6.7-6.2 c-0.4-0.3-0.8-0.5-1.2-0.8c0.5,0.1,0.9,0.3,1.3,0.6c2.3,1,4.4,2.3,6.4,3.8c0.3,0.2,0.5,0.5,0.5,0.8 C247.6,419.5,247.5,420.1,247.3,420.6z M57.2,399.8c0-0.4-0.1-0.8-0.3-1.2C56.8,399.1,56.9,399.5,57.2,399.8z M58.7,404.4 c-0.1-0.5-0.3-0.9-0.5-1.3C58.1,403.5,58.3,404,58.7,404.4z M75.6,410.4c0-0.7-0.2-1.4-0.3-2L75.6,410.4z M252.9,409.6 c-0.2,0.3-0.3,0.7-0.3,1.2C252.8,410.4,252.9,410,252.9,409.6z M364.1,412.3c-0.6,0-1.2,0.2-1.7,0.5 C363.1,412.7,363.6,412.6,364.1,412.3z M474,441.3c-1,2.6-1.9,5.2-2.8,7.7c12.7-7.9,20.8-19.1,24.3-33.6c-2.3,5.5-5.4,10.5-9.2,15.1 C482.8,434.9,478.7,438.4,474,441.3L474,441.3z M150.2,419.5c-0.1,0.3-0.3,0.6-0.4,0.8c-3.7,3.8-7.9,6.6-12.9,8.5 c-0.9,0.3-1.9,0.5-2.9,0.6c0.3,0.2,0.5,0.4,0.8,0.6c3.2-0.1,6.2-1.1,8.9-2.9c2.7-1.4,4.8-3.4,6.4-6.1 C150.4,420.5,150.4,420,150.2,419.5L150.2,419.5z M478.4,422.7c0.2-0.8,0.3-1.6,0.3-2.5C478.5,421,478.4,421.8,478.4,422.7z  M178.5,422.3h0.3c-0.4-0.4-0.8-0.9-1.1-1.3C177.8,421.5,178.1,422,178.5,422.3z M365.3,421.3c0,0.2,0,0.4,0.2,0.5 c0.2-0.3,0.5-0.4,0.8-0.3C366,421.3,365.7,421.3,365.3,421.3z M361.3,422.5c-0.5,0.1-1,0.1-1.5,0.2 C360.3,422.9,360.8,422.8,361.3,422.5z M249.9,423.8c-0.2,1-0.4,2-0.3,3C249.8,425.9,249.9,424.9,249.9,423.8z M165.9,427.9 c-0.1,0.4-0.2,0.8-0.3,1.2c-0.7,2-1.8,3.7-3.5,5.1c-2.3,2-4.8,3.9-7.4,5.5c-1.6,0.8-3.2,1.4-4.9,1.8c1.3,0.1,2.6,0,3.9-0.3 c3-1.1,5.7-2.8,8.1-5c2.1-1.8,3.6-3.9,4.8-6.3c0.1-0.6,0.1-1.2-0.1-1.8L165.9,427.9L165.9,427.9z M368.5,430.1 c0-0.4-0.1-0.8-0.3-1.2C368.1,429.3,368.3,429.7,368.5,430.1z M203.5,433.4c-0.1,0.8-0.2,1.6-0.4,2.4c-2.3,6.5-5.5,12.4-9.7,17.8 c-0.7,0.7-1.4,1.4-2.1,2.1c-0.5,0.5-1.2,0.8-1.8,0.9v0.5c0.8,0,1.6-0.1,2.3-0.3c0.7-0.4,1.4-0.8,2-1.3c4-4,7-8.5,9.2-13.7 c0.8-2.2,1.3-4.5,1.4-6.8c0.1-0.9-0.1-1.8-0.5-2.6C203.7,432.7,203.6,433.1,203.5,433.4L203.5,433.4z M369.5,433.8 c0-0.4-0.1-0.8-0.3-1.2C369.1,433,369.3,433.4,369.5,433.8z M463.9,439.6c0.1-0.5,0.3-0.9,0.5-1.3c0.4-1.1,0.7-2.2,0.8-3.4 c-5.9,4.2-12.2,7.8-18.8,10.8c5.6-0.4,11.1-1.6,16.5-3.4C463.4,441.5,463.7,440.6,463.9,439.6L463.9,439.6z M230.4,433.6 c-0.2-0.6-0.6-0.8-1.2-0.8c-0.3,0-0.4,0.1-0.5,0.3c0.3,0.3,0.4,0.6,0.3,1c0.2,1.7,0.2,3.5-0.1,5.2c-1,3.3-2.2,6.6-3.7,9.7 c-1.9,4.6-4.5,8.6-8,12c-0.5,0.3-1,0.6-1.5,0.8c1.5-0.2,2.8-0.7,4-1.7c1.8-1.7,3.4-3.7,4.8-5.8c1.8-3.4,3.4-7,4.7-10.6 c0.7-2.1,1.2-4.3,1.4-6.6c0.2-0.9,0.2-1.9,0.1-2.9C230.7,434.1,230.6,433.8,230.4,433.6L230.4,433.6z M116.1,437.1 c-0.2,0.3-0.3,0.7-0.3,1.2C116,438,116.1,437.6,116.1,437.1z M464.4,438.3c-0.2,0.4-0.4,0.9-0.5,1.3 C464.3,439.3,464.5,438.8,464.4,438.3z M169.4,438.8c-1.3,2.1-2.5,4.3-3.5,6.6h0.3c1.1-2.1,2.2-4.2,3.4-6.2 C169.4,439.1,169.4,439,169.4,438.8z M370.8,441.7c0.1-0.8-0.1-1.6-0.3-2.3C370.5,440.1,370.6,440.9,370.8,441.7z M418.2,447.5 c-0.4,0-0.8-0.1-1.2-0.3c-5.7-1.2-11.1-3.1-16.2-5.7c0.4,1.9,0.7,3.9,1.1,5.9c4,2.2,8.2,4.1,12.5,5.5c3-1.3,5.8-2.8,8.7-4.4 c-0.1-0.1-0.2-0.2-0.3-0.3C421.2,448.2,419.7,447.9,418.2,447.5L418.2,447.5z M398.9,445.5c0-0.8-0.1-1.6-0.3-2.4 c-1.1-8.4-3.4-16.4-7-24c-4.3-8.9-9.6-17.2-15.8-24.9c-4.7-5.8-10.2-10.9-16.4-15c-7.3-4.3-15.2-7.6-23.5-9.7 c-28-5.7-51,2.4-69,24.4c-6.6,8.6-10.7,18.2-12.4,28.9c-0.3,1.2-0.5,2.4-0.5,3.7c-0.2,3.5-0.2,7.1,0.1,10.6c1,8.3,2.5,16.5,4.7,24.5 c0.5,1.8,1.1,3.6,1.8,5.4c0,1.4,0.3,2.6,0.8,3.9c0.1-0.2,0.1-0.4,0.2-0.7c0.1-0.2,0.2-0.2,0.3,0c2.3,5.3,5.2,10.3,8.5,15 c12.8-0.1,25.6-1.1,38.3-3.2c-4.8-3.7-9.3-7.7-13.4-12c-0.1-0.4-0.3-0.7-0.7-0.8c-0.1-0.2-0.2-0.3-0.3-0.3c0.1-0.6,0-1.1-0.3-1.7 c-0.6-0.7-1.2-1.5-1.8-2.2c-0.1-0.4-0.1-0.7,0.1-1c0-0.6,0.2-1.2,0.5-1.7c0.2-1,0.6-1.9,1.1-2.9c0.3-0.8,0-1.1-0.8-0.9 c-1.9,2.9-2.8,6.1-2.8,9.7c0.3,0.2,0.7,0.2,1,0c0.1-0.6,0.3-1.3,0.5-1.8c0.7,0.8,1.3,1.6,1.9,2.3c-0.3,1-0.8,1.9-1.7,2.6 c-2.3,1.2-4,0.6-5.1-1.8c-0.1-1.2-0.1-2.4,0.1-3.5c0.2-0.3,0.3-0.7,0.3-1.2c0.2-1.1,0.5-2.3,0.8-3.4c0-0.4,0.1-0.8,0.3-1.2 c0.7-2.2,1.4-4.4,2.3-6.6c0.4-0.9,1.1-1.5,1.9-2c0.4-0.2,0.8-0.4,1.3-0.3c0.3,0,0.6,0.1,0.8,0.2c1,0.3,1.7,0.9,2.2,1.8 c0.1,0,0.2,0.1,0.3,0.2c0.1,0.7,0.1,1.3-0.1,1.8c-0.5,1.9-1,3.8-1.3,5.8c1.8,2.3,3.8,4.5,6.1,6.6c6,4.8,12.6,8.9,19.7,12.1 c15.3-2.3,30.4-5.5,45.2-9.8c0.2-0.7,0.4-1.3,0.7-1.8c0.5-2.2,1-4.5,1.3-6.7c0-0.7,0.1-1.3,0.3-1.8c0.1-1.8,0.3-3.6,0.6-5.4 c0.2-4.1,0.1-8.1-0.4-12.1c0.1-1.2-0.1-2.3-0.5-3.4c-0.3-2.4-0.8-4.8-1.5-7.1c0-0.4-0.1-0.8-0.3-1.2c-0.2-0.6-0.3-1.1-0.5-1.7 c0-0.6-0.2-1.2-0.5-1.7c-0.6-1.8-1.3-3.6-2-5.4c-0.5-0.2-0.9-0.2-1.3,0.2c-0.6,0-1.1,0.2-1.5,0.5c-0.5,0.3-1,0.4-1.5,0.2 c-0.2-0.1-0.2-0.3-0.1-0.5c1.7-1.4,3.7-2,6-1.8c0-0.4-0.2-0.8-0.5-1c-0.1-0.2-0.2-0.3-0.5-0.3c-0.7,0.1-1.3,0.3-1.8,0.5 c-0.8,0.2-1.6,0.2-2.3,0.1c-0.8-0.4-1.7-0.7-2.5-1c-1.7-1.8-1.5-3.4,0.7-4.7c1.3-0.5,2.6-0.8,3.9-1.1c0.5-0.3,1.1-0.5,1.7-0.5 c2.2-0.5,4.3-0.9,6.6-1.3c1.5-0.3,2.9,0.1,4,1.2c1.4,2,1,3.6-1,4.8c-0.6,0.1-1.2,0.2-1.7,0.3c-1.3,0.1-2.6,0.4-3.9,0.8l1,1.5 c-0.9,0.3-1.8,0.5-2.7,0.6c-0.4,0.3-0.4,0.7,0,1c1.2,0,2.5,0,3.7,0c2.1,3.2,3.8,6.6,5.3,10.2c1,2.8,1.8,5.8,2.3,8.7 c0,0.5,0.1,0.9,0.3,1.3c0.5,4.1,0.6,8.3,0.3,12.4c-0.2,0.9-0.3,1.8-0.3,2.7c-0.4,1.9-0.8,3.8-1.1,5.7c-0.5,1.8-1.2,3.5-1.9,5.2 c0.1,0.1,0.2,0.1,0.3,0.2c8.1-2.6,16.1-5.4,24.1-8.4c0.4-3.4,0.4-6.7,0-10.1C399.4,447.9,399.2,446.7,398.9,445.5L398.9,445.5z  M327.7,395.2c1.7,0.6,3.2,1.4,4.5,2.7c4.8,4.7,8.4,10.2,10.8,16.6c1.1,2.6,2,5.3,2.8,8.1c0.2,0.2,0.2,0.4,0.1,0.7 c-0.2-0.2-0.4-0.4-0.4-0.7c0-0.3-0.1-0.5-0.3-0.7c-0.9-1.9-1.8-3.8-2.7-5.7c-2.1-5.5-4.9-10.6-8.7-15.1c-1.3-1.5-2.8-2.8-4.4-4 c-2.8-1.6-4.7-0.9-5.9,2c0,0.1,0.1,0.2,0.2,0.3c0.8-0.3,1.7-0.4,2.7-0.3c2.1,0.8,3.9,1.9,5.5,3.4c4,4.7,7.6,9.6,10.8,14.9 c0.8,1.5,1.4,3.1,2,4.7c0.6,2,1.2,4,1.7,6.1c0.2,0.3,0.3,0.7,0.3,1.2c0.3,0.8,0.4,1.6,0.5,2.5v0.3c0,0.8,0,1.7-0.2,2.5 c-0.5,2.1-1.6,2.6-3.5,1.4c-1-0.7-2-1.6-2.9-2.4c-7.6-9.3-13.2-19.6-16.8-31.1c-0.2-0.9-0.3-1.8-0.4-2.7c-0.5-0.1-0.7-0.4-0.7-0.9 C323.2,396.2,324.9,395,327.7,395.2L327.7,395.2z M324.8,449c-0.1,0.4-0.2,0.3-0.3-0.2c-0.4-1.5-0.8-3-1.2-4.5 c-0.2-0.9-0.4-1.7-0.7-2.5c0-0.4-0.1-0.8-0.3-1.2c0.1-0.3,0-0.5-0.2-0.7c0-0.6-0.2-1.2-0.5-1.7c-0.4-1.5-0.9-2.9-1.5-4.4 c-0.1-0.4-0.2-0.8-0.5-1.2c-2.5-6.1-5.7-11.7-9.7-17c-1.7-2.2-3.7-4.2-6-5.8c-0.8-0.6-1.7-0.9-2.7-0.9c-0.9-0.1-1.7,0.1-2.5,0.3 c-0.8,0.5-1.1,1.2-1.2,2c0.6-0.5,1.4-0.7,2.2-0.7c2,0.4,3.8,1.2,5.4,2.6c4.9,5.2,8.9,10.9,12.1,17.2c0.2,0.1,0.3,0.2,0.3,0.5 c1.3,2.6,2.5,5.3,3.6,8.1c0.3,0.9,0.4,1.8,0.6,2.7c0.2,0.5,0.3,1.1,0.3,1.7c0.2,1.6,0.2,3.2,0.1,4.9c-0.5,2.9-2,3.5-4.4,1.8 c-1.7-1.3-3.3-2.7-4.9-4.1c-0.1-0.4-0.3-0.7-0.7-0.8c-6.2-8.1-10.8-17-13.6-26.9c0-0.4-0.1-0.7-0.3-1c-0.2-1.2-0.4-2.4-0.8-3.5 c0-0.4,0-0.8-0.1-1.2c-0.1,0.3-0.3,0.4-0.6,0.5c-0.1,0.4,0,0.7,0.2,1c0.4,2.7,1,5.3,1.8,7.9c0.3,0.5,0.5,1.1,0.5,1.7 c1,2.4,2,4.9,2.9,7.4c1.7,3.4,3.5,6.8,5.5,10.1c2.4,3.7,5.3,6.9,8.8,9.7c0.7,0.4,1.3,0.8,2,1.1c0.2,0.2,0.5,0.4,0.8,0.4 c0.7,0.1,1.3,0.1,1.8-0.1c1.2-0.6,1.9-1.6,2.2-2.9c-0.1-0.3,0-0.6,0.2-0.8c0.2,1,0.2,1.9,0,2.9c-0.5,2.6-2,3.5-4.5,2.8 c-3.2-1.5-6-3.6-8.5-6.1c-6.1-7.2-10.6-15.2-13.5-24.2c0-0.4-0.1-0.8-0.3-1.2c0-0.8-0.2-1.5-0.5-2.2c-0.2-0.9-0.3-1.9-0.3-2.9 c-0.2-1.3-0.2-2.7,0.1-4c0-0.3,0.2-0.5,0.4-0.7v-0.2c-0.1-1,0.1-1.9,0.5-2.7c0.5-1.2,1.4-1.9,2.7-2.2c0.8,0,1.7,0,2.5,0.2 c1.4,0.4,2.7,1,3.9,1.9c1.4,1.2,2.7,2.5,4,4c3.4,4.3,6.3,8.9,8.8,13.8c0.3,0.3,0.5,0.6,0.5,1c1.5,2.9,2.8,6,3.7,9.2 c0.2,0.3,0.3,0.7,0.3,1.2c0.7,2.4,1.2,4.8,1.6,7.2C325,447.3,325,448.2,324.8,449L324.8,449z M348.5,440.8c-0.9,0-1.8,0-2.7-0.2 c-1.8-0.5-3.5-1.4-5-2.6c-2.7-2.7-5.2-5.5-7.3-8.7c-4-5.8-7.4-11.9-10.4-18.3c-0.4-1.2-0.8-2.5-1.1-3.7c0-0.5-0.1-0.9-0.3-1.3 c-0.3-1.5-0.4-3-0.3-4.5c0.3-0.5,0.7-0.9,1.1-1.3c0.2,0.4,0.2,0.9,0.2,1.3c0.2,0.3,0.3,0.7,0.3,1.2c0.8,3,1.8,5.9,2.9,8.7 c2.9,6.7,6.4,13.1,10.6,19.2c1.6,2.3,3.4,4.3,5.6,6.1c0.6,0.4,1.2,0.7,1.8,0.9c0.4,0.2,0.8,0.4,1.3,0.3c0.3,0,0.6-0.1,0.8-0.2 c1.1-0.5,1.8-1.4,2.1-2.7c0.4-1.8,0.3-3.6-0.1-5.4c-0.4-0.8-0.6-1.6-0.6-2.5c0.4,0.7,0.7,1.5,0.9,2.3v0.2c0,0.4,0.2,0.8,0.5,1 c0.7,2,1.2,4,1.5,6.1c0,0.7,0,1.4-0.2,2C350,439.8,349.4,440.5,348.5,440.8L348.5,440.8z M118.2,450.9c0.7,0.5,1.4,1,2.1,1.3 c-1.8-2.3-3-4.8-3.7-7.6C116.7,446.8,117.2,448.9,118.2,450.9z M458.2,454.7c0.7-1.6,1.4-3.2,2.1-4.8c0.4-1.1,0.7-2.1,1-3.2 c-2.4,0.7-4.9,1.4-7.3,1.8c-1.1,0.1-2.2,0.3-3.2,0.5c-1.3,0.1-2.6,0.3-3.9,0.5c-2.7,0.1-5.5,0.2-8.2,0.3c-3.9,2.2-7.8,4.3-11.8,6.4 C437.5,458,447.9,457.5,458.2,454.7L458.2,454.7z M417,447.2c0.3,0.2,0.7,0.3,1.2,0.3C417.9,447.3,417.5,447.2,417,447.2z  M174.4,448c0.8-0.2,1.5-0.4,2.3-0.3C175.9,447.4,175.2,447.6,174.4,448z M160.4,453.1c-0.3-1.2-0.8-2.3-1.3-3.4 c-0.5,0.7-1,1.4-1.7,1.9c-3.1,2.2-6.4,4.1-9.7,5.9c-4.1,1.6-8.2,2.3-12.6,2.1c-0.7,0.1-1.5,0.2-2.2,0.3c3,1.5,6.1,2.9,9.2,4.1 c4.7,1.8,9.4,3.5,14.1,5.1c0.2-0.1,0.3-0.2,0.4-0.3c1.3-4.9,2.8-9.8,4.6-14.5C161,453.9,160.7,453.5,160.4,453.1L160.4,453.1z  M292.9,451.7c0.7-0.1,1.4-0.2,2.2-0.2c-0.2-0.1-0.5-0.2-0.8-0.2C293.7,451.4,293.3,451.5,292.9,451.7L292.9,451.7z M297.5,453.6 c-0.1-0.1-0.2-0.2-0.3-0.2c0.1,0.7,0.2,1.3,0.2,2C297.6,454.8,297.6,454.2,297.5,453.6z M139.1,458c-0.9,0.1-1.7,0.2-2.5,0.3 C137.5,458.4,138.3,458.3,139.1,458z M132.6,459.7c0.1,0.1,0.2,0.2,0.3,0.3c0.7-0.1,1.5-0.2,2.2-0.3 C134.3,459.6,133.4,459.6,132.6,459.7L132.6,459.7z M288.7,460.3c-0.2,0.3-0.3,0.7-0.3,1.2C288.6,461.2,288.7,460.8,288.7,460.3z  M369.3,459.6c-0.2,0.6-0.3,1.2-0.3,1.8C369.3,460.9,369.4,460.3,369.3,459.6z M370.3,461.7c-0.2,1.1-0.3,2.1-0.5,3.2 c-0.3,1.1-0.6,2.2-0.8,3.4c0,0.2,0,0.3,0.2,0.3c0.2-0.4,0.4-0.8,0.5-1.2c0.1-0.2,0.3-0.3,0.4-0.5c3.1-7.2,4.3-14.7,3.6-22.5 c-0.1-1.3-0.2-2.5-0.5-3.7c0-0.3-0.1-0.7-0.2-1c-0.2-1-0.4-1.9-0.7-2.9c-1.2-5.4-3.2-10.5-6.1-15.3c-0.4-0.1-0.7,0-0.8,0.3 c1.1,2.2,2,4.6,2.7,7.1c0.2,0.3,0.3,0.7,0.3,1.2c0.3,0.8,0.5,1.7,0.7,2.5c0.2,0.3,0.3,0.7,0.3,1.2c0.5,1.8,0.8,3.7,1,5.5 c0.3,0.7,0.4,1.5,0.3,2.3c0.2,1,0.4,2,0.4,3c0.2,5,0,10-0.6,15C370.5,460.3,370.4,460.9,370.3,461.7L370.3,461.7z M292.9,462.3 c-0.3,0.5-0.5,1.1-0.5,1.7C292.7,463.5,292.8,462.9,292.9,462.3z M295.2,466.2c-0.1-0.2-0.3-0.2-0.5-0.2c-0.1,0.5-0.1,1-0.1,1.5 c4.8,5.3,10.1,10.1,15.9,14.2c1.3-0.1,2.7-0.2,4-0.5c-4.4-2.5-8.7-5.3-12.8-8.4C299.3,470.9,297.2,468.7,295.2,466.2L295.2,466.2z  M367.6,468.2c-0.3,0.6-0.5,1.2-0.7,1.8C367.4,469.5,367.6,468.9,367.6,468.2z M369,468.2c-0.3,0.3-0.4,0.6-0.3,1 c0.2-0.2,0.3-0.4,0.4-0.7C369,468.5,369,468.4,369,468.2L369,468.2z M356.6,486.4c-0.1,0-0.2-0.1-0.2-0.2c2.6-2,5.1-4.3,7.2-6.8 c-0.9,0-1.7,0.3-2.5,0.7c-1.3,1.5-2.7,2.9-4.2,4.2c-0.9,0.7-1.8,1.4-2.9,1.9c-0.2,0.3-0.2,0.6,0,0.8c0.2,0.1,0.4,0.2,0.7,0.3 c-0.1,0.1-0.2,0.2-0.2,0.3c-1,0.4-2,0.9-3,1.3c-1,0.3-2,0.6-2.9,1c-1.5,0.3-2.9,0.7-4.4,1c-0.6,0-1.2,0.1-1.7,0.3 c-1.7,0-3.3,0.2-4.9,0.5c-3.1,0.1-6.2-0.1-9.2-0.6c-3.3-0.9-6.6-2-9.8-3.1c-8.2,1.2-16.4,2.3-24.6,3.1c-6.1,0.5-12.2,0.8-18.3,0.8 c7.1,8.2,15.4,14.9,24.9,20c17.8,9.4,36.4,11.1,55.6,5.2c-2.2,1-4.4,2-6.6,2.9c-1.1,0.3-2.2,0.7-3.2,1.2c-1.3,0.3-2.6,0.6-3.9,1 c-0.8,0-1.5,0.2-2.2,0.5c-1.1,0.2-2.1,0.3-3.2,0.3c-2.3,0.1-4.7,0.2-7.1,0.2c-5.1-0.3-10.2-1.2-15.1-2.5c-0.4-0.2-0.7-0.3-1.2-0.3 c-17.8-4.6-32.5-14.1-44-28.5c-1.1-0.1-2.1-0.1-3.2,0c1.7,2,3.4,4,5.1,6l5.8,5.8c9.2,8.2,19.8,14,31.8,17.2c0.3,0.2,0.7,0.3,1.2,0.3 c3.6,1.2,7.3,2.1,11.1,2.7c0.5,0.2,1.1,0.3,1.7,0.3c5.9,0.8,11.8,0.9,17.6,0.1c3.8-0.8,7.4-1.9,10.9-3.4l6.1-3 c5-3.3,10-6.6,15.1-9.7c13-10.1,21.3-23.2,24.9-39.4c-9.8,3.3-19.8,6.4-29.7,9.3C364.9,481.9,361.1,484.6,356.6,486.4L356.6,486.4z  M255,474.6c-0.1-0.2-0.1-0.3-0.3-0.3c0,0.6,0.2,1.1,0.5,1.5c0.1-0.3,0.2-0.6,0.3-0.8c-0.1-0.4-0.2-0.8-0.4-1.2 C255.1,474,255,474.3,255,474.6L255,474.6z M249.9,491.7c-6.6,9.6-15,17.2-25.4,22.6c-10.8,5.5-22.1,6.5-33.8,3.2 c-3.4-1.1-6.4-2.7-9.1-5c8.3,3.4,16.9,4.1,25.7,2c14.2-3.8,25.7-11.5,34.6-23.2c-8.1-0.6-16.1-1.4-24.1-2.6c-3.3,2-6.7,4.1-10,6.1 c-3.2,1.7-6.5,3-10.1,3.9c-6.7,1.5-12.6-0.1-17.6-4.8c-3.6-4-6.1-8.5-7.3-13.8c-4.5-1.4-8.8-3-13.2-4.7c0,4.5,0.6,9,2,13.3 c2.9,9.4,8.4,16.7,16.7,21.9c3.9,4.5,8.9,7.5,14.8,8.8c0.9,0.1,1.7,0.3,2.5,0.7c0.7,0.1,1.3,0.1,2,0.2c0.8,0.2,1.6,0.3,2.5,0.3 c2.5,0.2,4.9,0.2,7.4,0.1c6.7-0.7,12.9-2.6,18.8-5.7c10.3-5.8,18.8-13.6,25.4-23.4C251.2,491.5,250.5,491.5,249.9,491.7z  M155.1,476.3c-0.1,0.3-0.2,0.7-0.2,1c0.2-0.4,0.3-0.8,0.3-1.3c-0.2,0-0.4,0-0.5,0.2C154.9,476.1,155,476.1,155.1,476.3z  M147.5,479.3c-0.7,0.1-1.4,0.2-2,0.3C146.3,479.7,146.9,479.6,147.5,479.3z M135.4,480c-0.7-0.2-1.5-0.4-2.3-0.3 C133.8,479.9,134.6,480,135.4,480z M145,479.9c0.2,0,0.4-0.1,0.5-0.3c-0.8,0-1.6,0.1-2.3,0.3C143.8,480,144.4,480,145,479.9 L145,479.9z M202.3,494.9c0.8-0.1,1.6-0.3,2.3-0.6c3.4-1.6,6.6-3.7,9.6-6.1c-3.2-0.4-6.4-0.8-9.6-1.3c-9.9-1.5-19.8-3.6-29.4-6.3 c-0.2,0.1-0.2,0.3-0.1,0.5c3.2,7.7,8.8,12.4,16.9,14.1c0.9,0,1.7,0.1,2.5,0.3c1.6,0,3.3,0,4.9-0.2 C200.4,495.2,201.3,495,202.3,494.9L202.3,494.9z M345.5,484.3c0.4-0.3,0.9-0.4,1.5-0.3c1.6-0.3,3.3-0.6,4.9-1 c0.7-0.5,1.5-0.8,2.3-0.8c0.1-0.3,0.4-0.4,0.7-0.3c0.6-0.3,1.2-0.5,1.8-0.8c-0.7,0-1.4,0.1-2,0.4c-4.4,0.9-8.8,1.8-13.3,2.7 c1,0.2,2,0.2,3,0.2H345.5z M354.2,482.2c-0.9,0.1-1.7,0.4-2.3,0.8C352.7,482.8,353.5,482.5,354.2,482.2z M345.5,484.3 c0.4-0.3,0.9-0.4,1.5-0.3C346.5,484.2,346,484.3,345.5,484.3z M341.4,484.2c-0.4,0.1-0.9,0.2-1.3,0.3c1.5,0.1,2.9,0.1,4.4-0.1 C343.4,484.4,342.4,484.3,341.4,484.2z M253.7,485.3c0.6,0.2,1.3,0.2,1.8,0c-0.6,0.1-1.2,0-1.7-0.2 C253.8,485.2,253.8,485.2,253.7,485.3z M264.5,485.2c-0.9,0.2-1.8,0.2-2.7,0.2c1,0.2,2,0.2,3,0C264.7,485.2,264.6,485.2,264.5,485.2 z M331.5,487.9c0.3,0.2,0.7,0.3,1.2,0.3C332.4,488,332,487.9,331.5,487.9z M339.9,489.2c1.2-0.1,2.4,0,3.5,0.3c0.4,0,0.7-0.1,1-0.3 c-2.2-0.2-4.4-0.2-6.6-0.2C338.6,489.2,339.2,489.3,339.9,489.2z M178.6,488.4c-0.4-0.6-0.8-1.1-1.3-1.7c0.2,0.7,0.6,1.4,1.1,2 c4.8,7.6,11.6,10.2,20.3,7.8C190.7,497.1,184,494.4,178.6,488.4z M339.9,489.2c-0.7,0.1-1.4,0-2-0.2c-1-0.1-1.9-0.2-2.9-0.3 c-0.7-0.3-1.4-0.5-2.2-0.5h-0.2c-0.4,0-0.8-0.1-1.2-0.3c-1.5-0.3-3-0.7-4.4-1.2c-1.7,0.2-3.5,0.5-5.1,0.9c0.3,0.1,0.6,0.1,0.8,0.3 c0.5,0.3,1.1,0.5,1.7,0.5c0.9,0.4,1.9,0.7,2.9,0.8c0.3,0.2,0.7,0.3,1.2,0.3c1.9,0.4,3.9,0.7,5.9,0.7c1.5,0,2.9-0.1,4.4-0.2 c1-0.1,1.9-0.2,2.9-0.3h0.2c0.6,0,1.1-0.1,1.7-0.2C342.4,489.2,341.2,489.1,339.9,489.2L339.9,489.2z M336.1,490.4 c0.9,0,1.8-0.1,2.7-0.3c-1.4,0.1-2.9,0.1-4.4,0.2C334.9,490.3,335.5,490.4,336.1,490.4z M202,495.2c0.2-0.1,0.3-0.1,0.3-0.3 c-1,0.1-1.9,0.3-2.9,0.5C200.3,495.4,201.1,495.3,202,495.2L202,495.2z M194.6,495.6c-0.8-0.2-1.6-0.3-2.5-0.3 C192.9,495.5,193.7,495.6,194.6,495.6z M195.8,520.1c-0.8-0.3-1.6-0.6-2.5-0.7C194,519.8,194.9,520,195.8,520.1z M263.8,326.6 c-0.2,0.6-0.3,1.3-0.3,2c-0.3,0.4-0.4,0.8-0.3,1.3v0.3c-0.4,1.8-0.7,3.7-0.8,5.5c0,0.8-0.1,1.6-0.3,2.3c0.5,1.6,1,3.1,1.5,4.7 c-0.1,0.4,0.1,0.8,0.3,1.2c0.2-1.3,0.3-2.6,0.3-3.9v-0.7c0.3-1.6,0.4-3.3,0.5-5v-0.2c0.2-0.7,0.3-1.4,0.3-2.2c0-0.5,0-0.9,0.2-1.3 c0-1.1,0.1-2.2,0.5-3.2c0.2-1.2,0.6-2.3,1.3-3.4c0.6-0.3,0.9-0.1,0.9,0.5c1.2-0.5,2.4-0.8,3.7-0.9c1.8-0.1,3.7-0.1,5.5-0.1 c1.1,0,2.1,0.1,3,0.3c0.8,0,1.7,0.1,2.5,0.2v0.2c1.9,0.3,3.8,0.2,5.7-0.2h0.5c0.5,0.1,1,0,1.5-0.2c-0.1-0.2-0.3-0.3-0.5-0.3 c-12-16.5-24.1-32.9-36.2-49.2c-5.1-7.2-10.2-14.4-15.2-21.7c-0.2,0.1-0.2,0.3-0.2,0.5c0.7,1.5,1.3,3,1.8,4.5 c0.1,0.4,0.2,0.8,0.5,1.2c2.4,5.5,4.7,11,7,16.6c1.4,2.3,2.7,4.7,3.9,7.1c5.7,9.8,11.9,19.3,18.6,28.6c0.3,0.4,0.7,0.9,1,1.3 c0.6,0.9,1.3,1.7,2,2.5c0.3-0.1,0.4-0.2,0.3-0.5c-0.3-0.7-0.1-1,0.7-1c0.1,1,0.4,1,1.1,0.2c0-0.5,0.1-1,0.3-1.5v-0.2 c0.3-0.3,0.6-0.5,1-0.5c0.5,0.2,1.1,0.3,1.7,0.3c-0.1,0.4,0,0.8,0.3,1c0.1,0.5,0,0.9-0.2,1.3c-0.1,0.4-0.3,0.4-0.6,0.2 c0-0.5-0.1-0.9-0.4-1.2c-0.2,0.3-0.4,0.5-0.7,0.7c-0.3,0.2-0.4,0.5-0.3,0.8c0,1.2-0.7,1.6-1.8,1.3c0-0.2,0-0.3-0.2-0.3h-0.5 c0,0.3,0,0.5-0.2,0.7h-0.7c-0.3-0.4-0.6-0.7-1-1c-1-1.4-2.1-2.8-3.2-4.2c-5.6-8.2-11.1-16.5-16.3-25c-0.3-0.8-0.7-1.5-1.2-2.2 l-0.2,0.2c0.3,0.7,0.7,1.5,1,2.2c1.6,4.4,3.3,8.7,5.1,12.9c1,2.8,2,5.6,3,8.4c2.2,3.4,4.6,6.7,7,9.9c0.3,0.6,0.2,0.9-0.5,1 c-1.2-1.7-2.5-3.4-3.7-5c-0.3-0.4-0.6-0.9-0.8-1.3c-0.1-0.2-0.3-0.2-0.3,0.1c0.5,0.9,0.8,1.8,0.9,2.8c0.1,0.1,0.2,0.2,0.3,0.2 c0.4,1.2,0.9,2.4,1.4,3.5c0,2-0.1,4-0.3,6.1C263.9,325.4,263.8,326,263.8,326.6z M273.7,310.1c-0.3,0.5-0.4,1.2-0.4,1.8 c-0.4,0.4-1,0.6-1.6,0.5c-0.1,0-0.2-0.1-0.2-0.2c-0.2-0.2-0.5-0.4-0.8-0.5c-0.1-0.6-0.1-1.1,0.1-1.7c0.2,0.3,0.2,0.7,0.2,1 c0.5-0.2,1-0.5,1.4-0.8c0.1-0.6,0.1-1.2,0.1-1.8c0.2-0.1,0.4-0.3,0.5-0.5c0.5-0.2,0.9-0.2,1.3,0c0.3,0.3,0.6,0.4,1,0.3 c0,0.7,0.1,1.3,0.2,2v0.2c-0.2,0.1-0.4,0.2-0.7,0.2c0.1-0.4,0.1-0.8,0.2-1.2C274.5,309.4,274.1,309.7,273.7,310.1L273.7,310.1z  M265.5,310.6c-0.2-0.2-0.2-0.4-0.2-0.7c0.2,0,0.4,0,0.5,0.2c0.7,0.9,1.6,1.5,2.7,1.7c0.1,0.1,0.2,0.3,0.3,0.4 c-0.2,0.5-0.1,0.7,0.5,0.6c0.1,0.4,0.3,0.8,0.7,1.2c-0.1,0.2-0.2,0.3-0.2,0.5c0.4,0.2,0.8,0.4,1.2,0.5c-0.4,0.2-0.8,0.2-1.2,0.2 c-0.1,0.4,0.1,0.6,0.5,0.7c0.2,0,0.5,0.1,0.7,0.2c0.3,0.2,0.6,0.2,1,0.2v0.5c-0.7,0-1.4-0.2-2-0.5c-0.7-0.2-1-0.7-0.9-1.5 c-0.3-0.1-0.5-0.3-0.7-0.5C267.7,312.7,266.8,311.5,265.5,310.6L265.5,310.6z M230.6,263.6v0.2c-0.3,0.9-0.4,1.8-0.3,2.7v0.2 c-0.2,0.7-0.3,1.4-0.3,2.2v0.5c-0.2,0.8-0.3,1.6-0.3,2.5v0.2c-0.2,0.8-0.3,1.7-0.3,2.5v0.2c0.1,0.9-0.1,1.7-0.3,2.5 c-0.4,3.7-0.9,7.4-1.3,11.1v0.5c-0.3,0.7-0.4,1.5-0.3,2.3c-0.3,0.7-0.4,1.5-0.3,2.3v0.2c-0.3,1.4-0.5,2.9-0.5,4.4v0.5 c-0.4,2.1-0.6,4.2-0.8,6.4v0.5c-0.2,0.7-0.3,1.5-0.3,2.3v0.3c-0.3,1.1-0.4,2.3-0.5,3.5c0,0.5,0,1-0.2,1.5c0,0.6-0.1,1.1-0.3,1.5v0.7 c-0.2,1.1-0.5,2.2-0.7,3.4v0.2c-0.1,0.7-0.1,1.3-0.2,2h-0.2c-0.1,2-0.3,3.9-0.6,5.9c1,0.2,1.9,0.2,2.9,0.2 c5.2,0.3,10.3,0.2,15.5-0.3c4.5-0.3,9.1-0.4,13.6-0.3c0.2,0.1,0.3,0.2,0.5,0.3c0.1-1,0.3-1.9,0.5-2.9c-1.8-4.4-3.3-8.9-4.7-13.4 c0-0.4-0.1-0.7-0.3-1c-0.3-0.3-0.4-0.7-0.3-1.2c0-0.4-0.2-0.8-0.3-1.2c-0.3-0.3-0.4-0.7-0.3-1.2c-1-3.7-2-7.5-3-11.3 c0-0.5-0.2-1-0.4-1.5c-0.1,0.8-0.1,1.6,0.1,2.3v2.7c0.2,1.8,0.2,3.6,0.2,5.4h-0.7v-0.2c-0.1,0-0.2-0.1-0.3-0.2 c0-1.4-0.1-2.8-0.3-4.2c0.1-2.9,0-5.7-0.3-8.6v-0.3c0.1-1.5-0.1-2.9-0.7-4.2c-0.2-1.1-0.5-2.1-0.8-3c-1.1-4-2.4-7.9-3.7-11.8 c-0.1-0.8-0.3-1.5-0.7-2.2c0.1-0.3,0-0.6-0.2-0.8c-0.1,0-0.2-0.1-0.3-0.2c0,2-0.1,4-0.3,5.9v0.2c-0.2,7.8-0.3,15.7-0.3,23.5 c-0.1,1.2-0.2,2.5-0.2,3.7c-0.2,0-0.4,0-0.5,0.2h-0.5c0.4-9.7,0.6-19.4,0.5-29.1v-0.3c0.1-2.1,0.2-4.1,0.2-6.2h0.2 c0.1-1-0.1-1.9-0.5-2.7c0-0.4-0.1-0.7-0.3-1c-1.2-3.9-2.4-7.8-3.5-11.8c-0.2-0.8-0.4-1.6-0.7-2.3c0-0.4-0.1-0.8-0.3-1.2 c-0.3,0.4-0.4,0.9-0.3,1.5c0.1,0.5,0,0.9-0.2,1.3c-0.2,2.9-0.5,5.8-0.7,8.7C230.9,259.9,230.7,261.7,230.6,263.6L230.6,263.6z  M245,314.6c0.2-0.1,0.4-0.1,0.7-0.2c0.2,0,0.4,0,0.7,0c0,0,0,0,0,0c0,0,0,0,0,0c0,0,0,0,0,0v5.9c0,0.1-0.1,0.2-0.2,0.2h-1.3v-5.9 L245,314.6L245,314.6z M244.7,307.1h0.8c0.1,0.5,0.3,0.9,0.5,1.3c-0.3,0.4-0.6,0.7-0.8,1c-0.2,0.2-0.4,0.2-0.7,0.2 c0.1-0.6-0.1-0.9-0.7-0.8c-0.1-0.3,0-0.6,0.2-0.8C244.2,307.6,244.4,307.4,244.7,307.1z M237.8,314.8c-0.4,1.4-0.6,2.8-0.7,4.2h-1.3 v-1c0-0.8,0-1.6,0.2-2.3c0.3-0.8,0.4-1.6,0.3-2.5c0.4,0,0.9,0,1.3,0.1c0.2,0.3,0.2,0.7,0.2,1.1V314.8z M237.4,305.4 c0.1,0.3,0.3,0.5,0.4,0.8c0,0.2-0.1,0.4-0.3,0.4c-0.2,0.2-0.4,0.4-0.5,0.8c-0.2,0.1-0.4,0.1-0.7,0.1c0-0.4-0.2-0.8-0.5-1.1 c0.2-0.4,0.5-0.7,0.8-0.9C236.9,305.2,237.1,305.2,237.4,305.4L237.4,305.4z M237.7,182.6c-0.2,0.2-0.3,0.5-0.3,0.8 c-0.4,1.9-0.8,3.8-1.2,5.7c-0.1,1.1-0.2,2.1-0.2,3.2v1.7c0.1,0.4,0.2,0.8,0.3,1.2v0.2c0.1,0,0.2,0.1,0.3,0.2 c0.1,0.6,0.2,1.1,0.3,1.7c0.3,1,0.6,2.1,0.8,3.2c0.1,0.7,0.4,1.4,0.7,2c0.1,0.3,0.2,0.7,0.3,1c0.3,1,0.6,2,0.9,3 c0.1,0.1,0.1,0.2,0.3,0.2c0.3,0.8,0.6,1.6,0.8,2.3c-0.2,0-0.4,0-0.6-0.2c-0.2-0.5-0.5-1-0.8-1.5c-0.2-1.1-0.6-2.1-1-3 c-0.1,0-0.2-0.1-0.2-0.2c0.1-0.4-0.1-0.7-0.3-0.8v-0.2c0.1-0.4-0.1-0.7-0.3-0.8c-0.3-1.5-0.7-2.9-1.2-4.4c-0.3-0.3-0.4-0.6-0.3-1 c-0.2-0.8-0.4-1.6-0.4-2.5c0-0.3-0.2-0.4-0.4-0.5c-0.5,2.1-0.8,4.1-1,6.2c-0.4,1.5-0.8,3.1-1,4.7c-0.3,1.2-0.5,2.4-0.7,3.7 c-0.2,0.5-0.3,1-0.3,1.5c-0.2,0.3-0.3,0.7-0.3,1.2c1.6-0.3,3.1-0.4,4.7-0.3c0.9,0.1,1.8,0.2,2.7,0.2c1.5,0.3,3,0.6,4.5,0.7 c2.2,0.5,4.4,0.9,6.7,1.2c0.6,0.2,1.3,0.3,2,0.3c1.4,0.3,2.8,0.4,4.2,0.5c0.6,0.2,1.3,0.2,2,0.2c0.1-0.5-0.1-0.8-0.5-1 c-1.4-3.6-2.9-7.1-4.5-10.6c-0.2-0.7-0.5-1.4-0.8-2c-0.1-0.3-0.2-0.6-0.3-0.8c0-0.5-0.2-0.8-0.5-1.2c-1.8-4.2-3.5-8.5-5-12.9 c-0.1-0.1-0.2-0.2-0.3-0.2c0-0.4-0.1-0.7-0.3-1c-1.9-4.8-3.8-9.6-5.5-14.5c0-0.6-0.2-1.2-0.5-1.7c-0.4,1.2-0.6,2.4-0.5,3.7 c-0.7,2.7-1.2,5.5-1.7,8.2c-0.4,0.4-0.4,0.9,0,1.3c0,0.6,0.1,1.2,0.3,1.7c0.1,0.8,0.3,1.5,0.5,2.2v0.5c0.3,0.9,0.6,1.8,0.8,2.7 c0,0.3,0,0.7,0.1,1c0.1,0.1,0.1,0.2,0.3,0.2c0.3,1.1,0.5,2.1,0.8,3.2c0.4,0.8,0.7,1.7,0.8,2.7l0.3,0.3c0.1,1.2,0.5,2.3,1.2,3.4 c0.3,1.5,0.8,2.9,1.5,4.2c-0.1,0.4,0,0.8,0.3,1v0.2c0.3,0.3,0.5,0.6,0.5,1c0.1,0.4,0.3,0.8,0.5,1.2c0.3-0.2,0.6-0.5,0.7-0.8 c0.1-0.2,0.2-0.3,0.5-0.3v0.5c0.6,0,1-0.2,1.3-0.7c0.1-0.3,0.2-0.5,0.3-0.8c0.5-0.6,1.1-0.8,1.8-0.7c0.2,0.2,0.4,0.2,0.7,0.2v0.7 c-0.1,0.5-0.3,0.9-0.7,1.3c-0.4,0-0.4-0.2-0.2-0.6c-0.4-0.2-0.8-0.1-1,0.3c-0.2,0-0.3,0-0.4,0.2c-0.1,0.6-0.4,1.1-0.9,1.3v0.2 c-0.5,0.1-1-0.1-1.3-0.3H247c-0.3,0.1-0.4,0.2-0.3,0.5c-0.2,0-0.4,0-0.7-0.1c-0.3-0.4-0.6-0.8-0.8-1.3v-0.7c-0.1-0.4-0.3-0.7-0.5-1 c-0.2-1-0.5-1.9-1-2.7c-0.3-0.7-0.6-1.3-0.8-2c-0.3-1.4-0.7-2.7-1.3-3.9c-0.6-2.1-1.2-4.3-1.8-6.4c-0.3-0.3-0.4-0.6-0.3-1 c0-0.5-0.2-1-0.3-1.5c-0.1-0.2-0.2-0.4-0.3-0.5c0.1-0.3,0-0.6-0.2-0.8c0-0.5-0.1-0.9-0.3-1.3v-0.2C238.1,183.5,238,183,237.7,182.6 L237.7,182.6z M249.5,202.9c0.1-0.2,0.2-0.4,0.2-0.7c-1.1,0.1-1.7,0.7-1.8,1.8c-0.2,0.1-0.3,0.2-0.5,0.3c-0.6,0.3-1.2,0.2-1.7-0.3 c-0.1-0.4,0-0.7,0.2-1v-0.3c0.1-0.1,0.2-0.1,0.3-0.2c0.2,0.2,0.4,0.4,0.7,0.5c0.3-0.3,0.6-0.5,1-0.5c0-0.5,0.1-0.8,0.4-1.2 c0.1-0.2,0.3-0.3,0.6-0.3c0.6-0.2,1.2-0.1,1.8,0.2c0,0.5-0.1,1-0.3,1.5h-0.2c-0.1,0.1-0.3,0.2-0.4,0.3 C249.7,203,249.6,202.9,249.5,202.9z M241.5,202.6c0.2,0,0.4,0,0.7,0.1c0.3,0.4,0.6,0.8,1,1.1c0.1,0.3,0.4,0.4,0.7,0.3 c0,0.3,0.1,0.5,0.2,0.8c-0.1,0.2-0.2,0.3-0.3,0.4c0.6,0.1,0.6,0.3,0.2,0.6c0.2,0.2,0.5,0.3,0.8,0.3c0.1,0,0.1,0.1,0.2,0.2 c-1.3,0.2-1.3,0.4-0.2,0.8c0.6,0.1,0.6,0.3,0.1,0.5c-0.4-0.2-0.8-0.3-1.3-0.5c-0.4-1-0.7-2.1-0.9-3.2c-0.2-0.1-0.3-0.2-0.4-0.3 c-0.2-0.2-0.4-0.3-0.7-0.3L241.5,202.6L241.5,202.6z M227,184.9c0-0.2,0-0.3,0.2-0.3c0.3-0.2,0.6-0.5,0.7-0.8c0.1-0.4,0.3-0.8,0.7-1 c0.2-0.6,0.6-1.1,1-1.5c0.8-1.3,1.6-2.6,2.6-3.9c0.2-0.2,0.4-0.4,0.6-0.5c0.5-0.9,1.1-1.8,1.8-2.7c0.7-2.2,1.5-4.4,2.3-6.6 c1.1-2.2,1-2.2-0.3-0.2c-7.3,9.3-14.7,18.6-22.1,27.9c-4.3,5.8-8.7,11.6-13.2,17.3c-0.3,0.1-0.4,0.4-0.3,0.7h11.4 c3,0.1,5.9,0.1,8.9,0.3c0.6,0.2,1.1,0.6,1.6,1.1c2.1,4.3,4,8.6,5.6,13.1c0.1,0.6,0.2,1.1,0.6,1.5c0.3-1.5,0.5-3.1,0.4-4.7 c0.1-1.1,0.2-2.1,0.3-3.2c-1-1-1.8-2.2-2.3-3.5c-0.8-1.7-1.7-3.5-2.5-5.2c-0.4-0.8-0.7-1.7-0.9-2.6c2.4-7.4,4.6-14.9,6.7-22.4 c0.8-1.6,0.6-1.7-0.5-0.3c-0.1,0.2-0.1,0.4-0.2,0.7c0,0.3-0.2,0.5-0.5,0.7c-0.3,0.3-0.5,0.6-0.7,1c-1.5,2-2.9,4.1-4.2,6.2 c-0.6,0.7-1.1,1.4-1.5,2.2c-0.3,0.3-0.5,0.6-0.7,1c-0.1,0.3-0.3,0.3-0.5,0.3c-0.2-0.2-0.2-0.4,0-0.6c0.1-0.1,0.1-0.2,0.2-0.3 c0.1-0.4,0.4-0.7,0.7-1c0.2-0.5,0.4-0.9,0.8-1.2c0.1-0.1,0.1-0.2,0.2-0.3c0.3-0.2,0.6-0.5,0.7-0.8c0.8-1.3,1.6-2.6,2.5-3.9 c0.3-0.5,0.6-1,1-1.3c0-0.3,0.1-0.4,0.3-0.5c0.5-1.1,1.2-2.1,2-3c0.4-0.9,0.9-1.7,1.5-2.5c0.3-0.4,0.5-0.8,0.5-1.3 c0.3-1.6,0.8-3.2,1.3-4.7c0-0.2,0-0.4-0.1-0.7c-0.2,0.3-0.4,0.5-0.6,0.7l-1,1v0.3c-1,1.2-1.9,2.5-2.7,3.9c-0.5,0.4-0.8,0.9-1,1.5 c-0.1,0.4-0.3,0.7-0.7,0.8c-0.3,0.4-0.6,0.8-1,1.2c0,0.2,0,0.5-0.1,0.7c-0.4,0.8-1,1.4-1.6,2c-0.6,0.7-1.1,1.5-1.5,2.3 c-0.3,0.2-0.6,0.5-0.7,0.8c-0.2,0.1-0.3,0.2-0.3,0.5c-0.6,0.6-1.1,1.4-1.5,2.2c-0.3,0.2-0.6,0.5-0.7,0.8c-0.5,0.4-0.8,0.9-1,1.5 c-0.8,0.7-1,0.5-0.5-0.5c0.5-0.8,1.1-1.6,1.7-2.3c0.1-0.4,0.3-0.7,0.7-0.8c0.1-0.4,0.3-0.8,0.7-1c0-0.3,0.2-0.5,0.5-0.7 c0.5-1,1.1-1.9,1.8-2.7c0.2-0.5,0.4-0.9,0.8-1.2c0.3-0.8,0.8-1.4,1.3-2 M219.3,202.6c-0.3,0.1-0.4,0-0.5-0.3V202 c0.3-0.2,0.7-0.4,1-0.7c0.2,0.1,0.2,0.3,0.2,0.5C219.7,202.1,219.5,202.3,219.3,202.6L219.3,202.6z M216.8,200.2 c0,0.5-0.2,0.9-0.7,1.2h-0.2c-0.1,0.2-0.3,0.2-0.5,0.2C215.4,200.6,215.8,200.1,216.8,200.2L216.8,200.2z M215.8,206.9 c0.4-0.4,0.7-0.8,1.2-1.2c0.3,0.2,0.4,0.5,0.3,0.8c-0.2,0.1-0.4,0.2-0.5,0.3c-0.4,0.5-0.7,1.1-1,1.7c-0.2,0.3-0.4,0.4-0.8,0.5 c-0.1-0.1-0.3-0.1-0.4-0.2c0.2-0.2,0.3-0.4,0.3-0.7C215.1,207.8,215.4,207.3,215.8,206.9L215.8,206.9z M210.3,207.9 c0.5-0.7,1-1.3,1.6-1.8c0-0.2,0.1-0.3,0.3-0.3c0.1-0.3,0.3-0.6,0.5-0.8c0.3-0.2,0.6-0.2,0.8,0c-0.1,0.4-0.3,0.8-0.5,1.2 c-0.4,0.4-0.8,0.8-1,1.3c-0.4,0.3-0.7,0.6-1,0.9c-0.2,0.1-0.4,0.1-0.7,0.1C210.2,208.3,210.2,208.2,210.3,207.9L210.3,207.9z  M251.4,140.9c0.3-0.2,0.5-0.4,0.8-0.6c1.9-0.4,3.7-0.9,5.5-1.4c0.3-0.2,0.7-0.3,1.2-0.3c0.6-0.1,1.1-0.2,1.7-0.3 c0.9-0.1,1.8-0.3,2.7-0.8c0.7,0,1.3-0.1,1.8-0.3c0.5,0.1,1,0,1.5-0.2h0.3c0.8,0,1.6-0.1,2.3-0.3h0.3c1.1-0.2,2.3-0.3,3.5-0.3h1 c0.2-0.1,0.5-0.2,0.8-0.3c-0.9,0-1.8-0.1-2.7-0.1c-4.8,0.1-9.6,0.2-14.5,0.2v-0.5c4.1,0,8.2,0,12.3-0.1c0.2-0.1,0.3-0.1,0.3-0.3 h-1.7c-0.7-0.2-1.5-0.2-2.3-0.2c-1.5-0.2-3-0.3-4.5-0.3c-1.7-0.2-3.5-0.2-5.2-0.2c-4.8-0.2-9.7-0.2-14.6,0c0.2,0.2,0.4,0.3,0.7,0.3 C245.8,136.8,248.6,138.7,251.4,140.9L251.4,140.9z M252.2,138c-0.5,0-1-0.1-1.3-0.3c0.9-0.1,1.8,0,2.7,0.2 C253.1,137.9,252.7,138,252.2,138z M251.2,136.4h-3.9v-0.5h3.9V136.4z M255.4,136h-1.2v-0.5h1.2V136z M256.8,138 c-0.1-0.1-0.1-0.2-0.2-0.3c0.4-0.2,0.9-0.2,1.3,0c-0.1,0.1-0.1,0.2-0.2,0.3H256.8z M273.4,137.7c-1,0.2-2.1,0.3-3.2,0.3 c-5,0.6-9.9,1.4-14.8,2.4c-0.1,0.1-0.2,0.2-0.2,0.3c-0.9,0.1-1.7,0.4-2.5,0.7h-0.3c-0.2,0.6-0.2,1.2-0.2,1.8 c-0.1,2.1-0.1,4.1-0.2,6.2v1.5c-0.2,0.7-0.2,1.4-0.1,2.2c0.2-0.8,0.4-1.6,0.4-2.3c0.2-1.1,0.3-2.3,0.5-3.4c0-0.3-0.1-0.6-0.3-0.8 c0-0.4,0.2-0.8,0.5-1c1.1-0.5,2.2-1,3.4-1.5c0.6-0.3,1.2-0.5,1.8-0.7c0.4-0.2,0.8-0.4,1.2-0.6c4.8-1.6,9.7-3,14.6-4.1 c0.6-0.3,1.3-0.5,2-0.5c0.4-0.3,0.8-0.4,1.3-0.3c0.1-0.1,0.2-0.1,0.3-0.2c0.4-0.1,0.8-0.2,1.2-0.3c-0.2-0.1-0.4-0.1-0.6-0.2 c-1.2,0.1-2.3,0.2-3.5,0.3C274.4,137.7,273.9,137.8,273.4,137.7z M273.7,142.4v0.2c-0.6,0.3-1.1,0.8-1.5,1.3 c-0.3,0.2-0.5,0.4-0.7,0.7c-0.6,0.4-1.3,0.9-1.8,1.4c-0.1,0.1-0.2,0.3-0.2,0.4c-0.2,0-0.3,0.1-0.3,0.3c-0.8,0.5-1.4,1.1-2,1.8 c0.2,0.3,0.4,0.7,0.5,1.1c0.4,0,0.8,0.1,1.2,0.3h0.3v1.2c-0.2,0-0.4,0-0.5,0.2h-0.5v-0.8h-1.3c-0.1,0-0.2-0.1-0.2-0.2 c-0.2-0.2-0.5-0.4-0.8-0.3c-0.4,0.2-0.5,0.4-0.5,0.8h0.5c0,0.2,0,0.4,0.2,0.6c0.6,0.1,1.1,0.1,1.7,0.1v1c0,0.1-0.1,0.2-0.2,0.2 c-0.3,0.3-0.7,0.4-1.2,0.3c0-0.3,0.1-0.6,0.2-0.8c-0.4-0.1-0.9-0.2-1.3-0.3c-0.1-0.2-0.2-0.5-0.3-0.8c-0.1-0.1-0.3-0.2-0.4-0.2 c0-0.4,0.2-0.7,0.5-1c-0.1-0.3-0.3-0.4-0.7-0.3c0-0.3,0.1-0.5,0.3-0.7v-0.2c0.6-0.6,1.1-1.2,1.5-1.8c0.1-0.2,0.3-0.2,0.5-0.2 c0,0.4-0.1,0.7-0.3,1.1c0,0.2,0.1,0.3,0.2,0.4c1.9-1.9,3.8-3.7,5.9-5.4c0.6-0.7,1.2-1.3,2-1.8c0.4-0.4,0.9-0.8,1.3-1.2 c0.2-0.2,0.5-0.4,0.8-0.5c0.1-0.1,0.1-0.3-0.1-0.3c-0.9,0.3-1.8,0.6-2.7,0.8c-0.3,0-0.6,0-0.8,0.1c-1.3,0.8-2.5,1.6-3.7,2.4 c-0.8,0.7-1.6,1.4-2.3,2.2c-0.8,0.6-1.6,1.2-2.2,2c-0.7,0.4-1.4,1-1.8,1.8c-0.2,0.1-0.4,0.1-0.7,0.1c0-0.2,0-0.3,0.1-0.5 c1.2-1.3,2.4-2.4,3.8-3.5c0.6-0.8,1.3-1.4,2.2-1.8c0.2-0.3,0.5-0.6,0.8-0.7c0.1-0.2,0.2-0.3,0.3-0.5c0.3,0,0.5-0.2,0.7-0.4 c-0.8,0-1.5,0.1-2.2,0.4c-4.6,1.3-9.1,2.8-13.6,4.3c-0.2,0.1-0.3,0.2-0.3,0.4c2.4,1.9,4.7,3.9,7,6.1c1.5,1.6,3,3.2,4.4,4.9 c0.8,1.1,1.6,2.2,2.3,3.4c0.1,0.2,0.3,0.2,0.5,0.2c0.1-0.7,0.3-1.3,0.6-1.8c3.5-7.5,8-14.4,13.4-20.7c0.3-0.2,0.6-0.5,0.9-0.8 c0.1-0.1,0.1-0.3-0.1-0.3c-0.3,0.5-0.7,0.8-1.2,1c-1.1,0.2-2.1,0.4-3.2,0.8C277,140.1,275.4,141.3,273.7,142.4L273.7,142.4z"></path></svg>