<svg id="Layer_1" xmlns="http://www.w3.org/2000/svg" xmlns:xlink="http://www.w3.org/1999/xlink" x="0px" y="0px" viewBox="0 0 600 600" xml:space="preserve" width="100%" height="100%"><style type="text/css">
	.st0{fill:#FFFFFF;}
</style><path class="st0" d="M272.2,356.9c3.3-3,7.2-4.5,11.4-6c-9.4-12.5-26.9-19.3-29.3-36.4c-1.8-12.2-0.8-25.1,5.6-35.8 c1.7-4.5,8.1-8.2,7.2-13.1c-19.7-47.7-36.9-96.6-48-147.1c13.2-0.7,26.3-1.8,39.4-1.7c7.7,32.2,17.7,63.6,30.5,94.1 c4.3,10.3,8.8,20.5,13.4,30.7c2.5,4.2-0.8,8.1-1.3,12.4c2.8,0.1,2.9,0,3.5-2c3.1-10.3,6-20.6,9.3-30.9 c9.8-34.5,26.1-66.7,37.8-100.5c1.3-5-2.5-8.3-7.9-7.8c-31.4-0.4-62.8,1.2-94.1,2.1c-19.3,1-38.6,1.8-57.8,3.8 c-11.8,0.7-15.6,13.5-18.7,22.9c-6.1,15.5-11.2,31.3-16,47.2c-0.8,3.7-3.9,8.1-1.2,11.6c6.9-21.4,13.4-43,21.4-64.1 c2.3-6.9,6.3-15.2,14.7-14.8c-11.9,36.5-28,72.3-34.5,110.4c-1.1,13.3-7.2,25.2-11.4,37.7c-3.2,18-10,35.9-11.1,54.1 c3.5,21.9-3.2,17.2,10.3,38.8c18.1,32.7,36.7,65,54.8,97.7c-10.2,0.4-21.1,0.3-31.3-0.6c-15.7-24.1-29-49.9-43.1-75 c-8.2,7.2-5.6,19.2-8.1,29c-2.5,15.2-4.4,30.5-7.4,45.6c-10.2,0.5-6-12.2-5.2-18.3c2.2-13.5,4.8-26.8,6.8-40.2 c-4.5,0.9-4.4,22.3-6.1,27.4c0.2,10.3-11.9,35.6,6.4,34.2c44.3-1.3,89.2-1.4,133.3,3c24,4.2,22.2-11.6,24.4-29.5 c0.7-3.5-0.2-5.6-3.2-7.5C244.4,407,249.3,375.4,272.2,356.9z M306.4,116.1c5.7,19.9,11.8,39.4,19.2,58.7 c-0.2,9.6-6.2,19.3-8.9,28.7c-3.8-4.5-25-72.7-27.3-87.8L306.4,116.1z M13.8,501.1c21.6,37.4,116.9,68.3,126.5,6.5 c35.2-0.6,70.5,1.9,105.7,4.1c41.9,5.3,56.3-6.2,65.8-47c16-6.2,38.5-21.4,46.2-37.2c11.8-24-0.2-48.6-25.9-55.3 c-13.9-6.6-25.7-20.1-42.6-17.3c-22.1,2.8-39.4,32.9-30.2,53.6c5.7,18,21.9,26.9,39.9,28.4c10.7,1.6,21.4-3.7,31.9-1.7 c-6.4,3.2-12.8,4-19.2,4.6c-4,24.9-4.6,61.3-34.1,69.4c-27.3,1.9-54.8-2.1-82.2-2.4c-23.1-1.3-46.3,0-69.4-2.2 c-14.9-0.3-24.7-14.3-30.9-26.3c5.9,7.3,14.6,11.7,24,10.9c13.4,0,26.9,0.1,40.3,0.3c19,0.6,38,2.3,57,2.8 c27.5,0.3,72.6,13.3,77.3-26.1c-0.1-3.2,5-27.4,1.1-25.5c-2.6,19.7-3.5,50.7-30,51c-31.6,0-63-2.8-94.6-3.7 c-18.1-0.9-36.3,0.1-54.4-0.9c-4-0.2-7.8-1.4-11.1-3.6c-26.4-14.5-13.1-49-10.9-72.9c-4.7,2.6-9.3,4.4-14.4,4.2 c6.8-6.1,15.6-10.1,23.4-15c24.9-18.7,35.5-56,23.8-85c-1.5-7.6-14.9-13.8-7.9-19.9c22.1-21.7,37.1-53.8,33-85.1 c-4.1-22.4-18.4-40.3-43.1-34.7c-9.9,1.8-18.2,7.8-22,17.2c-6.7,14.2-12,28.9-17.3,43.7C60.2,266.7,34.7,289,26.1,320 c-10.6,36.5-16.3,85.7,17.7,111.7l-0.3,0.4C30.3,427,30,422.3,18.6,434C0.8,451.4-0.5,481.1,13.8,501.1z M28.2,461.7 c27,0.2,68.6,27.1,81.8,50.6c-22.4-16-43.5-34.8-70.3-42.9c1.8,6.5,4.6,12.3,6.6,18.4l-0.5,0.3c-5.4-5-8.9-11.9-10.3-19.1 c0-0.8-0.7-1.6-1.5-1.7c-2.4-1.2-7-0.5-7.9-3.3C26.1,462.5,27.2,462.1,28.2,461.7z M407.7,125.6c-0.8,2.2-1.7,4.4-2.5,6.5l8.5,7.8 c1.5-2.8,1.7-5.7,3.8-8.2c0.5,6.1-2.2,12.1,1.4,17.3c6-14.3,10.5-29.2,16.9-43.3c2.8-2.5,3,3,3,4.7c1.2,18.6-6.5,35.1-13.1,52.1 c-2-0.5-2.5-3.1-4.7-3.1c2,12.6-1.1,24.1-6,35.9c-4.1,8.8-3.6,31.7,9.5,16.6c7.2,5.4-4.4,19.4,5.9,22.6c14.7,0.3,3-22.9,12.8-29.6 c8.7-7.5,15,6.6,11.6,13.8c-1,2.8-1.6,6.1,0.1,8.7c4.7,7.2,13.1,1,13.8-5.8c0.3-1.8,0.5-4.6,2.2-5.5c8.5,5.4,3.4,18.3,3.8,26.7 c-1.4,17.1,17.4,26.9,23.7,7.6c4.8-13.4-3.1-26.8-0.4-40.4c3.5-18.3,9.9-36.1,15.3-53.9c3.9,6.3,0.8,14.2,1.5,21.1 c0.3,3.3,2.5,4.4,5.6,3.3c8.3-4.3,10.9-15.8,9.6-24.5c-10.2-41.9,1.9-59.8,12.1-99c-7.6-0.1-15.2,0.8-22.8,1.1 c-2.8,0.1-2.8,0.1-3.5,2.8c-3.6,12.3-7.1,24.5-10.8,36.8l-0.6-0.1c-1.2-12.8,2.2-26,0.8-38.6c-7.9-0.1-15.6,0.8-23.5,1.1 c-2.5,0.1-2.5,0.1-3.2,2.6c-6.8,24.3-13.2,48.8-21.5,72.6c-2.7,3.6-24.3,81.9-26.7,62.2c16.1-45.3,32.6-90.4,44.5-137 c-0.7,0.1-12.9,0.2-13,1c-6.5,17.8-11.5,36.4-18.2,54.2c0.3-18,2.7-35.7,4.8-53.4c-3.3-0.5-3.5-0.5-4.3,2.2 c-7.7,24.2-14.5,48.6-24,72.1c-1.3-12.6,4.1-25.4,8.1-37.3c3.4-12.2,7.7-24.3,10.4-36.8c-8.1,1.2-11.3-2.3-12.9,7.5 C421.1,89.1,414.7,107.4,407.7,125.6z M519.2,162.7c4.3-7.2,3.9-15,2.6-22.9c0.3,0,0.6,0,0.6,0c3.2,9.1,7.3,18.5,4.9,28.3 c-1,3.2-2,7.5-6.2,6.7c-0.8,1.2-0.5,3.3-3,3.7C516.3,173.3,517.2,167.6,519.2,162.7z M466.1,198.3c6-27.3,16.9-53.4,24.1-80.4 l0.4,0.1c-3.6,15.9,8.6,13,4.8-0.8c-4.7-16,7.6-33.7,6.7-8.7C499.1,113.8,473.5,234.1,466.1,198.3z M457.6,219.7 c0.5-3.6,2.4-7.3,1.7-11c-0.2-0.9-0.3-1.8,0.6-2.2c3.7-0.8,6.5,3.7,10.3,2.3c3.8-1.1,5.8,1.5,5.8,5.1c-11.7-6.6-6.4,10.2-14.5,13.6 C456.7,229.8,456.1,223,457.6,219.7L457.6,219.7z M431.9,206.3c7.2,3.1,4.9,18.7-3.1,19.8c0.9-6.6,2.5-23.4-8.4-14.3 c-4.5,2.6-5.8-4.7-3.9-7.5c2.4,1.8,5.7,5.1,8.2,1.6C426.6,202.7,429.2,206.2,431.9,206.3z M148.3,184.6 C186.1,68.9,168.1,96.8,304,92.1c14.6-0.5,29.1-0.3,43.7-0.5c11.9-0.9,29.4-1.5,31.7,13.6c1.7,14.8-9,27.7-13.8,41.2 c-6.8,15-12.9,30.3-18.5,45.7c-7.7,21.6-14.6,43.4-20.8,65.5c-0.6,1.9-0.5,2,1.7,2.2c3.2-10.5,6.2-21,9.3-31.7 c2.6,0.2,13,4.8,11.4,8.1c-2.7,9.6-6.7,18.8-10.3,28.1c-1,2.6-1.2,2.2,0.8,4c6.9,5.9,10.2,14.2,13.5,22.4c2.3,5.2,4.7,10.5,7.1,15.8 c0.2,0.8,0.9,1.4,1.8,1.5c14.7-1.8,28.7-8.3,40.6-17.1c19.3-13.2,26.3-43.6,12.8-63.1c-13.8-16.2-36.8-18.7-56.4-13.9 c-4.5,2-5.8,13.6-8.6,18.1l-11.3-7.3c6-19.4,12.4-38.7,20.2-57.5c4.5-11.5,9.6-22.7,15.3-33.6c6.7-11,12.2-24.4,4.7-36.5 c11.8,4.8,15.8,18.2,13,29.9l8.3,2.7c8.1-21.6,15.6-43.2,21.1-65.7c-4.4-0.2-32.8,2.2-37.8,2.4c-2.7,0.2-2.7,0.2-3.4,2.7 c-2.4,7.4-4.3,15-6.9,22.4l-7.4-2.4c1.8-7.4,4.6-14.4,6.3-21.6h-7.8c-2,0-2.1,0-2.6,2c-1.8,6.3-3.5,12.6-5.3,18.9l-5.4,0.6 c1.6-7.2,4.4-13.8,6-20.9c-4.9-0.4-6.6-0.7-7.7,4.4c-1.5,5.5-3.2,10.9-4.8,16.5h-5.7c1.9-6.8,3.7-13.4,5.6-20.4 c-22.1,0.8-13.5-1.8-21.9,20.9c-34.8,1.1-69.6-0.1-104.3,1.1c-15-0.8-31.2,1.2-41.5,13.3c-12.2,14.5-13.6,35.2-20.8,52.4 c0,0-8.3,25.6-8.3,25.6C147.3,182.8,146.9,183.7,148.3,184.6z M295.2,350c13.5-0.3,23.7,9.4,34.7,15.6c6.4,3.3,13,6.1,19.6,9.1 c11.3-21.1,18.7-47.4,4.6-69.1c-7.1-15.8-11.4-34.5-28.7-42.3c-33.7-17.9-73.8,10.7-66.8,48.6c2.2,18.3,20.4,24.9,32.1,36.2 C291.8,349.4,293.5,350.1,295.2,350z M415.1,179c6.4-20.1-2.1-43.3-24.7-47.8c-11.9,25.8-22.9,51.2-31.9,78.3 c10.5-3.5,21.5-0.6,31.9-2.8C401.2,200.8,410.5,190.4,415.1,179z M573.7,210.5c27.8,124.2-131.8,203.4-227.9,235.7 c17.6-4.4,34.9-10.1,51.7-17.1c4.4,12.3,9.2,24.2,15.9,35.2c-4.5-12-9.9-23.7-14-35.9c68.8-31.1,142.9-73.6,172.3-147 c8.3,1.6,16,4.9,24.2,7.1l0.1-0.5c-7.7-3.3-15.3-6.7-23.8-8.3c10.1-27.7,10.6-55.1-1-82.5l7.6-2.5c-0.1-0.2-0.1-0.5-0.2-0.7 l-8.2,1.3c-2.5-5.7-5.4-11.2-8.6-16.5l-1.4,1.2C565.9,189.6,570.6,199.8,573.7,210.5z M318,69.7c-3.3-0.3-4.7-0.7-5.3,3.1 c-1.3,5.6-2.7,11.1-4,16.7h3.8C314.3,83,316.1,76.5,318,69.7z M511,367.3c-1-0.7-2.9-2.9-3.9-1.2c1,1.6,31.6,26.4,35.2,28 C532,385,521.4,376.3,511,367.3z M404.2,205.3c-0.6,5.4-0.9,9.7,4.9,12c-0.4-5.4-0.8-10.7-1.3-16.2 C406.3,202.4,404.3,202.9,404.2,205.3z M131.6,289.2c-0.3,5.8-5.1,13-2,18.3c1.8-7.6,3.4-14.8,5.1-22.1l-0.6-0.2 C132.8,286.3,132,287.6,131.6,289.2z M398.5,211.7c0.2-1.5,0.4-2.6,0.6-3.8C396.6,209.1,396.5,209.6,398.5,211.7z"></path></svg>