<svg xmlns="http://www.w3.org/2000/svg" fill="white" viewBox="0 0 32 32"><symbol id="nav_office" viewBox="0 0 32 32"><g fill-rule="evenodd"><use xlink:href="#a" xmlns:xlink="http://www.w3.org/1999/xlink"/><path d="M3 5v17a2 2 0 0 0 2 2h7v-4.5H6.75a.75.75 0 1 1 0-1.5H12v-1.502H6.749a.749.749 0 1 1 0-1.498H12v-1.45H6.775A.775.775 0 0 1 6 12.775c0-.43.345-.78.775-.788L12 11.9v-1.356H6.772a.772.772 0 1 1 0-1.544H12a2 2 0 0 1 2-2h5V5a2 2 0 0 0-2-2H5a2 2 0 0 0-2 2Z" mask="url(#b)"/><path stroke="#979797" d="M18.75 25.5h6.5a.75.75 0 1 0 0-1.5h-6.5a.75.75 0 1 0 0 1.5zm0-3h6.5a.75.75 0 1 0 0-1.5h-6.5a.75.75 0 1 0 0 1.5zm0-3h6.5a.75.75 0 1 0 0-1.5h-6.5a.75.75 0 1 0 0 1.5zm.25-9.14c1.636 0 2.746 1.004 2.746 2.703H19V10.36z" mask="url(#b)"/><path stroke="#979797" d="M18.044 14.002H20.5c0 1.563-.982 2.498-2.498 2.498-1.517 0-2.502-.98-2.502-2.542 0-1.558.997-2.458 2.507-2.458l.037 2.502ZM24 13V9l4 4z" mask="url(#b)"/><path d="M25.1 8H15a2 2 0 0 0-2 2v17a2 2 0 0 0 2 2h12a2 2 0 0 0 2-2V11.9L25.1 8Z" mask="url(#b)"/></g></symbol><use xlink:href="#nav_office" xmlns:xlink="http://www.w3.org/1999/xlink"/></svg>