<svg fill="none" height="32" viewBox="0 0 32 32" width="32" xmlns="http://www.w3.org/2000/svg" xmlns:xlink="http://www.w3.org/1999/xlink" class="transform cursor-pointer transition-all" style="width: 40px; height: 40px;"><linearGradient id="a" gradientUnits="userSpaceOnUse" x1="9.52164" x2="50.7795" y1="-72.0927" y2="-69.6029"><stop offset="0" stop-color="#ecc879"></stop><stop offset="1" stop-color="#d46b32"></stop></linearGradient><path clip-rule="evenodd" d="m15.0124 5.15289c-.7612.06946-1.5169.21923-2.254.44929l1.3422.29432c.3833.08403.7666-.14132.8795-.51708.0229-.07628.0332-.1524.0323-.22653zm-7.4449 3.95742c.98638-1.20812 2.22725-2.19814 3.6451-2.89251l3.248.60474c.3086.05747.5783.24338.7418.51139l.108.1771c.1827.29952.1539.68224-.0717.951-.2628.31317-.2538.77237.0212 1.07497l.3848.42353c.2454.27017.6053.40677.9682.36757l.3598-.0389c.31-.0334.5573-.2737.5998-.58253l.0526-.38187c.0563-.40924.5607-.57211.8457-.27313.0785.08232.183.13499.2959.14909l.4998.06242c.3543.04426.649.29382.7511.63606.0908.30456.0142.63446-.2014.86786l-3.1627 3.4248c-.0869.094-.1308.2199-.1213.3476l.0046.0631c.0322.4345-.5168.6491-.7878.3079-.0839-.1057-.2115-.1673-.3465-.1673h-.6835c-.4768 0-.8633.3865-.8633.8632 0 .3802.2486.7155.6123.826l.4978.1513c.2877.0874.5442.2559.7387.4853l.2007.2366c.4706.555 1.1508.8892 1.8777.9225l.1819.0083c.7204.033 1.3954.3614 1.866.9079l.2239.26c.1675.1945.3852.3391.6293.418.5771.1865.968.7237.968 1.3301v.2617c0 .4424-.1669.8686-.4673 1.1934l-3.4912 3.7737c-.1117.1207-.1993.2596-.26.4094-.5404.0716-1.0848.1025-1.6287.0927v-1.7599c0-.7667-.2492-1.5127-.7099-2.1255-.4382-.5828-.6855-1.2867-.7082-2.0155l-.0342-1.0965c-.0095-.3062.0959-.6048.2956-.8371l.0506-.0589c.3508-.4082.3653-1.0072.0347-1.432-.1736-.223-.4245-.373-.7032-.4203l-.5473-.0929c-.5866-.0997-1.1202-.4005-1.5091-.851l-1.5151-1.7549c-.58652-.6794-.9596-1.5168-1.07249-2.4072l-.11235-.8863c-.07248-.5717-.35833-1.0949-.80027-1.4648l-.30802-.25778c-.17743-.1485-.38193-.25357-.59807-.31241zm13.713-2.63762c1.3327.73857 2.4908 1.74618 3.4038 2.95231-.6096.56216-1.5768.49582-2.1017-.16039-.2154-.26914-.3271-.60652-.315-.95098l.0009-.02604c.0136-.3899-.124-.76998-.384-1.06078l-.3952-.44187c-.0848-.09482-.1548-.20008-.2088-.31225zm-4.3879-1.3284c.3621.0297.7231.07755 1.0815.14354.0042.00567.0084.01141.0125.01722l1.3057 1.85161c.2151.3051.0038.72692-.3694.7373-.1143.00318-.2259-.03566-.3136-.10916l-1.7362-1.45562c-.3595-.3014-.3643-.8528-.0101-1.16043.0097-.00845.0196-.0166.0296-.02446z" fill="url(#a)" fill-rule="evenodd"></path><circle cx="16" cy="16" r="12" stroke="url(#a)" stroke-width="1.5"></circle></svg>